<?xml version="1.0" encoding="UTF-8" standalone="no"?>
<svg
   width="526.39996pt"
   height="324.81873pt"
   version="1.1"
   viewBox="0 0 526.39996 324.81873"
   id="svg1845"
   xmlns="http://www.w3.org/2000/svg"
   xmlns:svg="http://www.w3.org/2000/svg">
  <defs
     id="defs1773" />
  <path
     d="m 440.6478,0.0241 c -4.457,0.23047 -8.6367,2.2227 -11.625,5.5352 -2.9883,3.3164 -4.5352,7.6836 -4.3008,12.137 0.23047,4.457 2.2227,8.6406 5.5391,11.625 3.3164,2.9883 7.6797,4.5352 12.137,4.3008 h 32.199 l -84.875,113.05 c -3.5938,4.8125 -4.3477,11.18 -1.9766,16.699 2.3711,5.5234 7.5078,9.3594 13.477,10.062 5.9648,0.70703 11.855,-1.8242 15.453,-6.6367 l 76.125,-101.5 v 18.727 c -0.0664,4.4961 1.6758,8.8281 4.8359,12.031 3.1562,3.2031 7.4648,5.0078 11.961,5.0078 4.5,0 8.8086,-1.8047 11.965,-5.0078 3.1602,-3.2031 4.8984,-7.5352 4.8359,-12.031 v -67.203 c 0,-4.4531 -1.7695,-8.7266 -4.9219,-11.879 -3.1484,-3.1484 -7.4219,-4.918 -11.879,-4.918 h -67.199 c -0.58203,-0.0312 -1.168,-0.0312 -1.75,0 z m -233.45,78.398 c -27.637,0 -50.398,22.766 -50.398,50.398 0,7.0508 1.5352,13.832 4.1992,19.953 l -87.324,81.023 c -6.9727,-3.668 -14.918,-5.7734 -23.277,-5.7734 -27.637,0 -50.398,22.762 -50.398,50.398 0,27.636 22.762,50.398 50.398,50.398 27.636,0 50.402,-22.762 50.402,-50.398 0,-7.1055 -1.4961,-13.793 -4.2031,-19.949 l 87.328,-81.027 c 6.9727,3.6758 14.91,5.7773 23.273,5.7773 11.121,0 21.547,-3.5938 29.926,-9.8008 l 61.426,41.824 c -1.1016,4.1172 -1.75,8.3359 -1.75,12.777 0,27.633 22.762,50.398 50.398,50.398 27.636,0 50.398,-22.766 50.398,-50.398 0,-27.637 -22.762,-50.402 -50.398,-50.402 -10.984,0 -21.254,3.7305 -29.574,9.8008 l -61.777,-42 c 1.0469,-4.0195 1.75,-8.2734 1.75,-12.602 0,-27.633 -22.762,-50.398 -50.398,-50.398 z m 0,33.602 c 9.4766,0 16.801,7.3203 16.801,16.797 0,3.5547 -1.0156,6.9492 -2.8008,9.625 v 0.17578 c -2.9883,4.3984 -8.125,7 -14,7 -9.4766,0 -16.801,-7.3203 -16.801,-16.801 0,-9.4766 7.3242,-16.797 16.801,-16.797 z m 140,95.199 c 9.4766,0 16.801,7.3203 16.801,16.801 0,9.4766 -7.3242,16.797 -16.801,16.797 -9.4768,0 -16.801,-7.3203 -16.801,-16.797 0,-9.4805 7.3242,-16.801 16.801,-16.801 z m -296.8,50.398 c 9.4766,0 16.801,7.3242 16.801,16.801 0,9.4768 -7.3242,16.801 -16.801,16.801 -9.4766,0 -16.801,-7.3242 -16.801,-16.801 0,-9.4768 7.3242,-16.801 16.801,-16.801 z"
     id="path1775" />
</svg>
