<?xml version="1.0" encoding="UTF-8" standalone="no"?>
<svg
   width="392.00003pt"
   height="504pt"
   version="1.1"
   viewBox="0 0 392.00003 504"
   id="svg2526"
   xmlns="http://www.w3.org/2000/svg"
   xmlns:svg="http://www.w3.org/2000/svg">
  <defs
     id="defs2428" />
  <path
     d="m 127.5,144.1 c -5.4727,-5.4727 -14.332,-5.4727 -19.797,0 L 89.601,162.205 71.503,144.107 c -5.4727,-5.4727 -14.332,-5.4727 -19.797,0 -5.4648,5.4727 -5.4727,14.332 0,19.797 L 69.804,182.002 51.706,200.1 c -5.4727,5.4727 -5.4727,14.332 0,19.797 2.7305,2.7383 6.3086,4.1055 9.8945,4.1055 3.5859,0 7.1641,-1.3672 9.9023,-4.0977 l 18.098,-18.105 18.098,18.098 c 2.7383,2.7383 6.3164,4.1055 9.9023,4.1055 3.5859,0 7.1641,-1.3672 9.9023,-4.0977 5.4727,-5.4727 5.4727,-14.332 0,-19.797 l -18.109,-18.105 18.098,-18.098 c 5.4727,-5.4727 5.4727,-14.332 0.008,-19.805 z"
     id="path2430" />
  <path
     d="M 378,42 H 319.555 C 313.7698,25.715 298.246,14 280,14 H 255.152 C 247.2692,5.2148 235.945,0 224.004,0 h -56 C 156.066,0 144.742,5.2148 136.852,14 H 112 C 93.754,14 78.238,25.715 72.445,42 H 14 C 6.2656,42 0,48.2656 0,56 v 434 c 0,7.7344 6.2656,14 14,14 h 364 c 7.7344,0 14,-6.2656 14,-14 V 56 c 0,-7.7344 -6.2656,-14 -14,-14 z m -266,0 h 31.887 c 4.9844,0 9.5938,-2.6562 12.102,-6.957 C 158.5554,30.6328 163.0437,28 168.005,28 h 56 c 4.9609,0 9.4531,2.6328 12.02,7.043 2.5078,4.3047 7.1172,6.957 12.102,6.957 h 31.875 c 7.7227,0 14,6.2773 14,14 0,7.7227 -6.2773,14 -14,14 h -168 c -7.7227,0 -14,-6.2773 -14,-14 0,-7.7227 6.2773,-14 14,-14 z M 364,476 H 28 V 70 h 44.453 c 5.7852,16.285 21.309,28 39.555,28 h 168 c 18.246,0 33.762,-11.715 39.555,-28 h 44.438 z"
     id="path2432" />
  <path
     d="m 154,154 c 0,7.7344 6.2656,14 14,14 h 154 c 7.7344,0 14,-6.2656 14,-14 0,-7.7344 -6.2656,-14 -14,-14 H 168 c -7.7344,0 -14,6.2656 -14,14 z"
     id="path2434" />
  <path
     d="M 322,196 H 168 c -7.7344,0 -14,6.2656 -14,14 0,7.7344 6.2656,14 14,14 h 154 c 7.7344,0 14,-6.2656 14,-14 0,-7.7344 -6.2656,-14 -14,-14 z"
     id="path2436" />
  <path
     d="M 322,252 H 168 c -7.7344,0 -14,6.2656 -14,14 0,7.7344 6.2656,14 14,14 h 154 c 7.7344,0 14,-6.2656 14,-14 0,-7.7344 -6.2656,-14 -14,-14 z"
     id="path2438" />
  <path
     d="M 322,308 H 168 c -7.7344,0 -14,6.2656 -14,14 0,7.7344 6.2656,14 14,14 h 154 c 7.7344,0 14,-6.2656 14,-14 0,-7.7344 -6.2656,-14 -14,-14 z"
     id="path2440" />
  <path
     d="M 322,364 H 168 c -7.7344,0 -14,6.2656 -14,14 0,7.7344 6.2656,14 14,14 h 154 c 7.7344,0 14,-6.2656 14,-14 0,-7.7344 -6.2656,-14 -14,-14 z"
     id="path2442" />
  <path
     d="m 266,420 h -98 c -7.7344,0 -14,6.2656 -14,14 0,7.7344 6.2656,14 14,14 h 98 c 7.7344,0 14,-6.2656 14,-14 0,-7.7344 -6.2656,-14 -14,-14 z"
     id="path2444" />
</svg>
