<?xml version="1.0" encoding="UTF-8" standalone="no"?>
<svg
   width="459.95874pt"
   height="535.75269pt"
   version="1.1"
   viewBox="0 0 459.95874 535.75269"
   id="svg615"
   sodipodi:docname="noun-interactive-2504318.svg"
   xmlns:inkscape="http://www.inkscape.org/namespaces/inkscape"
   xmlns:sodipodi="http://sodipodi.sourceforge.net/DTD/sodipodi-0.dtd"
   xmlns="http://www.w3.org/2000/svg"
   xmlns:svg="http://www.w3.org/2000/svg">
  <sodipodi:namedview
     id="namedview617"
     pagecolor="#ffffff"
     bordercolor="#000000"
     borderopacity="0.25"
     inkscape:showpageshadow="2"
     inkscape:pageopacity="0.0"
     inkscape:pagecheckerboard="0"
     inkscape:deskcolor="#d1d1d1"
     inkscape:document-units="pt"
     showgrid="false" />
  <defs
     id="defs521" />
  <path
     d="m 459.95296,370.28261 c 0.43624,-30.23485 -23.8467,-55.22878 -54.08156,-55.66502 -9.5185,-0.13734 -18.51036,1.97145 -26.97313,6.33032 -9.26807,-17.49453 -27.00995,-30.0728 -48.28574,-30.37978 -9.51851,-0.13734 -18.51037,1.97146 -26.97313,6.33032 -9.26808,-17.49453 -27.00996,-30.0728 -48.28574,-30.37977 -7.28044,-0.10505 -14.01472,0.919 -20.21448,3.63064 l 1.54318,-107.50892 c 0.21004,-14.55749 -5.189,-28.63684 -15.67079,-39.42919 -10.48638,-10.79341 -24.39605,-17.15474 -38.96066,-16.80183 -30.23485,-0.43624 -55.22878,23.8467 -55.67313,54.6435 l -3.56287,246.9343 -27.050296,-27.27609 c -18.77041,-18.75275 -48.40691,-21.98165 -70.45473,-7.73605 -13.00694,8.77416 -22.16898,22.64353 -24.62484,37.72666 -2.46428,15.64608 1.78565,31.38803 11.68855,43.8532 l 56.68835,69.14503 c 3.30247,3.96996 8.30866,6.28072 13.35073,6.35347 3.92149,0.0566 7.85516,-1.00788 11.25442,-3.75992 7.369306,-6.05452 8.647956,-17.23603 2.59356,-24.60615 l -56.70046,-68.58315 c -3.85685,-4.53661 -5.4475,-10.7207 -4.24577,-16.30095 1.20985,-6.14338 4.08306,-11.14125 9.17001,-14.4282 8.47834,-5.47986 19.6646,-4.19724 26.28497,2.61778 l 40.838816,42.03455 c 7.1754,7.38549 18.34074,9.78512 28.47521,6.01304 10.13353,-3.7761 16.43022,-13.20534 16.58368,-23.84123 l 3.86194,-267.66214 c 0.16157,-11.19784 9.25081,-20.02863 20.44875,-19.86706 5.60101,0.0808 10.6076,2.39158 14.46861,6.3696 3.86491,3.97807 6.03028,9.04884 5.94952,14.64636 l -2.65801,184.22082 c -0.13734,9.51851 7.58854,17.4703 17.10675,17.60763 9.51821,0.13734 17.4703,-7.58854 17.60763,-17.10675 l 0.36355,-25.19638 c 0.16156,-11.19784 9.25081,-20.02863 20.44874,-19.86706 11.19794,0.16157 20.02863,9.25082 19.86706,20.44875 l -0.68675,47.59705 c -0.13734,9.51851 7.58855,17.47029 17.10676,17.60763 9.51851,0.13733 17.47029,-7.58855 17.60763,-17.10676 l 0.36354,-25.19638 c 0.16157,-11.19783 9.25081,-20.02862 20.44875,-19.86705 11.19783,0.16156 20.02862,9.25081 19.86705,20.44874 l -0.68674,47.59705 c -0.13734,9.51851 7.58854,17.4703 17.10675,17.60763 9.51821,0.13733 17.4703,-7.58855 17.60763,-17.10676 l 0.33932,-23.51755 0.0242,-1.67952 c 0.16156,-11.19784 9.25081,-20.02863 20.44874,-19.86706 11.19784,0.16157 20.02863,9.25081 19.86706,20.44875 l -2.14095,148.38455 c -0.13734,9.51851 7.58855,17.4703 17.10675,17.60763 9.51851,0.13734 17.4703,-7.58854 17.60763,-17.10675 z"
     id="path523" />
  <path
     d="m 181.28653,81.754294 c 9.51851,0.137337 17.47029,-7.588548 17.60763,-17.106757 l 0.67868,-47.038104 C 199.71018,8.090924 191.98429,0.13913498 182.46608,0.00180298 172.94787,-0.13553002 164.99579,7.590351 164.85845,17.10856 l -0.67862,47.034104 c -0.1374,9.522409 7.58849,17.474297 17.1067,17.61163 z"
     id="path525" />
  <path
     d="m 100.32371,103.54651 c 3.31058,3.40752 7.76628,5.15168 12.24601,5.21632 4.47974,0.0646 8.98421,-1.55025 12.39142,-4.86084 6.81503,-6.621165 6.97666,-17.823195 0.35549,-24.638427 L 92.757724,45.751351 c -6.62117,-6.815032 -17.8232,-6.976659 -24.63843,-0.355493 -6.81523,6.621167 -6.97666,17.823204 -0.3555,24.638436 z"
     id="path527" />
  <path
     d="m 36.551884,175.99403 47.0341,0.67862 c 9.51851,0.13734 17.470296,-7.58855 17.607626,-17.10676 0.13733,-9.5182 -7.588546,-17.47029 -17.106756,-17.60762 l -47.0341,-0.67863 c -9.51851,-0.13734 -17.4703,7.58855 -17.60763,17.10676 -0.14134,9.51845 7.58855,17.47029 17.10676,17.60763 z"
     id="path529" />
  <path
     d="m 259.09919,161.84322 c -0.13734,9.51851 7.58855,17.4703 17.10676,17.60763 l 47.0341,0.67863 c 9.51851,0.13733 17.4703,-7.58855 17.60763,-17.10676 0.13733,-9.51821 -7.58855,-17.4703 -17.10676,-17.60763 l -47.0341,-0.67863 c -9.51851,-0.13733 -17.4703,7.58855 -17.60763,17.10676 z"
     id="path531" />
  <path
     d="m 249.19549,110.73502 c 4.48004,0.0646 8.9842,-1.55025 12.39142,-4.86084 l 33.51221,-32.558902 c 6.81503,-6.62117 6.97666,-17.823204 0.35549,-24.638436 -6.62116,-6.815232 -17.8232,-6.976659 -24.63843,-0.355493 l -33.51221,32.558912 c -6.81504,6.621164 -6.97666,17.823204 -0.3555,24.638429 3.31064,3.40362 7.76629,5.15168 12.24602,5.21632 z"
     id="path533" />
</svg>
