<?xml version="1.0" encoding="UTF-8" standalone="no"?>
<svg
   width="392.00037pt"
   height="464.79639pt"
   version="1.1"
   viewBox="0 0 392.00037 464.79639"
   id="svg2639"
   xmlns="http://www.w3.org/2000/svg"
   xmlns:svg="http://www.w3.org/2000/svg">
  <defs
     id="defs2563" />
  <path
     d="m 364.0002,0 h -336 C 20.5744,0 13.4532,2.9492 8.1992,8.1992 2.9492,13.4492 0,20.5742 0,28.0002 v 408.8 -0.004 c 0,7.4258 2.9492,14.551 8.1992,19.801 5.2539,5.25 12.375,8.1992 19.801,8.1992 h 336 c 7.4258,0 14.547,-2.9492 19.801,-8.1992 5.25,-5.25 8.1992,-12.375 8.1992,-19.801 V 27.996294 28.0002 c 0,-7.4258 -2.9492,-14.551 -8.1992,-19.801 C 378.5473,2.9492 371.4262,0 364.0002,0 Z m -201.6,44.801 67.203,-0.0039 v 11.199 l -67.203,0.004 z m 184.8,375.2 h -302.4 v -375.2 l 72.801,-0.0039 v 33.602 c 0,5.9414 2.3594,11.637 6.5586,15.84 4.2031,4.1992 9.8984,6.5586 15.84,6.5586 h 112 c 5.9414,0 11.637,-2.3594 15.84,-6.5586 4.1992,-4.2031 6.5586,-9.8984 6.5586,-15.84 V 44.797094 h 72.801 z"
     id="path2565" />
  <path
     d="m 66.3602,181.998 h 125.27 v 44.801 h -125.27 z"
     id="path2567" />
  <path
     d="m 259.5602,194.258 -21.504,-18.816 -29.512,33.77 55.496,48.441 66.527,-77.281 -33.934,-29.234 z"
     id="path2569" />
  <path
     d="m 66.3602,305.198 h 125.27 v 44.801 h -125.27 z"
     id="path2571" />
  <path
     d="m 259.5602,317.458 -21.504,-18.816 -29.512,33.77 55.496,48.441 66.527,-77.281 -33.934,-29.23 z"
     id="path2573" />
</svg>
