<?xml version="1.0" encoding="UTF-8" standalone="no"?>
<svg
   width="461.59692pt"
   height="565.96545pt"
   version="1.1"
   viewBox="0 0 461.59692 565.96545"
   id="svg361"
   xmlns="http://www.w3.org/2000/svg"
   xmlns:svg="http://www.w3.org/2000/svg">
  <defs
     id="defs365" />
  <path
     d="m 116.4139,0.0231375 c -4.3281,0.43359 -8.3359,2.4609 -11.25,5.6914 -2.9141,3.2266 -4.5195,7.4257995 -4.5078,11.7729995 v 12.648 H 17.566107 c -0.58984,-0.03125 -1.1836,-0.03125 -1.7773,0 h -0.0352 c -4.3203,0.42969 -8.3241999,2.4531 -11.2379999,5.6758 -2.9102,3.2227 -4.51950003,7.4102 -4.5156000280914,11.754 V 478.53534 C 0.01560707,483.17594 1.8789071,487.61734 5.1719071,490.88734 c 3.2969,3.2695 7.7538999,5.0977 12.3949999,5.0781 H 210.1669 c 22.73,41.652 66.949,70 117.58,70 73.703,0 133.85,-60.109 133.85,-133.81 0,-61.434 -41.848,-113.31 -98.438,-128.93 V 47.565437 c -0.0156,-4.625 -1.8633,-9.0508 -5.1367,-12.316 -3.2734,-3.2656 -7.7031,-5.1055 -12.328,-5.1133 h -83.191 v -12.648 c -0.0117,-4.625 -1.8477,-9.0546995 -5.1172,-12.3279995 -3.2656,-3.2734 -7.6914,-5.1211 -12.316,-5.1367 H 118.23 c -0.60547,-0.03125 -1.207,-0.03125 -1.8125,0 z m 19.242,35.0349995 h 91.84 v 25.051 h -91.84 z m -100.619993,29.941 H 100.6609 v 12.684 -0.0039 c 0.0195,4.6406 1.8828,9.0859 5.1758,12.355 3.293,3.2656 7.7539,5.0938 12.395,5.0742 h 126.84 c 4.6172,-0.01563 9.0391,-1.8594 12.305,-5.125 3.2659,-3.2656 5.1094,-7.6875 5.1289,-12.305 v -12.68 h 65.625 V 298.30843 h -0.10156 -0.27344 c -4.6055,0 -9.1484,0.25781 -13.637,0.71875 -4.4883,0.45703 -8.9453,1.125 -13.297,2.0156 -4.3359,0.89453 -8.6094,2.0117 -12.785,3.3164 -4.1875,1.3047 -8.3047,2.8164 -12.305,4.5117 -3.9922,1.6953 -7.9062,3.582 -11.691,5.6406 -7.5859,4.1289 -14.715,8.9609 -21.328,14.426 -3.3008,2.7266 -6.4766,5.625 -9.5039,8.6484 -9.0977,9.0977 -16.91,19.48 -23.105,30.863 -4.1289,7.5859 -7.5391,15.621 -10.152,23.992 -1.3047,4.1875 -2.4219,8.4336 -3.3164,12.785 -0.004,0.0117 0.004,0.0234 0,0.0352 -0.89062,4.3398 -1.5586,8.75 -2.0156,13.227 -0.46094,4.5 -0.71875,9.0547 -0.71875,13.672 l 0.004,-0.004 v 0.14062 0.17188 c 0.0234,9.7891 1.1758,19.305 3.2148,28.508 l -162.079993,-0.004 z M 109.4459,137.21814 c -4.707,-0.10156 -9.2617,1.6953 -12.628993,4.9883 -3.3633,3.293 -5.2617,7.8047 -5.2617,12.512 0,4.7109 1.8984,9.2227 5.2617,12.516 3.367193,3.293 7.921893,5.0898 12.628993,4.9844 h 144.41 c 4.707,0.10547 9.2617,-1.6914 12.629,-4.9844 3.3633,-3.293 5.2617,-7.8047 5.2617,-12.516 0,-4.707 -1.8984,-9.2188 -5.2617,-12.512 -3.3672,-3.293 -7.9219,-5.0898 -12.629,-4.9883 z m 0,79.844 c -6.1602,0.13672 -11.792993,3.5039 -14.831993,8.8633 -3.043,5.3555 -3.043,11.918 0,17.277 3.0391,5.3594 8.671893,8.7227 14.831993,8.8594 h 144.41 c 6.1602,-0.13672 11.793,-3.5 14.832,-8.8594 3.043,-5.3594 3.043,-11.922 0,-17.277 -3.0391,-5.3594 -8.6719,-8.7266 -14.832,-8.8633 z m 218.17,116.28 h 0.13672 c 5.043,0.0508 10.133,0.44141 15.105,1.2656 h 0.004 c 0.27344,0.043 0.54688,0.0781 0.82031,0.10938 47.141,7.5742 82.887,48.09 82.887,97.445 0,54.789 -44.023,98.812 -98.812,98.812 -40.258,0 -74.652,-23.797 -90.098,-58.141 -0.008,-0.0195 0.008,-0.0508 0,-0.0664 h -0.004 c -0.13281,-0.40234 -0.28125,-0.80078 -0.44141,-1.1953 -5.4336,-12.406 -8.2305,-25.863 -8.2695,-39.41 0,-3.4219 0.17969,-6.8203 0.51172,-10.152 0.33594,-3.3203 0.81641,-6.5977 1.4688,-9.8086 0.004,-0.0117 -0.004,-0.0234 0,-0.0351 1.9648,-9.6602 5.3359,-18.777 9.8789,-27.172 0.004,-0.008 -0.004,-0.0273 0,-0.0352 0.57031,-1.0508 1.2734,-2.0156 1.8789,-3.043 2.6133,-4.4336 5.4609,-8.7305 8.7148,-12.68 l 0.0351,-0.0351 c 4.0117,-4.8633 8.4688,-9.3164 13.332,-13.332 l 0.0352,-0.0352 c 0.82031,-0.67578 1.7188,-1.2656 2.5625,-1.9141 1.6641,-1.2852 3.3125,-2.582 5.0586,-3.7578 2.6055,-1.7578 5.2891,-3.4141 8.0664,-4.9219 0.0234,-0.0117 0.0469,-0.0234 0.0664,-0.0352 0.23047,-0.125 0.48438,-0.21875 0.71875,-0.34375 2.5859,-1.375 5.2109,-2.6484 7.9297,-3.793 5.6289,-2.3711 11.559,-4.1992 17.672,-5.5039 0.26563,-0.0586 0.51953,-0.15234 0.78516,-0.20312 3.2344,-0.66406 6.5,-1.1641 9.8438,-1.5039 2.7344,-0.27734 5.5117,-0.35547 8.3047,-0.41016 0.60938,-0.0117 1.1992,-0.0976 1.8125,-0.10547 z m 53.219,51.781 v 0.004 c -3.9492,0.0391 -7.7656,1.4141 -10.836,3.8945 l -62.922,48.434 -18.73,-22.73 c -2.7734,-4.0352 -7.1094,-6.7266 -11.957,-7.418 -4.8477,-0.69531 -9.7617,0.67578 -13.555,3.7773 -3.7891,3.0977 -6.1094,7.6445 -6.3906,12.531 -0.28516,4.8906 1.4922,9.6719 4.8984,13.191 l 29.461,35.922 h 0.004 c 2.8711,3.5156 7,5.7773 11.508,6.3047 4.5078,0.53125 9.0469,-0.71484 12.656,-3.4688 l 76.355,-58.926 v 0.004 c 3.9492,-2.957 6.4688,-7.4414 6.9375,-12.352 0.46875,-4.9102 -1.1562,-9.7891 -4.4766,-13.438 -3.3164,-3.6484 -8.0195,-5.7266 -12.953,-5.7266 z"
     id="path359" />
</svg>
