<?xml version="1.0" encoding="UTF-8" standalone="no"?>
<svg
   width="532.3136pt"
   height="358.43927pt"
   version="1.1"
   viewBox="0 0 532.3136 358.43927"
   id="svg2175"
   xmlns="http://www.w3.org/2000/svg"
   xmlns:svg="http://www.w3.org/2000/svg">
  <defs
     id="defs2089" />
  <path
     d="M 272.43487,101.92 C 257.87587,43.123 205.23587,0 141.95487,0 67.474867,0 7.5548673,60.48 7.5548673,134.4 c 0,24.641 6.7187997,48.16 18.4799997,67.762 L 1.3938673,255.924 c -5.6016,11.762 6.7188,24.078 18.4799997,18.48 l 53.762,-24.641 c 19.602,11.762 43.121003,18.48 67.762003,18.48 32.48,0 62.16,-11.199 85.121,-30.238 -1.1211,-7.2812 -1.6797,-14.559 -1.6797,-21.84 1.1133,-44.246 19.035,-85.125 47.594,-114.25 z m -127.68,120.96 c -10.078,0 -18.48,-8.3984 -18.48,-18.48 0,-10.078 8.3984,-18.48 18.48,-18.48 10.078,0 18.48,8.3984 18.48,18.48 0,10.0816 -8.4023,18.48 -18.48,18.48 z m 44.801,-94.641 c -7.2812,9.5195 -14.559,14.559 -19.602,18.48 -6.1602,4.4805 -8.3984,6.1602 -9.5195,15.68 -0.55859,4.4805 -4.4805,7.8398 -8.3984,7.8398 h -12.879 c -5.0391,0 -8.9609,-4.4805 -8.3984,-9.5195 1.6797,-22.961 10.641,-31.359 21.84,-39.199 4.4805,-3.3594 8.3984,-6.1602 12.879,-11.762 4.4805,-6.1602 5.0391,-14 1.1211,-20.719 -2.2383,-4.4805 -8.3984,-12.32 -22.961,-12.32 -19.039,0 -25.199,12.32 -26.879,21.281 -0.55859,4.4805 -4.4805,7.2812 -8.3984,7.2812 H 94.919267 c -5.0391,0 -9.5195,-4.4805 -8.3984,-9.5195 3.9219,-25.199 21.840003,-49.281 57.121003,-49.281 22.398,0 40.879,10.641 50.398,29.121 7.8359,17.918 6.1562,37.52 -4.4844,52.637 z"
     id="path2091" />
  <path
     d="m 531.15487,338.24 -24.641,-53.762 c 11.762,-20.16 18.48,-43.121 18.48,-67.762 0,-74.48 -60.48,-134.4 -134.4,-134.4 -74.48,0 -134.4,60.48 -134.4,134.4 0,74.48 60.48,134.4 134.4,134.4 24.641,0 48.16,-6.7188 67.762,-18.48 l 53.762,24.641 c 11.758,5.0469 24.078,-7.2734 19.035,-19.035 z m -215.6,-98.559 c -12.879,0 -22.961,-10.078 -22.961,-22.961 0,-12.879 10.078,-22.961 22.961,-22.961 12.879,0 22.961,10.078 22.961,22.961 -0.004,12.879 -10.082,22.961 -22.961,22.961 z m 75.039,0 c -12.879,0 -22.961,-10.078 -22.961,-22.961 0,-12.879 10.078,-22.961 22.961,-22.961 12.879,0 22.961,10.078 22.961,22.961 0,12.879 -10.641,22.961 -22.961,22.961 z m 74.48,0 c -12.879,0 -22.961,-10.078 -22.961,-22.961 0,-12.879 10.078,-22.961 22.961,-22.961 12.879,0 22.961,10.078 22.961,22.961 0,12.879 -10.082,22.961 -22.961,22.961 z"
     id="path2093" />
</svg>
