<?xml version="1.0" encoding="UTF-8" standalone="no"?>
<svg
   width="212.7968pt"
   height="296.79678pt"
   version="1.1"
   viewBox="0 0 212.7968 296.79678"
   id="svg1249"
   xmlns="http://www.w3.org/2000/svg"
   xmlns:svg="http://www.w3.org/2000/svg">
  <defs
     id="defs1143" />
  <path
     d="m 204.3984,0 h -196 C 3.7578,0 0,3.7578 0,8.3984 v 280 c 0,4.6406 3.7578,8.3984 8.3984,8.3984 h 196 c 4.6406,0 8.3984,-3.7578 8.3984,-8.3984 v -280 C 212.7968,3.7578 209.039,0 204.3984,0 Z M 196,280 H 16.8 V 16.8 h 11.199 v 19.598 c 0,4.6406 3.7578,8.3984 8.3984,8.3984 h 140 c 4.6406,0 8.3984,-3.7578 8.3984,-8.3984 V 16.796 h 11.199 z M 44.8,16.8 H 168 V 27.999 H 44.8 Z"
     id="path1145" />
  <path
     d="m 64.3984,84 h -28 C 31.7578,84 28,87.7578 28,92.3984 v 28 c 0,4.6406 3.7578,8.3984 8.3984,8.3984 h 28 c 4.6406,0 8.3984,-3.7578 8.3984,-8.3984 v -28 C 72.7968,87.7578 69.039,84 64.3984,84 Z M 56,112 H 44.801 V 100.801 H 56 Z"
     id="path1147" />
  <path
     d="m 64.3984,140 h -28 C 31.7578,140 28,143.7578 28,148.3984 v 28 c 0,4.6406 3.7578,8.3984 8.3984,8.3984 h 28 c 4.6406,0 8.3984,-3.7578 8.3984,-8.3984 v -28 C 72.7968,143.7578 69.039,140 64.3984,140 Z M 56,168 H 44.801 V 156.801 H 56 Z"
     id="path1149" />
  <path
     d="m 64.3984,196 h -28 C 31.7578,196 28,199.7578 28,204.3984 v 28 c 0,4.6406 3.7578,8.3984 8.3984,8.3984 h 28 c 4.6406,0 8.3984,-3.7578 8.3984,-8.3984 v -28 C 72.7968,199.7578 69.039,196 64.3984,196 Z M 56,224 H 44.801 V 212.801 H 56 Z"
     id="path1151" />
  <path
     d="m 176.3984,84 h -84 C 87.7578,84 84,87.7578 84,92.3984 c 0,4.6406 3.7578,8.3984 8.3984,8.3984 h 84 c 4.6406,0 8.3984,-3.7578 8.3984,-8.3984 0,-4.6406 -3.7578,-8.3984 -8.3984,-8.3984 z"
     id="path1153" />
  <path
     d="m 92.3984,128.8 h 56 c 4.6406,0 8.3984,-3.7578 8.3984,-8.3984 0,-4.6406 -3.7578,-8.3984 -8.3984,-8.3984 h -56 c -4.6406,0 -8.3984,3.7578 -8.3984,8.3984 0,4.6406 3.7578,8.3984 8.3984,8.3984 z"
     id="path1155" />
  <path
     d="m 176.3984,140 h -84 C 87.7578,140 84,143.7578 84,148.3984 c 0,4.6406 3.7578,8.3984 8.3984,8.3984 h 84 c 4.6406,0 8.3984,-3.7578 8.3984,-8.3984 0,-4.6406 -3.7578,-8.3984 -8.3984,-8.3984 z"
     id="path1157" />
  <path
     d="m 92.3984,184.8 h 56 c 4.6406,0 8.3984,-3.7578 8.3984,-8.3984 0,-4.6406 -3.7578,-8.3984 -8.3984,-8.3984 h -56 c -4.6406,0 -8.3984,3.7578 -8.3984,8.3984 0,4.6406 3.7578,8.3984 8.3984,8.3984 z"
     id="path1159" />
  <path
     d="m 176.3984,196 h -84 C 87.7578,196 84,199.7578 84,204.3984 c 0,4.6406 3.7578,8.3984 8.3984,8.3984 h 84 c 4.6406,0 8.3984,-3.7578 8.3984,-8.3984 0,-4.6406 -3.7578,-8.3984 -8.3984,-8.3984 z"
     id="path1161" />
  <path
     d="m 148.3984,224 h -56 C 87.7578,224 84,227.7578 84,232.3984 c 0,4.6406 3.7578,8.3984 8.3984,8.3984 h 56 c 4.6406,0 8.3984,-3.7578 8.3984,-8.3984 0,-4.6406 -3.7578,-8.3984 -8.3984,-8.3984 z"
     id="path1163" />
</svg>
