<?xml version="1.0" encoding="UTF-8"?>
<svg width="700pt" height="700pt" version="1.1" viewBox="0 0 700 700" xmlns="http://www.w3.org/2000/svg">
 <path d="m235.62-2.9609c-4.3281 0.43359-8.3359 2.4609-11.25 5.6914-2.9141 3.2266-4.5195 7.4258-4.5078 11.773v12.648h-83.09c-0.58984-0.03125-1.1836-0.03125-1.7773 0h-0.035157c-4.3203 0.42969-8.3242 2.4531-11.238 5.6758-2.9102 3.2227-4.5195 7.4102-4.5156 11.754v430.97c0.015625 4.6406 1.8789 9.082 5.1719 12.352 3.2969 3.2695 7.7539 5.0977 12.395 5.0781h192.6c22.73 41.652 66.949 70 117.58 70 73.703 0 133.85-60.109 133.85-133.81 0-61.434-41.848-113.31-98.438-128.93v-255.66c-0.015625-4.625-1.8633-9.0508-5.1367-12.316-3.2734-3.2656-7.7031-5.1055-12.328-5.1133h-83.191v-12.648c-0.011719-4.625-1.8477-9.0547-5.1172-12.328-3.2656-3.2734-7.6914-5.1211-12.316-5.1367h-126.84c-0.60547-0.03125-1.207-0.03125-1.8125 0zm19.242 35.035h91.84v25.051h-91.84zm-100.62 29.941h65.625v12.684-0.003907c0.019531 4.6406 1.8828 9.0859 5.1758 12.355 3.293 3.2656 7.7539 5.0938 12.395 5.0742h126.84c4.6172-0.015625 9.0391-1.8594 12.305-5.125s5.1094-7.6875 5.1289-12.305v-12.68h65.625v233.31h-0.10156-0.27344c-4.6055 0-9.1484 0.25781-13.637 0.71875-4.4883 0.45703-8.9453 1.125-13.297 2.0156-4.3359 0.89453-8.6094 2.0117-12.785 3.3164-4.1875 1.3047-8.3047 2.8164-12.305 4.5117-3.9922 1.6953-7.9062 3.582-11.691 5.6406-7.5859 4.1289-14.715 8.9609-21.328 14.426-3.3008 2.7266-6.4766 5.625-9.5039 8.6484-9.0977 9.0977-16.91 19.48-23.105 30.863-4.1289 7.5859-7.5391 15.621-10.152 23.992-1.3047 4.1875-2.4219 8.4336-3.3164 12.785-0.003906 0.011718 0.003907 0.023437 0 0.035156-0.89062 4.3398-1.5586 8.75-2.0156 13.227-0.46094 4.5-0.71875 9.0547-0.71875 13.672l0.003906-0.003906v0.14062 0.17188c0.023438 9.7891 1.1758 19.305 3.2148 28.508l-162.08-0.003907zm74.41 72.219c-4.707-0.10156-9.2617 1.6953-12.629 4.9883-3.3633 3.293-5.2617 7.8047-5.2617 12.512 0 4.7109 1.8984 9.2227 5.2617 12.516 3.3672 3.293 7.9219 5.0898 12.629 4.9844h144.41c4.707 0.10547 9.2617-1.6914 12.629-4.9844 3.3633-3.293 5.2617-7.8047 5.2617-12.516 0-4.707-1.8984-9.2188-5.2617-12.512-3.3672-3.293-7.9219-5.0898-12.629-4.9883zm0 79.844c-6.1602 0.13672-11.793 3.5039-14.832 8.8633-3.043 5.3555-3.043 11.918 0 17.277 3.0391 5.3594 8.6719 8.7227 14.832 8.8594h144.41c6.1602-0.13672 11.793-3.5 14.832-8.8594 3.043-5.3594 3.043-11.922 0-17.277-3.0391-5.3594-8.6719-8.7266-14.832-8.8633zm218.17 116.28h0.13672c5.043 0.050781 10.133 0.44141 15.105 1.2656h0.003906c0.27344 0.042968 0.54688 0.078125 0.82031 0.10938 47.141 7.5742 82.887 48.09 82.887 97.445 0 54.789-44.023 98.812-98.812 98.812-40.258 0-74.652-23.797-90.098-58.141-0.007813-0.019531 0.007812-0.050781 0-0.066406h-0.003907c-0.13281-0.40234-0.28125-0.80078-0.44141-1.1953-5.4336-12.406-8.2305-25.863-8.2695-39.41 0-3.4219 0.17969-6.8203 0.51172-10.152 0.33594-3.3203 0.81641-6.5977 1.4688-9.8086 0.003906-0.011719-0.003906-0.023438 0-0.035156 1.9648-9.6602 5.3359-18.777 9.8789-27.172 0.003906-0.007812-0.003906-0.027343 0-0.035156 0.57031-1.0508 1.2734-2.0156 1.8789-3.043 2.6133-4.4336 5.4609-8.7305 8.7148-12.68l0.035156-0.035156c4.0117-4.8633 8.4688-9.3164 13.332-13.332l0.035156-0.035156c0.82031-0.67578 1.7188-1.2656 2.5625-1.9141 1.6641-1.2852 3.3125-2.582 5.0586-3.7578 2.6055-1.7578 5.2891-3.4141 8.0664-4.9219 0.023437-0.011718 0.046875-0.023437 0.066406-0.035156 0.23047-0.125 0.48438-0.21875 0.71875-0.34375 2.5859-1.375 5.2109-2.6484 7.9297-3.793 5.6289-2.3711 11.559-4.1992 17.672-5.5039 0.26563-0.058594 0.51953-0.15234 0.78516-0.20312 3.2344-0.66406 6.5-1.1641 9.8438-1.5039 2.7344-0.27734 5.5117-0.35547 8.3047-0.41016 0.60938-0.011719 1.1992-0.097657 1.8125-0.10547zm53.219 51.781v0.003906c-3.9492 0.039063-7.7656 1.4141-10.836 3.8945l-62.922 48.434-18.73-22.73c-2.7734-4.0352-7.1094-6.7266-11.957-7.418-4.8477-0.69531-9.7617 0.67578-13.555 3.7773-3.7891 3.0977-6.1094 7.6445-6.3906 12.531-0.28516 4.8906 1.4922 9.6719 4.8984 13.191l29.461 35.922h0.003906c2.8711 3.5156 7 5.7773 11.508 6.3047 4.5078 0.53125 9.0469-0.71484 12.656-3.4688l76.355-58.926v0.003906c3.9492-2.957 6.4688-7.4414 6.9375-12.352 0.46875-4.9102-1.1562-9.7891-4.4766-13.438-3.3164-3.6484-8.0195-5.7266-12.953-5.7266z"/>
</svg>
