<?xml version="1.0" encoding="UTF-8" standalone="no"?>
<svg
   id="Layer_1"
   data-name="Layer 1"
   viewBox="0 0 512 512"
   version="1.1"
   sodipodi:docname="ustad-logo-only.svg"
   width="512"
   height="512"
   inkscape:version="1.2.2 (b0a8486541, 2022-12-01)"
   xmlns:inkscape="http://www.inkscape.org/namespaces/inkscape"
   xmlns:sodipodi="http://sodipodi.sourceforge.net/DTD/sodipodi-0.dtd"
   xmlns="http://www.w3.org/2000/svg"
   xmlns:svg="http://www.w3.org/2000/svg"
   xmlns:rdf="http://www.w3.org/1999/02/22-rdf-syntax-ns#"
   xmlns:cc="http://creativecommons.org/ns#"
   xmlns:dc="http://purl.org/dc/elements/1.1/">
  <sodipodi:namedview
     id="namedview37"
     pagecolor="#ffffff"
     bordercolor="#666666"
     borderopacity="1.0"
     inkscape:showpageshadow="2"
     inkscape:pageopacity="0.0"
     inkscape:pagecheckerboard="0"
     inkscape:deskcolor="#d1d1d1"
     showgrid="false"
     inkscape:zoom="1.027"
     inkscape:cx="176.24148"
     inkscape:cy="250.24343"
     inkscape:window-width="3770"
     inkscape:window-height="2091"
     inkscape:window-x="70"
     inkscape:window-y="32"
     inkscape:window-maximized="1"
     inkscape:current-layer="Layer_1" />
  <defs
     id="defs4">
    <style
       id="style2">.cls-1{fill:#6d6e6e;}.cls-2{fill:#55a99a;}</style>
  </defs>
  <title
     id="title6">ustad-logo</title>
  <g
     id="g325"
     transform="matrix(1.4699343,0,0,1.4701892,8,8)">
    <path
       class="cls-2"
       d="M 168.72002,6.0752097e-4 A 167.51,167.51 0 0 0 75.370019,28.120608 a 33.87,33.87 0 1 0 18.83,30.35 c 0,-0.72 0,-1.42 -0.07,-2.13 a 133.87,133.87 0 0 1 74.600001,-22.47 c 74.34,0 134.82,60.48 134.82,134.820002 a 135,135 0 0 1 -5.3,37.58 16.94,16.94 0 1 0 32.54,9.42 168.92,168.92 0 0 0 6.64,-47 c -0.02,-93.030002 -75.7,-168.69000247903 -168.71,-168.69000247903 z"
       id="path30" />
    <path
       class="cls-2"
       d="m 86.740019,113.95061 v 99.68 l 0.3,1.56 c 3.75,19.76 25.640001,57.14 81.680001,57.14 56.04,0 77.93,-37.33 81.67,-57.14 l 0.3,-1.56 v -88.84 a 27.08,27.08 0 0 0 0,-42.290002 v -0.5 h -0.68 a 27.1,27.1 0 0 0 -32.52,0 h -0.68 v 0.53 a 27.08,27.08 0 0 0 0,42.290002 v 85.18 c -1.61,5.44 -10.62,28.44 -48.1,28.44 -37.11,0 -46.27,-22.27 -48.1,-28.5 v -96 z"
       id="path32" />
    <path
       class="cls-2"
       d="m 277.11002,243.20061 a 33.84,33.84 0 0 0 -33.65,37.73 133.74,133.74 0 0 1 -74.75,22.57 c -74.340001,0 -134.820001,-60.48 -134.820001,-134.82 a 135,135 0 0 1 5.58,-38.53 16.94,16.94 0 1 0 -32.4700003,-9.66 168.83,168.83 0 0 0 -7.000000010769,48.19 c 0,93 75.670000310769,168.69 168.690001310769,168.69 a 167.32,167.32 0 0 0 95,-29.2 33.88,33.88 0 1 0 13.44,-65 z"
       id="path34" />
  </g>
  <metadata
     id="metadata320">
    <rdf:RDF>
      <cc:Work
         rdf:about="">
        <dc:title>ustad-logo</dc:title>
      </cc:Work>
    </rdf:RDF>
  </metadata>
</svg>
