<?xml version="1.0" encoding="UTF-8" standalone="no"?>
<!-- Created with Inkscape (http://www.inkscape.org/) -->

<svg
   xmlns:dc="http://purl.org/dc/elements/1.1/"
   xmlns:cc="http://creativecommons.org/ns#"
   xmlns:rdf="http://www.w3.org/1999/02/22-rdf-syntax-ns#"
   xmlns:svg="http://www.w3.org/2000/svg"
   xmlns="http://www.w3.org/2000/svg"
   xmlns:sodipodi="http://sodipodi.sourceforge.net/DTD/sodipodi-0.dtd"
   xmlns:inkscape="http://www.inkscape.org/namespaces/inkscape"
   width="144"
   height="144"
   viewBox="0 0 144 144"
   id="svg5157"
   version="1.1"
   inkscape:version="0.91 r13725"
   sodipodi:docname="applogo.svg">
  <defs
     id="defs5159" />
  <sodipodi:namedview
     id="base"
     pagecolor="#ffffff"
     bordercolor="#666666"
     borderopacity="1.0"
     inkscape:pageopacity="0.0"
     inkscape:pageshadow="2"
     inkscape:zoom="2.8589731"
     inkscape:cx="72.000003"
     inkscape:cy="78.000003"
     inkscape:document-units="px"
     inkscape:current-layer="text5826"
     showgrid="false"
     units="px"
     inkscape:window-width="1855"
     inkscape:window-height="1056"
     inkscape:window-x="65"
     inkscape:window-y="24"
     inkscape:window-maximized="1" />
  <metadata
     id="metadata5162">
    <rdf:RDF>
      <cc:Work
         rdf:about="">
        <dc:format>image/svg+xml</dc:format>
        <dc:type
           rdf:resource="http://purl.org/dc/dcmitype/StillImage" />
        <dc:title></dc:title>
      </cc:Work>
    </rdf:RDF>
  </metadata>
  <g
     inkscape:label="Layer 1"
     inkscape:groupmode="layer"
     id="layer1"
     transform="translate(0,-908.36222)">
    <rect
       style="fill:#ffffff;fill-opacity:1;stroke:#000000;stroke-width:3.99757338;stroke-linecap:round;stroke-linejoin:round;stroke-miterlimit:4;stroke-dasharray:none;stroke-dashoffset:0;stroke-opacity:1"
       id="rect3843"
       width="139.99574"
       height="139.83443"
       x="2.0021291"
       y="910.53247"
       inkscape:export-filename="/home/mike/Documents/UstadMobile/ownCloud/Marketing/Logo/umapplogo512.png"
       inkscape:export-xdpi="295.38"
       inkscape:export-ydpi="295.38"
       rx="18.460978"
       ry="18.439705" />
    <g
       transform="scale(0.82508136,1.2120017)"
       style="font-style:normal;font-variant:normal;font-weight:normal;font-stretch:normal;font-size:69.77780914px;line-height:125%;font-family:'My Lucky Penny';-inkscape-font-specification:'My Lucky Penny';text-align:start;letter-spacing:0px;word-spacing:0px;writing-mode:lr-tb;text-anchor:start;fill:#000000;fill-opacity:1;stroke:none"
       id="text5826">
      <path
         d="m 28.049315,826.95994 q -0.749566,1.02213 -2.044272,2.72569 -1.226563,1.70356 -2.725695,3.33898 -1.499133,1.63542 -3.202693,2.86198 -1.635417,1.15842 -3.270835,1.15842 -1.635417,0 -2.657553,-0.81771 -1.022136,-0.88585 -1.567275,-2.18056 -0.545139,-1.2947 -0.749566,-2.79383 -0.136285,-1.56728 -0.136285,-2.93013 l 0,-0.47699 q 0.476997,-2.45313 0.681424,-6.06468 0.204427,-3.61154 0.681424,-7.35937 0.476997,-3.74784 1.499132,-7.01867 1.022136,-3.33898 3.066408,-5.17882 0.885851,0 1.362848,0.27257 0.476997,0.20442 0.681424,0.68142 0.204427,0.477 0.272569,1.09028 0.06814,0.61328 0.06814,1.2947 0,2.65756 -0.749566,5.65582 -0.749567,2.93013 -1.70356,5.99653 -0.885851,3.06641 -1.635418,6.06468 -0.749566,2.99826 -0.749566,5.72396 0.885851,1.97613 1.976129,2.38498 1.090279,0.34071 2.316842,-0.477 1.226563,-0.8177 2.521268,-2.58941 1.294706,-1.7717 2.521269,-4.0204 1.226563,-2.31684 2.316841,-4.83811 1.090278,-2.58941 1.907987,-4.97439 0.885851,-2.45313 1.43099,-4.42926 0.545139,-2.04427 0.681424,-3.20269 1.226563,-0.74957 2.180557,-0.74957 1.022136,-0.0681 2.384983,0.74957 -0.408854,5.45139 -1.499132,9.74436 -1.022136,4.29297 -1.567275,7.56381 -0.476997,3.27083 0.204427,5.51953 0.681424,2.2487 3.747831,3.67969 2.453127,-0.74957 4.701825,-1.90799 2.316842,-1.22656 4.429256,-2.65755 0.953993,0.34071 0.953993,1.09028 0.06814,0.68142 0,1.56727 -1.976129,3.13455 -5.042537,5.24697 -3.066407,2.04427 -6.814239,2.11241 -1.771702,-1.02213 -2.930123,-2.2487 -1.090278,-1.22656 -1.771702,-2.65755 -0.681424,-1.49913 -1.090278,-3.20269 -0.340712,-1.70356 -0.681424,-3.74783 z"
         style=""
         id="path5833" />
      <path
         d="m 118.13356,826.75551 q 0,0.13628 0.47699,0.27257 0.477,0.13628 0.954,0.34071 0.54514,0.20443 0.95399,0.61328 0.40886,0.34071 0.34071,0.95399 0,0.61329 -0.74956,1.63542 -0.68143,0.954 -2.38499,2.38499 -6.54167,5.45139 -11.17535,6.95052 -4.56554,1.49913 -7.359377,-0.34071 -2.793838,-1.7717 -3.815974,-6.47353 -1.022136,-4.70182 -0.408854,-11.72049 0.681424,-7.01867 2.930123,-15.87718 2.316842,-8.92665 6.132812,-19.14801 -5.246961,5.11068 -9.267362,9.8125 -3.952259,4.70183 -7.427521,9.74437 -3.40712,4.97439 -6.677954,10.56207 -3.270835,5.58767 -7.018667,12.33377 -3.747831,1.83984 -5.723961,1.97613 -1.976129,0.13628 -2.725695,-1.43099 -0.749567,-1.56728 -0.681424,-4.83811 0.06814,-3.33898 0.340712,-8.38152 0.340712,-5.11067 0.545139,-11.92491 0.204427,-6.88239 -0.27257,-15.53647 l -17.171882,47.83596 q -0.408855,0.95399 -1.430991,1.49913 -1.022136,0.477 -2.112414,0.477 -1.090278,-0.0681 -1.907987,-0.68142 -0.817708,-0.61329 -0.681424,-1.83985 l 9.131081,-53.01478 q -0.408855,-1.09028 -0.136285,-1.97613 0.27257,-0.95399 0.953993,-1.56727 0.681424,-0.61329 1.635418,-0.954 0.953993,-0.34071 1.771702,-0.27257 0.885851,0.0681 1.499133,0.61328 0.613281,0.477 0.681424,1.43099 l -5.519534,25.96226 q 1.43099,-3.06641 3.270835,-7.08681 1.907987,-4.0204 3.884116,-7.97266 1.976129,-4.0204 3.952259,-7.42752 1.976129,-3.40712 3.679689,-5.11068 1.771702,-1.70356 3.13455,-1.15842 1.43099,0.54514 2.180556,4.36111 -0.06814,5.65582 -0.476996,10.35764 -0.340712,4.63369 -0.613282,9.19923 -0.204427,4.49739 -0.204427,9.3355 0.06814,4.83811 0.817709,10.83464 4.088543,-7.29123 7.97266,-13.56033 3.952258,-6.2691 8.108944,-11.85678 4.224828,-5.58767 8.926653,-10.63021 4.701823,-5.11068 10.357643,-10.01693 1.09028,-0.68143 1.7717,-0.477 0.68143,0.13629 1.02214,0.88585 0.40885,0.68143 0.477,1.7717 0.13628,1.09028 0.0681,2.31684 -1.09028,6.06468 -2.58941,12.26564 -1.43099,6.13281 -2.86198,11.92491 -1.36285,5.79211 -2.45313,10.97093 -1.09028,5.11068 -1.43099,9.13108 -0.34071,3.95226 0.20443,6.54167 0.61328,2.52127 2.52127,3.13455 1.97613,0.54514 5.51953,-1.09028 3.5434,-1.63542 9.06294,-6.06467 z"
         style=""
         id="path5835" />
    </g>
    <g
       id="g4498-7-8"
       transform="matrix(0.68687957,-0.19608502,0.19804324,0.65915335,-299.68034,813.65907)"
       inkscape:export-filename="/home/mike/Documents/UstadMobile/ownCloud/Marketing/Logo/umapplogo512.png"
       inkscape:export-xdpi="295.38"
       inkscape:export-ydpi="295.38">
      <g
         id="g4479-6-1">
        <g
           id="g4461-6-5">
          <g
             id="g4444-1-9">
            <g
               id="g4428-1-1">
              <g
                 id="g4413-0-2">
                <g
                   id="g4399-0-4">
                  <rect
                     ry="7.7343526"
                     transform="matrix(0.9843243,0.17636802,-0.17636802,0.9843243,0,0)"
                     y="266.54416"
                     x="527.90198"
                     height="89.492943"
                     width="45.740841"
                     id="rect6265-5-4"
                     style="fill:#ffffff;fill-opacity:1;stroke:#000000;stroke-width:7.08747959;stroke-linecap:butt;stroke-linejoin:miter;stroke-miterlimit:4;stroke-dasharray:none;stroke-dashoffset:0;stroke-opacity:1" />
                  <rect
                     transform="matrix(0.9843243,0.17636802,-0.17636802,0.9843243,0,0)"
                     ry="5.1415868"
                     y="275.405"
                     x="534.91913"
                     height="27.421797"
                     width="31.706455"
                     id="rect6267-9-3"
                     style="fill:#000000;fill-opacity:1;stroke:none" />
                  <circle
                     r="0.26785713"
                     cy="144.6207"
                     cx="7.9464288"
                     transform="matrix(15.503064,2.7777886,-2.7777886,15.503064,753.44163,-1856.573)"
                     id="path6269-4-9"
                     style="fill:#000000;fill-opacity:1;fill-rule:evenodd;stroke:none" />
                  <circle
                     r="0.26785713"
                     cy="144.6207"
                     cx="7.9464288"
                     style="fill:#000000;fill-opacity:1;fill-rule:evenodd;stroke:none"
                     id="path6271-0-0"
                     transform="matrix(15.503064,2.7777886,-2.7777886,15.503064,764.8613,-1854.5269)" />
                  <circle
                     r="0.26785713"
                     cy="144.6207"
                     cx="7.9464288"
                     transform="matrix(15.503064,2.7777886,-2.7777886,15.503064,775.93492,-1852.5427)"
                     id="path6273-7-7"
                     style="fill:#000000;fill-opacity:1;fill-rule:evenodd;stroke:none" />
                  <circle
                     r="0.26785713"
                     cy="144.6207"
                     cx="7.9464288"
                     style="fill:#000000;fill-opacity:1;fill-rule:evenodd;stroke:none"
                     id="path6275-6-0"
                     transform="matrix(15.503064,2.7777886,-2.7777886,15.503064,751.17848,-1843.9422)" />
                  <circle
                     r="0.26785713"
                     cy="144.6207"
                     cx="7.9464288"
                     transform="matrix(15.503064,2.7777886,-2.7777886,15.503064,762.2521,-1841.9581)"
                     id="path6277-2-3"
                     style="fill:#000000;fill-opacity:1;fill-rule:evenodd;stroke:none" />
                  <circle
                     r="0.26785713"
                     cy="144.6207"
                     cx="7.9464288"
                     style="fill:#000000;fill-opacity:1;fill-rule:evenodd;stroke:none"
                     id="path6279-9-4"
                     transform="matrix(15.503064,2.7777886,-2.7777886,15.503064,773.67177,-1839.912)" />
                  <circle
                     r="0.26785713"
                     cy="144.6207"
                     cx="7.9464288"
                     transform="matrix(15.503064,2.7777886,-2.7777886,15.503064,748.97734,-1831.6574)"
                     id="path6281-7-5"
                     style="fill:#000000;fill-opacity:1;fill-rule:evenodd;stroke:none" />
                  <circle
                     r="0.26785713"
                     cy="144.6207"
                     cx="7.9464288"
                     style="fill:#000000;fill-opacity:1;fill-rule:evenodd;stroke:none"
                     id="path6283-6-4"
                     transform="matrix(15.503064,2.7777886,-2.7777886,15.503064,759.7049,-1829.7353)" />
                  <circle
                     r="0.26785713"
                     cy="144.6207"
                     cx="7.9464288"
                     transform="matrix(15.503064,2.7777886,-2.7777886,15.503064,771.47063,-1827.6272)"
                     id="path6285-8-8"
                     style="fill:#000000;fill-opacity:1;fill-rule:evenodd;stroke:none" />
                  <path
                     inkscape:connector-curvature="0"
                     id="path6311-4-5"
                     d="m 482.51306,355.17443 3.5964,-20.07182"
                     style="fill:none;stroke:#000000;stroke-width:9.44997406;stroke-linecap:round;stroke-linejoin:miter;stroke-miterlimit:4;stroke-dasharray:none;stroke-opacity:1" />
                </g>
              </g>
            </g>
          </g>
        </g>
      </g>
    </g>
  </g>
</svg>
