<svg xmlns="http://www.w3.org/2000/svg" xmlns:xlink="http://www.w3.org/1999/xlink" viewBox="0 0 1000 1000"><defs><style>.cls-1,.cls-13,.cls-16,.cls-24,.cls-25{fill:none;}.cls-2{clip-path:url(#clip-path);}.cls-3{fill:#c9dee9;}.cls-4{fill:#54694b;}.cls-5{fill:#7bc25f;}.cls-6{fill:#9bc28c;}.cls-7{fill:#9ac28a;}.cls-8{fill:#5fa145;}.cls-9{fill:#7ecc60;}.cls-10{fill:#e2d2b0;}.cls-11{fill:#c2b28c;}.cls-12,.cls-17{fill:#bbcde3;}.cls-12,.cls-13{stroke:#c2b28c;}.cls-12,.cls-13,.cls-16,.cls-17,.cls-24,.cls-25{stroke-miterlimit:10;}.cls-12,.cls-13,.cls-16,.cls-17{stroke-width:0.25px;}.cls-14{fill:#ad404e;}.cls-15{clip-path:url(#clip-path-2);}.cls-16{stroke:#db636e;}.cls-17{stroke:#a89979;}.cls-18{fill:#8a7a54;}.cls-19{fill:#4f4f4f;}.cls-20{fill:#f2f2f2;}.cls-21{fill:#499136;}.cls-22{fill:#649d56;}.cls-23{fill:#518f41;}.cls-24{stroke:#38a818;}.cls-24,.cls-25{stroke-linecap:round;stroke-width:0.5px;}.cls-25{stroke:#77ba66;}.cls-26{fill:#5cad49;}.cls-27{fill:#de0047;}.cls-28{fill:#ed6bb8;}.cls-29{fill:#825247;}.cls-30{fill:#dedb5d;}.cls-31{fill:#64a854;}.cls-32{fill:#629656;}.cls-33{fill:#66a155;}.cls-34{fill:#539640;}.cls-35{fill:#80a876;}.cls-36{fill:#6e9963;}.cls-37{fill:#fcff3b;}.cls-38{fill:#694e00;}.cls-39{fill:#73b15a;}.cls-40{fill:#568d42;}.cls-41{fill:#74ab60;}.cls-42{fill:#6f9163;}.cls-43{fill:#86b078;}.cls-44{fill:#f1c19f;}.cls-45{fill:#fff;}.cls-46{fill:#1b0c0b;}.cls-47{fill:#1798ed;}.cls-48{fill:#f0f0f0;}.cls-49{fill:#ebebeb;}.cls-50{fill:#e0e0e0;}.cls-51{fill:#158ddb;}.cls-52{fill:#0f0202;}.cls-53{fill:#916330;}</style><clipPath id="clip-path"><path class="cls-1" d="M374.8,155.28S257.91,114.12,164.08,175-10.43,338,60.36,529s283.16,266.69,512,260.11,349-54.33,398.39-237.06-153.1-197.55-199.2-200.84-167.92-13.17-214-54.33S450.52,176.68,374.8,155.28Z"/></clipPath><clipPath id="clip-path-2"><polygon class="cls-1" points="402.62 257.22 27.6 257.22 27.6 223.16 357.44 223.16 402.62 257.22"/></clipPath></defs><title>App-Illustrations</title><g id="Student_Going_to_School" data-name="Student Going to School"><g class="cls-2"><polygon class="cls-3" points="23.22 109.43 616.72 116.22 1026.88 409.58 1010.58 469.33 -2.58 435.38 23.22 109.43"/><g id="Background"><path class="cls-4" d="M990.62,625.5S838.78,765.75,792.42,772.71s-366.28-73-399.89-92.73S239.11,559.08,246.27,503s23.39-56,23.39-56l-26.37-23.58,69.82-3,12.19,35.86,155.32,73,208.64,64.91Z"/><path class="cls-5" d="M313.11,420.41s392.68-15,460-15,71.56-1.2,71.56-1.2l-45.7,18-226.1,12.63Z"/><path class="cls-6" d="M301.87,421.55s16,7.28,12.44,34.95-12,52.92,68,84.79,238.13-7.22,238.13-7.22l124.48-87.8S538,426.42,492.31,424.62,329.73,419.67,301.87,421.55Z"/><path class="cls-7" d="M6.42,427.09l258.31-2.45s16,20.77,2,44.49S240,541,288.94,581.8s40,83,185.32,113.41c126,36.32,306.88,77.09,306.88,77.09s-228.67,71.6-433.08,2.31S48.21,580.78,6.42,427.09Z"/><path class="cls-8" d="M521.64,494.18s2.85-45.58,51.27-42.73c0,0-15.19-74.06,71.21-71.21,0,0,17.09,4.75,20.89,13.29,0,0,27.54-7.6,38,19.94,0,0,19-3.8,19.94,2.85C722.94,416.32,580.51,509.37,521.64,494.18Z"/><path class="cls-9" d="M339.33,517.92s245-23.74,328.53-71.21,142.43-77.86,295.3-19c0,0,35.13,57,27.54,142.43s-14.24,57.92-14.24,57.92-294.35-27.54-350.37-39.88S474.16,553,442.83,553,350.73,529.31,339.33,517.92Z"/></g><g id="School"><rect class="cls-10" x="27.6" y="288.33" width="409.12" height="139.9"/><rect class="cls-10" x="27.6" y="257.26" width="356.54" height="40.44"/><rect class="cls-11" x="235.05" y="288.52" width="211.55" height="13.72"/><rect class="cls-11" x="243.26" y="364.56" width="194.18" height="9.03"/><rect class="cls-12" x="260.11" y="319.93" width="20.68" height="31.03"/><line class="cls-13" x1="270.45" y1="319.82" x2="270.45" y2="350.77"/><rect class="cls-11" x="260.28" y="347.48" width="20.64" height="3.29"/><rect class="cls-12" x="260.11" y="263.98" width="20.68" height="18.33"/><line class="cls-13" x1="270.45" y1="263.92" x2="270.45" y2="282.21"/><rect class="cls-11" x="260.28" y="278.85" width="20.64" height="3.29"/><rect class="cls-12" x="202.98" y="263.98" width="20.68" height="18.33"/><line class="cls-13" x1="213.32" y1="263.92" x2="213.32" y2="282.21"/><rect class="cls-11" x="203.15" y="278.85" width="20.64" height="3.29"/><rect class="cls-12" x="169.91" y="263.98" width="20.68" height="18.33"/><line class="cls-13" x1="180.24" y1="263.92" x2="180.24" y2="282.21"/><rect class="cls-11" x="170.07" y="278.85" width="20.64" height="3.29"/><rect class="cls-12" x="76.1" y="263.98" width="20.68" height="18.33"/><line class="cls-13" x1="86.43" y1="263.92" x2="86.43" y2="282.21"/><rect class="cls-11" x="76.26" y="278.85" width="20.64" height="3.29"/><rect class="cls-12" x="43.02" y="263.98" width="20.68" height="18.33"/><line class="cls-13" x1="53.36" y1="263.92" x2="53.36" y2="282.21"/><rect class="cls-11" x="43.19" y="278.85" width="20.64" height="3.29"/><rect class="cls-12" x="304.61" y="263.98" width="20.68" height="18.33"/><line class="cls-13" x1="314.95" y1="263.92" x2="314.95" y2="282.21"/><rect class="cls-11" x="304.78" y="278.85" width="20.64" height="3.29"/><rect class="cls-12" x="349.11" y="263.98" width="20.68" height="18.33"/><line class="cls-13" x1="359.45" y1="263.92" x2="359.45" y2="282.21"/><rect class="cls-11" x="349.28" y="278.85" width="20.64" height="3.29"/><rect class="cls-12" x="304.1" y="319.93" width="20.68" height="31.03"/><line class="cls-13" x1="314.44" y1="319.82" x2="314.44" y2="350.77"/><rect class="cls-11" x="304.27" y="347.48" width="20.64" height="3.29"/><rect class="cls-12" x="348.1" y="319.93" width="20.68" height="31.03"/><line class="cls-13" x1="358.43" y1="319.82" x2="358.43" y2="350.77"/><rect class="cls-11" x="348.27" y="347.48" width="20.64" height="3.29"/><rect class="cls-12" x="392.09" y="319.93" width="20.68" height="31.03"/><line class="cls-13" x1="402.43" y1="319.82" x2="402.43" y2="350.77"/><rect class="cls-11" x="392.26" y="347.48" width="20.64" height="3.29"/><rect class="cls-12" x="260.11" y="383.48" width="20.68" height="31.03"/><line class="cls-13" x1="270.45" y1="383.37" x2="270.45" y2="414.33"/><rect class="cls-11" x="260.28" y="411.04" width="20.64" height="3.29"/><rect class="cls-11" x="234.19" y="255.73" width="9.1" height="171.91"/><rect class="cls-12" x="304.1" y="383.48" width="20.68" height="31.03"/><line class="cls-13" x1="314.44" y1="383.37" x2="314.44" y2="414.33"/><rect class="cls-11" x="304.27" y="411.04" width="20.64" height="3.29"/><polygon class="cls-14" points="402.62 257.22 27.6 257.22 27.6 223.16 357.44 223.16 402.62 257.22"/><g class="cls-15"><line class="cls-16" x1="34.26" y1="212.91" x2="34.26" y2="259.96"/><line class="cls-16" x1="43.83" y1="212.91" x2="43.83" y2="259.96"/><line class="cls-16" x1="53.4" y1="212.91" x2="53.4" y2="259.96"/><line class="cls-16" x1="62.97" y1="212.91" x2="62.97" y2="259.96"/><line class="cls-16" x1="72.54" y1="212.91" x2="72.54" y2="259.96"/><line class="cls-16" x1="82.11" y1="212.91" x2="82.11" y2="259.96"/><line class="cls-16" x1="91.68" y1="212.91" x2="91.68" y2="259.96"/><line class="cls-16" x1="101.25" y1="212.91" x2="101.25" y2="259.96"/><line class="cls-16" x1="110.82" y1="212.91" x2="110.82" y2="259.96"/><line class="cls-16" x1="120.39" y1="212.91" x2="120.39" y2="259.96"/><line class="cls-16" x1="129.96" y1="212.91" x2="129.96" y2="259.96"/><line class="cls-16" x1="139.53" y1="212.91" x2="139.53" y2="259.96"/><line class="cls-16" x1="149.1" y1="212.91" x2="149.1" y2="259.96"/><line class="cls-16" x1="158.67" y1="212.91" x2="158.67" y2="259.96"/><line class="cls-16" x1="168.24" y1="212.91" x2="168.24" y2="259.96"/><line class="cls-16" x1="177.81" y1="212.91" x2="177.81" y2="259.96"/><line class="cls-16" x1="187.38" y1="212.91" x2="187.38" y2="259.96"/><line class="cls-16" x1="196.95" y1="212.91" x2="196.95" y2="259.96"/><line class="cls-16" x1="206.53" y1="212.91" x2="206.53" y2="259.96"/><line class="cls-16" x1="216.1" y1="212.91" x2="216.1" y2="259.96"/><line class="cls-16" x1="225.67" y1="212.91" x2="225.67" y2="259.96"/><line class="cls-16" x1="235.24" y1="212.91" x2="235.24" y2="259.96"/><line class="cls-16" x1="244.81" y1="212.91" x2="244.81" y2="259.96"/><line class="cls-16" x1="254.38" y1="212.91" x2="254.38" y2="259.96"/><line class="cls-16" x1="263.95" y1="212.91" x2="263.95" y2="259.96"/><line class="cls-16" x1="273.52" y1="212.91" x2="273.52" y2="259.96"/><line class="cls-16" x1="283.09" y1="212.91" x2="283.09" y2="259.96"/><line class="cls-16" x1="292.66" y1="212.91" x2="292.66" y2="259.96"/><line class="cls-16" x1="302.23" y1="212.91" x2="302.23" y2="259.96"/><line class="cls-16" x1="311.8" y1="212.91" x2="311.8" y2="259.96"/><line class="cls-16" x1="321.37" y1="212.91" x2="321.37" y2="259.96"/><line class="cls-16" x1="330.94" y1="212.91" x2="330.94" y2="259.96"/><line class="cls-16" x1="340.51" y1="212.91" x2="340.51" y2="259.96"/><line class="cls-16" x1="350.08" y1="212.91" x2="350.08" y2="259.96"/><line class="cls-16" x1="359.65" y1="212.91" x2="359.65" y2="259.96"/><line class="cls-16" x1="369.22" y1="212.91" x2="369.22" y2="259.96"/><line class="cls-16" x1="378.79" y1="212.91" x2="378.79" y2="259.96"/><line class="cls-16" x1="388.36" y1="212.91" x2="388.36" y2="259.96"/><line class="cls-16" x1="397.93" y1="212.91" x2="397.93" y2="259.96"/></g><rect class="cls-12" x="348.1" y="383.48" width="20.68" height="31.03"/><line class="cls-13" x1="358.43" y1="383.37" x2="358.43" y2="414.33"/><rect class="cls-11" x="348.27" y="411.04" width="20.64" height="3.29"/><path class="cls-11" d="M105,252.82l1-.47a61.21,61.21,0,0,1,50-1.07l3.64,1.54V427.64H105Z"/><rect class="cls-12" x="392.09" y="383.48" width="20.68" height="31.03"/><line class="cls-13" x1="402.43" y1="383.37" x2="402.43" y2="414.33"/><rect class="cls-11" x="392.26" y="411.04" width="20.64" height="3.29"/><rect class="cls-12" x="169.04" y="363.5" width="25.97" height="51.29"/><line class="cls-13" x1="182.03" y1="363.25" x2="182.03" y2="415.04"/><line class="cls-13" x1="169.06" y1="389.15" x2="195" y2="389.15"/><rect class="cls-11" x="169.07" y="408.98" width="25.98" height="5.94"/><rect class="cls-12" x="198.08" y="363.5" width="25.97" height="51.29"/><line class="cls-13" x1="211.06" y1="363.25" x2="211.06" y2="415.04"/><line class="cls-13" x1="198.1" y1="389.15" x2="224.03" y2="389.15"/><rect class="cls-11" x="198.1" y="408.98" width="25.98" height="5.94"/><rect class="cls-12" x="169.04" y="291.22" width="25.97" height="51.29"/><line class="cls-13" x1="182.03" y1="290.97" x2="182.03" y2="342.75"/><line class="cls-13" x1="169.06" y1="316.86" x2="195" y2="316.86"/><rect class="cls-11" x="169.07" y="336.7" width="25.98" height="5.94"/><rect class="cls-12" x="198.08" y="291.22" width="25.97" height="51.29"/><line class="cls-13" x1="211.06" y1="290.97" x2="211.06" y2="342.75"/><line class="cls-13" x1="198.1" y1="316.86" x2="224.03" y2="316.86"/><rect class="cls-11" x="198.1" y="336.7" width="25.98" height="5.94"/><rect class="cls-12" x="42.42" y="363.5" width="25.97" height="51.29"/><line class="cls-13" x1="55.41" y1="363.25" x2="55.41" y2="415.04"/><line class="cls-13" x1="42.44" y1="389.15" x2="68.38" y2="389.15"/><rect class="cls-11" x="42.45" y="408.98" width="25.98" height="5.94"/><rect class="cls-12" x="71.46" y="363.5" width="25.97" height="51.29"/><line class="cls-13" x1="84.45" y1="363.25" x2="84.45" y2="415.04"/><line class="cls-13" x1="71.48" y1="389.15" x2="97.41" y2="389.15"/><rect class="cls-11" x="71.48" y="408.98" width="25.98" height="5.94"/><rect class="cls-12" x="42.42" y="291.22" width="25.97" height="51.29"/><line class="cls-13" x1="55.41" y1="290.97" x2="55.41" y2="342.75"/><line class="cls-13" x1="42.44" y1="316.86" x2="68.38" y2="316.86"/><rect class="cls-11" x="42.45" y="336.7" width="25.98" height="5.94"/><rect class="cls-12" x="71.46" y="291.22" width="25.97" height="51.29"/><line class="cls-13" x1="84.45" y1="290.97" x2="84.45" y2="342.75"/><line class="cls-13" x1="71.48" y1="316.86" x2="97.41" y2="316.86"/><rect class="cls-11" x="71.48" y="336.7" width="25.98" height="5.94"/><path class="cls-17" d="M149.5,422.69h-34.4V370.76l1.7-.72a39.57,39.57,0,0,1,30.58-.15l2.12.87Z"/><path class="cls-17" d="M149.5,343.13h-34.4V291.2l1.7-.72a39.57,39.57,0,0,1,30.58-.15l2.12.87Z"/></g><g id="Bag"><path class="cls-18" d="M871.08,422.53c-9.87,22.35-36.4,20.16-46.1,18.51-3.42-7.38-7.89-17.17-12.48-27.67a42.29,42.29,0,0,0,3.84,2.32l6.83-11.13s-11.77-10-23.07-20.62c-6.58-16.41-11.6-31-11.89-37.83a59.31,59.31,0,0,1,2.53-17.88,25.74,25.74,0,0,1,1.39-3.54c3.37-7.38,9.7-13.07,21.38-10,26.61,7,28.76,30.07,28.76,30.07s14.42,48.88,21.85,65C866.65,415.32,869.27,419.29,871.08,422.53Z"/><path class="cls-18" d="M800.1,383.94c11.3,10.59,23.07,20.62,23.07,20.62l-6.83,11.13a42.29,42.29,0,0,1-3.84-2.32C808.28,403.77,803.94,393.56,800.1,383.94Z"/><path class="cls-18" d="M865.85,439c-14,10-27,18.35-34.46,15.73,0,0-2.53-5.36-6.41-13.71,9.7,1.64,36.23,3.84,46.1-18.51C874.58,428.82,875,432.4,865.85,439Z"/><path class="cls-19" d="M865.85,439c-14,10-27,18.35-34.46,15.73,0,0-2.53-5.36-6.41-13.71,9.7,1.64,36.23,3.84,46.1-18.51C874.58,428.82,875,432.4,865.85,439Z"/></g><path class="cls-20" d="M286.58,202.48s.42-25.3,22.77-20.66c4.45.92,10.11,3.41,14.68,1.83,5.4-1.86,7-8.11,11.2-11.4,7.54-5.87,18.71-4.39,26.6-.09,1.36.74,13.15,11.52,11.62,12.18,0,0,28.25-12.23,39.22,17.29Z"/><path class="cls-20" d="M166.9,211.45s.23-13.94,12.55-11.39c2.45.51,5.57,1.88,8.09,1,3-1,3.84-4.47,6.17-6.28,4.15-3.23,10.31-2.42,14.66,0,.75.41,7.25,6.35,6.4,6.71,0,0,15.57-6.74,21.61,9.53Z"/></g><g id="Flowers"><path class="cls-21" d="M135.07,584.68s33.17,17.06,48.33,32.7,32.7,35.07,34.12,80.56l.47,9.48s-20.85-15.16-24.64-29.85-39.8-50.7-51.18-55-23.69-46.91-23.69-46.91Z"/><path class="cls-22" d="M94.47,431.8s-8.94-2-9.43,6.95,5.46,21.84,3.47,26.81-10.42,4-13.4,0-13.4-13.4-29.78-8.44-3,15.39,7.45,14.4,23.83,0,22.34,8.94c-1.49,5.46-8.94,3.47-12.91,3.47s-19.86,5-17.87,13.9,18.86,3,22.83,1.49,18.37-1.49,20.85.5c0,0-21.35,6.45-15.89,15.39s16.88-3,19.86-2.48,6.95,3.47,6.45,10.92,13.9,10.92,19.86,7.94,15.39-6.95,21.35,5,20.85,19.86,20.85,19.86l10.92-.5s-11.91-22.83-20.35-35.25-10.92-7.94-6.95-23.33,9.43-26.81,4-27.8-12.41,6.45-15.39,16.38-7.94,13.4-10.42,7.45S120.78,475,124.75,469s8.44-14.89,2.48-16.88-13.4,2.48-16.38,13.9-11.42,6.95-10.42-5.46S100.92,432.79,94.47,431.8Z"/><path class="cls-22" d="M172.58,683.18c-3.75-3-7.47-5.95-11.09-9-.17-.84-.34-1.69-.51-2.57C156,646.23,133.18,605.07,127.24,606s-11.43-5.95-15.39-13.41-11.94,2-17.38,5.48l-.21.13c-5.31,3.21-8.73-1.18-8.73-5.61s-1-9.4-5.95-10.92-10.92,7-12.4,11.43-6.45,5.95-9.45,1.48.51-13.88,0-18.85-5.95-5.44-14.38,2-11.94,7-16.41,3.5,5.95-18.39,11.43-19.86,6.45-4,3-5.95S29.94,556.9,29.43,551c0-14.42,19.86-4,19.86-4s-9.91-17.84-1.48-24.29,5.95,1.48,7.93,10.42c1.05,4.68,5.48,8,9.49,10.08A40.74,40.74,0,0,0,72.12,546c-.25-7.13,2.24-15.86,6.49-15.23s3.29,10.54,5.61,15.44,8.52,6.24,10.16,4.93.67-7.89,3-13.79,6.58-1.64,9.19,1.65,4.6,10.16,5.57,14.76,9.19.34,15.44-2.28,5.27,5.23,4.3,8.52-2.32,9.53,1.35,10.33c8.94,1,12.91,7.93,14.38,16.87s-3.46,12.91,2.49,23.32C154.91,618.94,167.81,665.59,172.58,683.18Z"/><path class="cls-22" d="M286.88,690.74s-8.77-29.91-4.64-49.51,21.15-61.38,4.64-97.48c0,0,20.63,26.3,20.11,64.47S303.38,682,310.08,698s-1.55,46.42-4.13,53.12Z"/><path class="cls-23" d="M240.46,581.92s38.17,50.54,44.87,86.65,8.25,37.65,17,53.12,3.61,29.4,3.61,29.4-40.23-41.26-42.29-57.76S259,639.68,251.29,617.5,240.46,581.92,240.46,581.92Z"/><path class="cls-22" d="M219.1,613.33s33.86,35.81,40.44,58.84,12.38,27.34,24.76,42.29c13.37,16.16,21.18,23.9,21.18,41.18,0,0-51.83-30.44-58.41-56.76S233.09,634.72,219.1,613.33Z"/><path class="cls-22" d="M398.79,637.62s-25.27,12.89-32,20.63S350.31,682,350.31,682s21.15-7.22,26.82-12.38S395.7,646.39,398.79,637.62Z"/><path class="cls-23" d="M405.5,569.54s-13.93,34.56-25.27,44.36-48,48.48-55.19,65.5S307,707.76,306,732c0,0,16-19.6,28.37-29.91s44.87-49,52.61-70.14S407,593.78,405.5,569.54Z"/><path class="cls-24" d="M168,477.87s19.22,47.57,18.74,76.48,19,70.61,19,70.61"/><path class="cls-24" d="M202.22,456.12S194.3,498,194.3,507.44s-.95,30.8-.95,50.23,13.74,65.39,17.53,87.67"/><path class="cls-24" d="M174.29,534.63A210.63,210.63,0,0,1,183.4,560c4.26,14.69,11.37,79.61,27,91.93"/><path class="cls-24" d="M245.4,467a232.55,232.55,0,0,0-3.53,55.81c1.72,31.52-3,54.27-4.92,78.44s-8.06,57.34-8.06,57.34"/><path class="cls-24" d="M224.5,518.8a323,323,0,0,0,6.29,37.92c4.26,17.53,9,37.91,9,55.92"/><path class="cls-24" d="M241.69,576.62c9.48-47.39,6-54.7,15.3-70"/><path class="cls-25" d="M168,477.87s19.22,47.57,18.74,76.48,19,70.61,19,70.61"/><path class="cls-25" d="M202.22,456.12S194.3,498,194.3,507.44s-.95,30.8-.95,50.23,13.74,65.39,17.53,87.67"/><path class="cls-25" d="M174.29,534.63A210.63,210.63,0,0,1,183.4,560c4.26,14.69,11.37,79.61,27,91.93"/><path class="cls-25" d="M245.4,467a232.55,232.55,0,0,0-3.53,55.81c1.72,31.52-3,54.27-4.92,78.44s-8.06,57.34-8.06,57.34"/><path class="cls-25" d="M224.5,518.8a323,323,0,0,0,6.29,37.92c4.26,17.53,9,37.91,9,55.92"/><path class="cls-25" d="M241.69,576.62c9.48-47.39,6-54.7,15.3-70"/><path class="cls-26" d="M377.13,551.49s-3.09,30.43-37.65,59.83-37.65,68.6-37.65,84.58S306,751.08,306,751.08s13.41-69.63,23.72-89.74S378.68,585,377.13,551.49Z"/><path class="cls-22" d="M391.06,581.4s-8.25,27.85-25.27,39.2-39.71,39.71-46.42,59.83a409.09,409.09,0,0,0-10.83,39.71s37.13-68.08,51.58-81.49S392.61,617,391.06,581.4Z"/><path class="cls-25" d="M70.49,560.2s51.17,4.58,71.79,51.93S156,645.74,156,645.74"/><path class="cls-25" d="M87.42,479.15s53.06,39.51,68.87,64.35"/><path class="cls-27" d="M179.21,465.73c-4.16.83-6.84,1.33-7.39-.09s2.09-2.85,5.4-5c3.12-2.08,6-3.11,7.39.09C185.76,463.32,182.89,465,179.21,465.73Z"/><path class="cls-27" d="M156.83,468.24c4.16-.83,6.84-1.33,7.39.09s-2.09,2.85-5.4,5c-3.12,2.08-6,3.11-7.39-.09C150.27,470.65,153.14,469,156.83,468.24Z"/><path class="cls-27" d="M175,458.19c-2.36,3.52-3.89,5.78-5.29,5.17s-.53-3.49.25-7.39c.74-3.67,2-6.44,5.29-5.17C178,451.85,177.13,455.06,175,458.19Z"/><path class="cls-27" d="M161,475.78c2.36-3.52,3.89-5.78,5.29-5.17s.53,3.49-.25,7.39c-.74,3.67-2,6.44-5.29,5.17C158.06,482.12,158.9,478.91,161,475.78Z"/><path class="cls-27" d="M169.27,478.17c-.83-4.16-1.33-6.84.09-7.39s2.85,2.09,5,5.4c2.08,3.12,3.11,6-.09,7.39C171.68,484.73,170,481.86,169.27,478.17Z"/><path class="cls-27" d="M166.77,455.8c.83,4.16,1.33,6.84-.09,7.39s-2.85-2.09-5-5.4c-2.08-3.12-3.11-6,.09-7.39C164.35,449.24,166,452.11,166.77,455.8Z"/><path class="cls-27" d="M176.81,474c-3.52-2.36-5.78-3.89-5.17-5.29s3.49-.53,7.39.25c3.67.74,6.44,2,5.17,5.29C183.15,476.94,179.94,476.1,176.81,474Z"/><path class="cls-27" d="M159.22,460c3.52,2.36,5.78,3.89,5.17,5.29s-3.49.53-7.39-.25c-3.67-.74-6.44-2-5.17-5.29C152.88,457,156.09,457.87,159.22,460Z"/><path class="cls-28" d="M178.9,469.87c-4.17-.73-6.86-1.23-6.86-2.75s3-1.9,6.86-2.75c3.66-.81,6.71-.73,6.86,2.75C185.88,470,182.6,470.52,178.9,469.87Z"/><path class="cls-28" d="M157.13,464.1c4.17.73,6.86,1.23,6.86,2.75s-3,1.9-6.86,2.75c-3.66.81-6.71.73-6.86-2.75C150.15,464,153.43,463.45,157.13,464.1Z"/><path class="cls-28" d="M177.75,461.33c-3.47,2.43-5.72,4-6.8,2.9s.77-3.45,2.9-6.8c2-3.16,4.22-5.26,6.8-2.9C182.77,456.48,180.83,459.17,177.75,461.33Z"/><path class="cls-28" d="M158.28,472.64c3.47-2.43,5.72-4,6.8-2.9s-.77,3.45-2.9,6.8c-2,3.16-4.22,5.26-6.8,2.9C153.26,477.49,155.2,474.8,158.28,472.64Z"/><path class="cls-28" d="M165.14,477.87c.73-4.17,1.23-6.86,2.75-6.86s1.9,3,2.75,6.86c.81,3.66.73,6.71-2.75,6.86C165,484.85,164.48,481.57,165.14,477.87Z"/><path class="cls-28" d="M170.9,456.1c-.73,4.17-1.23,6.86-2.75,6.86s-1.9-3-2.75-6.86c-.81-3.66-.73-6.71,2.75-6.86C171,449.12,171.55,452.4,170.9,456.1Z"/><path class="cls-28" d="M173.68,476.72c-2.43-3.47-4-5.72-2.9-6.8s3.45.77,6.8,2.9c3.16,2,5.26,4.22,2.9,6.8C178.52,481.74,175.83,479.8,173.68,476.72Z"/><path class="cls-28" d="M162.36,457.25c2.43,3.47,4,5.72,2.9,6.8s-3.45-.77-6.8-2.9c-3.16-2-5.26-4.22-2.9-6.8C157.51,452.23,160.2,454.17,162.36,457.25Z"/><circle class="cls-29" cx="168.02" cy="466.98" r="5.29"/><path class="cls-27" d="M179.82,523.64c-4.16.83-6.84,1.33-7.39-.09s2.09-2.85,5.4-5c3.12-2.08,6-3.11,7.39.09C186.37,521.23,183.51,522.91,179.82,523.64Z"/><path class="cls-27" d="M157.44,526.15c4.16-.83,6.84-1.33,7.39.09s-2.09,2.85-5.4,5c-3.12,2.08-6,3.11-7.39-.09C150.89,528.56,153.75,526.88,157.44,526.15Z"/><path class="cls-27" d="M175.65,516.1c-2.36,3.52-3.89,5.78-5.29,5.17s-.53-3.49.25-7.39c.74-3.67,2-6.44,5.29-5.17C178.58,509.76,177.74,513,175.65,516.1Z"/><path class="cls-27" d="M161.6,533.69c2.36-3.52,3.89-5.78,5.29-5.17s.53,3.49-.25,7.39c-.74,3.67-2,6.44-5.29,5.17C158.67,540,159.51,536.82,161.6,533.69Z"/><path class="cls-27" d="M169.88,536.08c-.83-4.16-1.33-6.84.09-7.39s2.85,2.09,5,5.4c2.08,3.12,3.11,6-.09,7.39C172.29,542.64,170.61,539.77,169.88,536.08Z"/><path class="cls-27" d="M167.38,513.71c.83,4.16,1.33,6.84-.09,7.39s-2.85-2.09-5-5.4c-2.08-3.12-3.11-6,.09-7.39C165,507.15,166.64,510,167.38,513.71Z"/><path class="cls-27" d="M177.43,531.92c-3.52-2.36-5.78-3.89-5.17-5.29s3.49-.53,7.39.25c3.67.74,6.44,2,5.17,5.29C183.76,534.85,180.55,534,177.43,531.92Z"/><path class="cls-27" d="M159.83,517.87c3.52,2.36,5.78,3.89,5.17,5.29s-3.49.53-7.39-.25c-3.67-.74-6.44-2-5.17-5.29C153.49,514.94,156.7,515.78,159.83,517.87Z"/><path class="cls-28" d="M179.51,527.78c-4.17-.73-6.86-1.23-6.86-2.75s3-1.9,6.86-2.75c3.66-.81,6.71-.73,6.86,2.75C186.49,527.9,183.22,528.43,179.51,527.78Z"/><path class="cls-28" d="M157.74,522c4.17.73,6.86,1.23,6.86,2.75s-3,1.9-6.86,2.75c-3.66.81-6.71.73-6.86-2.75C150.76,521.89,154,521.36,157.74,522Z"/><path class="cls-28" d="M178.36,519.24c-3.47,2.43-5.72,4-6.8,2.9s.77-3.45,2.9-6.8c2-3.16,4.22-5.26,6.8-2.9C183.39,514.39,181.44,517.08,178.36,519.24Z"/><path class="cls-28" d="M158.89,530.55c3.47-2.43,5.72-4,6.8-2.9s-.77,3.45-2.9,6.8c-2,3.16-4.22,5.26-6.8,2.9C153.87,535.4,155.81,532.71,158.89,530.55Z"/><path class="cls-28" d="M165.75,535.78c.73-4.17,1.23-6.86,2.75-6.86s1.9,3,2.75,6.86c.81,3.66.73,6.71-2.75,6.86C165.62,542.76,165.09,539.48,165.75,535.78Z"/><path class="cls-28" d="M171.51,514c-.73,4.17-1.23,6.86-2.75,6.86s-1.9-3-2.75-6.86c-.81-3.66-.73-6.71,2.75-6.86C171.63,507,172.16,510.31,171.51,514Z"/><path class="cls-28" d="M174.29,534.63c-2.43-3.47-4-5.72-2.9-6.8s3.45.77,6.8,2.9c3.16,2,5.26,4.22,2.9,6.8C179.14,539.65,176.44,537.71,174.29,534.63Z"/><path class="cls-28" d="M163,515.16c2.43,3.47,4,5.72,2.9,6.8s-3.45-.77-6.8-2.9c-3.16-2-5.26-4.22-2.9-6.8C158.12,510.14,160.81,512.08,163,515.16Z"/><circle class="cls-29" cx="168.63" cy="524.89" r="5.29"/><path class="cls-27" d="M234.73,510c-3,.6-5,1-5.37-.06s1.52-2.07,3.92-3.67,4.35-2.26,5.37.06C239.5,508.22,237.41,509.44,234.73,510Z"/><path class="cls-27" d="M218.46,511.8c3-.6,5-1,5.37.06s-1.52,2.07-3.92,3.67-4.35,2.26-5.37-.06C213.69,513.55,215.77,512.33,218.46,511.8Z"/><path class="cls-27" d="M231.7,504.49c-1.71,2.56-2.83,4.2-3.84,3.76s-.39-2.54.18-5.37c.53-2.67,1.48-4.68,3.84-3.76C233.83,499.88,233.22,502.22,231.7,504.49Z"/><path class="cls-27" d="M221.48,517.28c1.71-2.56,2.83-4.2,3.84-3.76s.39,2.54-.18,5.37c-.53,2.67-1.48,4.68-3.84,3.76C219.35,521.89,220,519.56,221.48,517.28Z"/><path class="cls-27" d="M227.5,519c-.6-3-1-5,.06-5.37s2.07,1.52,3.67,3.92,2.26,4.35-.06,5.37C229.26,523.79,228,521.7,227.5,519Z"/><path class="cls-27" d="M225.68,502.75c.6,3,1,5-.06,5.37s-2.07-1.52-3.67-3.92-2.26-4.35.06-5.37C223.93,498,225.15,500.07,225.68,502.75Z"/><path class="cls-27" d="M233,516c-2.56-1.71-4.2-2.83-3.76-3.84s2.54-.39,5.37.18c2.67.53,4.68,1.48,3.76,3.84C237.6,518.13,235.26,517.52,233,516Z"/><path class="cls-27" d="M220.2,505.78c2.56,1.71,4.2,2.83,3.76,3.84s-2.54.39-5.37-.18c-2.67-.53-4.68-1.48-3.76-3.84C215.59,503.65,217.92,504.26,220.2,505.78Z"/><path class="cls-28" d="M234.51,513c-3-.53-5-.9-5-2s2.17-1.38,5-2c2.66-.59,4.88-.53,5,2C239.58,513.07,237.2,513.46,234.51,513Z"/><path class="cls-28" d="M218.68,508.79c3,.53,5,.9,5,2s-2.17,1.38-5,2c-2.66.59-4.88.53-5-2C213.6,508.7,216,508.32,218.68,508.79Z"/><path class="cls-28" d="M233.67,506.77c-2.52,1.77-4.16,2.89-4.94,2.11s.56-2.51,2.11-4.94,3.07-3.83,4.94-2.11C237.32,503.25,235.91,505.2,233.67,506.77Z"/><path class="cls-28" d="M219.52,515c2.52-1.77,4.16-2.89,4.94-2.11s-.56,2.51-2.11,4.94-3.07,3.83-4.94,2.11C215.86,518.53,217.28,516.57,219.52,515Z"/><path class="cls-28" d="M224.5,518.8c.53-3,.9-5,2-5s1.38,2.17,2,5c.59,2.66.53,4.88-2,5C224.41,523.88,224,521.49,224.5,518.8Z"/><path class="cls-28" d="M228.69,503c-.53,3-.9,5-2,5s-1.38-2.17-2-5c-.59-2.66-.53-4.88,2-5C228.78,497.9,229.16,500.28,228.69,503Z"/><path class="cls-28" d="M230.71,518c-1.77-2.52-2.89-4.16-2.11-4.94s2.51.56,4.94,2.11,3.83,3.07,2.11,4.94C234.23,521.62,232.28,520.2,230.71,518Z"/><path class="cls-28" d="M222.48,503.81c1.77,2.52,2.89,4.16,2.11,4.94s-2.51-.56-4.94-2.11-3.83-3.07-2.11-4.94C219,500.15,220.91,501.57,222.48,503.81Z"/><circle class="cls-29" cx="226.59" cy="510.89" r="3.85"/><path class="cls-27" d="M215.32,451.79c-2.6.52-4.28.83-4.63-.05s1.31-1.78,3.38-3.16,3.75-1.95,4.63.05C219.42,450.28,217.63,451.33,215.32,451.79Z"/><path class="cls-27" d="M201.31,453.36c2.6-.52,4.28-.83,4.63.05s-1.31,1.78-3.38,3.16-3.75,1.95-4.63-.05C197.2,454.87,199,453.82,201.31,453.36Z"/><path class="cls-27" d="M212.71,447.07c-1.47,2.21-2.44,3.62-3.31,3.23s-.33-2.19.15-4.62,1.27-4,3.31-3.23C214.54,443.1,214,445.11,212.71,447.07Z"/><path class="cls-27" d="M203.91,458.08c1.47-2.21,2.44-3.62,3.31-3.23s.33,2.19-.15,4.62-1.27,4-3.31,3.23C202.08,462.05,202.6,460,203.91,458.08Z"/><path class="cls-27" d="M209.09,459.58c-.52-2.6-.83-4.28.05-4.63s1.78,1.31,3.16,3.38,1.95,3.75-.05,4.63C210.6,463.68,209.55,461.89,209.09,459.58Z"/><path class="cls-27" d="M207.53,445.57c.52,2.6.83,4.28-.05,4.63s-1.78-1.31-3.16-3.38-1.95-3.75.05-4.63C206,441.47,207.07,443.26,207.53,445.57Z"/><path class="cls-27" d="M213.82,457c-2.21-1.47-3.62-2.44-3.23-3.31s2.19-.33,4.62.15,4,1.27,3.23,3.31C217.79,458.81,215.78,458.28,213.82,457Z"/><path class="cls-27" d="M202.8,448.18c2.21,1.47,3.62,2.44,3.23,3.31s-2.19.33-4.62-.15-4-1.27-3.23-3.31C198.83,446.34,200.85,446.87,202.8,448.18Z"/><path class="cls-28" d="M215.12,454.38c-2.61-.46-4.29-.77-4.29-1.72s1.87-1.19,4.29-1.72,4.2-.46,4.29,1.72C219.5,454.46,217.44,454.79,215.12,454.38Z"/><path class="cls-28" d="M201.5,450.77c2.61.46,4.29.77,4.29,1.72s-1.87,1.19-4.29,1.72-4.2.46-4.29-1.72C197.13,450.69,199.18,450.36,201.5,450.77Z"/><path class="cls-28" d="M214.4,449c-2.17,1.52-3.58,2.49-4.26,1.82s.48-2.16,1.82-4.26,2.65-3.3,4.26-1.82C217.55,446,216.33,447.68,214.4,449Z"/><path class="cls-28" d="M202.22,456.12c2.17-1.52,3.58-2.49,4.26-1.82s-.48,2.16-1.82,4.26-2.65,3.3-4.26,1.82C199.07,459.15,200.29,457.47,202.22,456.12Z"/><path class="cls-28" d="M206.51,459.39c.46-2.61.77-4.29,1.72-4.29s1.19,1.87,1.72,4.29.46,4.2-1.72,4.29C206.43,463.76,206.1,461.71,206.51,459.39Z"/><path class="cls-28" d="M210.12,445.76c-.46,2.61-.77,4.29-1.72,4.29s-1.19-1.87-1.72-4.29-.46-4.2,1.72-4.29C210.19,441.39,210.52,443.44,210.12,445.76Z"/><path class="cls-28" d="M211.85,458.67c-1.52-2.17-2.49-3.58-1.82-4.26s2.16.48,4.26,1.82,3.3,2.65,1.82,4.26C214.89,461.81,213.2,460.6,211.85,458.67Z"/><path class="cls-28" d="M204.77,446.48c1.52,2.17,2.49,3.58,1.82,4.26s-2.16-.48-4.26-1.82-3.3-2.65-1.82-4.26C201.73,443.34,203.42,444.55,204.77,446.48Z"/><circle class="cls-29" cx="208.31" cy="452.58" r="3.31"/><path class="cls-27" d="M256.4,457.52c-3.25.65-5.35,1-5.78-.07s1.64-2.23,4.22-3.95,4.68-2.43,5.78.07C261.53,455.64,259.29,456.95,256.4,457.52Z"/><path class="cls-27" d="M238.9,459.48c3.25-.65,5.35-1,5.78.07s-1.64,2.23-4.22,3.95-4.68,2.43-5.78-.07C233.78,461.37,236,460.05,238.9,459.48Z"/><path class="cls-27" d="M253.15,451.62c-1.84,2.76-3,4.52-4.13,4s-.42-2.73.19-5.78c.58-2.87,1.59-5,4.13-4C255.44,446.66,254.78,449.18,253.15,451.62Z"/><path class="cls-27" d="M242.16,465.38c1.84-2.76,3-4.52,4.13-4s.42,2.73-.19,5.78c-.58,2.87-1.59,5-4.13,4C239.87,470.34,240.52,467.83,242.16,465.38Z"/><path class="cls-27" d="M248.63,467.25c-.65-3.25-1-5.35.07-5.78s2.23,1.64,3.95,4.22,2.43,4.68-.07,5.78C250.52,472.38,249.2,470.14,248.63,467.25Z"/><path class="cls-27" d="M246.67,449.75c.65,3.25,1,5.35-.07,5.78s-2.23-1.64-3.95-4.22-2.43-4.68.07-5.78C244.79,444.63,246.1,446.87,246.67,449.75Z"/><path class="cls-27" d="M254.53,464c-2.76-1.84-4.52-3-4-4.13s2.73-.42,5.78.19c2.87.58,5,1.59,4,4.13C259.49,466.29,257,465.63,254.53,464Z"/><path class="cls-27" d="M240.77,453c2.76,1.84,4.52,3,4,4.13s-2.73.42-5.78-.19c-2.87-.58-5-1.59-4-4.13C235.81,450.72,238.33,451.37,240.77,453Z"/><path class="cls-28" d="M256.16,460.76c-3.27-.57-5.36-1-5.36-2.15s2.33-1.48,5.36-2.15c2.86-.63,5.25-.57,5.36,2.15C261.62,460.85,259.06,461.26,256.16,460.76Z"/><path class="cls-28" d="M239.14,456.25c3.27.57,5.36,1,5.36,2.15s-2.33,1.48-5.36,2.15c-2.86.63-5.25.57-5.36-2.15C233.68,456.15,236.24,455.74,239.14,456.25Z"/><path class="cls-28" d="M255.27,454.08c-2.71,1.9-4.47,3.11-5.32,2.27s.6-2.7,2.27-5.32,3.3-4.12,5.32-2.27C259.19,450.28,257.67,452.39,255.27,454.08Z"/><path class="cls-28" d="M240,462.93c2.71-1.9,4.47-3.11,5.32-2.27s-.6,2.7-2.27,5.32-3.3,4.12-5.32,2.27C236.11,466.72,237.63,464.61,240,462.93Z"/><path class="cls-28" d="M245.4,467c.57-3.27,1-5.36,2.15-5.36S249,464,249.71,467c.63,2.86.57,5.25-2.15,5.36C245.3,472.47,244.89,469.91,245.4,467Z"/><path class="cls-28" d="M249.91,450c-.57,3.27-1,5.36-2.15,5.36S246.27,453,245.6,450c-.63-2.86-.57-5.25,2.15-5.36C250,444.53,250.42,447.09,249.91,450Z"/><path class="cls-28" d="M252.08,466.11c-1.9-2.71-3.11-4.47-2.27-5.32s2.7.6,5.32,2.27,4.12,3.3,2.27,5.32C255.87,470,253.77,468.52,252.08,466.11Z"/><path class="cls-28" d="M243.23,450.89c1.9,2.71,3.11,4.47,2.27,5.32s-2.7-.6-5.32-2.27-4.12-3.3-2.27-5.32C239.43,447,241.54,448.48,243.23,450.89Z"/><circle class="cls-29" cx="247.65" cy="458.5" r="4.14"/><path class="cls-30" d="M268,497.13c-3.25.65-5.35,1-5.78-.07s1.64-2.23,4.22-3.95,4.68-2.43,5.78.07C273.12,495.25,270.88,496.56,268,497.13Z"/><path class="cls-30" d="M250.49,499.09c3.25-.65,5.35-1,5.78.07s-1.64,2.23-4.22,3.95-4.68,2.43-5.78-.07C245.37,501,247.61,499.66,250.49,499.09Z"/><path class="cls-30" d="M264.74,491.23c-1.84,2.76-3,4.52-4.13,4s-.42-2.73.19-5.78c.58-2.87,1.59-5,4.13-4C267,486.27,266.38,488.79,264.74,491.23Z"/><path class="cls-30" d="M253.75,505c1.84-2.76,3-4.52,4.13-4s.42,2.73-.19,5.78c-.58,2.87-1.59,5-4.13,4C251.46,509.95,252.12,507.44,253.75,505Z"/><path class="cls-30" d="M260.22,506.86c-.65-3.25-1-5.35.07-5.78s2.23,1.64,3.95,4.22,2.43,4.68-.07,5.78C262.11,512,260.8,509.75,260.22,506.86Z"/><path class="cls-30" d="M258.27,489.36c.65,3.25,1,5.35-.07,5.78s-2.23-1.64-3.95-4.22-2.43-4.68.07-5.78C256.38,484.24,257.69,486.48,258.27,489.36Z"/><path class="cls-30" d="M266.13,503.61c-2.76-1.84-4.52-3-4-4.13s2.73-.42,5.78.19c2.87.58,5,1.59,4,4.13C271.08,505.9,268.57,505.24,266.13,503.61Z"/><path class="cls-30" d="M252.37,492.62c2.76,1.84,4.52,3,4,4.13s-2.73.42-5.78-.19c-2.87-.58-5-1.59-4-4.13C247.41,490.33,249.92,491,252.37,492.62Z"/><path class="cls-28" d="M267.76,500.37c-3.27-.57-5.36-1-5.36-2.15s2.33-1.48,5.36-2.15c2.86-.63,5.25-.57,5.36,2.15C273.22,500.46,270.65,500.87,267.76,500.37Z"/><path class="cls-28" d="M250.73,495.86c3.27.57,5.36,1,5.36,2.15s-2.33,1.48-5.36,2.15c-2.86.63-5.25.57-5.36-2.15C245.27,495.76,247.84,495.35,250.73,495.86Z"/><path class="cls-28" d="M266.86,493.69c-2.71,1.9-4.47,3.11-5.32,2.27s.6-2.7,2.27-5.32,3.3-4.12,5.32-2.27C270.79,489.89,269.27,492,266.86,493.69Z"/><path class="cls-28" d="M251.63,502.54c2.71-1.9,4.47-3.11,5.32-2.27s-.6,2.7-2.27,5.32-3.3,4.12-5.32,2.27C247.7,506.33,249.22,504.22,251.63,502.54Z"/><path class="cls-28" d="M257,506.62c.57-3.27,1-5.36,2.15-5.36s1.48,2.33,2.15,5.36c.63,2.86.57,5.25-2.15,5.36C256.9,512.08,256.48,509.52,257,506.62Z"/><path class="cls-28" d="M261.5,489.6c-.57,3.27-1,5.36-2.15,5.36s-1.48-2.33-2.15-5.36c-.63-2.86-.57-5.25,2.15-5.36C261.6,484.14,262,486.7,261.5,489.6Z"/><path class="cls-28" d="M263.67,505.72c-1.9-2.71-3.11-4.47-2.27-5.32s2.7.6,5.32,2.27S270.83,506,269,508C267.46,509.65,265.36,508.13,263.67,505.72Z"/><path class="cls-28" d="M254.82,490.5c1.9,2.71,3.11,4.47,2.27,5.32s-2.7-.6-5.32-2.27-4.12-3.3-2.27-5.32C251,486.57,253.13,488.09,254.82,490.5Z"/><circle class="cls-29" cx="259.25" cy="498.11" r="4.14"/><path class="cls-31" d="M410.87,666.94c-7.38,13.33-14,20.5-19.06,24.34-6.54,5-10.54,4.51-10.54,4.51l-10.84,2.49-2.28.51s-5.27-5.23-2.66-11.22,12.74-19.15,18-25.14c3-3.42,6.62-6,8.65-10.16,5.86-12.19,4.68-28.55,1.27-41.29-1.39-5.23-5.19-10.63-5.23-16.15a8.64,8.64,0,0,1,1.18-4c1.31-2.28,3.54-4.22,6.12-3.75,1,.17,1.9.42,2.83.67v0c12.82,4,18.89,17.88,21.09,30.32C422.42,635.22,419.3,651.76,410.87,666.94Z"/><path class="cls-32" d="M409.73,657.2c-6.58,18-13,28.26-17.92,34.08-5.44,6.45-9.07,7.51-9.07,7.51L367,701.39s1.31-1.1,3.42-3.12c8.31-7.93,29.19-29.94,30.7-52.72,1.73-26.49-2.7-44.24-11.77-54.74,1.31-2.28,3.54-4.22,6.12-3.75,1,.17,1.9.42,2.83.67v0C405.09,598.15,420.82,627,409.73,657.2Z"/><path class="cls-33" d="M232.68,470.95s-21.32.47-32.7,27.48-9.48,36.49-9.48,56.86,7.58,44.07,10,58.29,4.74,25.59,4.74,25.59-2.37-37.91.95-49.28,5.21-29.38,5.21-45.49.47-47.39,6.63-56.86S227,474.74,232.68,470.95Z"/><path class="cls-34" d="M147.71,507.85a1,1,0,0,0-1.91.32c-.35,13.9-.14,56.33,14.39,77.93,17.53,26.06,53.55,63.5,53.55,89.09s.47,30.8.47,30.8,8.06-37.44,3.79-65.39-17.06-47.86-35.54-72C165.22,546,155.81,527.2,147.71,507.85Z"/><path class="cls-35" d="M447.47,609.54a21.13,21.13,0,0,1-4,7.63v0c-.46.59-1,1.18-1.48,1.77l0,0A44.39,44.39,0,0,1,428,628.35h0a56.93,56.93,0,0,1-9.87,3.5l-4.6-10.75s-7.25-5.1,3.8-6.71,10.5-15.35,7.51-31c-1.14-6.12.13-9,2.11-10.21v0a5.21,5.21,0,0,1,2.57-.76,12.34,12.34,0,0,1,5.31.8,34.89,34.89,0,0,1,5.52,3.67,31.6,31.6,0,0,1,3,2.83s0,0,0,0C451.23,588.62,450,600,447.47,609.54Z"/><path class="cls-36" d="M428,628.35h0c12-19.36,2.61-46.35-1.05-55.17v0a5.21,5.21,0,0,1,2.57-.76l4.22,8.6C443.26,606.71,430,625.77,428,628.35Z"/><path class="cls-36" d="M443.43,617.21v0c2.57-8.77,5.48-24.17-.08-37.45,0,0,0,0,0,0a31.6,31.6,0,0,0-3-2.83c2.49,7.3,5.06,20.88,1.6,42.13l0,0Z"/><path class="cls-26" d="M225.66,680.59s27.83-88,34.67-103.09,32.39-77.55,47-88.5c0,0-16-4.56-28.28,8.21s-37.86,46.53-42,79.37-15.51,90.78-20.53,104.92A34,34,0,0,0,218,707.41Z"/><path class="cls-23" d="M242.54,563.81s11.86-48.35,42.88-72.53,47-15.51,48.81-8.21S305,495.38,287.7,499.49,247.56,536.89,242.54,563.81Z"/><path class="cls-35" d="M393.53,555.6c-3,10.5-19.74,19-28.09,22.69-2.87,1.26-4.77,1.94-4.77,1.94l-5.4-11.72-3.25-7c17.33-11.89,18.68-28.3,18.68-37.87s-3.63-20.08.46-36.95c1.39-5.82,4.47-8.31,7.84-9.11,4.34-1,9.24.8,11.94,2.07a18.81,18.81,0,0,1,2.11,1.1C417.7,520.93,393.53,555.6,393.53,555.6Z"/><path class="cls-36" d="M393.45,536.74c-3.59,15.82-19.48,33.15-28,41.54-2.87,1.26-4.77,1.94-4.77,1.94l-5.4-11.72c44.83-37.83,29.56-79.08,23.74-90.89,4.34-1,9.24.8,11.94,2.07C401,499,397.92,517.09,393.45,536.74Z"/><path class="cls-23" d="M374.93,684.27s13.46,18.84,1.08,36.07-13.46,31.22-32.84,25.3S320,733.79,320,733.79Z"/><path class="cls-35" d="M344.86,639.57l-4.47,25.09s-1.31-1.05-3.42-2.87a152.8,152.8,0,0,1-16.91-17c-4.93-5.86-9.36-12.4-11.56-18.68-6.37-18.39-4.47-61.11,4.13-63.35a9.31,9.31,0,0,1,3.67-.25.38.38,0,0,1,.21,0c5.78.93,8.1,7.68,8.1,7.68C328.75,576.22,344.86,639.57,344.86,639.57Z"/><path class="cls-36" d="M316.52,562.51c2.19,30.66,14.51,63.94,14.51,63.94s5.44,23.37,5.95,35.34a152.85,152.85,0,0,1-16.91-17,140.73,140.73,0,0,1-7.42-29.19c-3.37-24.38,3-35.26,3-35.26l.67-17.84Z"/><path class="cls-22" d="M426.4,651.81a.66.66,0,0,0-.48-1.21c-10.38,2.08-38,8.15-52.92,16.42-18.57,10.32-37.65,22.18-50.54,41.78s-16,41.78-24.24,42.81c0,0,4.85,4.52,9.78,2.77s41.14-47.82,62.59-61.89C389.88,679.83,414.26,659.31,426.4,651.81Z"/><path class="cls-37" d="M428.61,568.05s-3.24-11.89,7.93-14.41c0,0-2.34,5.95-4.14,9.73s-2.16,7-1.62,7.75S429.15,570.57,428.61,568.05Z"/><path class="cls-37" d="M427.34,567.12s-8.83-8.59-16.45,0c0,0,6.34.83,10.52,1.08s7.19,1.51,7.56,2.33S429.28,568.82,427.34,567.12Z"/><path class="cls-37" d="M431.76,567.25s3.8-11.72,14.53-7.71c0,0-5.22,3.69-8.8,5.87s-5.66,4.69-5.6,5.59S430.83,569.66,431.76,567.25Z"/><path class="cls-37" d="M375.17,478.12s-10.13-15.63,5.21-20.84c0,0-7.24,15.92-2,20Z"/><path class="cls-37" d="M376.62,478.7s-12.74-2-12.74,7.53c0,0-6.66-12.16,9-12.74,0,0-1.74,2.61-9.26-7.82,0,0,4.63-4.92,11,4.92l2,5.5Z"/><path class="cls-37" d="M348.5,541.53s-3-13.22,9.77-11.27c0,0,1.2,2-.45,2s-8.71,4.81-6.76,9.92l.45,2S348.65,543.49,348.5,541.53Z"/><path class="cls-37" d="M349.1,544.24s.3-8.41,10.67-3l2.4,2.85s-6.61.75-9.77.9S349.1,544.24,349.1,544.24Z"/><path class="cls-37" d="M335.43,529.21s6.31-2,10.82,6.16,3.91,9.17,3.91,9.17-7.06-5.86-8.41-8.11S335.43,529.21,335.43,529.21Z"/><path class="cls-37" d="M328.36,548.29s2.1-11.12,15.93-9.62c0,0,5,2,5,4.36s-6,2.85-6,8.41-1.35,6.16-1.35,6.16-6.46-3.61-1.8-11.27a10,10,0,0,1,4.21-3S329.12,545.89,328.36,548.29Z"/><path class="cls-23" d="M214.53,568.85s-4.64,7.68-1.3,25.74S219.87,654,216.76,667a76.93,76.93,0,0,0-1.69,24.5s6.62-25.64,6.76-33,1.27-24.1-1.72-38.88S213.14,577.41,214.53,568.85Z"/><path class="cls-24" d="M222.53,705.52s8.24-9.74,9.74-21.74,18-38.22,26.23-46.47,18-15.74,25.48-39,21-47.22,21-47.22"/><path class="cls-22" d="M249.31,597.07s34.45-36.86,60.09-39.66c0,0-51.68,33.25-58.09,48.87Z"/><path class="cls-35" d="M367,633.62c0,.51,0,1,0,1.43a19,19,0,0,1-1.48,6.87v0c-1.81,4.56-5,8.65-7.93,9.45a3.29,3.29,0,0,1-3.71-1.18c-.21-.29-.38-.59-.59-.89a2.81,2.81,0,0,0-.3-.46,16.49,16.49,0,0,1-1.39-4.47c-3-16.49-10.12-50.61-9.36-77.94.34-11.39,2.87-17,5.69-19.7a7.92,7.92,0,0,1,7-2.15,7.68,7.68,0,0,1,1.56.42,7.83,7.83,0,0,1,2.78,1.69c6.37,5.4,5.86,20.37,8.86,37.33C371.35,602.33,367.38,622.95,367,633.62Z"/><path class="cls-36" d="M357.6,651.42a78,78,0,0,1-2.45-9.7c-13.5-53.73-9.28-85-7.21-94.94-2.83,2.7-5.36,8.31-5.69,19.7-.76,27.33,6.37,61.45,9.36,77.94a16.5,16.5,0,0,0,1.39,4.47,2.84,2.84,0,0,1,.3.46c.21.3.38.59.59.89Z"/><path class="cls-36" d="M367,633.62c0,.51,0,1,0,1.43a19,19,0,0,1-1.48,6.87c-5.69-11.6-11.26-48.21-12.15-64.4a184.6,184.6,0,0,1,1.56-32.9l4.34,2.11C351.61,576,362.28,617.51,367,633.62Z"/></g><g id="Trees"><path class="cls-38" d="M484.56,288.07s9.63,6.8,9.63,30,0,86.64-4,92.3-13,11.89-13,11.89,24.35-1.7,29.45-.57c0,0-2.83-39.07-1.7-49.26s-4-52.66,2.27-61.16,15.29-17.55,20.39-19.82l-5.1-5.66s-13.59,18.12-17,19.82c0,0,2.83-14.72,5.1-19.25L506,284.61s-3.22,18.23-4.29,21.45-4.83.27-4.83.27-.8-16.09-7-19.3S484.58,288,484.56,288.07Z"/><path class="cls-39" d="M539.75,291.87a14.18,14.18,0,0,1-7.25,2.36c-13.83-1.22-30.91-7.89-30.91-7.89s-6.12,4.22-22.1,6.5c-2.15.3-4.47.59-7,.8-21.21,1.81-12.69-20-12.69-20-11.56-2.4-11.22-20.29-2.7-24.59,7.59-3.8,18.09,0,19,.34-5.36-13.37,8-41.2,36.44-32.09S531.87,253,531.87,253C563.12,257.63,552.83,283.86,539.75,291.87Z"/><path class="cls-39" d="M565.52,358.85a24.57,24.57,0,0,1-15.77,11.09c-12.23,2.87-25-2.57-25-2.57s-13.62,7.89-28.89,15.82c-14.09,7.3-38.17,9.78-50.74-4.39a25.3,25.3,0,0,1-3.08-4.09c-13-43.61,22.1-44.16,22.1-44.16s-4.51-20.41,14.72-26.06c30.58-11.3,40.19,19.27,40.19,19.27,1.14,0-5.1-17,22.65-14.72S578.55,338.48,565.52,358.85Z"/><path class="cls-40" d="M549.75,369.94c-12.23,2.87-25-2.57-25-2.57s-13.62,7.89-28.89,15.82c-14.09,7.3-38.17,9.78-50.74-4.39-.55-5.82.46-13.29,9.28-13.5,0,0,8.73-35.72,39.86-22,0,0,42.34-17.46,54.83-5.4C558.48,346.91,555.61,361.38,549.75,369.94Z"/><path class="cls-40" d="M539.75,291.87a14.18,14.18,0,0,1-7.25,2.36c-13.83-1.22-30.91-7.89-30.91-7.89s-6.12,4.22-22.1,6.5c-4.68-4.26-12.23-14-1.73-26.19,7-7.3,22.23-4.77,27.62,6,0,0,22.86-6.66,31.13,6C539.08,282.89,540.77,287.4,539.75,291.87Z"/><path class="cls-41" d="M584.39,281.88s-7.17-32.51,33.95-66c0,0-25.34,54.51-33,70.77Z"/><path class="cls-41" d="M647.39,257s-49.49.24-62,30.93l2.78,1.83,8.58.26S632.57,260.67,647.39,257Z"/><path class="cls-41" d="M588.12,289.79s21.32-6,33.27,17.42,10.4,32,10.14,38c0,0-1.3,0-2.86-3.38s-14-43.41-39.77-49.39Z"/><path class="cls-41" d="M583.7,278.09s2.08-68.11,0-74.35c0,0-3.64,5.2-7.28,21.58s-2.08,27.3,1.56,38A136.52,136.52,0,0,0,583.7,278.09Z"/><path class="cls-42" d="M587.34,286.93s-5.46-28.86-16.38-36.13-16.12-10.92-23.14-8.58c0,0,16.9,11.18,23.92,24.18S584,283.29,587.34,286.93Z"/><path class="cls-43" d="M579.28,279.13s-25.74,2.6-34.57,12.48-11.18,13-11.7,20.54c0,0,15.6-18.46,49.65-21.32l8.32,1.3Z"/><path class="cls-42" d="M543.67,263.27s9.1-20,33.53,8.58c7.28,12.22,10.92,17.94,10.92,17.94s-13-10.14-15.08-12.48-10.66-14.3-22.62-11.18S543.67,263.27,543.67,263.27Z"/><path class="cls-41" d="M579.28,288.75s-11.7,8.58-11.7,32.24,7.54,38.47,7.54,38.47-3.64-61.61,18.46-72.79Z"/></g><g id="Student"><path class="cls-44" d="M735.75,405.13s-31.42,25.06-40.57,35.8-12.33,27-12.33,36.19,2.39,8.35,2.39,8.35a6.54,6.54,0,0,0,7.16,0c4-2.39,5.57-5.57,6.76-14.32s.8-16.71,3.18-19.49,44.55-24.26,48.92-31.82,5.17-10.74,5.17-10.74Z"/><path class="cls-44" d="M812.12,338.31l-6,18.69,36.19,14.32L876.15,431s-6.36,19.89-2.39,25.46,7.16,11.53,9.55,11.14,2-5.57,1.59-12.33.4-11.14,2-17.5,4.77-11.53,2.78-14.72-6.76-6.36-9.55-13.13-18.3-44.15-24.26-51.31-2.39-4.77-9.15-7.56S812.12,338.31,812.12,338.31Z"/><path class="cls-45" d="M816.38,395.92c3.84,10.29,4.09,25.64,4.09,25.64l-57.82,20.92-5,1.81-3.84-1.69s-1.14-3.21-2.28-7c0,0,0-.08,0-.13-1.14-3.8-2.36-8.1-2.45-10.38-.25-4.55-13.33-20-13.33-20s.13-22.14,2.07-33.66a219.34,219.34,0,0,0,2.36-23.7l-11.72-9.11L744.26,326h19.19s2.87-1.69,5.48-3.37,12.95,2.66,25.18,6.24,26.36,10.75,26.36,10.75l-11.94,25-.76,1.6-10.33-2.61c.13.08.25.21.42.34C801.45,367.41,812.67,386,816.38,395.92Z"/><path class="cls-44" d="M886.91,653.33c-16.91-17.14-26.66-76-41.28-83.13l-24.74,16.05s25.88,41.2,31.69,50.17c3.05,4.72,6,9.87,8.41,14.08l.2.33c.57,2.13.5,7-7.66,14.14,0,0,9.61,5.77,16.75,0,2.94-2.37,6.18-4.81,9-6.87C884.33,656.88,888.53,655,886.91,653.33Z"/><path class="cls-46" d="M887.09,652.41S867,666.8,860.94,665.54s-3.57-4.38-3.57-4.38-20.87,16.65-24.69,18.26-7.47,6.94-4.91,7.25,21,.53,37.88-6.22,23.16-4.19,27.28-5.92,2.41-8.28,2.41-8.28S890.17,655.62,887.09,652.41Z"/><path class="cls-44" d="M776.2,276.48c-4,11.5-20.18,26-20.18,26l5.19,19.11-19.11,12.31-3.58-4-10-18.3s-13.5,5.57-19.06,5.57-7.17-2.78-12.74-16.7,4.77-21.89,4.77-21.89,0-3.16-2.78-11.89S702,245.23,702,245.23a1.1,1.1,0,0,1,.13-.34c2.53-9.15,14.55-22.27,45.59-18.35a38.82,38.82,0,0,1,6.24,1.31c.08,0,.17,0,.25,0C779.14,235.36,780.44,264.29,776.2,276.48Z"/><path class="cls-44" d="M733.74,573.58s-4.23,66.55-6.87,77.64-7,14.17-7,14.17l-13.7,5.31,5,8.11L745,673.35s-6.2-8.3,5.6-35.34c10.61-24.32,10.24-58.44,10.24-58.44Z"/><path class="cls-47" d="M871.59,564.07l2.66,6.87S842,596.8,772.31,591.53c-85.57-15.31-85-69.17-85-69.17,12.44-7.07,49-39.48,64.05-53a18.46,18.46,0,0,0,6.1-14.73l-.18-3.4-3.42-8.65,4.22-3.71,62.82-23c1.18,2.57,2.4,5.57,3.59,8.9,7.21,19.65,16.89,49,19.3,59.71a34.66,34.66,0,0,0,2.87,7.8l36.06,68.58Z"/><polygon class="cls-48" points="728.45 338.63 728.68 352.77 740.19 347.74 728.45 338.63"/><path class="cls-49" d="M807.78,366.19l-10.33-2.61c.13.08.25.21.42.34-10.54-3.84-25.85-9.66-27.79-12l38.46,12.65Z"/><path class="cls-49" d="M762.65,442.48l-5,1.81-3.84-1.69s-1.14-3.21-2.28-7c0,0,0-.08,0-.13-1.73-8.52-4.3-24.42-4.3-28.81,0-5.82-7.47-37-7.47-42.51s2.36-30.28,2.36-30.28c.17-.13,2-1.08,2-1.08s.58,33.72.58,39,10,50,11.3,57.65C756.79,434.3,760.2,439.36,762.65,442.48Z"/><polygon class="cls-50" points="763.61 317.78 742.11 333.94 752.5 343.57 766.78 324.13 763.61 317.78"/><path class="cls-51" d="M824.72,425.08l-67.47,26.17-3.42-8.65,4.22-3.71,63.08-22.71C822.31,418.76,823.54,421.75,824.72,425.08Z"/><path class="cls-46" d="M745.44,672.71s-29.68,5.74-34.78,2.23-1.6-5.42-1.6-5.42-20.1,7-24.25,7-9.57,3.51-7.34,4.79,19.15,8.62,37.34,8.94,23,5.11,27.44,5.11,5.42-6.7,5.42-6.7S747,676.86,745.44,672.71Z"/><path class="cls-52" d="M707.24,246.58a10.57,10.57,0,0,0,7,2.7h4.28s7.46-13.46,23-14.07c16.46-.65,26,8.34,26.23,27.3.3,21.65-8.45,24.42-2.36,35.46s13.75,4.28,13.75,3.38-2.7-1.8-3.83.68a7.92,7.92,0,0,1-8.57-5.86c-2-6.76,11.35-13.61,11.83-29.17.51-16.59-2.8-34.77-27.6-39.28S709.49,240.94,707.24,246.58Z"/><path class="cls-19" d="M823.17,404.57l.93,13.14c-1.27-.67-10.29-3.44-11.6-4.32-25.43-16.66-58.79-64.57-58.79-71.23,0-7,7.42-15.69,16.57-18.73,6.71-2.24,16.83-.08,21.85,1.27a25.74,25.74,0,0,0-1.39,3.54c-20.58-5.1-22.94-2.36-26,4.6-4.89,10.33,6.16,18.56,17.8,33.11,3.75,4.72,10.63,11.47,17.59,18C811.4,394.53,823.17,404.57,823.17,404.57Z"/><path class="cls-52" d="M753.92,227.85c-1.86-.25-3.92-.51-6.24-.84C717.1,222.75,705,245.9,705,245.9l-2.91-1c2.53-9.15,14.55-22.27,45.59-18.35A38.82,38.82,0,0,1,753.92,227.85Z"/><path class="cls-52" d="M721,249.51s14.2-22.32,37.19-8.34c8.57,7.21,10.37,20.29,7,35.16s-5.86,18.26-.23,25.25c3.83,2.48,7.44,2.48,7.44,4.28s-2,.9-3.61-.23-9.47-2.48-9.47-8.34.9-4.73-3.61-6.54-7.21-2.93-7.21-2.93S756.38,279,754.8,272s-5.64-11.5-8.79-9-9.47,7.21-9.47,7.21S734,259,733.89,257.75c-.32-2.84-.81-6.72-4-7.78C727.28,249.13,723.74,250.1,721,249.51Z"/></g><path class="cls-53" d="M610.26,384.08c-5.06-49.94-22.92-97.16-22.92-97.16l-4.68,3.9c6.62,8.42,10.8,63.6,12.87,100A59.8,59.8,0,0,1,610.26,384.08Z"/></g></svg>