<svg width="60" height="61" viewBox="0 0 60 61" xmlns="http://www.w3.org/2000/svg"><title>CE09E913-5FBB-44FF-8CA3-24874D53E7D9</title><g fill="none" fill-rule="evenodd"><path fill="none" d="M-1 0h62v62H-1z"/><path d="M32.245 3.204l5.777 18.909 17.713-.036c4.414-.009 5.14 2.164 1.63 4.846L42.903 37.98l5.625 18.17c1.306 4.22-.479 5.448-3.978 2.751L30.127 47.786 15.704 58.9c-3.504 2.7-5.283 1.461-3.979-2.75l5.625-18.171L2.887 26.923c-3.514-2.685-2.788-4.855 1.63-4.846l17.714.036L27.79 3.92c1.29-4.224 3.383-4.223 4.455-.716z" fill="#FFD96B"/><path d="M30.127 33.594l7.895-11.481S33.064-.287 30.127.868v32.726zM30.127 33.594l12.775 4.385S60.86 26.196 59.585 23.532L30.127 33.594zM30.127 33.594v14.192s15.137 13.756 18.155 12.358l-18.155-26.55z" fill="#FFB103"/><path d="M30.127 33.594L17.35 37.98s-8.895 22.3-4.858 22.3l17.635-26.685zM30.127 33.594L22.169 22.16S-1.036 20.303.849 23.78c.387.715 29.278 9.814 29.278 9.814z" fill="#FFB103"/></g></svg>
