<svg width="52" height="54" viewBox="0 0 52 54" xmlns="http://www.w3.org/2000/svg"><title>60EA0FB6-BC49-4AEC-9940-C1580799A69F</title><g fill="none" fill-rule="evenodd"><path fill="none" d="M-5-3h62v62H-5z"/><path d="M43.136 8.8c9.467 8.141 11.559 22.265 4.5 33.064-7.72 11.81-23.489 15.255-35.232 7.68C.65 41.96-2.6 26.223 5.127 14.404l10.326 3.79c-6.266 9.586-2.95 19.296 3.783 23.335 6.734 4.038 15.898.939 19.063-3.706 2.789-4.091 5.23-12.193-.361-18.366l-2.63 5.391c-.97 1.989-2.533 1.997-3.499.003L23.862 8.444c-.962-1.987 0-3.973 2.166-4.44L43.85.166c2.158-.465 3.124.766 2.152 2.76L43.136 8.8z" fill="#63D9EA"/></g></svg>
