<svg width="80" height="80" viewBox="0 0 80 80" xmlns="http://www.w3.org/2000/svg" xmlns:xlink="http://www.w3.org/1999/xlink"><title>star-unfilled</title><defs><path id="a" d="M39.844 0h39.844v79.688H0V0z"/></defs><g fill="none" fill-rule="evenodd"><g><mask id="b" fill="#fff"><use xlink:href="#a"/></mask><path d="M39.844 79.688C17.84 79.688 0 61.85 0 39.844 0 17.84 17.84 0 39.844 0 61.85 0 79.69 17.839 79.69 39.844c0 22.006-17.839 39.844-39.845 39.844m0-6.64c18.337 0 33.204-14.866 33.204-33.204S58.18 6.641 39.844 6.641c-18.338 0-33.203 14.865-33.203 33.203s14.865 33.204 33.203 33.204" fill-opacity=".4" fill="#FFF" mask="url(#b)"/></g><path d="M28.047 59.416c-2.536 1.268-5.394-1.023-4.705-3.775l2.91-11.646-7.221-8.666c-1.801-2.164-.264-5.446 2.552-5.446h9.569l5.722-11.447c1.224-2.447 4.717-2.447 5.94 0l5.723 11.447h9.57c2.813 0 4.352 3.282 2.55 5.446l-7.222 8.666 2.912 11.646c.687 2.752-2.17 5.043-4.707 3.775l-11.792-5.899-11.8 5.899z" fill-opacity=".4" fill="#FFF"/></g></svg>