<?xml version="1.0" encoding="UTF-8" standalone="no"?>
<svg
   xmlns:dc="http://purl.org/dc/elements/1.1/"
   xmlns:cc="http://creativecommons.org/ns#"
   xmlns:rdf="http://www.w3.org/1999/02/22-rdf-syntax-ns#"
   xmlns:svg="http://www.w3.org/2000/svg"
   xmlns="http://www.w3.org/2000/svg"
   xmlns:sodipodi="http://sodipodi.sourceforge.net/DTD/sodipodi-0.dtd"
   xmlns:inkscape="http://www.inkscape.org/namespaces/inkscape"
   id="Layer_1"
   data-name="Layer 1"
   viewBox="0 0 410 410"
   version="1.1"
   sodipodi:docname="ustad-logo512-google-play.svg"
   width="410"
   height="410"
   inkscape:version="0.92.4 (5da689c313, 2019-01-14)"
   inkscape:export-filename="/home/mike/Documents/UstadMobile/ownCloud/Marketing/Logo/SVG/ustad-logo512-google-play.png"
   inkscape:export-xdpi="119.88"
   inkscape:export-ydpi="119.88">
  <metadata
     id="metadata1118">
    <rdf:RDF>
      <cc:Work
         rdf:about="">
        <dc:format>image/svg+xml</dc:format>
        <dc:type
           rdf:resource="http://purl.org/dc/dcmitype/StillImage" />
        <dc:title>ustad-logo</dc:title>
      </cc:Work>
    </rdf:RDF>
  </metadata>
  <sodipodi:namedview
     pagecolor="#ffffff"
     bordercolor="#666666"
     borderopacity="1"
     objecttolerance="10"
     gridtolerance="10"
     guidetolerance="10"
     inkscape:pageopacity="0"
     inkscape:pageshadow="2"
     inkscape:window-width="1920"
     inkscape:window-height="1054"
     id="namedview1116"
     showgrid="false"
     inkscape:zoom="0.944"
     inkscape:cx="262.1822"
     inkscape:cy="156.77966"
     inkscape:window-x="1920"
     inkscape:window-y="0"
     inkscape:window-maximized="1"
     inkscape:current-layer="Layer_1" />
  <defs
     id="defs1081">
    <style
       id="style1079">.cls-1{fill:#55a99a;}.cls-2{fill:#fff;}</style>
  </defs>
  <title
     id="title1083">ustad-logo</title>
  <rect
     class="cls-1"
     x="0"
     y="-3.695488e-06"
     width="410"
     height="410"
     id="rect1085"
     style="fill:#55a99a;stroke-width:0.39920545" />
  <g
     id="g1706"
     transform="translate(22.172053,-20.976014)">
    <path
       style="fill:#ffffff"
       inkscape:connector-curvature="0"
       id="path1109"
       d="m 182.84797,57.30508 a 167.51,167.51 0 0 0 -93.350004,28.12 33.87,33.87 0 1 0 18.830004,30.35 c 0,-0.72 0,-1.42 -0.07,-2.13 a 133.87,133.87 0 0 1 74.6,-22.47 c 74.34,0 134.82,60.48 134.82,134.82 a 135,135 0 0 1 -5.3,37.58 16.94,16.94 0 1 0 32.54,9.42 168.92,168.92 0 0 0 6.64,-47 c -0.02,-93.03 -75.7,-168.69 -168.71,-168.69 z"
       class="cls-2" />
    <path
       style="fill:#ffffff"
       inkscape:connector-curvature="0"
       id="path1111"
       d="m 100.86797,171.25508 v 99.68 l 0.3,1.56 c 3.75,19.76 25.64,57.14 81.68,57.14 56.04,0 77.93,-37.33 81.67,-57.14 l 0.3,-1.56 v -88.84 a 27.08,27.08 0 0 0 0,-42.29 v -0.5 h -0.68 a 27.1,27.1 0 0 0 -32.52,0 h -0.68 v 0.53 a 27.08,27.08 0 0 0 0,42.29 v 85.18 c -1.61,5.44 -10.62,28.44 -48.1,28.44 -37.11,0 -46.27,-22.27 -48.1,-28.5 v -96 z"
       class="cls-2" />
    <path
       style="fill:#ffffff"
       inkscape:connector-curvature="0"
       id="path1113"
       d="m 291.23797,300.50508 a 33.84,33.84 0 0 0 -33.65,37.73 133.74,133.74 0 0 1 -74.75,22.57 c -74.34,0 -134.820004,-60.48 -134.820004,-134.82 a 135,135 0 0 1 5.58,-38.53 16.94,16.94 0 1 0 -32.47,-9.66 168.83,168.83 0 0 0 -7,48.19 c 0,93 75.67,168.69 168.690004,168.69 a 167.32,167.32 0 0 0 95,-29.2 33.88,33.88 0 1 0 13.44,-65 z"
       class="cls-2" />
  </g>
</svg>
