<?xml version="1.0" encoding="UTF-8" standalone="no"?>
<!-- Generator: Adobe Illustrator 23.1.0, SVG Export Plug-In . SVG Version: 6.00 Build 0)  -->

<svg
   version="1.1"
   id="Layer_1"
   x="0px"
   y="0px"
   viewBox="0 0 850.39 850.39"
   style="enable-background:new 0 0 850.39 850.39;"
   xml:space="preserve"
   sodipodi:docname="icon.svg"
   inkscape:export-filename="app-resources/common/icon-512.png"
   inkscape:export-xdpi="57.799355"
   inkscape:export-ydpi="57.799355"
   inkscape:version="1.2.2 (b0a8486541, 2022-12-01)"
   xmlns:inkscape="http://www.inkscape.org/namespaces/inkscape"
   xmlns:sodipodi="http://sodipodi.sourceforge.net/DTD/sodipodi-0.dtd"
   xmlns="http://www.w3.org/2000/svg"
   xmlns:svg="http://www.w3.org/2000/svg"><defs
   id="defs25" /><sodipodi:namedview
   id="namedview23"
   pagecolor="#ffffff"
   bordercolor="#666666"
   borderopacity="1.0"
   inkscape:showpageshadow="2"
   inkscape:pageopacity="0.0"
   inkscape:pagecheckerboard="0"
   inkscape:deskcolor="#d1d1d1"
   showgrid="false"
   inkscape:zoom="0.99366171"
   inkscape:cx="425.6982"
   inkscape:cy="425.6982"
   inkscape:window-width="1850"
   inkscape:window-height="1011"
   inkscape:window-x="70"
   inkscape:window-y="32"
   inkscape:window-maximized="1"
   inkscape:current-layer="Layer_1" />
<style
   type="text/css"
   id="style2">
	.st0{fill:#1B9BC5;}
	.st1{fill:#FEFFFF;}
</style>
<g
   id="g20">
	<path
   class="st0"
   d="M0.08,0.08c282.17,0,564.33,0.01,846.5-0.08c3.11,0,3.81,0.7,3.81,3.81c-0.08,280.92-0.08,561.84,0,842.77   c0,3.11-0.7,3.81-3.81,3.81c-280.92-0.08-561.84-0.08-842.77,0c-3.11,0-3.82-0.7-3.81-3.81C0.08,564.41,0.08,282.24,0.08,0.08z    M424.52,702.51c104.33,0,208.66-0.02,312.99,0.05c6.32,0,12.39-0.85,18.26-3.13c19.33-7.51,25.35-25.55,16.48-42.81   c-10.39-20.2-22.07-39.75-33.29-59.52c-7.62-13.43-15.47-26.74-23.13-40.15c-4.17-7.29-8.2-14.67-12.22-22.04   c-2.3-4.22-4.2-8.97-2.37-13.49c2.56-6.34,2.19-12.72,2.19-19.18c0.03-102.94,0.05-205.89,0.07-308.83c0-3.04,0.11-6.11-0.18-9.13   c-1.62-16.43-8.14-28.71-23.88-33.96c-5.97-1.99-12.12-2.49-18.39-2.49c-150.82,0.04-301.64,0.03-452.46,0.03   c-5.53,0-11.07-0.13-16.6,0.06c-7.77,0.27-14.94,2.59-21.24,7.23c-10.27,7.57-14.48,18.05-14.48,30.51   c-0.03,108.48-0.08,216.96-0.04,325.44c0,5.71-1.32,11.01-4.01,15.86c-7.29,13.14-14.92,26.09-22.29,39.19   c-10.01,17.77-19.86,35.63-29.86,53.4c-7.09,12.61-14.22,25.21-21.51,37.71c-3.45,5.91-4.63,12.04-3.14,18.69   c3.46,15.51,17.23,26.55,33.24,26.55C213.93,702.53,319.22,702.52,424.52,702.51z"
   id="path4" />
	<path
   class="st1"
   d="M424.52,702.52c-105.3,0.01-210.59,0.01-315.89,0c-16.01,0-29.78-11.04-33.24-26.55   c-1.48-6.65-0.31-12.77,3.14-18.69c7.3-12.49,14.42-25.09,21.51-37.71c10-17.78,19.85-35.63,29.86-53.4   c7.37-13.09,15-26.05,22.29-39.19c2.69-4.85,4.01-10.15,4.01-15.86c-0.04-108.48,0.01-216.96,0.04-325.44   c0-12.46,4.21-22.95,14.48-30.51c6.3-4.64,13.47-6.96,21.24-7.23c5.53-0.19,11.07-0.06,16.6-0.06c150.82,0,301.64,0.01,452.46-0.03   c6.27,0,12.43,0.5,18.39,2.49c15.73,5.25,22.26,17.53,23.88,33.96c0.3,3.02,0.18,6.08,0.18,9.13   c-0.01,102.94-0.04,205.89-0.07,308.83c0,6.46,0.37,12.85-2.19,19.18c-1.82,4.51,0.07,9.27,2.37,13.49   c4.02,7.38,8.05,14.75,12.22,22.04c7.66,13.41,15.5,26.72,23.13,40.15c11.22,19.77,22.91,39.31,33.29,59.52   c8.87,17.26,2.85,35.3-16.48,42.81c-5.86,2.28-11.94,3.13-18.26,3.13C633.18,702.49,528.85,702.51,424.52,702.52z M429.9,180.15   c-76.8,0-153.59,0-230.39,0c-10.62,0-10.91,0.3-10.91,10.96c0,103.64,0,207.28,0,310.92c0,13.32,0,13.32,13.27,13.32   c49.95,0,99.9,0,149.85,0c102.53,0,205.07,0,307.6-0.01c11.52,0,11.65-0.16,11.65-11.47c0-104.05,0-208.11,0-312.16   c0-11.49-0.06-11.55-11.51-11.55C582.93,180.15,506.41,180.15,429.9,180.15z M109.34,670.11c1,0,1.95,0,2.91,0   c208.26,0,416.51,0,624.77,0c4.49,0,4.95-0.74,2.73-4.66c-9.09-16.08-18.18-32.16-27.34-48.2c-7.52-13.17-15.43-26.14-22.6-39.5   c-3.45-6.44-7.63-12.45-10.72-19.11c-2.99-6.45-6.86-10.79-15.62-10.82c-159.13-0.48-318.26,1.76-477.37-1.46   c-5.27-0.11-8.56,1.58-11.07,6.07c-10.56,18.88-21.23,37.69-31.94,56.49c-10.78,18.94-21.64,37.83-32.46,56.75   C109.89,666.98,109.21,668.33,109.34,670.11z"
   id="path6" />
	<path
   class="st0"
   d="M429.9,180.15c76.52,0,153.04,0,229.56,0c11.46,0,11.51,0.07,11.51,11.55c0,104.05,0,208.11,0,312.16   c0,11.31-0.13,11.47-11.65,11.47c-102.53,0.01-205.07,0.01-307.6,0.01c-49.95,0-99.9,0-149.85,0c-13.27,0-13.27-0.01-13.27-13.32   c0-103.64,0-207.28,0-310.92c0-10.66,0.29-10.95,10.91-10.96C276.3,180.15,353.1,180.15,429.9,180.15z M316.48,332.18   c-2.92,3.16-5.36,5.94-7.41,9.05c-6.36,9.64-7.74,20.56-8,31.71c-0.07,3.14-0.81,5.18-3.65,7.1c-6.98,4.72-8.69,15.65-2.48,21.01   c4.92,4.25,4.13,8.28,3.02,13.11c-0.34,1.48-0.72,2.95-1.11,4.42c-4.32,16.34-12.64,30.57-23.17,43.59   c-1.9,2.34-2.39,3.59,0.55,5.62c5.39,3.72,11.17,6.58,17.08,9.29c1.67,0.77,2.85,0.3,4.24-0.41c11.1-5.68,16.71-15.18,19.22-27.03   c2.92-13.78,0.86-27.57,0.44-41.36c-0.08-2.67,0.33-4.67,2.15-6.74c4.79-5.47,5.57-13.13,0.79-18.18   c-3.82-4.03-3.92-8.02-3.4-12.74c1.21-11.1,4.32-21.32,12.34-29.63c2.75-2.85,5.25-3.51,9.11-2.17   c29.47,10.28,59.02,20.3,88.53,30.47c3.27,1.13,6.37,1.35,9.69,0.2c45.53-15.8,91.08-31.55,136.62-47.31   c2.23-0.77,4.41-1.66,6.27-3.14c2.55-2.04,2.5-4.13-0.11-6.09c-2.13-1.6-4.6-2.48-7.09-3.34c-45.55-15.75-91.1-31.5-136.62-47.33   c-3.32-1.15-6.3-1.18-9.63-0.04c-45.85,15.72-91.73,31.34-137.6,47c-2.22,0.76-4.44,1.55-6.36,2.96c-3.36,2.45-3.35,4.29,0.09,6.71   c3.57,2.51,7.81,3.47,11.83,4.89C299.85,326.59,307.94,329.28,316.48,332.18z M532.21,357.95c-1.67,0.53-2.97,0.91-4.25,1.35   c-31.06,10.7-62.14,21.36-93.16,32.16c-3.32,1.16-6.25,1.22-9.6,0.07c-28.97-9.98-57.99-19.83-87.01-29.7   c-1.35-0.46-2.65-1.26-4.36-0.95c0,22.59-0.03,44.99,0.03,67.38c0.01,4.1,2.15,7.36,4.93,10.2c6.35,6.48,14.25,10.38,22.65,13.37   c17.05,6.06,34.7,8.97,52.71,10.15c26.1,1.71,51.95,0.34,77.37-6.11c11.95-3.04,23.61-6.96,33.33-15.04   c3.84-3.2,7.19-7.08,7.25-12.12C532.35,405.24,532.21,381.77,532.21,357.95z M429.42,201.88c-3.03,0-6.07-0.11-9.1,0.02   c-8.32,0.34-14.43,6.06-15.13,14.04c-0.83,9.37,3.58,15.94,12.52,17.48c7.62,1.31,15.42,1.26,23.05-0.07   c7.28-1.26,11.28-6.15,12.1-13.71c0.82-7.51-2.25-12.99-8.79-16.19C439.34,201.14,434.33,202.11,429.42,201.88z"
   id="path8" />
	<path
   class="st0"
   d="M109.34,670.11c-0.13-1.78,0.55-3.13,1.3-4.44c10.81-18.92,21.68-37.81,32.46-56.75   c10.7-18.8,21.38-37.61,31.94-56.49c2.52-4.5,5.8-6.18,11.07-6.07c159.11,3.22,318.25,0.98,477.37,1.46   c8.76,0.03,12.63,4.37,15.62,10.82c3.09,6.67,7.26,12.67,10.72,19.11c7.17,13.36,15.08,26.33,22.6,39.5   c9.16,16.04,18.25,32.12,27.34,48.2c2.21,3.92,1.76,4.66-2.73,4.66c-208.26,0-416.51,0-624.77,0   C111.29,670.11,110.33,670.11,109.34,670.11z M425.26,621.32c65.57,0,131.13,0,196.7,0c4.01,0,8.02-0.01,11.95-1.05   c7.67-2.04,12.23-7.19,12.06-14.73c-0.21-9.41-3.12-12.49-11.2-15.21c-3.42-1.16-7.04-1.41-10.65-1.41   c-132.52-0.02-265.03-0.02-397.55-0.03c-3.05,0-6.09,0.06-9.08,0.72c-5.72,1.26-10.77,5.84-11.32,10.83   c-0.73,6.73-0.82,13.28,6.01,17.67c4.48,2.87,9.27,3.22,14.29,3.22C292.75,621.31,359,621.32,425.26,621.32z"
   id="path10" />
	<path
   class="st1"
   d="M316.48,332.18c-8.54-2.9-16.63-5.58-24.68-8.41c-4.03-1.41-8.26-2.38-11.83-4.89   c-3.44-2.41-3.44-4.25-0.09-6.71c1.93-1.41,4.14-2.2,6.36-2.96c45.87-15.66,91.76-31.27,137.6-47c3.34-1.14,6.32-1.11,9.63,0.04   c45.52,15.83,91.07,31.58,136.62,47.33c2.49,0.86,4.96,1.74,7.09,3.34c2.61,1.96,2.66,4.05,0.11,6.09   c-1.86,1.49-4.04,2.37-6.27,3.14c-45.54,15.76-91.09,31.51-136.62,47.31c-3.32,1.15-6.42,0.93-9.69-0.2   c-29.5-10.17-59.06-20.2-88.53-30.47c-3.86-1.35-6.35-0.68-9.11,2.17c-8.03,8.31-11.13,18.53-12.34,29.63   c-0.52,4.73-0.41,8.72,3.4,12.74c4.79,5.05,4,12.71-0.79,18.18c-1.82,2.08-2.23,4.07-2.15,6.74c0.42,13.79,2.48,27.58-0.44,41.36   c-2.51,11.84-8.12,21.35-19.22,27.03c-1.39,0.71-2.57,1.18-4.24,0.41c-5.91-2.71-11.69-5.58-17.08-9.29   c-2.94-2.03-2.45-3.27-0.55-5.62c10.53-13.02,18.85-27.25,23.17-43.59c0.39-1.47,0.77-2.94,1.11-4.42   c1.11-4.83,1.9-8.86-3.02-13.11c-6.21-5.36-4.5-16.3,2.48-21.01c2.84-1.92,3.57-3.96,3.65-7.1c0.26-11.15,1.64-22.07,8-31.71   C311.12,338.12,313.56,335.33,316.48,332.18z"
   id="path12" />
	<path
   class="st1"
   d="M532.21,357.95c0,23.82,0.14,47.29-0.11,70.75c-0.05,5.04-3.4,8.93-7.25,12.12   c-9.72,8.08-21.38,12-33.33,15.04c-25.42,6.46-51.27,7.82-77.37,6.11c-18.01-1.18-35.66-4.09-52.71-10.15   c-8.4-2.98-16.3-6.89-22.65-13.37c-2.78-2.84-4.92-6.1-4.93-10.2c-0.06-22.4-0.03-44.79-0.03-67.38c1.71-0.31,3.02,0.49,4.36,0.95   c29.01,9.87,58.03,19.72,87.01,29.7c3.34,1.15,6.28,1.09,9.6-0.07c31.03-10.8,62.1-21.46,93.16-32.16   C529.23,358.86,530.54,358.48,532.21,357.95z"
   id="path14" />
	<path
   class="st1"
   d="M429.42,201.88c4.9,0.23,9.92-0.74,14.65,1.58c6.54,3.21,9.61,8.68,8.79,16.19   c-0.82,7.56-4.82,12.45-12.1,13.71c-7.63,1.32-15.43,1.38-23.05,0.07c-8.94-1.54-13.35-8.11-12.52-17.48   c0.71-7.98,6.82-13.7,15.13-14.04C423.35,201.78,426.39,201.88,429.42,201.88z"
   id="path16" />
	<path
   class="st1"
   d="M425.26,621.32c-66.26,0-132.52-0.01-198.78,0.01c-5.02,0-9.82-0.35-14.29-3.22   c-6.84-4.39-6.75-10.94-6.01-17.67c0.54-4.99,5.6-9.57,11.32-10.83c2.99-0.66,6.03-0.72,9.08-0.72   c132.52,0.01,265.03,0.01,397.55,0.03c3.6,0,7.23,0.25,10.65,1.41c8.07,2.73,10.99,5.8,11.2,15.21   c0.17,7.54-4.39,12.69-12.06,14.73c-3.92,1.05-7.93,1.05-11.95,1.05C556.4,621.32,490.83,621.32,425.26,621.32z"
   id="path18" />
</g>
</svg>
