<?xml version="1.0" encoding="UTF-8" standalone="no"?>
<!-- Created with Inkscape (http://www.inkscape.org/) -->

<svg
   version="1.1"
   id="svg2"
   xml:space="preserve"
   width="728.97076"
   height="728.97076"
   viewBox="0 0 728.97076 728.97079"
   sodipodi:docname="nayestane-icon.svg"
   inkscape:version="1.1.2 (0a00cf5339, 2022-02-04)"
   xmlns:inkscape="http://www.inkscape.org/namespaces/inkscape"
   xmlns:sodipodi="http://sodipodi.sourceforge.net/DTD/sodipodi-0.dtd"
   xmlns="http://www.w3.org/2000/svg"
   xmlns:svg="http://www.w3.org/2000/svg"><defs
     id="defs6"><clipPath
       clipPathUnits="userSpaceOnUse"
       id="clipPath16"><path
         d="M 0,1000 H 707.647 V 0 H 0 Z"
         id="path14" /></clipPath><clipPath
       clipPathUnits="userSpaceOnUse"
       id="clipPath64"><path
         d="m 296.762,902.819 c -11.048,-2.887 -22.439,-4.77 -31.854,-12.254 v 0 c -4.534,-3.602 -8.351,-8.417 -13.259,-11.217 v 0 c -11.286,-6.442 -21.557,-14.421 -32.235,-21.76 v 0 c -12.317,-8.463 -23.483,-18.418 -33.041,-30.229 v 0 c -5.067,-6.261 -10.386,-12.349 -16.006,-18.084 v 0 c -3.721,-3.798 -7.636,-7.227 -9.155,-12.636 v 0 c -0.645,-2.293 -2.632,-3.312 -4.297,-4.789 v 0 c -5.101,-4.521 -10.892,-8.792 -14.495,-14.433 v 0 c -14.84,-23.226 -30.479,-46.165 -37.401,-73.523 v 0 c -2.169,-8.569 -6.613,-16.682 -5.732,-25.916 v 0 c 0.103,-1.077 0.042,-2.297 -0.344,-3.293 v 0 c -4.439,-11.453 -2.641,-23.628 -4.626,-35.386 v 0 c -1.337,-7.922 -0.638,-16.009 0.43,-24.059 v 0 c 1.073,-8.085 3.174,-16.088 2.049,-24.525 v 0 c -0.542,-4.063 -0.413,-8.242 0.747,-12.393 v 0 c 3.544,-12.688 5.127,-26.119 13.139,-37.038 v 0 c 0.472,-0.642 0.798,-1.469 0.975,-2.266 v 0 c 1.337,-6.032 4.556,-11.204 7.187,-16.586 v 0 c 2.508,-5.127 4.405,-10.912 8.802,-14.69 v 0 c 3.642,-3.13 5.975,-6.942 7.917,-11.234 v 0 c 0.898,-1.985 1.739,-4.229 3.241,-5.642 v 0 c 6.938,-6.525 11.409,-15.107 17.783,-22.17 v 0 c 6.494,-7.196 13.876,-12.664 22.031,-17.359 v 0 c 1.401,-0.806 2.831,-1.447 3.972,-2.704 v 0 c 5.586,-6.153 8.689,-6.752 16.489,-2.842 v 0 c -2.501,-4.881 -5.186,-9.806 3.106,-9.791 v 0 c 0.176,10e-4 0.362,-0.374 0.516,-0.594 v 0 c 4.421,-6.352 10.468,-9.736 18.022,-10.932 v 0 c 2.2,-0.347 3.844,-2.393 6.726,-1.496 v 0 c 2.852,0.889 1.685,4.401 4.907,6.07 v 0 c 1.58,-10.193 3.287,-20.284 16.787,-15.1 v 0 c 1.772,-5.627 4.87,-9.276 11.007,-8.723 v 0 c 1.089,0.098 2.205,0.451 2.874,-0.689 v 0 c 2.273,-3.872 5.524,-2.389 8.65,-1.518 v 0 c 1.543,0.43 3.834,1.792 4.496,0.314 v 0 c 2.132,-4.752 5.646,-2.775 8.987,-2.57 v 0 c 2.514,0.154 5.863,-0.564 4.805,-3.75 v 0 c -1.307,-3.934 0.885,-6.177 2.451,-8.779 v 0 c -2.365,-1.391 -4.613,-0.925 -6.956,-0.458 v 0 c -2.166,0.432 -4.413,0.864 -6.906,-0.175 v 0 c 8.185,-6.385 16.916,-9.071 25.906,-9.587 v 0 c 5.405,-0.31 10.647,-0.31 15.778,-2.182 v 0 c 5.57,-2.032 11.311,-2.021 17.274,-1.466 v 0 c 4.961,0.461 10.257,0.157 14.971,-1.246 v 0 c 4.379,-1.304 8.318,-2.004 12.546,-0.063 v 0 c 1.864,0.856 3.484,1.262 5.204,-0.346 v 0 c 2.013,-1.881 4.598,-1.181 6.996,-0.892 v 0 c 3.244,0.39 6.469,0.775 9.657,-0.143 v 0 c -1.658,-1.915 -3.87,-1.579 -6.007,-1.838 v 0 c -5.746,-0.697 -11.431,-1.751 -17.575,-5.147 v 0 c 7.732,-3.788 15.753,-1.194 22.356,-4.815 v 0 c 0.582,-0.319 1.616,0.02 2.381,0.265 v 0 c 4.525,1.453 8.721,5.662 13.895,1.74 v 0 c 0.559,-0.423 2.361,1.076 3.648,1.413 v 0 c 6.204,1.629 10.945,6.279 16.732,8.861 v 0 c 2.639,1.177 2.946,1.348 3.274,-1.457 v 0 c 0.289,-2.479 2.327,-2.908 4.301,-2.462 v 0 c 2.162,0.487 1.858,2.113 1.472,3.919 v 0 c -1.064,4.977 2.251,3.754 4.831,3.482 v 0 c 1.528,0.568 2.374,2.685 4.396,2.13 v 0 c 1.932,-0.389 4.035,-2.52 5.674,0.47 v 0 c 0.784,1.43 1.738,2.23 3.207,1.707 v 0 c 3.703,-1.317 6.153,1.131 8.791,3.081 v 0 c 1.323,0.978 2.545,2.638 3.957,2.863 v 0 c 8.08,1.288 13.724,7.497 20.063,11.666 v 0 c 9.429,6.201 14.682,17.121 20.535,26.797 v 0 c 2.284,3.775 3.652,7.591 7.708,10.07 v 0 c 4.487,2.741 5.572,8.392 5.912,12.827 v 0 c 0.191,2.479 -0.546,3.909 2.162,4.375 v 0 c 4.659,0.8 6.265,3.492 6.108,8.207 v 0 c -0.102,3.081 1.386,5.938 3.748,8.129 v 0 c 0.205,0.201 0.39,0.423 0.553,0.661 v 0 c 1.207,2.481 1.568,5.856 4.303,6.932 v 0 c 4.01,1.578 4.019,4.819 3.953,8.035 v 0 c 1.07,0.405 1.934,-0.117 2.758,-0.639 v 0 c 1.075,-0.68 2.08,-1.361 3.387,0.015 v 0 c 3.63,3.82 -1.795,6.328 -1.268,9.955 v 0 c 1.054,0.729 2.186,0.207 3.314,-0.316 v 0 c 1.548,-0.717 3.091,-1.433 4.423,1.08 v 0 c 1.55,2.925 4.431,5.266 5.465,8.295 v 0 c 1.774,5.209 -3.987,4.262 -6.45,6.153 v 0 c 2.838,2.182 5.086,1.066 7.381,0.333 v 0 c 1.086,-0.345 2.223,-0.15 2.912,0.92 v 0 c 0.756,1.173 0.143,2.057 -0.76,2.812 v 0 c -3.461,2.898 -1.309,3.969 1.583,4.746 v 0 c 1.313,0.354 2.665,0.553 3.967,0.944 v 0 c 1.112,0.334 1.994,1.096 1.973,2.378 v 0 c -0.021,1.29 -0.947,1.863 -2.073,2.122 v 0 c -1.201,0.277 -2.863,-0.058 -2.679,1.973 v 0 c 3.433,4.837 6.844,9.553 10.13,14.357 v 0 c 0.611,0.892 0.785,2.243 -0.382,2.954 v 0 c -0.806,0.49 -1.494,-0.192 -2.079,-0.816 v 0 c -0.903,-0.961 -1.915,-1.311 -2.435,0.181 v 0 c -0.519,1.489 -10e-4,2.808 1.665,3.19 v 0 c 0.467,0.107 0.963,0.046 1.464,-0.016 v 0 c 0.312,-0.038 0.626,-0.076 0.935,-0.073 v 0 c 4.944,0.046 6.735,1.929 6.259,6.852 v 0 c -0.107,1.091 -2.394,2.164 -0.236,3.221 v 0 c 3.06,1.502 2.313,2.576 0.03,3.8 v 0 c -1.311,0.703 -3.451,0.67 -2.644,3.314 v 0 c 6.42,0.05 7.323,4.93 8.422,9.922 v 0 c 2.004,9.11 2.108,9.089 -2.073,14.868 v 0 c 4.336,1.017 6.428,3.49 5.285,8.17 v 0 c -0.243,1.001 1.151,2.433 1.729,3.696 v 0 c 2.195,4.788 4.823,9.5 2.715,15.032 v 0 c -0.526,1.381 0.556,2.783 0.489,3.999 v 0 c -0.327,5.979 -1.085,11.881 3.339,17.051 v 0 c 0.585,0.684 -0.181,2.647 -0.422,3.996 v 0 c -0.191,1.078 -1.08,2.752 -0.721,3.086 v 0 c 3.23,3.001 -0.284,7.453 1.335,9.343 v 0 c 3.396,3.964 0.478,7.324 0.863,10.87 v 0 c 1.766,16.271 -2,31.937 -3.685,47.827 v 0 c -1.125,10.608 -6.091,19.935 -8.944,29.94 v 0 c -4.675,16.395 -13.367,30.588 -20.831,45.473 v 0 c -0.977,1.948 -2.313,3.713 -3.603,5.467 v 0 c -7.894,10.742 -17.03,20.465 -24.261,31.754 v 0 c -0.873,1.364 -2.035,2.544 -3.153,3.719 v 0 c -8.222,8.64 -16.678,17.055 -24.652,25.931 v 0 c -9.804,10.912 -20.956,19.233 -35.089,23.671 v 0 c -16.184,5.08 -32.484,9.98 -47.752,17.675 v 0 c -4.297,2.165 -8.98,4.243 -13.686,4.755 v 0 c -15.312,1.664 -29.992,6.616 -45.489,7.37 v 0 c -11.576,0.563 -23.137,1.537 -34.692,1.537 v 0 c -10.759,0 -21.511,-0.845 -32.263,-3.654 M 401.478,373.812 c -5.87,-3.137 -10.173,-3.104 -14.559,-2.131 v 0 c 4.076,2.365 8.407,2.039 14.559,2.131 m -14.583,-2.126 c 0.008,-0.002 0.016,-0.004 0.024,-0.005 v 0 c -0.006,-0.004 -0.014,-0.007 -0.019,-0.011 v 0 c -0.005,0.002 -0.012,0.003 -0.017,0.005 v 0 c 0.004,0.003 0.008,0.006 0.012,0.011"
         id="path62" /></clipPath><clipPath
       clipPathUnits="userSpaceOnUse"
       id="clipPath160"><path
         d="m 296.762,902.819 c -11.048,-2.887 -22.439,-4.77 -31.854,-12.254 v 0 c -4.534,-3.602 -8.351,-8.417 -13.259,-11.217 v 0 c -11.286,-6.442 -21.557,-14.421 -32.235,-21.76 v 0 c -12.317,-8.463 -23.483,-18.418 -33.041,-30.229 v 0 c -5.067,-6.261 -10.386,-12.349 -16.006,-18.084 v 0 c -3.721,-3.798 -7.636,-7.227 -9.155,-12.636 v 0 c -0.645,-2.293 -2.632,-3.312 -4.297,-4.789 v 0 c -5.101,-4.521 -10.892,-8.792 -14.495,-14.433 v 0 c -14.84,-23.226 -30.479,-46.165 -37.401,-73.523 v 0 c -2.169,-8.569 -6.613,-16.682 -5.732,-25.916 v 0 c 0.103,-1.077 0.042,-2.297 -0.344,-3.293 v 0 c -4.439,-11.453 -2.641,-23.628 -4.626,-35.386 v 0 c -1.337,-7.922 -0.638,-16.009 0.43,-24.059 v 0 c 1.073,-8.085 3.174,-16.088 2.049,-24.525 v 0 c -0.542,-4.063 -0.413,-8.242 0.747,-12.393 v 0 c 3.544,-12.688 5.127,-26.119 13.139,-37.038 v 0 c 0.472,-0.642 0.798,-1.469 0.975,-2.266 v 0 c 1.337,-6.032 4.556,-11.204 7.187,-16.586 v 0 c 2.508,-5.127 4.405,-10.912 8.802,-14.69 v 0 c 3.642,-3.13 5.975,-6.942 7.917,-11.234 v 0 c 0.898,-1.985 1.739,-4.229 3.241,-5.642 v 0 c 6.938,-6.525 11.409,-15.107 17.783,-22.17 v 0 c 6.494,-7.196 13.876,-12.664 22.031,-17.359 v 0 c 1.401,-0.806 2.831,-1.447 3.972,-2.704 v 0 c 5.586,-6.153 8.689,-6.752 16.489,-2.842 v 0 c -2.501,-4.881 -5.186,-9.806 3.106,-9.791 v 0 c 0.176,10e-4 0.362,-0.374 0.516,-0.594 v 0 c 4.421,-6.352 10.468,-9.736 18.022,-10.932 v 0 c 2.2,-0.347 3.844,-2.393 6.726,-1.496 v 0 c 2.852,0.889 1.685,4.401 4.907,6.07 v 0 c 1.58,-10.193 3.287,-20.284 16.787,-15.1 v 0 c 1.772,-5.627 4.87,-9.276 11.007,-8.723 v 0 c 1.089,0.098 2.205,0.451 2.874,-0.689 v 0 c 2.273,-3.872 5.524,-2.389 8.65,-1.518 v 0 c 1.543,0.43 3.834,1.792 4.496,0.314 v 0 c 2.132,-4.752 5.646,-2.775 8.987,-2.57 v 0 c 2.514,0.154 5.863,-0.564 4.805,-3.75 v 0 c -1.307,-3.934 0.885,-6.177 2.451,-8.779 v 0 c -2.365,-1.391 -4.613,-0.925 -6.956,-0.458 v 0 c -2.166,0.432 -4.413,0.864 -6.906,-0.175 v 0 c 8.185,-6.385 16.916,-9.071 25.906,-9.587 v 0 c 5.405,-0.31 10.647,-0.31 15.778,-2.182 v 0 c 5.57,-2.032 11.311,-2.021 17.274,-1.466 v 0 c 4.961,0.461 10.257,0.157 14.971,-1.246 v 0 c 4.379,-1.304 8.318,-2.004 12.546,-0.063 v 0 c 1.864,0.856 3.484,1.262 5.204,-0.346 v 0 c 2.013,-1.881 4.598,-1.181 6.996,-0.892 v 0 c 3.244,0.39 6.469,0.775 9.657,-0.143 v 0 c -1.658,-1.915 -3.87,-1.579 -6.007,-1.838 v 0 c -5.746,-0.697 -11.431,-1.751 -17.575,-5.147 v 0 c 7.732,-3.788 15.753,-1.194 22.356,-4.815 v 0 c 0.582,-0.319 1.616,0.02 2.381,0.265 v 0 c 4.525,1.453 8.721,5.662 13.895,1.74 v 0 c 0.559,-0.423 2.361,1.076 3.648,1.413 v 0 c 6.204,1.629 10.945,6.279 16.732,8.861 v 0 c 2.639,1.177 2.946,1.348 3.274,-1.457 v 0 c 0.289,-2.479 2.327,-2.908 4.301,-2.462 v 0 c 2.162,0.487 1.858,2.113 1.472,3.919 v 0 c -1.064,4.977 2.251,3.754 4.831,3.482 v 0 c 1.528,0.568 2.374,2.685 4.396,2.13 v 0 c 1.932,-0.389 4.035,-2.52 5.674,0.47 v 0 c 0.784,1.43 1.738,2.23 3.207,1.707 v 0 c 3.703,-1.317 6.153,1.131 8.791,3.081 v 0 c 1.323,0.978 2.545,2.638 3.957,2.863 v 0 c 8.08,1.288 13.724,7.497 20.063,11.666 v 0 c 9.429,6.201 14.682,17.121 20.535,26.797 v 0 c 2.284,3.775 3.652,7.591 7.708,10.07 v 0 c 4.487,2.741 5.572,8.392 5.912,12.827 v 0 c 0.191,2.479 -0.546,3.909 2.162,4.375 v 0 c 4.659,0.8 6.265,3.492 6.108,8.207 v 0 c -0.102,3.081 1.386,5.938 3.748,8.129 v 0 c 0.205,0.201 0.39,0.423 0.553,0.661 v 0 c 1.207,2.481 1.568,5.856 4.303,6.932 v 0 c 4.01,1.578 4.019,4.819 3.953,8.035 v 0 c 1.07,0.405 1.934,-0.117 2.758,-0.639 v 0 c 1.075,-0.68 2.08,-1.361 3.387,0.015 v 0 c 3.63,3.82 -1.795,6.328 -1.268,9.955 v 0 c 1.054,0.729 2.186,0.207 3.314,-0.316 v 0 c 1.548,-0.717 3.091,-1.433 4.423,1.08 v 0 c 1.55,2.925 4.431,5.266 5.465,8.295 v 0 c 1.774,5.209 -3.987,4.262 -6.45,6.153 v 0 c 2.838,2.182 5.086,1.066 7.381,0.333 v 0 c 1.086,-0.345 2.223,-0.15 2.912,0.92 v 0 c 0.756,1.173 0.143,2.057 -0.76,2.812 v 0 c -3.461,2.898 -1.309,3.969 1.583,4.746 v 0 c 1.313,0.354 2.665,0.553 3.967,0.944 v 0 c 1.112,0.334 1.994,1.096 1.973,2.378 v 0 c -0.021,1.29 -0.947,1.863 -2.073,2.122 v 0 c -1.201,0.277 -2.863,-0.058 -2.679,1.973 v 0 c 3.433,4.837 6.844,9.553 10.13,14.357 v 0 c 0.611,0.892 0.785,2.243 -0.382,2.954 v 0 c -0.806,0.49 -1.494,-0.192 -2.079,-0.816 v 0 c -0.903,-0.961 -1.915,-1.311 -2.435,0.181 v 0 c -0.519,1.489 -10e-4,2.808 1.665,3.19 v 0 c 0.467,0.107 0.963,0.046 1.464,-0.016 v 0 c 0.312,-0.038 0.626,-0.076 0.935,-0.073 v 0 c 4.944,0.046 6.735,1.929 6.259,6.852 v 0 c -0.107,1.091 -2.394,2.164 -0.236,3.221 v 0 c 3.06,1.502 2.313,2.576 0.03,3.8 v 0 c -1.311,0.703 -3.451,0.67 -2.644,3.314 v 0 c 6.42,0.05 7.323,4.93 8.422,9.922 v 0 c 2.004,9.11 2.108,9.089 -2.073,14.868 v 0 c 4.336,1.017 6.428,3.49 5.285,8.17 v 0 c -0.243,1.001 1.151,2.433 1.729,3.696 v 0 c 2.195,4.788 4.823,9.5 2.715,15.032 v 0 c -0.526,1.381 0.556,2.783 0.489,3.999 v 0 c -0.327,5.979 -1.085,11.881 3.339,17.051 v 0 c 0.585,0.684 -0.181,2.647 -0.422,3.996 v 0 c -0.191,1.078 -1.08,2.752 -0.721,3.086 v 0 c 3.23,3.001 -0.284,7.453 1.335,9.343 v 0 c 3.396,3.964 0.478,7.324 0.863,10.87 v 0 c 1.766,16.271 -2,31.937 -3.685,47.827 v 0 c -1.125,10.608 -6.091,19.935 -8.944,29.94 v 0 c -4.675,16.395 -13.367,30.588 -20.831,45.473 v 0 c -0.977,1.948 -2.313,3.713 -3.603,5.467 v 0 c -7.894,10.742 -17.03,20.465 -24.261,31.754 v 0 c -0.873,1.364 -2.035,2.544 -3.153,3.719 v 0 c -8.222,8.64 -16.678,17.055 -24.652,25.931 v 0 c -9.804,10.912 -20.956,19.233 -35.089,23.671 v 0 c -16.184,5.08 -32.484,9.98 -47.752,17.675 v 0 c -4.297,2.165 -8.98,4.243 -13.686,4.755 v 0 c -15.312,1.664 -29.992,6.616 -45.489,7.37 v 0 c -11.576,0.563 -23.137,1.537 -34.691,1.537 v 0 c -10.76,0.001 -21.512,-0.844 -32.264,-3.654 m 90.157,-531.138 c 4.076,2.365 8.407,2.039 14.559,2.131 v 0 c -3.744,-2.001 -6.852,-2.712 -9.749,-2.712 v 0 c -1.645,0 -3.222,0.229 -4.81,0.581 m -0.036,-0.006 c 0.004,0.003 0.008,0.006 0.012,0.011 v 0 c 0.008,-0.002 0.016,-0.004 0.024,-0.005 v 0 c -0.006,-0.004 -0.014,-0.007 -0.019,-0.011 v 0 c -0.005,0.002 -0.012,0.003 -0.017,0.005"
         id="path158" /></clipPath><clipPath
       clipPathUnits="userSpaceOnUse"
       id="clipPath172"><path
         d="m 296.762,902.819 c -11.048,-2.887 -22.439,-4.77 -31.854,-12.254 v 0 c -4.534,-3.602 -8.351,-8.417 -13.259,-11.217 v 0 c -11.286,-6.442 -21.557,-14.421 -32.235,-21.76 v 0 c -12.317,-8.463 -23.483,-18.418 -33.041,-30.229 v 0 c -5.067,-6.261 -10.386,-12.349 -16.006,-18.084 v 0 c -3.721,-3.798 -7.636,-7.227 -9.155,-12.636 v 0 c -0.645,-2.293 -2.632,-3.312 -4.297,-4.789 v 0 c -5.101,-4.521 -10.892,-8.792 -14.495,-14.433 v 0 c -14.84,-23.226 -30.479,-46.165 -37.401,-73.523 v 0 c -2.169,-8.569 -6.613,-16.682 -5.732,-25.916 v 0 c 0.103,-1.077 0.042,-2.297 -0.344,-3.293 v 0 c -4.439,-11.453 -2.641,-23.628 -4.626,-35.386 v 0 c -1.337,-7.922 -0.638,-16.009 0.43,-24.059 v 0 c 1.073,-8.085 3.174,-16.088 2.049,-24.525 v 0 c -0.542,-4.063 -0.413,-8.242 0.747,-12.393 v 0 c 3.544,-12.688 5.127,-26.119 13.139,-37.038 v 0 c 0.472,-0.642 0.798,-1.469 0.975,-2.266 v 0 c 1.337,-6.032 4.556,-11.204 7.187,-16.586 v 0 c 2.508,-5.127 4.405,-10.912 8.802,-14.69 v 0 c 3.642,-3.13 5.975,-6.942 7.917,-11.234 v 0 c 0.898,-1.985 1.739,-4.229 3.241,-5.642 v 0 c 6.938,-6.525 11.409,-15.107 17.783,-22.17 v 0 c 6.494,-7.196 13.876,-12.664 22.031,-17.359 v 0 c 1.401,-0.806 2.831,-1.447 3.972,-2.704 v 0 c 5.586,-6.153 8.689,-6.752 16.489,-2.842 v 0 c -2.501,-4.881 -5.186,-9.806 3.106,-9.791 v 0 c 0.176,10e-4 0.362,-0.374 0.516,-0.594 v 0 c 4.421,-6.352 10.468,-9.736 18.022,-10.932 v 0 c 2.2,-0.347 3.844,-2.393 6.726,-1.496 v 0 c 2.852,0.889 1.685,4.401 4.907,6.07 v 0 c 1.58,-10.193 3.287,-20.284 16.787,-15.1 v 0 c 1.772,-5.627 4.87,-9.276 11.007,-8.723 v 0 c 1.089,0.098 2.205,0.451 2.874,-0.689 v 0 c 2.273,-3.872 5.524,-2.389 8.65,-1.518 v 0 c 1.543,0.43 3.834,1.792 4.496,0.314 v 0 c 2.132,-4.752 5.646,-2.775 8.987,-2.57 v 0 c 2.514,0.154 5.863,-0.564 4.805,-3.75 v 0 c -1.307,-3.934 0.885,-6.177 2.451,-8.779 v 0 c -2.365,-1.391 -4.613,-0.925 -6.956,-0.458 v 0 c -2.166,0.432 -4.413,0.864 -6.906,-0.175 v 0 c 8.185,-6.385 16.916,-9.071 25.906,-9.587 v 0 c 5.405,-0.31 10.647,-0.31 15.778,-2.182 v 0 c 5.57,-2.032 11.311,-2.021 17.274,-1.466 v 0 c 4.961,0.461 10.257,0.157 14.971,-1.246 v 0 c 4.379,-1.304 8.318,-2.004 12.546,-0.063 v 0 c 1.864,0.856 3.484,1.262 5.204,-0.346 v 0 c 2.013,-1.881 4.598,-1.181 6.996,-0.892 v 0 c 3.244,0.39 6.469,0.775 9.657,-0.143 v 0 c -1.658,-1.915 -3.87,-1.579 -6.007,-1.838 v 0 c -5.746,-0.697 -11.431,-1.751 -17.575,-5.147 v 0 c 7.732,-3.788 15.753,-1.194 22.356,-4.815 v 0 c 0.582,-0.319 1.616,0.02 2.381,0.265 v 0 c 4.525,1.453 8.721,5.662 13.895,1.74 v 0 c 0.559,-0.423 2.361,1.076 3.648,1.413 v 0 c 6.204,1.629 10.945,6.279 16.732,8.861 v 0 c 2.639,1.177 2.946,1.348 3.274,-1.457 v 0 c 0.289,-2.479 2.327,-2.908 4.301,-2.462 v 0 c 2.162,0.487 1.858,2.113 1.472,3.919 v 0 c -1.064,4.977 2.251,3.754 4.831,3.482 v 0 c 1.528,0.568 2.374,2.685 4.396,2.13 v 0 c 1.932,-0.389 4.035,-2.52 5.674,0.47 v 0 c 0.784,1.43 1.738,2.23 3.207,1.707 v 0 c 3.703,-1.317 6.153,1.131 8.791,3.081 v 0 c 1.323,0.978 2.545,2.638 3.957,2.863 v 0 c 8.08,1.288 13.724,7.497 20.063,11.666 v 0 c 9.429,6.201 14.682,17.121 20.535,26.797 v 0 c 2.284,3.775 3.652,7.591 7.708,10.07 v 0 c 4.487,2.741 5.572,8.392 5.912,12.827 v 0 c 0.191,2.479 -0.546,3.909 2.162,4.375 v 0 c 4.659,0.8 6.265,3.492 6.108,8.207 v 0 c -0.102,3.081 1.386,5.938 3.748,8.129 v 0 c 0.205,0.201 0.39,0.423 0.553,0.661 v 0 c 1.207,2.481 1.568,5.856 4.303,6.932 v 0 c 4.01,1.578 4.019,4.819 3.953,8.035 v 0 c 1.07,0.405 1.934,-0.117 2.758,-0.639 v 0 c 1.075,-0.68 2.08,-1.361 3.387,0.015 v 0 c 3.63,3.82 -1.795,6.328 -1.268,9.955 v 0 c 1.054,0.729 2.186,0.207 3.314,-0.316 v 0 c 1.548,-0.717 3.091,-1.433 4.423,1.08 v 0 c 1.55,2.925 4.431,5.266 5.465,8.295 v 0 c 1.774,5.209 -3.987,4.262 -6.45,6.153 v 0 c 2.838,2.182 5.086,1.066 7.381,0.333 v 0 c 1.086,-0.345 2.223,-0.15 2.912,0.92 v 0 c 0.756,1.173 0.143,2.057 -0.76,2.812 v 0 c -3.461,2.898 -1.309,3.969 1.583,4.746 v 0 c 1.313,0.354 2.665,0.553 3.967,0.944 v 0 c 1.112,0.334 1.994,1.096 1.973,2.378 v 0 c -0.021,1.29 -0.947,1.863 -2.073,2.122 v 0 c -1.201,0.277 -2.863,-0.058 -2.679,1.973 v 0 c 3.433,4.837 6.844,9.553 10.13,14.357 v 0 c 0.611,0.892 0.785,2.243 -0.382,2.954 v 0 c -0.806,0.49 -1.494,-0.192 -2.079,-0.816 v 0 c -0.903,-0.961 -1.915,-1.311 -2.435,0.181 v 0 c -0.519,1.489 -10e-4,2.808 1.665,3.19 v 0 c 0.467,0.107 0.963,0.046 1.464,-0.016 v 0 c 0.312,-0.038 0.626,-0.076 0.935,-0.073 v 0 c 4.944,0.046 6.735,1.929 6.259,6.852 v 0 c -0.107,1.091 -2.394,2.164 -0.236,3.221 v 0 c 3.06,1.502 2.313,2.576 0.03,3.8 v 0 c -1.311,0.703 -3.451,0.67 -2.644,3.314 v 0 c 6.42,0.05 7.323,4.93 8.422,9.922 v 0 c 2.004,9.11 2.108,9.089 -2.073,14.868 v 0 c 4.336,1.017 6.428,3.49 5.285,8.17 v 0 c -0.243,1.001 1.151,2.433 1.729,3.696 v 0 c 2.195,4.788 4.823,9.5 2.715,15.032 v 0 c -0.526,1.381 0.556,2.783 0.489,3.999 v 0 c -0.327,5.979 -1.085,11.881 3.339,17.051 v 0 c 0.585,0.684 -0.181,2.647 -0.422,3.996 v 0 c -0.191,1.078 -1.08,2.752 -0.721,3.086 v 0 c 3.23,3.001 -0.284,7.453 1.335,9.343 v 0 c 3.396,3.964 0.478,7.324 0.863,10.87 v 0 c 1.766,16.271 -2,31.937 -3.685,47.827 v 0 c -1.125,10.608 -6.091,19.935 -8.944,29.94 v 0 c -4.675,16.395 -13.367,30.588 -20.831,45.473 v 0 c -0.977,1.948 -2.313,3.713 -3.603,5.467 v 0 c -7.894,10.742 -17.03,20.465 -24.261,31.754 v 0 c -0.873,1.364 -2.035,2.544 -3.153,3.719 v 0 c -8.222,8.64 -16.678,17.055 -24.652,25.931 v 0 c -9.804,10.912 -20.956,19.233 -35.089,23.671 v 0 c -16.184,5.08 -32.484,9.98 -47.752,17.675 v 0 c -4.297,2.165 -8.98,4.243 -13.686,4.755 v 0 c -15.312,1.664 -29.992,6.616 -45.489,7.37 v 0 c -11.576,0.563 -23.137,1.537 -34.692,1.537 v 0 c -10.759,0 -21.511,-0.845 -32.263,-3.654 M 401.478,373.812 c -5.87,-3.137 -10.173,-3.104 -14.559,-2.131 v 0 c 4.076,2.365 8.407,2.039 14.559,2.131 m -14.583,-2.126 c 0.008,-0.002 0.016,-0.004 0.024,-0.005 v 0 c -0.006,-0.004 -0.014,-0.007 -0.019,-0.011 v 0 c -0.005,0.002 -0.012,0.003 -0.017,0.005 v 0 c 0.004,0.003 0.008,0.006 0.012,0.011"
         id="path170" /></clipPath><clipPath
       clipPathUnits="userSpaceOnUse"
       id="clipPath224"><path
         d="M 0,1000 H 707.647 V 0 H 0 Z"
         id="path222" /></clipPath></defs><sodipodi:namedview
     id="namedview4"
     pagecolor="#ffffff"
     bordercolor="#666666"
     borderopacity="1.0"
     inkscape:pageshadow="2"
     inkscape:pageopacity="0.0"
     inkscape:pagecheckerboard="0"
     showgrid="false"
     fit-margin-top="0"
     fit-margin-left="0"
     fit-margin-right="0"
     fit-margin-bottom="0"
     inkscape:zoom="0.67425004"
     inkscape:cx="347.05226"
     inkscape:cy="542.08376"
     inkscape:window-width="3766"
     inkscape:window-height="2096"
     inkscape:window-x="74"
     inkscape:window-y="27"
     inkscape:window-maximized="1"
     inkscape:current-layer="g8" /><g
     id="g8"
     inkscape:groupmode="layer"
     inkscape:label="Nayestane logo vertical (1)"
     transform="matrix(1.3333333,0,0,-1.3333333,-124.77681,1208.631)"><g
       id="g58"
       transform="translate(19.821421)"><g
         id="g60"
         clip-path="url(#clipPath64)"><g
           id="g66"
           transform="translate(233.8564,759.083)"><path
             d="m 0,0 c 0.431,-13.401 1.651,-26.772 3.863,-40.006 1.129,-6.75 2.362,-13.543 4.211,-20.142 1.473,-5.256 3.057,-10.482 4.445,-15.761 2.689,-10.227 5.215,-21.526 3.299,-31.91 -0.901,-4.882 -2.653,-9.563 -5.837,-13.414 -3.168,-3.832 -6.911,-6.563 -11.465,-8.666 -2.999,-1.385 -6.42,-2.463 -9.873,-3.321 l 1.236,15.164 -5.241,33.38 -8.986,27.582 -6.738,40.396 2.246,23.503 5.241,23.504 c 0,0 9.734,15.424 9.735,15.424 4.894,5.441 9.875,10.342 15.008,14.92 C 0.389,40.44 -0.65,20.22 0,0"
             style="fill:#34346e;fill-opacity:1;fill-rule:nonzero;stroke:none"
             id="path68" /></g><g
           id="g70"
           transform="translate(300.7755,604.1732)"><path
             d="m 0,0 c -2.792,8.349 -4.513,17.086 -5.869,25.76 -1.434,9.17 -2.307,18.422 -2.753,27.688 -0.908,18.864 -0.169,37.774 1.43,56.584 1.267,14.916 2.938,29.805 4.364,44.708 1.345,14.049 2.861,28.098 5.323,42.007 2.476,13.987 5.793,27.949 11.14,41.172 3.096,7.656 6.938,15.097 11.784,21.828 45.484,0.587 101.07,-2.137 118.429,-51.025 0,-0.001 23.212,-65.369 13.478,-114.579 -2.209,-11.166 -3.292,-17.453 -3.647,-20.502 -0.797,-3.796 -1.492,-7.613 -2.108,-11.444 -4.7,-15.096 -10.946,-33.204 -17.395,-46.274 0.128,0.256 0.137,-7.299 0.109,-15.443 -1.746,-3.345 -3.288,-6.793 -4.625,-10.317 -2.369,-6.244 -4.963,-16.479 -6.111,-27.279 -1.948,-18.323 -1.507,-37.689 -1.641,-37.731 -0.636,-0.199 -20.974,20.205 -31.526,26.366 -12.024,7.02 -25.287,12.545 -38.737,16.326 -12.151,3.417 -24.68,5.26 -37.281,5.953 C 8.034,-18.397 3.173,-9.49 0,0"
             style="fill:#34346e;fill-opacity:1;fill-rule:nonzero;stroke:none"
             id="path72" /></g><g
           id="g74"
           transform="translate(280.2485,806.1413)"><path
             d="m 0,0 c -3.534,14.453 -4.05,29.39 -4.126,44.236 10.851,6.998 22.645,13.045 35.852,13.293 2.596,0.049 5.247,0.103 7.944,0.151 C 37.145,53.855 34.902,49.848 32.925,45.738 21.754,22.515 17.385,-3.313 14.481,-28.739 6.924,-20.807 2.571,-10.514 0,0"
             style="fill:#34346e;fill-opacity:1;fill-rule:nonzero;stroke:none"
             id="path76" /></g><g
           id="g78"
           transform="translate(292.7275,758.2741)"><path
             d="m 0,0 c -0.095,0.172 -0.221,0.34 -0.383,0.5 -8.453,8.305 -16.125,17.381 -22.491,27.331 -9.198,14.377 -15.417,30.247 -18.58,46.871 5.613,4.215 11.455,8.321 17.6,12.545 1.029,0.707 2.066,1.416 3.111,2.121 0.092,-8.875 0.401,-17.751 1.447,-26.571 C -17.274,45.761 -12.668,27.77 0.041,15.236 0.495,14.789 1.009,14.616 1.502,14.635 1.352,13.253 1.205,11.872 1.062,10.495 0.697,6.997 0.345,3.499 0,0"
             style="fill:#34346e;fill-opacity:1;fill-rule:nonzero;stroke:none"
             id="path80" /></g><g
           id="g82"
           transform="translate(287.5218,701.7805)"><path
             d="m 0,0 c -7.619,12.288 -16.045,24.074 -23.841,36.254 -10.729,16.762 -20.516,34.513 -24.5,54.09 0.32,10.747 0.81,21.493 1.179,32.237 2.373,1.981 4.783,3.91 7.234,5.809 1.861,-9.196 4.647,-18.188 8.387,-26.839 C -23.815,83.68 -12.064,67.804 1.878,54.106 2.934,53.068 4.312,53.502 5.002,54.411 4.069,44.875 3.175,35.336 2.187,25.806 1.297,17.221 0.543,8.616 0,0"
             style="fill:#34346e;fill-opacity:1;fill-rule:nonzero;stroke:none"
             id="path84" /></g><g
           id="g86"
           transform="translate(205.765,593.2857)"><path
             d="m 0,0 6.739,13.955 8.193,12.983 c 4.814,1.03 9.542,2.367 14.031,4.441 9.746,4.5 17.057,12.75 19.509,23.13 2.58,10.919 0.699,22.375 -1.932,33.106 -1.322,5.394 -2.891,10.724 -4.423,16.063 -1.785,6.221 -3.186,12.503 -4.35,18.866 -2.404,13.144 -3.808,26.436 -4.356,39.778 -0.299,7.282 -0.367,14.566 -0.297,21.848 3.495,-10.231 8.355,-20.026 13.794,-29.387 10.212,-17.575 22.515,-33.862 33.033,-51.25 0.374,-0.619 0.914,-0.913 1.475,-0.97 -0.419,-8.214 -0.626,-16.437 -0.55,-24.663 0.172,-18.629 1.707,-37.356 5.769,-55.584 1.846,-8.281 4.274,-16.343 8.022,-24.008 2.294,-4.69 5.005,-9.156 8.093,-13.363 -2.421,0.058 -4.842,0.078 -7.262,0.059 -4.328,-0.033 -8.654,-0.162 -12.976,-0.382 -4.378,-0.223 -8.749,-0.681 -13.126,-0.88 -8.203,-0.372 -16.417,-0.239 -24.623,-0.078 -14.806,0.291 -29.746,0.718 -44.443,-1.298 l 0.429,2.944 z"
             style="fill:#34346e;fill-opacity:1;fill-rule:nonzero;stroke:none"
             id="path88" /></g><g
           id="g90"
           transform="translate(427.1342,549.4207)"><path
             d="m 0,0 c 0.434,10.421 1.434,20.856 3.904,31.02 1.514,6.231 3.566,12.293 6.227,18.095 4.71,-6.083 43.41,-48.996 42.835,-52.805 -3.302,-21.883 -32.549,-28.614 -32.809,-50.854 -0.405,0.808 -6.933,11.156 -11.484,18.045 -4.559,6.902 -8.781,11.985 -9.849,13.274 C -1.258,-20.276 -0.222,-5.355 0,0"
             style="fill:#34346e;fill-opacity:1;fill-rule:nonzero;stroke:none"
             id="path92" /></g><g
           id="g94"
           transform="translate(339.0201,480.1124)"><path
             d="m 0,0 c -6.562,32.809 -51.337,51.654 -60.804,54.928 -4.845,1.676 -9.764,3.144 -14.794,4.183 -5.186,1.071 -10.438,1.797 -15.7,2.388 -8.361,0.941 -16.602,1.494 -24.752,2.768 3.105,-0.243 6.214,-0.43 9.319,-0.574 16.613,-0.768 33.253,-0.384 49.868,-1.037 8.144,-0.32 16.308,-0.84 24.381,-1.973 7.51,-1.053 8.889,-2.525 16.077,-4.907 8.248,-2.734 16.995,-7.474 24.607,-11.483 0,0 -1.64,-4.922 -4.921,-16.405 C 0,16.405 0,0 0,0"
             style="fill:#34346e;fill-opacity:1;fill-rule:nonzero;stroke:none"
             id="path96" /></g><g
           id="g98"
           transform="translate(395.8172,809.761)"><path
             d="m 0,0 c 0.943,2.59 1.73,5.227 2.358,7.903 0.939,3.995 23.647,-8.197 25.002,-9.346 16.542,-14.039 17.389,-33.596 16.211,-53.536 -1.702,-28.816 13.415,-50.81 -4.043,-85.726 -6.358,-12.716 -13.912,-31.59 -13.988,-31.79 -5.588,-14.614 -14.432,-20.498 -31.803,-17.483 -13.07,2.269 -25.901,6.207 -38.249,10.942 -10.826,4.152 -21.781,10.341 -27.425,20.709 -0.002,0.002 -0.003,0.004 -0.004,0.006 -9.844,18.098 -17.35,22.47 -10.177,68.549 C -74.102,-38.285 -2.033,-5.578 0,0"
             style="fill:#f5f7ec;fill-opacity:1;fill-rule:nonzero;stroke:none"
             id="path100" /></g><g
           id="g102"
           transform="translate(349.242,729.3859)"><path
             d="M 0,0 C -0.013,0 -0.148,-0.1 -0.245,-0.174 -0.154,-0.087 -0.055,-0.002 0,0 m 1.483,1.008 c 1.194,0.762 2.445,1.434 3.727,2.036 0.322,0.15 0.647,0.293 0.971,0.439 0.006,0.003 0.014,0.006 0.02,0.009 0.1,0.042 0.2,0.083 0.299,0.123 0.714,0.288 1.435,0.556 2.162,0.808 1.406,0.488 2.834,0.912 4.274,1.284 1.499,0.386 3.012,0.715 4.534,0.994 0.697,0.127 1.396,0.243 2.096,0.35 0.074,0.011 0.33,0.05 0.538,0.082 0.387,0.057 0.776,0.099 1.164,0.144 2.794,0.323 5.608,0.49 8.421,0.474 C 31.076,7.743 32.463,7.69 33.845,7.576 34.163,7.549 34.482,7.52 34.8,7.486 34.955,7.47 35.109,7.453 35.263,7.435 35.29,7.432 35.342,7.425 35.399,7.418 35.586,7.39 35.895,7.344 35.974,7.332 c 0.3,-0.05 0.6,-0.104 0.899,-0.162 1.683,-0.326 3.63,0.474 4.045,2.297 0.37,1.626 -0.491,3.695 -2.297,4.046 -5.452,1.056 -11.119,1.001 -16.622,0.422 C 15.408,13.241 8.95,11.82 2.862,9.162 -0.286,7.788 -3.23,5.987 -5.789,3.687 c -1.283,-1.154 -1.261,-3.493 0,-4.651 1.37,-1.258 3.282,-1.23 4.651,0 0.237,0.213 0.476,0.422 0.721,0.626 0.028,0.023 0.074,0.069 0.125,0.118 0.031,0.022 0.074,0.053 0.141,0.102 0.535,0.39 1.075,0.771 1.634,1.126"
             style="fill:#34346e;fill-opacity:1;fill-rule:nonzero;stroke:none"
             id="path104" /></g><g
           id="g106"
           transform="translate(415.7375,691.33)"><path
             d="M 0,0 C -0.007,-0.004 0.096,0.106 0.17,0.19 0.112,0.103 0.054,0.028 0,0 m -3.919,-1.787 c 0.104,-0.005 0.2,-0.012 0.192,-0.021 -0.018,-0.02 -0.1,-0.003 -0.192,0.021 m -0.699,0.22 c 0.05,-0.023 0.081,-0.036 0.121,-0.054 -0.059,0.017 -0.112,0.037 -0.121,0.054 m 6.836,30.938 c -0.892,4.001 -1.784,8.002 -2.676,12.003 0.181,0.281 0.355,0.566 0.549,0.839 0.011,0.015 0.018,0.025 0.028,0.039 0.018,0.021 0.036,0.042 0.06,0.07 0.217,0.256 0.433,0.512 0.659,0.759 0.811,0.887 1.702,1.684 2.627,2.448 0.028,0.023 0.059,0.052 0.089,0.082 0.074,0.053 0.15,0.104 0.211,0.149 0.242,0.179 0.487,0.355 0.734,0.527 0.569,0.396 1.15,0.774 1.742,1.137 1.16,0.71 2.359,1.358 3.583,1.952 0.592,0.287 1.193,0.554 1.794,0.824 0.021,0.01 0.035,0.016 0.053,0.024 0.142,0.058 0.284,0.117 0.426,0.174 0.349,0.141 0.699,0.278 1.051,0.411 1.377,0.52 2.775,0.983 4.19,1.389 1.406,0.404 2.828,0.752 4.262,1.041 0.645,0.129 1.291,0.247 1.941,0.351 0.314,0.051 0.645,0.132 0.963,0.145 -0.93,-0.04 0.307,0.035 0.558,0.062 1.457,0.159 2.922,0.249 4.387,0.247 0.727,-10e-4 1.455,-0.024 2.18,-0.074 0.35,-0.025 0.699,-0.055 1.048,-0.092 0.027,-0.003 0.064,-0.01 0.096,-0.016 0.053,-0.002 0.126,-0.009 0.242,-0.027 0.023,-10e-4 0.052,-0.007 0.072,-0.005 -0.002,0 -0.005,0 -0.007,0 1.678,-0.234 3.562,0.455 3.983,2.302 0.357,1.569 -0.479,3.767 -2.297,4.045 C 28.729,61.102 22.562,60.4 16.683,58.843 10.825,57.291 4.942,54.851 0.088,51.171 c -2.574,-1.952 -4.912,-4.183 -6.562,-6.992 -0.09,-0.152 -0.155,-0.315 -0.216,-0.48 -0.471,-0.74 -0.648,-1.66 -0.434,-2.623 1.579,-7.081 4.429,-17.977 6.007,-25.058 0.395,-1.77 0.79,-3.54 1.184,-5.311 C 0.24,9.934 0.415,9.162 0.578,8.387 0.667,7.964 0.752,7.54 0.83,7.114 0.859,6.955 0.887,6.795 0.914,6.635 0.933,6.521 0.965,6.32 0.98,6.235 1.068,5.545 1.12,4.848 1.126,4.154 1.129,3.732 1.109,3.313 1.081,2.891 1.08,2.88 1.072,2.816 1.065,2.749 1.035,2.605 0.973,2.261 0.962,2.213 0.88,1.854 0.737,1.508 0.656,1.15 0.649,1.12 0.648,1.108 0.644,1.087 0.595,0.984 0.545,0.883 0.492,0.783 0.436,0.679 0.327,0.447 0.212,0.258 0.198,0.245 0.18,0.231 0.151,0.204 0.008,0.072 -0.111,-0.095 -0.248,-0.235 c -0.225,-0.23 -0.471,-0.432 -0.71,-0.646 0.607,0.544 -0.232,-0.127 -0.428,-0.242 -0.105,-0.062 -0.21,-0.121 -0.317,-0.178 -0.011,-0.006 -0.148,-0.074 -0.263,-0.133 -0.064,-0.026 -0.131,-0.053 -0.165,-0.064 -0.191,-0.058 -0.377,-0.123 -0.571,-0.173 -0.115,-0.03 -0.231,-0.052 -0.346,-0.08 -0.104,-0.026 -0.167,-0.045 -0.214,-0.06 -0.237,0 -0.552,0.039 -0.653,0.039 -0.029,0 -0.04,0 -0.063,0 -0.135,0.039 -0.278,0.09 -0.31,0.097 -0.017,0.004 -0.065,0.015 -0.116,0.028 -0.095,0.047 -0.188,0.096 -0.279,0.15 -1.502,0.84 -3.659,0.411 -4.499,-1.179 -0.82,-1.552 -0.424,-3.603 1.179,-4.5 3.129,-1.749 6.896,-1.409 9.936,0.374 3.376,1.979 5.181,5.255 5.656,9.068 C 8.067,6.093 6.96,9.989 6.133,13.695 5.252,17.649 3.099,25.417 2.218,29.371"
             style="fill:#34346e;fill-opacity:1;fill-rule:nonzero;stroke:none"
             id="path108" /></g><g
           id="g110"
           transform="translate(420.2314,660.4111)"><path
             d="m 0,0 c 0.339,-1.887 -4.55,-7.261 -6.504,-7.886 -8.531,-2.731 -15.953,5.188 -15.94,5.251 l 0.37,0.059 c 1.974,-0.661 10.07,-0.069 10.07,-0.069 0.481,0.005 3.4,0.128 6.544,0.924 C -3.144,-1.135 -0.395,0.251 0,0 m -6.184,4.441 c 1.023,0.008 6.039,-1.258 6.073,-1.298 -0.522,-0.51 -7.412,-1.354 -8.517,-1.257 -0.023,0.029 -1.429,-0.416 -1.45,-0.384 0.317,0.226 1.448,2.537 3.894,2.939 M 4.3,1.796 C 4.512,2.414 9.725,7.888 9.761,8.332 9.956,10.51 5.104,7.004 4.211,6.47 2.379,5.37 -6.026,7.569 -7.32,7.586 c -3.554,0.055 -2.379,-2.64 -4.835,-3.442 -1.117,-0.363 -1.246,5.03 -8.16,2.098 -0.693,-0.04 -10.168,-3.875 -11.326,-3.778 -0.581,-0.025 -1.165,-0.05 -1.748,-0.073 -1.039,0.203 -5.037,-0.427 -5.909,-0.123 -1.447,0.505 -6.975,2.233 -5.588,0.788 1.27,-1.32 3.275,-2.353 5.017,-3.048 0.689,-0.275 3.298,-2.301 3.882,-3.074 1.263,-1.328 2.508,-2.788 3.898,-4.058 1.002,-0.914 12.756,-9.826 23.042,-6.297 C 1.126,-9.932 1.625,-6.019 4.3,1.796"
             style="fill:#34346e;fill-opacity:1;fill-rule:nonzero;stroke:none"
             id="path112" /></g><g
           id="g114"
           transform="translate(448.8096,728.4285)"><path
             d="M 0,0 C 0.103,0.008 2.055,3.043 2.157,3.05 2.418,3.063 2.643,3.122 2.832,3.227 3.052,3.305 3.221,3.423 3.34,3.583 3.482,3.74 3.553,3.92 3.552,4.123 3.598,4.311 3.574,4.508 3.478,4.713 3.403,4.839 3.329,4.966 3.254,5.092 3.059,5.343 2.802,5.556 2.484,5.729 2.312,5.802 2.14,5.875 1.967,5.948 1.606,6.062 1.249,6.107 0.897,6.081 0.209,6.03 -0.479,5.979 -1.167,5.928 -1.303,5.921 -1.428,5.901 -1.544,5.869 -1.629,5.904 -1.715,5.937 -1.801,5.971 -1.794,6.012 -1.79,6.054 -1.79,6.098 -1.743,6.286 -1.768,6.482 -1.864,6.688 -1.938,6.814 -2.013,6.941 -2.088,7.067 -2.283,7.318 -2.539,7.53 -2.858,7.704 -3.03,7.777 -3.202,7.85 -3.374,7.923 -3.736,8.037 -4.093,8.082 -4.445,8.056 L -5.477,7.979 C -5.738,7.967 -5.963,7.908 -6.152,7.802 -6.293,7.753 -6.406,7.679 -6.506,7.595 -6.598,7.622 -6.691,7.65 -6.783,7.677 -6.79,7.703 -6.796,7.73 -6.805,7.757 -6.831,7.954 -6.922,8.146 -7.077,8.334 -7.19,8.449 -7.302,8.564 -7.414,8.679 -7.686,8.904 -8.003,9.074 -8.364,9.19 -8.547,9.23 -8.729,9.27 -8.912,9.31 -9.272,9.352 -9.604,9.327 -9.909,9.236 -11.384,8.584 -14.4,4.034 -14.41,4.031"
             style="fill:#34346e;fill-opacity:1;fill-rule:nonzero;stroke:none"
             id="path116" /></g><g
           id="g118"
           transform="translate(382.0293,722.9811)"><path
             d="m 0,0 c 0.126,-0.335 0.24,-0.676 0.326,-1.028 1.612,-6.649 -4.353,-14.87 -11.477,-10.753 -5.313,3.07 -6.326,5.034 -3.5,9.732 0,0 1.339,5.242 7.426,4.957 C -1.137,2.624 0,0 0,0"
             style="fill:#34346e;fill-opacity:1;fill-rule:nonzero;stroke:none"
             id="path120" /></g><g
           id="g122"
           transform="translate(348.4544,715.7109)"><path
             d="m 0,0 c -0.087,-0.019 -2.471,2.019 -2.559,2 -0.22,-0.055 -0.422,-0.062 -0.606,-0.021 -0.202,0.009 -0.373,0.065 -0.512,0.169 -0.158,0.095 -0.261,0.228 -0.311,0.397 -0.086,0.144 -0.115,0.314 -0.086,0.509 0.03,0.124 0.061,0.248 0.091,0.372 0.1,0.258 0.261,0.499 0.482,0.723 0.125,0.104 0.251,0.207 0.376,0.311 0.272,0.186 0.558,0.312 0.858,0.379 0.585,0.129 1.171,0.259 1.756,0.388 0.115,0.029 0.224,0.043 0.329,0.046 0.062,0.05 0.126,0.099 0.188,0.149 -0.016,0.032 -0.03,0.066 -0.041,0.102 -0.086,0.145 -0.114,0.315 -0.086,0.51 0.031,0.124 0.061,0.248 0.092,0.372 0.1,0.258 0.26,0.498 0.482,0.723 C 0.578,7.232 0.703,7.336 0.828,7.44 1.1,7.626 1.386,7.752 1.686,7.819 1.979,7.883 2.272,7.948 2.564,8.013 2.785,8.068 2.987,8.075 3.171,8.034 3.301,8.028 3.413,7.995 3.517,7.95 3.587,7.996 3.657,8.042 3.728,8.088 3.727,8.112 3.725,8.135 3.726,8.16 c -0.028,0.171 0,0.353 0.082,0.548 0.065,0.124 0.13,0.248 0.194,0.372 0.171,0.255 0.392,0.476 0.664,0.662 0.142,0.08 0.284,0.159 0.426,0.238 0.289,0.125 0.572,0.187 0.848,0.187 1.391,-0.173 5.04,-3.208 5.049,-3.208"
             style="fill:#34346e;fill-opacity:1;fill-rule:nonzero;stroke:none"
             id="path124" /></g><g
           id="g126"
           transform="translate(364.0335,722.0975)"><path
             d="m 0,0 c -5.867,-1.8 -8.982,-4.992 -12.573,-8.29 -2.538,-2.331 -6.465,1.344 -3.912,3.689 C -10.752,0.665 -4.106,5.41 3.835,6.339 12.48,7.35 19.84,2.85 26.689,-1.837 29.52,-3.774 26.972,-8.514 24.113,-6.557 20.039,-3.769 15.773,-0.836 11.017,0.445 11.017,0.445 5.867,1.8 0,0"
             style="fill:#34346e;fill-opacity:1;fill-rule:nonzero;stroke:none"
             id="path128" /></g><g
           id="g130"
           transform="translate(377.8601,710.2781)"><path
             d="M 0,0 C 4.141,2.185 7.481,5.798 10.674,9.237 12.915,11.65 16.27,7.789 14.052,5.4 8.684,-0.38 2.803,-6.095 -5.424,-6.969 c -7.557,-0.803 -14.713,2.203 -21.133,5.884 -2.858,1.639 0.012,5.869 2.855,4.24 4.02,-2.305 7.577,-4.612 13.394,-5.051 C -4.491,-2.335 0,0 0,0"
             style="fill:#34346e;fill-opacity:1;fill-rule:nonzero;stroke:none"
             id="path132" /></g><g
           id="g134"
           transform="translate(432.1027,721.1165)"><path
             d="m 0,0 c -4.55,2.364 -3.31,6.744 -3.31,6.744 -0.072,4.613 1.495,5.613 6.658,5.603 C 10.271,12.333 11.139,3.832 7.157,-0.325 6.945,-0.545 6.718,-0.745 6.486,-0.936 6.486,-0.936 4.55,-2.364 0,0"
             style="fill:#34346e;fill-opacity:1;fill-rule:nonzero;stroke:none"
             id="path136" /></g><g
           id="g138"
           transform="translate(427.4715,730.1796)"><path
             d="m 0,0 c -3.416,-2.624 -5.885,-6.42 -8.248,-10.034 -1.658,-2.537 -5.3,0.445 -3.659,2.956 3.972,6.075 8.419,12.171 15.746,14.241 6.728,1.901 13.686,0.284 20.079,-2.058 2.847,-1.043 0.9,-5.326 -1.931,-4.289 C 17.983,2.283 14.399,3.823 9.055,3.319 3.711,2.815 0,0 0,0"
             style="fill:#34346e;fill-opacity:1;fill-rule:nonzero;stroke:none"
             id="path140" /></g><g
           id="g142"
           transform="translate(441.157,722.8208)"><path
             d="m 0,0 c 4.549,2.311 6.646,5.369 9.117,8.582 1.747,2.271 5.487,-0.179 3.73,-2.464 C 8.901,0.988 -1.048,-5.934 -7.622,-6.918 c -12.541,-1.877 -14.798,3.655 -15.921,0.28 -0.901,-2.705 -3.396,5.715 -0.776,4.52 3.735,-1.703 1.915,-1.587 10.385,-1.503 C -5.464,-3.537 -4.549,-2.311 0,0"
             style="fill:#34346e;fill-opacity:1;fill-rule:nonzero;stroke:none"
             id="path144" /></g><g
           id="g146"
           transform="translate(450.1713,733.2202)"><path
             d="M 0,0 C 0.104,0.009 2.034,3.123 2.138,3.132 2.403,3.15 2.63,3.213 2.82,3.324 3.042,3.406 3.212,3.529 3.33,3.693 3.471,3.855 3.54,4.039 3.535,4.245 3.58,4.436 3.551,4.635 3.451,4.842 3.373,4.969 3.295,5.096 3.217,5.224 3.014,5.475 2.75,5.686 2.424,5.857 2.248,5.928 2.072,5.999 1.897,6.07 1.528,6.18 1.165,6.219 0.808,6.188 0.11,6.124 -0.587,6.061 -1.285,5.997 -1.422,5.988 -1.549,5.965 -1.667,5.931 -1.754,5.965 -1.841,5.997 -1.928,6.03 -1.923,6.072 -1.919,6.115 -1.92,6.159 -1.875,6.351 -1.904,6.55 -2.004,6.756 -2.082,6.884 -2.16,7.011 -2.238,7.138 -2.44,7.389 -2.705,7.6 -3.031,7.771 -3.207,7.842 -3.383,7.914 -3.558,7.985 -3.927,8.095 -4.29,8.134 -4.647,8.102 -4.996,8.07 -5.345,8.038 -5.694,8.007 -5.958,7.989 -6.186,7.926 -6.376,7.815 -6.518,7.763 -6.632,7.686 -6.731,7.6 -6.826,7.625 -6.92,7.652 -7.015,7.677 c -0.007,0.027 -0.013,0.054 -0.023,0.082 -0.03,0.199 -0.125,0.393 -0.286,0.58 -0.116,0.115 -0.232,0.23 -0.347,0.345 -0.281,0.223 -0.605,0.391 -0.974,0.502 -0.186,0.038 -0.372,0.075 -0.558,0.113 -0.366,0.037 -0.703,0.006 -1.01,-0.092 -1.486,-0.686 -4.471,-5.356 -4.481,-5.359"
             style="fill:#34346e;fill-opacity:1;fill-rule:nonzero;stroke:none"
             id="path148" /></g><g
           id="g150"
           transform="translate(446.4254,807.4296)"><path
             d="M 0,0 C -9.978,10.719 -26.148,16.073 -41.698,15.609 -58.365,15.111 -75.353,9.491 -83.839,4.868 c -5.974,-3.255 -14.32,-10.468 -18.669,-15.41 -3.988,-4.532 -10.496,-11.869 -13.578,-16.951 -10.547,-17.389 -18.607,-36.295 -17.344,-56.114 l 1.253,-1.698 c 4.498,28.147 23.731,43.119 50.295,58.193 13.578,7.705 24.307,8.584 31.987,8.865 10.335,0.378 22.566,-2.858 32.247,-6.164 5.05,-1.724 8.707,-4.054 13.578,-6.164 3.656,-1.584 8.485,-4.622 13.577,-4.622 0,0 -2.635,11.934 -4.56,21.248 C 3.022,-4.634 0,0 0,0"
             style="fill:#f49e78;fill-opacity:1;fill-rule:nonzero;stroke:none"
             id="path152" /></g></g></g><g
       id="g154"
       transform="translate(19.821421)"><g
         id="g156"
         clip-path="url(#clipPath160)"><g
           id="g162"
           transform="translate(208.5706,543.6755)"><path
             d="m 0,0 c 2.493,-9.797 12.14,-22.047 33.662,-27.842 42.652,-11.483 44.292,-39.371 44.292,-39.371 0,0 15.892,9.228 22.967,21.326 7.075,12.099 -34.609,33.877 -56.676,38.265"
             style="fill:#34346e;fill-opacity:1;fill-rule:nonzero;stroke:none"
             id="path164" /></g></g></g><g
       id="g166"
       transform="translate(19.821421)"><g
         id="g168"
         clip-path="url(#clipPath172)"><g
           id="g174"
           transform="translate(265.6389,488.9022)"><path
             d="m 0,0 c -5.186,6.678 -13.946,10.594 -22.06,14.492 l -3.986,1.886 c -9.454,4.426 -18.191,9.959 -25.435,16.637 -4.832,5.254 -6.937,11.999 -6.526,18.524 -0.682,-0.048 -1.881,-0.308 -1.599,-0.356 -1.552,-10.662 -3.539,-21.391 -2.446,-32.149 1.399,-9.45 7.244,-18.659 16.839,-24.211 5.656,-3.426 12.3,-5.504 19.143,-6.707 l 3.998,-0.933 c 8.267,-2.204 16.604,-5.504 22.013,-11.268 2.545,-2.453 3.557,-5.666 3.708,-8.824 0.013,-0.286 0.02,-200.252 0.02,-200.537 l 0.053,0.02 v -1.569 l 3.871,1.549 v 1.488 l 0.162,0.061 c 0,0.308 0,198.748 0,199.056 0.002,1.947 0.004,3.893 0.006,5.84 C 7.82,-17.696 6.244,-7.977 0,0"
             style="fill:#34346e;fill-opacity:1;fill-rule:nonzero;stroke:none"
             id="path176" /></g><g
           id="g178"
           transform="translate(323.0457,505.9911)"><path
             d="m 0,0 h -1.303 c 0.31,-5.025 -0.062,-10.566 -3.618,-14.485 -6.08,-6.782 -14.268,-11.207 -20.575,-17.742 -3.37,-3.515 -5.79,-7.878 -7.206,-12.52 -1.83,-6.276 -2.575,-13.518 -1.427,-19.334 0.168,-0.853 0.366,-1.578 0.577,-2.215 V -244.34 l 3.872,1.548 v 177.136 c 2.45,6.52 9.528,10.864 15.588,13.827 7.361,3.773 17.711,5.882 20.337,14.898 C 9.543,-24.328 4.26,-11.693 0,0"
             style="fill:#34346e;fill-opacity:1;fill-rule:nonzero;stroke:none"
             id="path180" /></g><g
           id="g182"
           transform="translate(330.3676,460.9905)"><path
             d="m 0,0 h -0.961 c 0.228,-3.709 -0.046,-7.799 -2.671,-10.691 -4.487,-5.006 -10.531,-8.272 -15.186,-13.095 -2.487,-2.594 -4.273,-5.814 -5.319,-9.241 -1.219,-4.18 -1.774,-8.935 -1.25,-12.979 v -145.59 l 3.872,1.548 v 142.485 c 2.085,4.317 6.926,7.262 11.114,9.309 5.433,2.786 13.072,4.342 15.01,10.996 C 7.043,-17.955 3.144,-8.631 0,0"
             style="fill:#34346e;fill-opacity:1;fill-rule:nonzero;stroke:none"
             id="path184" /></g><g
           id="g186"
           transform="translate(376.63,414.5453)"><path
             d="m 0,0 c -2.273,2.697 -4.902,4.278 -8.459,5.852 l -1.747,0.762 c -4.144,1.788 -7.974,4.022 -11.149,6.719 -2.118,2.122 -3.041,4.846 -2.861,7.48 -0.299,-0.019 -0.897,-0.05 -1.196,-0.07 0.124,-0.019 0.372,-0.054 0.495,-0.073 -0.68,-4.306 -1.551,-8.639 -1.072,-12.983 0.614,-3.817 3.175,-7.535 7.381,-9.778 2.479,-1.383 5.392,-2.222 8.391,-2.708 l 1.753,-0.377 c 3.623,-0.89 4.909,-1.047 7.28,-3.374 0.314,-0.279 0.568,-0.842 0.774,-1.542 v -104.085 l 3.872,1.548 v 100.981 l -0.026,0.021 c 0.013,0.572 0.025,1.13 0.026,1.528 C 3.521,-4.648 2.737,-3.221 0,0"
             style="fill:#34346e;fill-opacity:1;fill-rule:nonzero;stroke:none"
             id="path188" /></g><g
           id="g190"
           transform="translate(401.7733,418.1069)"><path
             d="m 0,0 v 1.427 0 c -0.001,0.708 -0.001,1.383 0,1.948 0.051,7.151 -1.864,14.164 -7.264,20.294 -4.485,5.132 -12.062,8.142 -19.079,11.137 l -3.448,1.45 c -8.177,3.401 -15.733,7.654 -21.998,12.786 -4.179,4.037 -6,9.221 -5.644,14.235 -0.59,-0.037 -1.383,-0.273 -1.383,-0.273 0,0 -3.061,-16.44 -2.115,-24.707 1.21,-7.262 6.264,-14.339 14.563,-18.606 4.892,-2.633 10.638,-4.23 16.557,-5.155 l 3.458,-0.717 c 7.149,-1.693 14.359,-4.23 19.038,-8.659 1.457,-1.249 2.692,-3.363 3.443,-6.209 V -106.898 L 0,-105.15 V -2.82 C 0.001,-2.026 0,-1.021 0,0"
             style="fill:#34346e;fill-opacity:1;fill-rule:nonzero;stroke:none"
             id="path192" /></g><g
           id="g194"
           transform="translate(414.5446,469.2166)"><path
             d="m 0,0 c -5.437,6.678 -14.623,10.594 -23.131,14.492 l -4.179,1.886 c -9.913,4.426 -19.074,9.959 -26.669,16.637 -5.068,5.254 -7.275,11.999 -6.844,18.524 -0.715,-0.049 -2.079,0.048 -1.783,0 -1.627,-10.662 -3.605,-21.747 -2.458,-32.506 1.467,-9.449 7.595,-18.658 17.656,-24.21 5.931,-3.426 12.897,-5.504 20.073,-6.707 l 4.192,-0.933 c 8.668,-2.204 17.41,-5.504 23.081,-11.268 1.675,-1.54 2.852,-4.53 3.552,-8.556 v -117.623 l 3.872,1.748 v 102.33 c 0.002,2.255 0.773,16.93 0.776,19.185 C 8.199,-17.696 6.547,-7.977 0,0"
             style="fill:#34346e;fill-opacity:1;fill-rule:nonzero;stroke:none"
             id="path196" /></g><g
           id="g198"
           transform="translate(449.7825,474.1371)"><path
             d="m 0,0 c -1.766,12.36 -5.773,15.818 -5.773,15.818 -1.095,2.19 -12.606,20.543 -15.82,25.337 -3.445,5.14 -7.61,9.697 -11.995,14.209 -9.027,9.288 -19.309,17.217 -30.704,23.525 -12.458,6.897 -26.147,12.161 -40.021,15.543 -24.261,5.914 -49.934,3.87 -74.626,3.211 -7.614,-0.203 -15.232,-0.025 -22.845,0.127 -14.199,0.282 -28.595,0.656 -42.675,-1.483 l -1.056,-7.252 -7.488,-9.548 -0.093,-0.234 c 28.795,-6.766 59.063,-4.305 88.448,-5.655 8.275,-0.38 16.53,-1.091 24.722,-2.308 7.406,-1.1 14.564,-2.904 21.636,-5.315 2.734,-0.933 5.431,-1.963 8.103,-3.047 7.736,-4.835 17.153,-12.46 27.312,-24.512 10.632,-12.612 34.437,-19.679 44.293,-24.607 17.505,-8.753 23.537,-31.963 25.418,-42.515 v -117.187 l 3.872,1.749 V -35.62 C -6.195,-13.938 1.549,-10.841 0,0"
             style="fill:#34346e;fill-opacity:1;fill-rule:nonzero;stroke:none"
             id="path200" /></g><g
           id="g202"
           transform="translate(486.4294,539.1819)"><path
             d="m 0,0 h -1.216 c 0.289,-4.691 -0.058,-9.865 -3.378,-13.523 -5.676,-6.332 -13.321,-10.463 -19.208,-16.563 -3.147,-3.282 -5.406,-7.355 -6.728,-11.689 -1.709,-5.859 -2.404,-12.62 -1.332,-18.05 0.183,-0.926 0.401,-1.695 0.636,-2.351 v -141.018 l 3.871,1.748 v 140.974 c 2.552,5.629 8.802,9.447 14.199,12.085 6.872,3.523 16.534,5.492 18.986,13.909 C 8.909,-22.712 3.977,-10.917 0,0"
             style="fill:#34346e;fill-opacity:1;fill-rule:nonzero;stroke:none"
             id="path204" /></g><g
           id="g206"
           transform="translate(500.2236,502.7095)"><path
             d="m 0,0 h -1.063 c 0.253,-3.286 -0.051,-6.911 -2.954,-9.474 -4.963,-4.436 -11.647,-7.331 -16.795,-11.604 -2.751,-2.3 -4.726,-5.153 -5.882,-8.19 -1.41,-3.873 -2.013,-8.299 -1.291,-11.983 v -117.727 l 3.872,1.748 v 114.517 c 2.097,4.136 7.753,6.911 12.61,8.813 6.009,2.469 14.457,3.848 16.6,9.745 C 7.79,-15.912 3.477,-7.648 0,0"
             style="fill:#34346e;fill-opacity:1;fill-rule:nonzero;stroke:none"
             id="path208" /></g><g
           id="g210"
           transform="translate(340.3482,423.0305)"><path
             d="m 0,0 h -0.66 c 0.157,-2.544 -0.031,-5.35 -1.832,-7.334 -3.078,-3.434 -7.224,-5.675 -10.417,-8.983 -1.707,-1.78 -2.932,-3.99 -3.649,-6.34 -0.927,-3.178 -1.304,-6.844 -0.723,-9.79 0.113,-0.57 0.289,-1.273 0.497,-2.033 v -111.413 l 3.872,1.549 v 104.078 c 0,6.195 0,10.841 5.777,14.023 3.727,1.911 8.967,2.979 10.297,7.544 C 4.832,-12.318 2.157,-5.921 0,0"
             style="fill:#34346e;fill-opacity:1;fill-rule:nonzero;stroke:none"
             id="path212" /></g><g
           id="g214"
           transform="translate(362.0298,407.5436)"><path
             d="m 0,0 h -0.66 c 0.158,-2.544 -0.031,-5.35 -1.832,-7.334 -3.078,-3.434 -7.224,-5.675 -10.417,-8.983 -1.707,-1.78 -2.932,-3.99 -3.649,-6.34 -0.927,-3.178 -1.304,-6.844 -0.723,-9.79 0.113,-0.57 0.289,-1.273 0.497,-2.033 v -86.634 l 3.872,1.549 v 79.299 c 0,6.195 0,10.841 5.777,14.023 3.727,1.911 8.967,2.979 10.297,7.544 C 4.832,-12.318 2.157,-5.921 0,0"
             style="fill:#34346e;fill-opacity:1;fill-rule:nonzero;stroke:none"
             id="path216" /></g></g></g></g></svg>
