<?xml version="1.0" encoding="UTF-8" standalone="no"?>
<!-- Created with Inkscape (http://www.inkscape.org/) -->

<svg
   version="1.1"
   id="svg834"
   xml:space="preserve"
   width="512"
   height="512"
   viewBox="0 0 512.00001 512.00001"
   sodipodi:docname="icon-transparent-bg.svg"
   inkscape:version="1.2.2 (b0a8486541, 2022-12-01)"
   xmlns:inkscape="http://www.inkscape.org/namespaces/inkscape"
   xmlns:sodipodi="http://sodipodi.sourceforge.net/DTD/sodipodi-0.dtd"
   xmlns="http://www.w3.org/2000/svg"
   xmlns:svg="http://www.w3.org/2000/svg"
   xmlns:rdf="http://www.w3.org/1999/02/22-rdf-syntax-ns#"
   xmlns:cc="http://creativecommons.org/ns#"
   xmlns:dc="http://purl.org/dc/elements/1.1/"><metadata
     id="metadata840"><rdf:RDF><cc:Work
         rdf:about=""><dc:format>image/svg+xml</dc:format><dc:type
           rdf:resource="http://purl.org/dc/dcmitype/StillImage" /></cc:Work></rdf:RDF></metadata><defs
     id="defs838" /><sodipodi:namedview
     pagecolor="#ffffff"
     bordercolor="#666666"
     borderopacity="1"
     objecttolerance="10"
     gridtolerance="10"
     guidetolerance="10"
     inkscape:pageopacity="0"
     inkscape:pageshadow="2"
     inkscape:window-width="2658"
     inkscape:window-height="1721"
     id="namedview836"
     showgrid="false"
     inkscape:zoom="1.9172176"
     inkscape:cx="250.36282"
     inkscape:cy="312.95353"
     inkscape:window-x="344"
     inkscape:window-y="37"
     inkscape:window-maximized="0"
     inkscape:current-layer="g842"
     inkscape:showpageshadow="2"
     inkscape:pagecheckerboard="0"
     inkscape:deskcolor="#d1d1d1" /><g
     id="g842"
     inkscape:groupmode="layer"
     inkscape:label="ink_ext_XXXXXX"
     transform="matrix(1.3333333,0,0,-1.3333333,0,306.12)"><g
       id="g244"
       transform="matrix(1.2563209,0,0,1.2565646,12,-106.90117)"><path
         inkscape:connector-curvature="0"
         id="path846"
         style="fill:#050606;fill-opacity:1;fill-rule:nonzero;stroke:none;stroke-width:0.1"
         d="M 143.121,211.39 C 89.8242,206.794 66.5703,156.253 48.8203,99.5582 L 26.4063,167.034 H 0 L 37.8066,66.2449 H 61.1641 C 78.8008,130.232 101.758,194.443 143.121,211.39" /><path
         inkscape:connector-curvature="0"
         id="path848"
         style="fill:#050606;fill-opacity:1;fill-rule:nonzero;stroke:none;stroke-width:0.1"
         d="m 134.143,85.2219 c -13.463,0 -25.141,6.2363 -32.571,10.6761 L 95.1484,75.1262 c 9.2536,-6.0903 24.6196,-11.2793 39.4476,-11.2793 26.252,0 39.853,13.3672 39.853,31.9531 0,20.873 -17.263,26.101 -33.263,30.719 -12.747,3.681 -18.836,5.908 -18.836,12.125 0,6.045 5.48,9.67 15.734,9.67 10.723,0 21.203,-4.473 26.18,-6.817 2.334,6.639 5.539,12.969 9.476,18.785 -5.617,3.096 -18.611,9.17 -35.176,9.17 -24.781,0 -40.8472,-12.441 -40.8472,-31.095 0,-18.569 14.2992,-25.243 31.2092,-29.956 13.619,-3.794 20.892,-6.209 20.892,-12.783 0,-6.5918 -5.826,-10.3961 -15.675,-10.3961" /><path
         inkscape:connector-curvature="0"
         id="path850"
         style="fill:#050606;fill-opacity:1;fill-rule:nonzero;stroke:none;stroke-width:0.1"
         d="m 233.529,86.4621 c -16.412,0 -28.519,13.434 -28.519,29.9389 0,16.405 12.443,30.26 28.519,30.26 16.078,0 28.522,-13.855 28.522,-30.26 0,-16.5049 -12.11,-29.9389 -28.522,-29.9389 m -0.304,82.9689 c -29.067,0 -52.715,-23.719 -52.715,-52.869 0,-29.0671 23.785,-52.7132 53.019,-52.7132 29.237,0 53.022,23.6461 53.022,52.7132 0,29.15 -24.258,52.869 -53.326,52.869" /><path
         inkscape:connector-curvature="0"
         id="path852"
         style="fill:#a9118e;fill-opacity:1;fill-rule:nonzero;stroke:none;stroke-width:0.1"
         d="m 241.088,178.404 c 12.418,-1.557 24.037,-6.778 33.572,-15.149 -3.748,7.867 -8.252,15.178 -13.103,21.535 -18.743,24.557 -51.102,44.979 -91.133,44.796 -23.086,-0.11 -45.649,-6.981 -64.641,-19.827 15.276,7.812 32.258,11.908 49.557,11.908 5.824,0 52.9,-1.533 85.748,-43.263" /><path
         inkscape:connector-curvature="0"
         id="path854"
         style="fill:#a9118e;fill-opacity:1;fill-rule:nonzero;stroke:none;stroke-width:0.1"
         d="m 155.34,7.91719 c -17.299,0 -34.281,4.09761 -49.557,11.90781 C 124.775,6.98203 147.338,0.110156 170.426,0.00117188 210.455,-0.182813 242.814,20.2391 261.557,44.7941 267.59,52.7 273.082,62.077 277.26,72.1711 268.385,63.5129 256.936,57.4621 244.174,55.273 211.27,9.54414 161.35,7.91719 155.34,7.91719" /></g></g></svg>
