<?xml version="1.0" encoding="UTF-8" standalone="no"?>
<!-- Created with Inkscape (http://www.inkscape.org/) -->

<svg
   width="968mm"
   height="168mm"
   viewBox="0 0 968 168"
   version="1.1"
   id="svg872"
   inkscape:version="1.1.1 (3bf5ae0d25, 2021-09-20)"
   sodipodi:docname="kaisipan-app-top-left.svg"
   inkscape:export-filename="/home/mike/Documents/UstadMobile/ownCloud/Customers/Kaisipan/Branding/kaisipan-app-top-left.png"
   inkscape:export-xdpi="25.4"
   inkscape:export-ydpi="25.4"
   xmlns:inkscape="http://www.inkscape.org/namespaces/inkscape"
   xmlns:sodipodi="http://sodipodi.sourceforge.net/DTD/sodipodi-0.dtd"
   xmlns="http://www.w3.org/2000/svg"
   xmlns:svg="http://www.w3.org/2000/svg">
  <sodipodi:namedview
     id="namedview874"
     pagecolor="#ffffff"
     bordercolor="#666666"
     borderopacity="1.0"
     inkscape:pageshadow="2"
     inkscape:pageopacity="0.0"
     inkscape:pagecheckerboard="0"
     inkscape:document-units="mm"
     showgrid="false"
     inkscape:zoom="0.13700938"
     inkscape:cx="2284.5151"
     inkscape:cy="32.844467"
     inkscape:window-width="1852"
     inkscape:window-height="1016"
     inkscape:window-x="68"
     inkscape:window-y="27"
     inkscape:window-maximized="1"
     inkscape:current-layer="layer1" />
  <defs
     id="defs869" />
  <g
     inkscape:label="Layer 1"
     inkscape:groupmode="layer"
     id="layer1">
    <g
       id="g1577">
      <path
         style="fill:#8facdd;fill-opacity:1;stroke:none;stroke-width:0.500739px;stroke-linecap:butt;stroke-linejoin:miter;stroke-opacity:1"
         d="M 80.414609,1.6411725 68.474066,13.494699 68.570397,67.544614 13.359366,67.28787 2.6309307,78.381251 80.53965,78.390146 Z"
         id="path862"
         sodipodi:nodetypes="ccccccc" />
      <circle
         style="opacity:0.999;fill:#8facdd;fill-opacity:1;stroke:none;stroke-width:1.89256"
         id="path868"
         cx="41.160179"
         cy="36.187389"
         r="15.022175" />
      <path
         style="fill:#305596;fill-opacity:1;stroke:none;stroke-width:0.500739px;stroke-linecap:butt;stroke-linejoin:miter;stroke-opacity:1"
         d="M 80.395929,167.0053 68.455386,155.15177 68.551718,101.10186 13.340686,101.3586 2.6122512,90.265223 80.52097,90.256328 Z"
         id="path862-3"
         sodipodi:nodetypes="ccccccc" />
      <circle
         style="opacity:0.999;fill:#305596;fill-opacity:1;stroke:none;stroke-width:1.89256"
         id="path868-6"
         cx="41.449596"
         cy="-129.03458"
         r="15.022175"
         transform="scale(1,-1)" />
      <path
         style="fill:#213764;fill-opacity:1;stroke:none;stroke-width:0.500739px;stroke-linecap:butt;stroke-linejoin:miter;stroke-opacity:1"
         d="m 91.867118,166.94791 11.940542,-11.85353 -0.0963,-54.04992 55.21103,0.25675 10.72844,-11.093381 -77.908724,-0.0089 z"
         id="path862-3-5"
         sodipodi:nodetypes="ccccccc" />
      <circle
         style="opacity:0.999;fill:#213764;fill-opacity:1;stroke:none;stroke-width:1.89256"
         id="path868-6-3"
         cx="-130.81345"
         cy="-128.97719"
         r="15.022175"
         transform="scale(-1)" />
    </g>
    <g
       aria-label="kaISIPan"
       id="text908-3"
       style="font-style:normal;font-weight:normal;font-size:37.4616px;line-height:1.25;font-family:sans-serif;letter-spacing:0px;word-spacing:0px;fill:#000000;fill-opacity:1;stroke:none;stroke-width:0.936541"
       transform="matrix(4.5231468,0,0,4.5231468,-695.88188,-615.57821)">
      <path
         d="m 202.50742,140.46825 h 3.38399 v 16.81016 l 10.04219,-8.83494 h 4.29857 l -10.86532,9.5849 11.32262,10.90191 h -4.39003 l -10.40803,-10.00561 v 10.00561 h -3.38399 z"
         style="fill:#c8c8c8;fill-opacity:1;stroke-width:0.936541"
         id="path906-6" />
      <path
         d="m 232.98156,158.632 q -4.07907,0 -5.65217,0.93288 -1.57309,0.93288 -1.57309,3.18278 0,1.79259 1.17067,2.85352 1.18897,1.04263 3.21936,1.04263 2.79864,0 4.48149,-1.97552 1.70114,-1.9938 1.70114,-5.28633 V 158.632 Z m 6.71309,-1.39018 v 11.68846 h -3.36569 v -3.1096 q -1.15239,1.86576 -2.87182,2.76206 -1.71943,0.878 -4.20711,0.878 -3.14619,0 -5.01195,-1.75601 -1.84747,-1.7743 -1.84747,-4.73757 0,-3.45715 2.30476,-5.21317 2.32306,-1.75601 6.9143,-1.75601 h 4.71929 v -0.32925 q 0,-2.32306 -1.53652,-3.58519 -1.51821,-1.28043 -4.28028,-1.28043 -1.75601,0 -3.42056,0.42071 -1.66456,0.42071 -3.20107,1.26214 v -3.10961 q 1.84747,-0.71338 3.5852,-1.06092 1.73772,-0.36584 3.38398,-0.36584 4.4449,0 6.63992,2.30477 2.19502,2.30476 2.19502,6.98746 z"
         style="fill:#c8c8c8;fill-opacity:1;stroke-width:0.936541"
         id="path908-7" />
      <path
         d="m 246.77357,141.62063 h 3.69494 v 27.30965 h -3.69494 z"
         style="fill:#213764;fill-opacity:1;stroke-width:0.936541"
         id="path910-5" />
      <path
         d="m 274.19297,142.51693 v 3.60348 q -2.10355,-1.00605 -3.96932,-1.49993 -1.86576,-0.49387 -3.60348,-0.49387 -3.01815,0 -4.66441,1.17067 -1.62797,1.17068 -1.62797,3.32911 0,1.81089 1.07922,2.74377 1.09751,0.91459 4.13394,1.48163 l 2.2316,0.4573 q 4.13395,0.78654 6.09117,2.78035 1.97552,1.97551 1.97552,5.30462 0,3.96932 -2.67061,6.018 -2.65231,2.04868 -7.7923,2.04868 -1.93893,0 -4.13395,-0.439 -2.17672,-0.439 -4.51807,-1.29872 v -3.80469 q 2.24989,1.26213 4.40832,1.90235 2.15843,0.64021 4.2437,0.64021 3.16448,0 4.88391,-1.24384 1.71943,-1.24384 1.71943,-3.54861 0,-2.0121 -1.24385,-3.14619 -1.22555,-1.13409 -4.04248,-1.70114 l -2.24989,-0.439 q -4.13395,-0.82313 -5.98142,-2.57914 -1.84747,-1.75602 -1.84747,-4.88391 0,-3.62178 2.54256,-5.70704 2.56085,-2.08527 7.04234,-2.08527 1.92064,0 3.91444,0.34754 1.99381,0.34755 4.07907,1.04264 z"
         style="fill:#213764;fill-opacity:1;stroke-width:0.936541"
         id="path912-3" />
      <path
         d="m 281.60115,141.62063 h 3.69494 v 27.30965 h -3.69494 z"
         style="fill:#213764;fill-opacity:1;stroke-width:0.936541"
         id="path914-5" />
      <path
         d="m 296.34434,144.65707 v 10.2617 h 4.64612 q 2.57914,0 3.98761,-1.33531 1.40847,-1.3353 1.40847,-3.80469 0,-2.4511 -1.40847,-3.7864 -1.40847,-1.3353 -3.98761,-1.3353 z m -3.69494,-3.03644 h 8.34106 q 4.59124,0 6.93259,2.08526 2.35964,2.06698 2.35964,6.07288 0,4.04249 -2.35964,6.10946 -2.34135,2.06697 -6.93259,2.06697 h -4.64612 v 10.97508 h -3.69494 z"
         style="fill:#213764;fill-opacity:1;stroke-width:0.936541"
         id="path916-6" />
      <path
         d="m 324.40396,158.632 q -4.07907,0 -5.65217,0.93288 -1.57309,0.93288 -1.57309,3.18278 0,1.79259 1.17067,2.85352 1.18897,1.04263 3.21936,1.04263 2.79865,0 4.48149,-1.97552 1.70114,-1.9938 1.70114,-5.28633 V 158.632 Z m 6.71309,-1.39018 v 11.68846 h -3.36569 v -3.1096 q -1.15238,1.86576 -2.87181,2.76206 -1.71943,0.878 -4.20712,0.878 -3.14619,0 -5.01195,-1.75601 -1.84747,-1.7743 -1.84747,-4.73757 0,-3.45715 2.30477,-5.21317 2.32305,-1.75601 6.9143,-1.75601 h 4.71928 v -0.32925 q 0,-2.32306 -1.53651,-3.58519 -1.51822,-1.28043 -4.28028,-1.28043 -1.75602,0 -3.42057,0.42071 -1.66455,0.42071 -3.20106,1.26214 v -3.10961 q 1.84747,-0.71338 3.58519,-1.06092 1.73772,-0.36584 3.38398,-0.36584 4.44491,0 6.63992,2.30477 2.19502,2.30476 2.19502,6.98746 z"
         style="fill:#c8c8c8;fill-opacity:1;stroke-width:0.936541"
         id="path918-2" />
      <path
         d="m 355.0793,156.56503 v 12.36525 h -3.36569 v -12.2555 q 0,-2.9084 -1.13409,-4.35345 -1.1341,-1.44505 -3.40228,-1.44505 -2.72548,0 -4.29857,1.73772 -1.5731,1.73772 -1.5731,4.73757 v 11.57871 h -3.38398 v -20.48681 h 3.38398 v 3.18277 q 1.20726,-1.84747 2.83523,-2.76206 1.64626,-0.91459 3.78641,-0.91459 3.53031,0 5.3412,2.19502 1.81089,2.17672 1.81089,6.42042 z"
         style="fill:#c8c8c8;fill-opacity:1;stroke-width:0.936541"
         id="path920-9" />
    </g>
  </g>
</svg>
