<?xml version="1.0" encoding="UTF-8" standalone="no"?>
<!-- Generator: Adobe Illustrator 23.1.0, SVG Export Plug-In . SVG Version: 6.00 Build 0)  -->

<svg
   version="1.1"
   id="Layer_1"
   x="0px"
   y="0px"
   viewBox="0 0 511.99999 86.999998"
   xml:space="preserve"
   sodipodi:docname="top-left.svg"
   inkscape:version="1.2.2 (b0a8486541, 2022-12-01)"
   width="512"
   height="87"
   xmlns:inkscape="http://www.inkscape.org/namespaces/inkscape"
   xmlns:sodipodi="http://sodipodi.sourceforge.net/DTD/sodipodi-0.dtd"
   xmlns="http://www.w3.org/2000/svg"
   xmlns:svg="http://www.w3.org/2000/svg"
   xmlns:rdf="http://www.w3.org/1999/02/22-rdf-syntax-ns#"
   xmlns:cc="http://creativecommons.org/ns#"
   xmlns:dc="http://purl.org/dc/elements/1.1/"><metadata
   id="metadata27"><rdf:RDF><cc:Work
       rdf:about=""><dc:format>image/svg+xml</dc:format><dc:type
         rdf:resource="http://purl.org/dc/dcmitype/StillImage" /></cc:Work></rdf:RDF></metadata><defs
   id="defs25">
	
	
	
	
	
	
	
	
</defs><sodipodi:namedview
   pagecolor="#ffffff"
   bordercolor="#666666"
   borderopacity="1"
   objecttolerance="10"
   gridtolerance="10"
   guidetolerance="10"
   inkscape:pageopacity="0"
   inkscape:pageshadow="2"
   inkscape:window-width="1850"
   inkscape:window-height="1011"
   id="namedview23"
   showgrid="false"
   inkscape:zoom="0.7849443"
   inkscape:cx="243.96635"
   inkscape:cy="110.83589"
   inkscape:window-x="70"
   inkscape:window-y="32"
   inkscape:window-maximized="1"
   inkscape:current-layer="Layer_1"
   inkscape:showpageshadow="2"
   inkscape:pagecheckerboard="0"
   inkscape:deskcolor="#d1d1d1" />
<style
   type="text/css"
   id="style2">
	.st0{fill:#1B9BC5;}
	.st1{fill:#FEFFFF;}
</style>
<path
   style="fill:#808080;fill-opacity:0"
   inkscape:connector-curvature="0"
   id="path4"
   d="m 0.08,0.09 c 282.17,0 564.33,0.01 846.5,-0.08 3.11,0 3.81,0.7 3.81,3.81 -0.08,280.92 -0.08,561.84 0,842.77 0,3.11 -0.7,3.81 -3.81,3.81 -280.92,-0.08 -561.84,-0.08 -842.77,0 C 0.7,850.4 -0.01,849.7 0,846.59 0.08,564.42 0.08,282.25 0.08,0.09 Z m 424.44,702.43 c 104.33,0 208.66,-0.02 312.99,0.05 6.32,0 12.39,-0.85 18.26,-3.13 19.33,-7.51 25.35,-25.55 16.48,-42.81 -10.39,-20.2 -22.07,-39.75 -33.29,-59.52 -7.62,-13.43 -15.47,-26.74 -23.13,-40.15 -4.17,-7.29 -8.2,-14.67 -12.22,-22.04 -2.3,-4.22 -4.2,-8.97 -2.37,-13.49 2.56,-6.34 2.19,-12.72 2.19,-19.18 0.03,-102.94 0.05,-205.89 0.07,-308.83 0,-3.04 0.11,-6.11 -0.18,-9.13 -1.62,-16.43 -8.14,-28.71 -23.88,-33.96 -5.97,-1.99 -12.12,-2.49 -18.39,-2.49 -150.82,0.04 -301.64,0.03 -452.46,0.03 -5.53,0 -11.07,-0.13 -16.6,0.06 -7.77,0.27 -14.94,2.59 -21.24,7.23 -10.27,7.57 -14.48,18.05 -14.48,30.51 -0.03,108.48 -0.08,216.96 -0.04,325.44 0,5.71 -1.32,11.01 -4.01,15.86 -7.29,13.14 -14.92,26.09 -22.29,39.19 -10.01,17.77 -19.86,35.63 -29.86,53.4 -7.09,12.61 -14.22,25.21 -21.51,37.71 -3.45,5.91 -4.63,12.04 -3.14,18.69 3.46,15.51 17.23,26.55 33.24,26.55 105.27,0.03 210.56,0.02 315.86,0.01 z"
   class="st0" /><path
   style="fill:#1b9bc5;fill-opacity:1;stroke-width:0.152514"
   inkscape:connector-curvature="0"
   id="path6"
   d="m 54.877451,86.089362 c -16.059703,0.0015 -32.117881,0.0015 -48.1775844,0 -2.4417459,0 -4.541861,-1.683753 -5.0695587,-4.049242 -0.2257204,-1.014216 -0.047279,-1.947601 0.4788933,-2.850483 1.1133508,-1.904897 2.199249,-3.826571 3.2805719,-5.751295 1.525138,-2.711695 3.0273989,-5.434067 4.554062,-8.144237 1.1240269,-1.996405 2.2877069,-3.972984 3.3995329,-5.977016 0.410262,-0.739692 0.61158,-1.548015 0.61158,-2.418869 -0.0061,-16.544697 0.0015,-33.089394 0.0061,-49.6340906 0,-1.900322 0.642083,-3.5001917 2.208399,-4.6531961 0.960837,-0.707664 2.054361,-1.061496 3.239394,-1.1026747 0.843401,-0.028978 1.688327,-0.00915 2.531729,-0.00915 23.002131,0 46.004262,0.00153 69.006394,-0.00458 0.956261,0 1.895746,0.076257 2.804728,0.3797594 2.399042,0.8006974 3.394958,2.6735669 3.64203,5.1793686 0.04575,0.4605917 0.02745,0.9272839 0.02745,1.392451 -0.0015,15.6997704 -0.0061,31.4010664 -0.01068,47.1008364 0,0.985239 0.05643,1.959803 -0.334005,2.925215 -0.277575,0.687837 0.01068,1.413803 0.361458,2.057411 0.613105,1.125552 1.227736,2.249579 1.863719,3.361404 1.168256,2.04521 2.363956,4.075169 3.527636,6.123429 1.71121,3.015198 3.4941,5.995318 5.07719,9.077622 1.3528,2.632388 0.43466,5.383737 -2.51343,6.529115 -0.89373,0.347732 -1.82101,0.477369 -2.7849,0.477369 -15.907187,-0.01373 -31.818951,-0.01068 -47.730716,-0.0092 z M 55.697975,6.4207281 c -11.71306,0 -23.424594,0 -35.137654,0 -1.619697,0 -1.663926,0.045754 -1.663926,1.6715512 0,15.8065307 0,31.6130607 0,47.4195907 0,2.031484 0,2.031484 2.023858,2.031484 7.618065,0 15.236129,0 22.854193,0 15.63724,0 31.276005,0 46.913245,-0.0015 1.756959,0 1.776786,-0.0244 1.776786,-1.749334 0,-15.86906 0,-31.739647 0,-47.6087074 0,-1.7523836 -0.0092,-1.7615344 -1.755434,-1.7615344 -11.671881,-0.00153 -23.342237,-0.00153 -35.011068,-0.00153 z M 6.8081514,81.14639 c 0.1525138,0 0.2974019,0 0.4438152,0 31.7625244,0 63.5235224,0 95.2860434,0 0.68479,0 0.75495,-0.112861 0.41637,-0.710715 -1.38635,-2.452422 -2.7727,-4.904844 -4.169731,-7.351165 -1.146904,-2.008607 -2.353288,-3.986711 -3.446812,-6.024295 -0.526173,-0.982189 -1.16368,-1.898797 -1.634948,-2.914539 -0.456016,-0.983714 -1.046245,-1.645624 -2.382266,-1.650199 -24.269521,-0.07321 -48.539042,0.268424 -72.805512,-0.22267 -0.803748,-0.01678 -1.305518,0.240972 -1.688328,0.925759 -1.610546,2.87946 -3.237868,5.748245 -4.871291,8.615504 -1.644099,2.888611 -3.3003985,5.769597 -4.9505978,8.655158 -0.1128602,0.199793 -0.2165696,0.405687 -0.1967428,0.677162 z"
   class="st1" /><path
   style="fill:#808080;fill-opacity:0;stroke-width:0.152514"
   inkscape:connector-curvature="0"
   id="path8"
   d="m 55.697975,6.4207281 c 11.670356,0 23.340712,0 35.011068,0 1.747808,0 1.755434,0.010676 1.755434,1.7615344 0,15.8690605 0,31.7396465 0,47.6087075 0,1.724931 -0.01983,1.749334 -1.776786,1.749334 -15.63724,0.0015 -31.276005,0.0015 -46.913245,0.0015 -7.618064,0 -15.236128,0 -22.854193,0 -2.023858,0 -2.023858,-0.0015 -2.023858,-2.031484 0,-15.80653 0,-31.613061 0,-47.4195908 0,-1.6257971 0.04423,-1.6700261 1.663926,-1.6715513 11.711534,0.00153 23.424594,0.00153 35.137654,0.00153 z M 38.39986,29.607401 c -0.44534,0.481944 -0.817474,0.905932 -1.130127,1.38025 -0.969988,1.470233 -1.180457,3.135684 -1.220111,4.836213 -0.01068,0.478893 -0.123536,0.790021 -0.556675,1.082848 -1.064546,0.719865 -1.325345,2.386841 -0.378234,3.204314 0.750368,0.648184 0.629882,1.262815 0.460591,1.999456 -0.05185,0.225721 -0.10981,0.449916 -0.16929,0.674111 -0.65886,2.492076 -1.927774,4.662347 -3.533745,6.648077 -0.289776,0.356882 -0.364508,0.547524 0.08388,0.857128 0.822049,0.567351 1.703579,1.00354 2.604936,1.416853 0.254698,0.117435 0.434664,0.04575 0.646658,-0.06253 1.692903,-0.866278 2.548506,-2.315159 2.931315,-4.122448 0.445341,-2.10164 0.131162,-4.204805 0.06711,-6.307971 -0.0122,-0.407212 0.05033,-0.712239 0.327905,-1.027943 0.730541,-0.83425 0.849502,-2.002506 0.120486,-2.772701 -0.582603,-0.61463 -0.597854,-1.22316 -0.518547,-1.943025 0.184542,-1.692904 0.65886,-3.251595 1.88202,-4.518984 0.419413,-0.434665 0.800698,-0.535324 1.389401,-0.330955 4.494582,1.567842 9.001365,3.09603 13.502047,4.647095 0.49872,0.172341 0.971513,0.205894 1.477858,0.0305 6.943954,-2.409718 13.890957,-4.81181 20.836436,-7.215428 0.340106,-0.117436 0.672586,-0.253173 0.956261,-0.478893 0.388911,-0.311128 0.381285,-0.629882 -0.01678,-0.928809 -0.324852,-0.24402 -0.701561,-0.378233 -1.08132,-0.509394 C 70.134931,23.763072 63.187928,21.36098 56.2455,18.946686 c -0.506346,-0.17539 -0.960837,-0.179966 -1.468708,-0.0061 -6.992758,2.397517 -13.990091,4.779782 -20.985899,7.168149 -0.338581,0.11591 -0.677161,0.236396 -0.969988,0.45144 -0.512446,0.373659 -0.510921,0.654285 0.01373,1.023368 0.544475,0.38281 1.191133,0.529223 1.804239,0.745792 1.224685,0.425514 2.458522,0.835776 3.76099,1.278066 z m 32.901802,3.930281 c -0.254698,0.08083 -0.452966,0.138787 -0.648184,0.205893 -4.737078,1.631898 -9.477207,3.257695 -14.208185,4.904844 -0.506346,0.176916 -0.953212,0.186067 -1.464133,0.01068 -4.418325,-1.522088 -8.844275,-3.024349 -13.270225,-4.52966 -0.205894,-0.07016 -0.404162,-0.192167 -0.664961,-0.144888 0,3.445287 -0.0046,6.861596 0.0046,10.27638 0.0015,0.625307 0.327904,1.122502 0.751893,1.555641 0.968462,0.988289 2.173321,1.583093 3.454437,2.039109 2.600361,0.924234 5.292229,1.368049 8.039003,1.548015 3.98061,0.260799 7.923092,0.05186 11.799992,-0.931859 1.82254,-0.463642 3.600851,-1.061496 5.083285,-2.293808 0.585653,-0.488044 1.096575,-1.079797 1.105725,-1.848467 0.03813,-3.579499 0.01678,-7.158998 0.01678,-10.791876 z M 55.624768,9.7348529 c -0.462116,0 -0.925758,-0.016777 -1.387875,0.00305 -1.268915,0.051855 -2.200774,0.9242341 -2.307534,2.1412941 -0.126586,1.429054 0.546,2.43107 1.909473,2.665941 1.162155,0.199793 2.351763,0.192168 3.515443,-0.01068 1.1103,-0.192167 1.720356,-0.93796 1.845417,-2.090964 0.125061,-1.145375 -0.343156,-1.98115 -1.340596,-2.4691944 C 57.137705,9.6219927 56.373611,9.7699311 55.624768,9.7348529 Z"
   class="st0" /><path
   style="fill:#808080;fill-opacity:0;stroke-width:0.152514"
   inkscape:connector-curvature="0"
   id="path10"
   d="m 6.8081514,81.14639 c -0.019827,-0.271475 0.083883,-0.477369 0.1982679,-0.677162 1.6486742,-2.885561 3.3064997,-5.766547 4.9505977,-8.655158 1.631898,-2.867259 3.260745,-5.736044 4.871291,-8.615504 0.384335,-0.686313 0.88458,-0.942536 1.688328,-0.925759 24.266471,0.491094 48.537517,0.149463 72.805513,0.22267 1.33602,0.0046 1.926249,0.666485 2.382265,1.650199 0.471268,1.017267 1.10725,1.93235 1.634948,2.914539 1.093524,2.037584 2.299908,4.015688 3.446812,6.024295 1.397026,2.446321 2.783376,4.898743 4.169726,7.351165 0.33706,0.597854 0.26843,0.710715 -0.41636,0.710715 -31.762525,0 -63.523524,0 -95.2860483,0 -0.1479384,0 -0.2943516,0 -0.4453403,0 z M 54.990311,73.705241 c 10.00033,0 19.999135,0 29.999465,0 0.61158,0 1.22316,-0.0015 1.822539,-0.160139 1.169781,-0.311128 1.865244,-1.096574 1.839317,-2.246529 -0.03203,-1.435154 -0.475843,-1.904897 -1.708155,-2.319734 -0.521597,-0.176916 -1.073697,-0.215045 -1.624272,-0.215045 -20.211128,-0.0031 -40.420732,-0.0031 -60.631861,-0.0046 -0.465167,0 -0.928809,0.0092 -1.384825,0.10981 -0.872379,0.192167 -1.642574,0.89068 -1.726456,1.651724 -0.111335,1.026418 -0.125062,2.025383 0.916608,2.694919 0.683261,0.437715 1.413803,0.491094 2.179422,0.491094 10.108614,-0.0031 20.212654,-0.0015 30.318218,-0.0015 z"
   class="st0" /><path
   style="fill:#1b9bc5;fill-opacity:1;stroke-width:0.152514"
   inkscape:connector-curvature="0"
   id="path12"
   d="m 38.39986,29.607401 c -1.302468,-0.44229 -2.536305,-0.851027 -3.764041,-1.282641 -0.61463,-0.215044 -1.259764,-0.362983 -1.804238,-0.745792 -0.524647,-0.367559 -0.524647,-0.648184 -0.01373,-1.023368 0.294351,-0.215045 0.631407,-0.33553 0.969988,-0.451441 6.995808,-2.388366 13.994666,-4.769106 20.985898,-7.168149 0.509397,-0.173865 0.963888,-0.16929 1.468708,0.0061 6.942429,2.414294 13.889432,4.816386 20.836436,7.218478 0.379759,0.131162 0.756468,0.265374 1.081323,0.509396 0.398061,0.298927 0.405686,0.617681 0.01678,0.928809 -0.283676,0.227246 -0.616156,0.361458 -0.956261,0.478894 -6.945479,2.403617 -13.892482,4.80571 -20.836436,7.215428 -0.506346,0.17539 -0.979138,0.141837 -1.477859,-0.0305 -4.499157,-1.551066 -9.007465,-3.080779 -13.502046,-4.647096 -0.588703,-0.205893 -0.968463,-0.103709 -1.389401,0.330955 -1.224686,1.26739 -1.697479,2.826081 -1.88202,4.518984 -0.07931,0.72139 -0.06253,1.32992 0.518547,1.943026 0.730541,0.770195 0.610055,1.93845 -0.120486,2.772701 -0.277575,0.317229 -0.340106,0.620731 -0.327905,1.027943 0.06406,2.103165 0.378234,4.20633 -0.06711,6.307971 -0.38281,1.805763 -1.238412,3.256169 -2.931315,4.122448 -0.211994,0.108284 -0.391961,0.179966 -0.646659,0.06253 -0.901356,-0.413312 -1.782886,-0.851027 -2.604935,-1.416853 -0.448391,-0.309603 -0.373659,-0.49872 -0.08388,-0.857127 1.60597,-1.98573 2.874885,-4.156002 3.533745,-6.648077 0.05948,-0.224195 0.117435,-0.448391 0.16929,-0.674111 0.16929,-0.736642 0.289776,-1.351272 -0.460592,-1.999456 -0.94711,-0.817474 -0.686312,-2.485975 0.378235,-3.204315 0.433139,-0.292826 0.544474,-0.603955 0.556675,-1.082848 0.03965,-1.700529 0.250123,-3.365979 1.22011,-4.836212 0.315704,-0.469743 0.687838,-0.895256 1.133178,-1.375675 z"
   class="st1" /><path
   style="fill:#1b9bc5;fill-opacity:1;stroke-width:0.152514"
   inkscape:connector-curvature="0"
   id="path14"
   d="m 71.301662,33.537682 c 0,3.632878 0.02135,7.212377 -0.01678,10.790351 -0.0076,0.76867 -0.518546,1.361948 -1.105725,1.848467 -1.482434,1.232312 -3.260745,1.830166 -5.083285,2.293808 -3.8769,0.985239 -7.819382,1.192658 -11.799992,0.931859 -2.746774,-0.179966 -5.438642,-0.623781 -8.039003,-1.548015 -1.281116,-0.454491 -2.485975,-1.05082 -3.454437,-2.039109 -0.423989,-0.43314 -0.750368,-0.930335 -0.751893,-1.555641 -0.0092,-3.416309 -0.0046,-6.831093 -0.0046,-10.27638 0.260799,-0.04728 0.460592,0.07473 0.664961,0.144888 4.424425,1.505311 8.850375,3.007572 13.270225,4.52966 0.509396,0.175391 0.957787,0.16624 1.464133,-0.01068 4.732503,-1.647149 9.471107,-3.272946 14.208185,-4.904844 0.193693,-0.06558 0.393486,-0.123536 0.648184,-0.204368 z"
   class="st1" /><path
   style="fill:#1b9bc5;fill-opacity:1;stroke-width:0.152514"
   inkscape:connector-curvature="0"
   id="path16"
   d="m 55.624768,9.7348529 c 0.747318,0.035078 1.512937,-0.1128602 2.234328,0.2409718 0.99744,0.4895693 1.465657,1.3238203 1.340596,2.4691983 -0.125061,1.153004 -0.735117,1.898797 -1.845417,2.090964 -1.16368,0.201319 -2.353288,0.210469 -3.515443,0.01068 -1.363473,-0.234871 -2.036059,-1.236887 -1.909473,-2.665941 0.108285,-1.21706 1.040144,-2.0894389 2.307534,-2.1412936 0.462117,-0.019827 0.925759,-0.00458 1.387875,-0.00458 z"
   class="st1" /><path
   style="fill:#1b9bc5;fill-opacity:1;stroke-width:0.152514"
   inkscape:connector-curvature="0"
   id="path18"
   d="m 54.990311,73.705241 c -10.105564,0 -20.211129,-0.0015 -30.316693,0.0015 -0.765619,0 -1.497686,-0.05338 -2.179422,-0.491094 -1.043195,-0.669536 -1.029468,-1.668501 -0.916608,-2.694919 0.08236,-0.761044 0.854077,-1.459557 1.726456,-1.651724 0.456016,-0.100659 0.919658,-0.10981 1.384825,-0.10981 20.211129,0.0015 40.420733,0.0015 60.631861,0.0046 0.54905,0 1.102675,0.03813 1.624272,0.215045 1.230787,0.416362 1.676127,0.88458 1.708155,2.319734 0.02593,1.149955 -0.669536,1.935401 -1.839316,2.246529 -0.597854,0.160139 -1.209435,0.160139 -1.82254,0.160139 -10.00033,0 -20.00066,0 -30.00099,0 z"
   class="st1" />
<text
   xml:space="preserve"
   style="font-style:normal;font-weight:normal;font-size:49.9407px;line-height:1.25;font-family:sans-serif;letter-spacing:0px;word-spacing:0px;fill:#1b9bc5;fill-opacity:1;stroke:none;stroke-width:1.04043"
   x="114.47256"
   y="60.885532"
   id="text2525"><tspan
     sodipodi:role="line"
     id="tspan2523"
     x="114.47256"
     y="60.885532"
     style="font-size:49.9407px;stroke-width:1.04043;fill:#1b9bc5;fill-opacity:1">Мактаб Мобайл</tspan></text></svg>
