<?xml version="1.0" encoding="UTF-8" standalone="no"?>
<!-- Created with Inkscape (http://www.inkscape.org/) -->

<svg
   version="1.1"
   id="svg2"
   width="406.20132"
   height="155.03867"
   viewBox="0 0 406.20132 155.03867"
   sodipodi:docname="top-start.svg"
   inkscape:version="1.2.2 (b0a8486541, 2022-12-01)"
   inkscape:export-filename="splash.png"
   inkscape:export-xdpi="207.40787"
   inkscape:export-ydpi="207.40787"
   xmlns:inkscape="http://www.inkscape.org/namespaces/inkscape"
   xmlns:sodipodi="http://sodipodi.sourceforge.net/DTD/sodipodi-0.dtd"
   xmlns="http://www.w3.org/2000/svg"
   xmlns:svg="http://www.w3.org/2000/svg">
  <defs
     id="defs6">
    <clipPath
       clipPathUnits="userSpaceOnUse"
       id="clipPath58">
      <path
         d="M 0,116.279 H 304.651 V 0 H 0 Z"
         id="path56" />
    </clipPath>
    <clipPath
       clipPathUnits="userSpaceOnUse"
       id="clipPath166">
      <path
         d="m 44.159,100.79 c -1.83,-0.479 -3.718,-0.791 -5.279,-2.031 v 0 C 38.129,98.162 37.497,97.365 36.683,96.9 v 0 c -1.87,-1.067 -3.572,-2.39 -5.342,-3.606 v 0 c -2.042,-1.402 -3.892,-3.052 -5.476,-5.009 v 0 c -0.84,-1.038 -1.721,-2.047 -2.652,-2.997 v 0 c -0.617,-0.63 -1.266,-1.198 -1.518,-2.095 v 0 C 21.589,82.814 21.26,82.644 20.984,82.4 v 0 c -0.846,-0.749 -1.805,-1.458 -2.403,-2.392 v 0 c -2.458,-3.849 -5.05,-7.651 -6.198,-12.184 v 0 c -0.359,-1.42 -1.096,-2.765 -0.949,-4.296 v 0 c 0.017,-0.178 0.007,-0.38 -0.058,-0.545 v 0 C 10.641,61.085 10.939,59.067 10.61,57.118 v 0 c -0.222,-1.312 -0.106,-2.652 0.071,-3.986 v 0 c 0.178,-1.34 0.526,-2.666 0.34,-4.065 v 0 c -0.091,-0.673 -0.069,-1.365 0.123,-2.054 v 0 c 0.588,-2.102 0.85,-4.328 2.178,-6.138 v 0 C 13.4,40.769 13.454,40.632 13.483,40.5 v 0 c 0.222,-1 0.755,-1.857 1.191,-2.749 v 0 c 0.416,-0.849 0.73,-1.808 1.459,-2.434 v 0 c 0.603,-0.518 0.99,-1.15 1.312,-1.862 v 0 c 0.149,-0.329 0.289,-0.7 0.537,-0.934 v 0 c 1.15,-1.082 1.891,-2.504 2.948,-3.675 v 0 c 1.076,-1.193 2.299,-2.099 3.65,-2.877 v 0 c 0.232,-0.134 0.47,-0.24 0.659,-0.448 v 0 c 0.925,-1.019 1.44,-1.118 2.732,-0.47 v 0 c -0.415,-0.809 -0.859,-1.626 0.515,-1.623 v 0 c 0.029,0 0.059,-0.062 0.085,-0.099 v 0 c 0.733,-1.052 1.735,-1.613 2.988,-1.812 v 0 c 0.363,-0.057 0.636,-0.396 1.114,-0.247 v 0 c 0.472,0.147 0.279,0.729 0.812,1.006 v 0 c 0.262,-1.689 0.546,-3.362 2.783,-2.503 v 0 c 0.294,-0.932 0.807,-1.537 1.824,-1.445 v 0 c 0.181,0.016 0.365,0.074 0.477,-0.115 v 0 c 0.376,-0.641 0.915,-0.396 1.432,-0.251 v 0 c 0.256,0.071 0.636,0.296 0.746,0.052 v 0 c 0.353,-0.788 0.936,-0.46 1.489,-0.426 v 0 c 0.417,0.025 0.971,-0.094 0.797,-0.621 v 0 c -0.217,-0.653 0.146,-1.024 0.406,-1.455 v 0 c -0.393,-0.231 -0.765,-0.153 -1.153,-0.076 v 0 c -0.36,0.071 -0.732,0.143 -1.144,-0.029 v 0 c 1.356,-1.058 2.803,-1.504 4.293,-1.589 v 0 c 0.895,-0.052 1.764,-0.052 2.614,-0.362 v 0 c 0.924,-0.337 1.875,-0.335 2.863,-0.243 v 0 c 0.822,0.076 1.7,0.026 2.481,-0.206 v 0 c 0.726,-0.216 1.378,-0.332 2.079,-0.01 v 0 c 0.309,0.141 0.577,0.209 0.863,-0.058 v 0 c 0.334,-0.312 0.762,-0.196 1.159,-0.148 v 0 c 0.538,0.065 1.072,0.128 1.6,-0.024 v 0 C 58.82,12.451 58.453,12.505 58.099,12.463 v 0 c -0.953,-0.116 -1.894,-0.29 -2.913,-0.853 v 0 c 1.282,-0.627 2.611,-0.198 3.705,-0.798 v 0 c 0.097,-0.052 0.268,0.003 0.395,0.044 v 0 c 0.749,0.241 1.445,0.938 2.303,0.289 v 0 c 0.093,-0.071 0.391,0.178 0.605,0.234 v 0 c 1.027,0.27 1.813,1.04 2.772,1.468 v 0 c 0.437,0.195 0.488,0.223 0.542,-0.242 v 0 c 0.048,-0.41 0.386,-0.481 0.713,-0.407 v 0 c 0.358,0.08 0.308,0.35 0.244,0.649 v 0 c -0.176,0.825 0.374,0.622 0.801,0.577 v 0 c 0.253,0.094 0.393,0.445 0.728,0.353 v 0 c 0.32,-0.065 0.669,-0.417 0.941,0.078 v 0 c 0.129,0.237 0.288,0.37 0.532,0.283 v 0 c 0.612,-0.219 1.019,0.187 1.456,0.51 v 0 c 0.219,0.162 0.422,0.438 0.656,0.475 v 0 c 1.339,0.213 2.274,1.242 3.324,1.933 v 0 c 1.563,1.028 2.434,2.838 3.403,4.441 v 0 c 0.379,0.626 0.606,1.258 1.278,1.669 v 0 c 0.744,0.454 0.924,1.391 0.98,2.126 v 0 c 0.032,0.41 -0.091,0.648 0.358,0.724 v 0 c 0.772,0.134 1.038,0.579 1.012,1.36 v 0 c -0.017,0.511 0.23,0.985 0.621,1.347 v 0 c 0.034,0.034 0.065,0.071 0.092,0.11 v 0 c 0.201,0.412 0.26,0.97 0.713,1.149 v 0 c 0.665,0.262 0.666,0.799 0.655,1.332 v 0 c 0.177,0.066 0.32,-0.02 0.457,-0.106 v 0 c 0.178,-0.113 0.345,-0.226 0.562,0.002 v 0 c 0.601,0.633 -0.298,1.049 -0.211,1.65 v 0 c 0.175,0.12 0.362,0.034 0.549,-0.052 v 0 c 0.257,-0.119 0.512,-0.238 0.734,0.179 v 0 c 0.256,0.484 0.734,0.873 0.905,1.374 v 0 c 0.294,0.863 -0.66,0.707 -1.068,1.02 v 0 c 0.47,0.362 0.842,0.177 1.223,0.056 v 0 c 0.18,-0.058 0.368,-0.026 0.482,0.152 v 0 c 0.125,0.194 0.024,0.341 -0.126,0.466 v 0 c -0.573,0.48 -0.217,0.657 0.262,0.787 v 0 c 0.218,0.058 0.442,0.09 0.658,0.155 v 0 c 0.185,0.056 0.33,0.182 0.327,0.394 v 0 c -0.004,0.215 -0.157,0.309 -0.343,0.352 v 0 c -0.2,0.046 -0.475,-0.01 -0.445,0.327 v 0 c 0.569,0.802 1.134,1.583 1.68,2.38 v 0 c 0.101,0.147 0.129,0.371 -0.064,0.489 v 0 c -0.133,0.081 -0.248,-0.031 -0.345,-0.135 v 0 c -0.149,-0.159 -0.317,-0.218 -0.403,0.03 v 0 c -0.086,0.247 0,0.465 0.276,0.528 v 0 c 0.077,0.017 0.16,0.007 0.243,-0.003 v 0 c 0.051,-0.006 0.104,-0.012 0.154,-0.011 v 0 c 0.82,0.008 1.117,0.319 1.038,1.136 v 0 c -0.018,0.181 -0.397,0.358 -0.04,0.533 v 0 c 0.508,0.249 0.384,0.427 0.006,0.63 v 0 c -0.217,0.116 -0.572,0.111 -0.439,0.549 v 0 c 1.064,0.008 1.214,0.818 1.396,1.645 v 0 c 0.332,1.509 0.349,1.505 -0.344,2.463 v 0 c 0.72,0.169 1.066,0.579 0.876,1.354 v 0 c -0.039,0.166 0.191,0.404 0.287,0.612 v 0 c 0.364,0.794 0.799,1.575 0.45,2.492 v 0 c -0.087,0.229 0.092,0.461 0.081,0.663 v 0 c -0.055,0.991 -0.18,1.968 0.554,2.825 v 0 c 0.096,0.113 -0.031,0.439 -0.071,0.662 v 0 c -0.031,0.18 -0.179,0.457 -0.119,0.512 v 0 c 0.535,0.497 -0.047,1.235 0.221,1.549 v 0 c 0.563,0.657 0.079,1.214 0.143,1.8 v 0 C 93.854,63.47 93.23,66.066 92.95,68.7 v 0 c -0.186,1.757 -1.009,3.304 -1.482,4.961 v 0 c -0.775,2.717 -2.215,5.069 -3.452,7.536 v 0 c -0.162,0.323 -0.383,0.616 -0.597,0.906 v 0 c -1.308,1.781 -2.823,3.392 -4.021,5.263 v 0 c -0.144,0.226 -0.337,0.422 -0.522,0.616 v 0 c -1.363,1.432 -2.764,2.826 -4.086,4.298 v 0 c -1.624,1.808 -3.473,3.187 -5.814,3.922 v 0 c -2.682,0.842 -5.384,1.654 -7.914,2.929 v 0 c -0.712,0.36 -1.489,0.703 -2.268,0.788 v 0 c -2.538,0.276 -4.971,1.097 -7.538,1.221 v 0 c -1.92,0.094 -3.837,0.256 -5.752,0.256 v 0 c -1.782,0 -3.563,-0.14 -5.345,-0.606 M 61.513,13.122 C 60.54,12.602 59.827,12.607 59.1,12.768 v 0 c 0.676,0.393 1.393,0.339 2.413,0.354 m -2.416,-0.353 c 10e-4,0 10e-4,0 0.003,-10e-4 v 0 c -0.001,0 -0.002,-0.001 -0.003,-0.002 v 0 c -0.001,10e-4 -0.002,10e-4 -0.003,10e-4 v 0 c 10e-4,0.001 0.002,0.001 0.003,0.002"
         id="path164" />
    </clipPath>
    <clipPath
       clipPathUnits="userSpaceOnUse"
       id="clipPath262">
      <path
         d="m 44.159,100.79 c -1.83,-0.479 -3.718,-0.791 -5.279,-2.031 v 0 C 38.129,98.162 37.497,97.365 36.683,96.9 v 0 c -1.87,-1.067 -3.572,-2.39 -5.342,-3.606 v 0 c -2.042,-1.402 -3.892,-3.052 -5.476,-5.009 v 0 c -0.84,-1.038 -1.721,-2.047 -2.652,-2.997 v 0 c -0.617,-0.63 -1.266,-1.198 -1.518,-2.095 v 0 C 21.589,82.814 21.26,82.644 20.984,82.4 v 0 c -0.846,-0.749 -1.805,-1.458 -2.403,-2.392 v 0 c -2.458,-3.849 -5.05,-7.651 -6.198,-12.184 v 0 c -0.359,-1.42 -1.096,-2.765 -0.949,-4.296 v 0 c 0.017,-0.178 0.007,-0.38 -0.058,-0.545 v 0 C 10.641,61.085 10.939,59.067 10.61,57.118 v 0 c -0.222,-1.312 -0.106,-2.652 0.071,-3.986 v 0 c 0.178,-1.34 0.526,-2.666 0.34,-4.065 v 0 c -0.091,-0.673 -0.069,-1.365 0.123,-2.054 v 0 c 0.588,-2.102 0.85,-4.328 2.178,-6.138 v 0 C 13.4,40.769 13.454,40.632 13.483,40.5 v 0 c 0.222,-1 0.755,-1.857 1.191,-2.749 v 0 c 0.416,-0.849 0.73,-1.808 1.459,-2.434 v 0 c 0.603,-0.518 0.99,-1.15 1.312,-1.862 v 0 c 0.149,-0.329 0.289,-0.7 0.537,-0.934 v 0 c 1.15,-1.082 1.891,-2.504 2.948,-3.675 v 0 c 1.076,-1.193 2.299,-2.099 3.65,-2.877 v 0 c 0.232,-0.134 0.47,-0.24 0.659,-0.448 v 0 c 0.925,-1.019 1.44,-1.118 2.732,-0.47 v 0 c -0.415,-0.809 -0.859,-1.626 0.515,-1.623 v 0 c 0.029,0 0.059,-0.062 0.085,-0.099 v 0 c 0.733,-1.052 1.735,-1.613 2.988,-1.812 v 0 c 0.363,-0.057 0.636,-0.396 1.114,-0.247 v 0 c 0.472,0.147 0.279,0.729 0.812,1.006 v 0 c 0.262,-1.689 0.546,-3.362 2.783,-2.503 v 0 c 0.294,-0.932 0.807,-1.537 1.824,-1.445 v 0 c 0.181,0.016 0.365,0.074 0.477,-0.115 v 0 c 0.376,-0.641 0.915,-0.396 1.432,-0.251 v 0 c 0.256,0.071 0.636,0.296 0.746,0.052 v 0 c 0.353,-0.788 0.936,-0.46 1.489,-0.426 v 0 c 0.417,0.025 0.971,-0.094 0.797,-0.621 v 0 c -0.217,-0.653 0.146,-1.024 0.406,-1.455 v 0 c -0.393,-0.231 -0.765,-0.153 -1.153,-0.076 v 0 c -0.36,0.071 -0.732,0.143 -1.144,-0.029 v 0 c 1.356,-1.058 2.803,-1.504 4.293,-1.589 v 0 c 0.895,-0.052 1.764,-0.052 2.614,-0.362 v 0 c 0.924,-0.337 1.875,-0.335 2.863,-0.243 v 0 c 0.822,0.076 1.7,0.026 2.481,-0.206 v 0 c 0.726,-0.216 1.378,-0.332 2.079,-0.01 v 0 c 0.309,0.141 0.577,0.209 0.863,-0.058 v 0 c 0.334,-0.312 0.762,-0.196 1.159,-0.148 v 0 c 0.538,0.065 1.072,0.128 1.6,-0.024 v 0 C 58.82,12.451 58.453,12.505 58.099,12.463 v 0 c -0.953,-0.116 -1.894,-0.29 -2.913,-0.853 v 0 c 1.282,-0.627 2.611,-0.198 3.705,-0.798 v 0 c 0.097,-0.052 0.268,0.003 0.395,0.044 v 0 c 0.749,0.241 1.445,0.938 2.303,0.289 v 0 c 0.093,-0.071 0.391,0.178 0.605,0.234 v 0 c 1.027,0.27 1.813,1.04 2.772,1.468 v 0 c 0.437,0.195 0.488,0.223 0.542,-0.242 v 0 c 0.048,-0.41 0.386,-0.481 0.713,-0.407 v 0 c 0.358,0.08 0.308,0.35 0.244,0.649 v 0 c -0.176,0.825 0.374,0.622 0.801,0.577 v 0 c 0.253,0.094 0.393,0.445 0.728,0.353 v 0 c 0.32,-0.065 0.669,-0.417 0.941,0.078 v 0 c 0.129,0.237 0.288,0.37 0.532,0.283 v 0 c 0.612,-0.219 1.019,0.187 1.456,0.51 v 0 c 0.219,0.162 0.422,0.438 0.656,0.475 v 0 c 1.339,0.213 2.274,1.242 3.324,1.933 v 0 c 1.563,1.028 2.434,2.838 3.403,4.441 v 0 c 0.379,0.626 0.606,1.258 1.278,1.669 v 0 c 0.744,0.454 0.924,1.391 0.98,2.126 v 0 c 0.032,0.41 -0.091,0.648 0.358,0.724 v 0 c 0.772,0.134 1.038,0.579 1.012,1.36 v 0 c -0.017,0.511 0.23,0.985 0.621,1.347 v 0 c 0.034,0.034 0.065,0.071 0.092,0.11 v 0 c 0.201,0.412 0.26,0.97 0.713,1.149 v 0 c 0.665,0.262 0.666,0.799 0.655,1.332 v 0 c 0.177,0.066 0.32,-0.02 0.457,-0.106 v 0 c 0.178,-0.113 0.345,-0.226 0.562,0.002 v 0 c 0.601,0.633 -0.298,1.049 -0.211,1.65 v 0 c 0.175,0.12 0.362,0.034 0.549,-0.052 v 0 c 0.257,-0.119 0.512,-0.238 0.734,0.179 v 0 c 0.256,0.484 0.734,0.873 0.905,1.374 v 0 c 0.294,0.863 -0.66,0.707 -1.068,1.02 v 0 c 0.47,0.362 0.842,0.177 1.223,0.056 v 0 c 0.18,-0.058 0.368,-0.026 0.482,0.152 v 0 c 0.125,0.194 0.024,0.341 -0.126,0.466 v 0 c -0.573,0.48 -0.217,0.657 0.262,0.787 v 0 c 0.218,0.058 0.442,0.09 0.658,0.155 v 0 c 0.185,0.056 0.33,0.182 0.327,0.394 v 0 c -0.004,0.215 -0.157,0.309 -0.343,0.352 v 0 c -0.2,0.046 -0.475,-0.01 -0.445,0.327 v 0 c 0.569,0.802 1.134,1.583 1.68,2.38 v 0 c 0.101,0.147 0.129,0.371 -0.064,0.489 v 0 c -0.133,0.081 -0.248,-0.031 -0.345,-0.135 v 0 c -0.149,-0.159 -0.317,-0.218 -0.403,0.03 v 0 c -0.086,0.247 0,0.465 0.276,0.528 v 0 c 0.077,0.017 0.16,0.007 0.243,-0.003 v 0 c 0.051,-0.006 0.104,-0.012 0.154,-0.011 v 0 c 0.82,0.008 1.117,0.319 1.038,1.136 v 0 c -0.018,0.181 -0.397,0.358 -0.04,0.533 v 0 c 0.508,0.249 0.384,0.427 0.006,0.63 v 0 c -0.217,0.116 -0.572,0.111 -0.439,0.549 v 0 c 1.064,0.008 1.214,0.818 1.396,1.645 v 0 c 0.332,1.509 0.349,1.505 -0.344,2.463 v 0 c 0.72,0.169 1.066,0.579 0.876,1.354 v 0 c -0.039,0.166 0.191,0.404 0.287,0.612 v 0 c 0.364,0.794 0.799,1.575 0.45,2.492 v 0 c -0.087,0.229 0.092,0.461 0.081,0.663 v 0 c -0.055,0.991 -0.18,1.968 0.554,2.825 v 0 c 0.096,0.113 -0.031,0.439 -0.071,0.662 v 0 c -0.031,0.18 -0.179,0.457 -0.119,0.512 v 0 c 0.535,0.497 -0.047,1.235 0.221,1.549 v 0 c 0.563,0.657 0.079,1.214 0.143,1.8 v 0 C 93.854,63.47 93.23,66.066 92.95,68.7 v 0 c -0.186,1.757 -1.009,3.304 -1.482,4.961 v 0 c -0.775,2.717 -2.215,5.069 -3.452,7.536 v 0 c -0.162,0.323 -0.383,0.616 -0.597,0.906 v 0 c -1.308,1.781 -2.823,3.392 -4.021,5.263 v 0 c -0.144,0.226 -0.337,0.422 -0.522,0.616 v 0 c -1.363,1.432 -2.764,2.826 -4.086,4.298 v 0 c -1.624,1.808 -3.473,3.187 -5.814,3.922 v 0 c -2.682,0.842 -5.384,1.654 -7.914,2.929 v 0 c -0.712,0.36 -1.489,0.703 -2.268,0.788 v 0 c -2.538,0.276 -4.971,1.097 -7.538,1.221 v 0 c -1.919,0.094 -3.836,0.256 -5.751,0.256 v 0 c -1.783,0 -3.564,-0.141 -5.346,-0.606 M 59.1,12.768 c 0.676,0.393 1.393,0.339 2.413,0.354 v 0 c -0.621,-0.332 -1.136,-0.45 -1.616,-0.45 v 0 c -0.272,0 -0.534,0.038 -0.797,0.096 m -0.006,-0.001 c 10e-4,0.001 0.002,0.001 0.003,0.002 v 0 c 10e-4,0 10e-4,0 0.003,-10e-4 v 0 c -0.001,0 -0.002,-0.001 -0.003,-0.002 v 0 c -0.001,10e-4 -0.002,10e-4 -0.003,10e-4"
         id="path260" />
    </clipPath>
    <clipPath
       clipPathUnits="userSpaceOnUse"
       id="clipPath274">
      <path
         d="m 44.159,100.79 c -1.83,-0.479 -3.718,-0.791 -5.279,-2.031 v 0 C 38.129,98.162 37.497,97.365 36.683,96.9 v 0 c -1.87,-1.067 -3.572,-2.39 -5.342,-3.606 v 0 c -2.042,-1.402 -3.892,-3.052 -5.476,-5.009 v 0 c -0.84,-1.038 -1.721,-2.047 -2.652,-2.997 v 0 c -0.617,-0.63 -1.266,-1.198 -1.518,-2.095 v 0 C 21.589,82.814 21.26,82.644 20.984,82.4 v 0 c -0.846,-0.749 -1.805,-1.458 -2.403,-2.392 v 0 c -2.458,-3.849 -5.05,-7.651 -6.198,-12.184 v 0 c -0.359,-1.42 -1.096,-2.765 -0.949,-4.296 v 0 c 0.017,-0.178 0.007,-0.38 -0.058,-0.545 v 0 C 10.641,61.085 10.939,59.067 10.61,57.118 v 0 c -0.222,-1.312 -0.106,-2.652 0.071,-3.986 v 0 c 0.178,-1.34 0.526,-2.666 0.34,-4.065 v 0 c -0.091,-0.673 -0.069,-1.365 0.123,-2.054 v 0 c 0.588,-2.102 0.85,-4.328 2.178,-6.138 v 0 C 13.4,40.769 13.454,40.632 13.483,40.5 v 0 c 0.222,-1 0.755,-1.857 1.191,-2.749 v 0 c 0.416,-0.849 0.73,-1.808 1.459,-2.434 v 0 c 0.603,-0.518 0.99,-1.15 1.312,-1.862 v 0 c 0.149,-0.329 0.289,-0.7 0.537,-0.934 v 0 c 1.15,-1.082 1.891,-2.504 2.948,-3.675 v 0 c 1.076,-1.193 2.299,-2.099 3.65,-2.877 v 0 c 0.232,-0.134 0.47,-0.24 0.659,-0.448 v 0 c 0.925,-1.019 1.44,-1.118 2.732,-0.47 v 0 c -0.415,-0.809 -0.859,-1.626 0.515,-1.623 v 0 c 0.029,0 0.059,-0.062 0.085,-0.099 v 0 c 0.733,-1.052 1.735,-1.613 2.988,-1.812 v 0 c 0.363,-0.057 0.636,-0.396 1.114,-0.247 v 0 c 0.472,0.147 0.279,0.729 0.812,1.006 v 0 c 0.262,-1.689 0.546,-3.362 2.783,-2.503 v 0 c 0.294,-0.932 0.807,-1.537 1.824,-1.445 v 0 c 0.181,0.016 0.365,0.074 0.477,-0.115 v 0 c 0.376,-0.641 0.915,-0.396 1.432,-0.251 v 0 c 0.256,0.071 0.636,0.296 0.746,0.052 v 0 c 0.353,-0.788 0.936,-0.46 1.489,-0.426 v 0 c 0.417,0.025 0.971,-0.094 0.797,-0.621 v 0 c -0.217,-0.653 0.146,-1.024 0.406,-1.455 v 0 c -0.393,-0.231 -0.765,-0.153 -1.153,-0.076 v 0 c -0.36,0.071 -0.732,0.143 -1.144,-0.029 v 0 c 1.356,-1.058 2.803,-1.504 4.293,-1.589 v 0 c 0.895,-0.052 1.764,-0.052 2.614,-0.362 v 0 c 0.924,-0.337 1.875,-0.335 2.863,-0.243 v 0 c 0.822,0.076 1.7,0.026 2.481,-0.206 v 0 c 0.726,-0.216 1.378,-0.332 2.079,-0.01 v 0 c 0.309,0.141 0.577,0.209 0.863,-0.058 v 0 c 0.334,-0.312 0.762,-0.196 1.159,-0.148 v 0 c 0.538,0.065 1.072,0.128 1.6,-0.024 v 0 C 58.82,12.451 58.453,12.505 58.099,12.463 v 0 c -0.953,-0.116 -1.894,-0.29 -2.913,-0.853 v 0 c 1.282,-0.627 2.611,-0.198 3.705,-0.798 v 0 c 0.097,-0.052 0.268,0.003 0.395,0.044 v 0 c 0.749,0.241 1.445,0.938 2.303,0.289 v 0 c 0.093,-0.071 0.391,0.178 0.605,0.234 v 0 c 1.027,0.27 1.813,1.04 2.772,1.468 v 0 c 0.437,0.195 0.488,0.223 0.542,-0.242 v 0 c 0.048,-0.41 0.386,-0.481 0.713,-0.407 v 0 c 0.358,0.08 0.308,0.35 0.244,0.649 v 0 c -0.176,0.825 0.374,0.622 0.801,0.577 v 0 c 0.253,0.094 0.393,0.445 0.728,0.353 v 0 c 0.32,-0.065 0.669,-0.417 0.941,0.078 v 0 c 0.129,0.237 0.288,0.37 0.532,0.283 v 0 c 0.612,-0.219 1.019,0.187 1.456,0.51 v 0 c 0.219,0.162 0.422,0.438 0.656,0.475 v 0 c 1.339,0.213 2.274,1.242 3.324,1.933 v 0 c 1.563,1.028 2.434,2.838 3.403,4.441 v 0 c 0.379,0.626 0.606,1.258 1.278,1.669 v 0 c 0.744,0.454 0.924,1.391 0.98,2.126 v 0 c 0.032,0.41 -0.091,0.648 0.358,0.724 v 0 c 0.772,0.134 1.038,0.579 1.012,1.36 v 0 c -0.017,0.511 0.23,0.985 0.621,1.347 v 0 c 0.034,0.034 0.065,0.071 0.092,0.11 v 0 c 0.201,0.412 0.26,0.97 0.713,1.149 v 0 c 0.665,0.262 0.666,0.799 0.655,1.332 v 0 c 0.177,0.066 0.32,-0.02 0.457,-0.106 v 0 c 0.178,-0.113 0.345,-0.226 0.562,0.002 v 0 c 0.601,0.633 -0.298,1.049 -0.211,1.65 v 0 c 0.175,0.12 0.362,0.034 0.549,-0.052 v 0 c 0.257,-0.119 0.512,-0.238 0.734,0.179 v 0 c 0.256,0.484 0.734,0.873 0.905,1.374 v 0 c 0.294,0.863 -0.66,0.707 -1.068,1.02 v 0 c 0.47,0.362 0.842,0.177 1.223,0.056 v 0 c 0.18,-0.058 0.368,-0.026 0.482,0.152 v 0 c 0.125,0.194 0.024,0.341 -0.126,0.466 v 0 c -0.573,0.48 -0.217,0.657 0.262,0.787 v 0 c 0.218,0.058 0.442,0.09 0.658,0.155 v 0 c 0.185,0.056 0.33,0.182 0.327,0.394 v 0 c -0.004,0.215 -0.157,0.309 -0.343,0.352 v 0 c -0.2,0.046 -0.475,-0.01 -0.445,0.327 v 0 c 0.569,0.802 1.134,1.583 1.68,2.38 v 0 c 0.101,0.147 0.129,0.371 -0.064,0.489 v 0 c -0.133,0.081 -0.248,-0.031 -0.345,-0.135 v 0 c -0.149,-0.159 -0.317,-0.218 -0.403,0.03 v 0 c -0.086,0.247 0,0.465 0.276,0.528 v 0 c 0.077,0.017 0.16,0.007 0.243,-0.003 v 0 c 0.051,-0.006 0.104,-0.012 0.154,-0.011 v 0 c 0.82,0.008 1.117,0.319 1.038,1.136 v 0 c -0.018,0.181 -0.397,0.358 -0.04,0.533 v 0 c 0.508,0.249 0.384,0.427 0.006,0.63 v 0 c -0.217,0.116 -0.572,0.111 -0.439,0.549 v 0 c 1.064,0.008 1.214,0.818 1.396,1.645 v 0 c 0.332,1.509 0.349,1.505 -0.344,2.463 v 0 c 0.72,0.169 1.066,0.579 0.876,1.354 v 0 c -0.039,0.166 0.191,0.404 0.287,0.612 v 0 c 0.364,0.794 0.799,1.575 0.45,2.492 v 0 c -0.087,0.229 0.092,0.461 0.081,0.663 v 0 c -0.055,0.991 -0.18,1.968 0.554,2.825 v 0 c 0.096,0.113 -0.031,0.439 -0.071,0.662 v 0 c -0.031,0.18 -0.179,0.457 -0.119,0.512 v 0 c 0.535,0.497 -0.047,1.235 0.221,1.549 v 0 c 0.563,0.657 0.079,1.214 0.143,1.8 v 0 C 93.854,63.47 93.23,66.066 92.95,68.7 v 0 c -0.186,1.757 -1.009,3.304 -1.482,4.961 v 0 c -0.775,2.717 -2.215,5.069 -3.452,7.536 v 0 c -0.162,0.323 -0.383,0.616 -0.597,0.906 v 0 c -1.308,1.781 -2.823,3.392 -4.021,5.263 v 0 c -0.144,0.226 -0.337,0.422 -0.522,0.616 v 0 c -1.363,1.432 -2.764,2.826 -4.086,4.298 v 0 c -1.624,1.808 -3.473,3.187 -5.814,3.922 v 0 c -2.682,0.842 -5.384,1.654 -7.914,2.929 v 0 c -0.712,0.36 -1.489,0.703 -2.268,0.788 v 0 c -2.538,0.276 -4.971,1.097 -7.538,1.221 v 0 c -1.92,0.094 -3.837,0.256 -5.752,0.256 v 0 c -1.782,0 -3.563,-0.14 -5.345,-0.606 M 61.513,13.122 C 60.54,12.602 59.827,12.607 59.1,12.768 v 0 c 0.676,0.393 1.393,0.339 2.413,0.354 m -2.416,-0.353 c 10e-4,0 10e-4,0 0.003,-10e-4 v 0 c -0.001,0 -0.002,-0.001 -0.003,-0.002 v 0 c -0.001,10e-4 -0.002,10e-4 -0.003,10e-4 v 0 c 10e-4,0.001 0.002,0.001 0.003,0.002"
         id="path272" />
    </clipPath>
  </defs>
  <sodipodi:namedview
     id="namedview4"
     pagecolor="#ffffff"
     bordercolor="#666666"
     borderopacity="1.0"
     inkscape:showpageshadow="2"
     inkscape:pageopacity="0.0"
     inkscape:pagecheckerboard="0"
     inkscape:deskcolor="#d1d1d1"
     showgrid="false"
     inkscape:zoom="4"
     inkscape:cx="313.75"
     inkscape:cy="87.75"
     inkscape:window-width="3770"
     inkscape:window-height="2091"
     inkscape:window-x="70"
     inkscape:window-y="32"
     inkscape:window-maximized="1"
     inkscape:current-layer="g10">
    <inkscape:page
       x="0"
       y="0"
       id="page8"
       width="406.20132"
       height="155.03867" />
  </sodipodi:namedview>
  <g
     id="g10"
     inkscape:groupmode="layer"
     inkscape:label="Page 1"
     transform="matrix(1.3333333,0,0,-1.3333333,0,155.03867)">
    <g
       id="g12"
       transform="translate(114.9274,57.8027)">
      <path
         d="m 0,0 -0.11,0.356 -0.164,0.028 -0.274,-0.11 -0.165,0.055 -0.109,-0.082 -0.137,0.055 -0.22,0.192 -0.356,0.575 -0.439,0.877 -0.383,0.849 -0.302,0.521 -0.274,0.576 -0.547,1.014 -0.521,0.931 -0.576,1.151 -0.438,0.795 -0.302,0.493 -0.658,1.042 -0.465,0.932 -0.412,0.74 -0.273,0.438 -0.302,0.466 -0.027,0.055 H -7.509 L -7.537,11.784 V 10.003 L -7.564,9.537 -7.537,8.934 -7.591,8.249 V 6.796 L -7.619,6.276 V 5.207 L -7.646,4.631 -7.756,4.495 -7.701,4.33 -7.674,4.221 -7.701,4.111 -7.756,3.946 -7.701,3.727 -7.729,3.59 -7.783,3.371 -8.002,3.289 -8.03,3.152 l 0.082,-0.11 0.055,-0.082 0.082,0.027 0.055,0.028 h 0.027 V 2.987 L -7.756,2.85 -7.92,2.795 -8.112,2.741 -8.194,2.549 -8.112,2.412 -8.084,2.384 -8.03,2.302 -8.002,2.248 -8.057,2.028 V 1.864 L -7.975,1.918 -7.893,1.864 -7.948,1.727 -8.03,1.59 -7.975,1.315 -7.948,1.042 v -0.11 l 0.11,0.027 0.082,-0.219 V 0.521 L -7.893,0.466 -8.057,0.384 -8.304,0.356 -8.605,0.274 h -0.22 L -8.989,0.219 -9.208,0.192 -9.373,0.137 l -0.109,0.028 -0.22,-0.11 -0.219,-0.164 -0.192,0.137 -0.082,0.027 -0.11,-0.219 h -0.054 l -0.11,0.055 -0.082,-0.055 -0.22,0.027 h -0.246 l -0.165,0.028 -0.136,-0.055 -0.138,0.055 L -11.62,0 v 0.384 l 0.137,0.301 0.192,0.083 0.109,0.082 0.028,0.082 -0.082,0.11 -0.247,-0.028 -0.137,0.301 0.028,0.412 V 2.22 l -0.055,0.329 v 0.466 l 0.055,0.63 -0.055,0.658 0.055,0.603 -0.028,0.712 v 0.439 l -0.027,1.123 0.055,1.179 -0.055,1.096 v 0.521 l -0.028,0.493 v 0.521 l 0.028,1.151 v 1.013 l 0.027,0.932 0.028,0.63 0.027,0.411 0.055,0.741 0.054,0.438 0.028,0.274 0.028,0.685 0.054,0.466 0.082,0.959 v 0.494 l 0.028,0.082 0.137,0.055 0.274,0.055 0.274,-0.055 0.274,0.027 h 0.219 l 0.164,-0.027 0.138,0.055 0.328,-0.11 0.11,0.082 0.219,0.028 0.247,0.027 0.219,-0.055 h 0.219 l 0.11,0.082 0.164,-0.027 0.11,-0.027 0.11,0.054 h 0.164 l 0.192,-0.027 0.192,0.027 0.137,-0.027 0.164,0.082 0.302,-0.219 0.438,-0.603 0.603,-0.905 0.63,-1.013 0.275,-0.494 0.301,-0.466 0.576,-0.986 0.274,-0.466 0.657,-1.069 0.521,-0.959 0.356,-0.74 0.521,-0.85 0.274,-0.465 0.329,-0.521 0.055,0.027 v 0.302 l 0.027,0.219 -0.027,0.137 0.027,0.274 0.027,0.302 v 0.219 l -0.054,0.219 0.027,0.356 -0.082,0.219 0.137,0.549 -0.082,0.274 v 0.301 l 0.054,0.356 -0.027,0.356 0.027,0.275 0.028,0.219 -0.028,0.165 0.028,0.629 0.027,0.549 v 0.548 l 0.028,0.548 0.027,0.85 -0.027,0.794 0.082,0.603 0.027,0.247 0.275,0.082 h 1.15 l 0.165,0.028 0.164,-0.055 0.165,0.055 0.246,-0.028 0.219,0.082 h 0.246 l 0.384,0.055 0.22,-0.027 0.219,0.027 H 3.014 L 3.233,19.512 3.397,19.458 3.535,19.43 V 19.376 L 3.507,18.937 V 17.868 L 3.452,16.881 3.425,16.087 3.37,15.1 3.343,14.552 3.288,13.621 3.26,13.127 3.233,12.524 3.178,11.73 3.151,10.853 V 10.332 L 3.124,9.455 3.096,8.605 3.069,7.564 V 7.016 L 3.124,6.221 V 5.262 L 3.096,4.659 3.069,4.193 V 3.48 L 3.041,3.097 V 2.85 L 3.014,2.248 2.932,1.398 V 0.713 L 2.849,0.329 2.685,0.274 2.493,0.247 2.247,0.274 2.082,0.165 2,0.192 1.863,0.247 1.753,0.302 1.671,0.192 1.616,0.137 1.589,0.165 1.37,0.247 1.151,0.028 1.014,0.055 0.877,0.219 0.74,0.247 0.63,0.083 H 0.493 L 0.438,0.219 0.411,0.247 0.356,0.274 0.274,0.137 0.219,-0.164 0.164,-0.383 H 0.082 Z"
         style="fill:#34346e;fill-opacity:1;fill-rule:nonzero;stroke:none"
         id="path14" />
    </g>
    <g
       id="g16"
       transform="translate(130.5773,65.8872)">
      <path
         d="M 0,0 -0.055,0.521 -0.219,1.261 -0.301,1.617 -0.356,1.836 -0.521,2.384 -0.63,2.933 -0.767,3.426 -0.904,3.974 -0.986,4.221 -1.041,4.275 -1.096,4.193 -1.206,3.645 -1.343,3.015 -1.479,2.33 -1.671,1.261 -1.781,0.768 -1.891,0.083 -1.589,0.027 h 0.575 l 0.795,-0.054 z m -4.96,-7.509 h -0.11 l -0.164,0.11 -0.164,-0.055 -0.028,0.082 h -0.082 l -0.137,-0.082 -0.219,-0.027 -0.219,0.027 -0.138,0.055 -0.109,0.109 -0.083,-0.137 -0.136,-0.109 -0.165,0.082 -0.164,0.164 -0.22,-0.027 -0.136,0.082 -0.083,-0.055 -0.082,-0.082 -0.082,0.11 -0.192,0.082 -0.055,0.219 0.137,0.494 0.165,0.821 0.082,0.521 0.219,0.959 0.192,0.877 0.109,0.549 0.11,0.602 0.165,0.823 0.192,0.877 0.218,1.068 0.138,0.631 0.219,1.206 0.137,0.63 0.219,1.206 0.137,0.795 0.164,0.63 0.247,0.986 0.219,0.932 0.247,0.932 0.192,0.822 0.274,0.767 0.164,0.466 0.137,0.493 0.137,0.329 0.028,0.137 0.109,-0.027 0.11,0.082 0.274,-0.082 0.219,-0.055 0.137,0.11 0.247,-0.055 0.164,-0.082 0.137,0.055 0.22,-0.055 0.219,0.027 0.219,-0.055 0.274,0.083 0.11,-0.028 h 0.109 l 0.11,-0.055 0.247,0.083 0.192,-0.028 h 0.219 l 0.438,-0.027 0.247,0.055 0.137,-0.055 0.137,0.109 0.11,0.028 H 0.987 L 1.042,11.647 1.261,11.126 1.453,10.633 1.699,9.948 1.974,9.099 2.192,8.414 2.33,7.947 2.549,7.098 2.686,6.577 2.768,6.276 2.96,5.618 3.125,5.015 3.289,4.495 3.398,3.974 3.59,3.426 3.728,2.905 4.001,1.891 4.111,1.37 4.357,0.274 l 0.192,-0.822 0.028,-0.219 0.11,-0.439 0.301,-1.288 0.164,-0.712 0.055,-0.357 0.055,-0.411 0.11,-0.63 0.137,-0.548 0.027,-0.356 0.082,-0.329 V -6.111 L 5.454,-6.275 5.262,-6.358 5.015,-6.495 4.906,-6.577 H 4.741 L 4.549,-6.659 4.413,-6.796 4.303,-6.769 4.029,-6.933 3.946,-6.906 3.837,-6.988 3.728,-6.961 3.645,-7.152 3.48,-7.262 3.316,-7.18 3.179,-7.208 2.96,-7.481 2.878,-7.427 2.768,-7.344 2.384,-7.509 2.001,-7.591 1.836,-7.399 1.672,-6.714 1.453,-5.919 1.233,-5.015 1.014,-4.166 0.603,-4.11 h -0.52 l -0.466,0.027 -1.535,-0.027 -0.466,0.027 -0.411,-0.055 -0.055,-0.164 -0.082,-0.329 -0.082,-0.247 -0.137,-0.603 -0.11,-0.52 -0.137,-0.521 -0.192,-0.63 -0.192,-0.138 -0.192,-0.027 -0.191,-0.137 h -0.22 l -0.082,-0.055 h -0.137 l -0.164,0.137 -0.11,-0.191 -0.055,-0.028 z"
         style="fill:#34346e;fill-opacity:1;fill-rule:nonzero;stroke:none"
         id="path18" />
    </g>
    <g
       id="g20"
       transform="translate(143.6242,61.5571)">
      <path
         d="M 0,0 -0.027,0.028 H -0.055 V 0 l 0.028,-0.055 z M 0.137,-4.001 0,-3.809 v 1.178 l -0.027,0.713 -0.028,0.63 v 0.74 L 0,-0.329 -0.137,0.247 V 0.74 l 0.028,0.493 0.054,0.905 0.028,0.74 -0.055,0.794 -0.027,0.494 0.054,0.603 v 0.438 l -0.466,0.795 -0.383,0.575 -0.247,0.302 -0.877,1.315 -0.246,0.357 -0.137,0.137 -0.247,0.356 -0.521,0.712 -0.493,0.713 -0.384,0.603 -0.383,0.575 -0.22,0.356 -0.328,0.521 -0.329,0.548 -0.164,0.302 -0.22,0.439 -0.028,0.328 0.192,0.137 0.165,0.082 0.192,0.11 0.192,-0.028 0.082,0.138 0.274,0.137 0.219,0.082 0.11,0.109 0.164,0.028 0.055,0.027 0.055,0.055 0.137,0.027 0.164,0.055 0.082,0.11 0.137,0.055 0.11,0.054 0.082,0.056 0.137,0.109 0.082,-0.055 0.083,0.11 0.192,0.164 0.274,0.055 0.246,0.164 0.219,0.055 0.274,-0.411 0.384,-0.712 0.411,-0.603 0.493,-0.795 0.412,-0.658 0.329,-0.465 1.068,-1.48 0.137,-0.33 0.329,-0.493 0.274,-0.493 0.055,-0.055 0.055,0.028 0.164,0.384 0.274,0.629 0.137,0.357 0.192,0.302 0.274,0.52 0.11,0.357 0.109,0.246 0.055,0.192 0.165,0.082 0.137,0.219 0.027,0.247 0.247,0.548 0.328,0.685 0.165,0.247 0.192,0.438 0.219,0.466 0.027,0.137 0.11,0.164 0.055,0.22 0.109,0.137 0.11,0.082 0.192,-0.055 0.247,-0.027 0.246,-0.11 0.247,-0.055 0.274,-0.109 0.192,-0.137 0.11,0.054 0.164,-0.082 0.192,-0.027 v -0.137 l 0.137,-0.055 0.192,0.055 0.054,-0.082 H 7.756 L 7.893,15.347 H 8.002 L 8.084,15.265 H 8.222 L 8.551,15.183 8.934,15.1 9.153,15.018 V 14.963 L 9.099,14.799 8.742,14.141 8.359,13.319 8.057,12.744 7.729,12.059 7.016,10.633 6.605,9.784 6.167,8.825 5.81,7.975 5.29,6.906 5.015,6.331 4.604,5.372 4.413,4.906 4.357,4.823 4.193,4.522 4.138,4.056 4.111,3.508 V 2.659 L 4.029,1.645 4.001,0.932 3.946,0.494 3.974,-0.301 V -0.849 L 3.946,-1.781 V -2.795 L 3.919,-3.59 V -3.836 L 3.728,-3.918 3.536,-3.946 3.426,-4.001 3.152,-3.946 2.878,-4.028 2.576,-3.974 2.494,-4.083 2.357,-4.11 2.248,-4.056 2.165,-4.001 2.056,-4.056 1.974,-4.028 1.836,-3.974 1.727,-4.056 1.562,-4.083 H 1.288 L 1.179,-4.001 H 1.097 L 0.877,-4.083 H 0.603 L 0.329,-4.11 Z"
         style="fill:#34346e;fill-opacity:1;fill-rule:nonzero;stroke:none"
         id="path22" />
    </g>
    <g
       id="g24"
       transform="translate(160.0148,57.8305)">
      <path
         d="M 0,0 -0.219,0.027 -0.521,0 -0.959,0.027 -1.233,-0.055 -1.425,0.027 -1.699,0 -2.138,-0.055 -2.302,-0.028 -2.548,0 l -0.138,0.082 -0.109,0.027 -0.055,0.22 0.082,0.328 0.028,0.411 0.054,0.549 0.028,0.739 v 0.439 l 0.027,0.768 -0.027,0.328 0.054,0.165 v 0.548 l 0.028,0.603 v 0.876 l 0.055,0.933 v 1.671 l 0.027,0.712 v 0.933 l 0.028,0.52 v 0.822 l -0.055,0.959 -0.027,1.042 -0.056,0.959 v 0.521 l 0.056,1.013 0.054,0.494 0.028,0.466 v 1.397 l -0.028,0.548 v 0.192 l 0.192,0.055 0.11,0.11 0.137,-0.028 0.246,0.028 0.384,0.027 h 0.301 l 0.138,0.027 h 0.493 l 0.109,0.028 h 0.11 L 0,19.54 0.356,19.567 0.521,19.649 0.822,19.622 1.315,19.676 1.781,19.704 2,19.759 2.275,19.786 3.069,19.731 4.385,19.676 4.769,19.649 5.098,19.622 5.48,19.54 6.001,19.567 h 1.316 l 0.109,0.027 0.247,-0.027 H 8.111 L 8.605,19.54 8.934,19.512 9.098,19.54 9.208,19.375 9.317,19.183 9.372,18.909 9.537,18.717 9.701,18.005 9.619,17.676 9.564,17.484 V 17.347 L 9.619,17.073 9.729,16.799 9.811,16.662 9.646,16.552 9.427,16.442 9.18,16.086 8.852,15.73 8.66,15.565 8.522,15.483 8.331,15.511 8.194,15.593 8.057,15.565 7.892,15.593 7.454,15.621 7.042,15.593 6.906,15.511 H 6.741 L 6.111,15.483 H 3.864 L 2.877,15.456 H 1.836 L 1.809,15.264 V 13.456 L 1.781,12.688 1.809,12.359 1.918,12.305 2.905,12.332 H 4.577 L 5.398,12.277 H 5.7 l 0.246,-0.082 0.22,0.027 H 6.44 l 0.247,-0.027 0.438,-0.11 0.109,0.028 0.247,0.027 0.274,-0.274 0.055,-0.219 0.027,-0.274 0.192,-0.22 -0.11,-0.219 0.11,-0.192 L 8.002,10.551 8.029,10.276 8.139,10.085 8.029,9.92 7.975,9.701 7.947,9.482 7.919,9.317 8.029,9.235 8.111,9.153 8.029,9.043 H 7.919 L 7.7,8.879 7.508,8.55 7.591,8.386 V 8.303 L 7.262,8.221 7.07,8.002 H 6.604 L 4.467,8.057 3.563,8.029 2.357,7.975 1.672,7.893 1.453,7.755 1.425,7.591 1.37,7.016 V 6.495 L 1.343,5.974 1.315,5.262 1.288,4.741 1.315,4.33 1.864,4.302 H 2.467 L 2.741,4.248 H 3.535 L 3.864,4.193 4.549,4.11 5.207,4.138 H 7.125 L 7.481,4.193 7.919,4.165 8.358,4.193 8.687,4.138 8.796,3.974 8.879,3.754 8.906,3.535 9.071,3.398 9.043,3.261 8.934,3.124 9.043,3.014 9.098,2.822 8.988,2.768 8.906,2.74 V 2.658 L 9.043,2.548 9.098,2.356 8.988,2.083 8.934,1.726 8.824,1.534 9.016,1.397 9.125,1.315 9.071,1.26 8.852,1.151 8.605,0.986 8.522,0.767 8.55,0.575 8.522,0.493 7.975,0.219 7.454,0.247 6.878,0.219 5.672,0.191 5.152,0.164 4.823,0.137 4.604,0.082 4.248,0.055 H 2.741 L 1.836,0.027 H 0.685 L 0.192,0 0.083,-0.11 H 0.055 Z"
         style="fill:#34346e;fill-opacity:1;fill-rule:nonzero;stroke:none"
         id="path26" />
    </g>
    <g
       id="g28"
       transform="translate(177.5832,57.6386)">
      <path
         d="M 0,0 -0.466,0.137 -0.85,0.329 h -0.246 l -0.11,0.027 -0.356,0.165 -0.575,0.273 -0.357,0.192 -0.219,0.165 -0.356,0.219 -0.247,0.192 -0.247,0.137 -0.191,0.192 -0.274,0.219 -0.22,0.246 0.028,0.11 -0.055,0.137 V 2.74 l 0.082,0.11 0.165,0.137 0.109,0.137 v 0.137 l 0.055,0.082 0.192,0.192 0.082,0.028 0.027,0.164 0.11,0.109 0.028,0.11 0.054,0.082 0.22,0.192 0.109,0.274 0.137,0.055 0.082,0.246 0.11,0.22 0.137,0.082 0.028,0.165 0.054,0.054 0.082,0.165 0.22,0.027 0.137,-0.11 0.082,-0.082 0.027,0.028 L -2,5.398 -2.028,5.508 -1.863,5.59 -1.315,5.234 -0.63,4.768 -0.109,4.467 0.384,4.385 0.959,4.357 1.672,4.631 2.11,4.905 2.494,5.536 2.795,6.44 2.768,6.988 2.658,7.208 2.521,7.509 2.412,7.837 2.302,7.975 2.165,8.139 1.973,8.249 1.836,8.386 1.645,8.632 1.453,8.852 1.233,9.043 1.096,9.208 0.904,9.345 l -0.849,0.712 -0.548,0.576 -0.384,0.438 -0.767,0.905 -0.548,0.959 -0.165,0.439 -0.164,0.657 -0.055,0.767 0.028,1.015 0.109,0.438 0.356,0.685 0.22,0.356 0.192,0.274 0.136,0.192 0.384,0.411 0.357,0.356 0.356,0.302 0.438,0.329 0.548,0.356 0.713,0.247 0.384,0.164 0.603,0.192 1.15,0.137 1.289,-0.055 0.767,-0.082 0.274,-0.055 0.164,-0.082 0.027,-0.11 -0.082,-0.027 -0.054,-0.055 0.082,-0.11 0.137,-0.054 -0.028,-0.22 -0.082,-0.137 0.11,-0.383 h -0.11 l 0.055,-0.083 0.027,-0.136 v -0.22 L 6.057,18.279 V 18.197 L 5.947,18.169 5.919,18.06 6.084,17.895 6.002,17.813 6.084,17.731 6.057,17.594 V 17.457 L 5.919,17.402 V 17.347 L 6.002,17.265 6.166,17.183 6.249,17.101 V 17.045 L 6.166,17.018 6.029,16.963 6.057,16.744 V 16.525 L 5.974,16.416 V 16.114 L 5.892,15.757 5.81,15.648 5.618,15.785 4.96,15.977 4.467,16.059 H 3.398 L 2.741,15.84 2.549,15.675 2.33,15.511 2.083,15.237 1.973,14.634 2.302,14.086 2.877,13.538 3.618,12.825 4.083,12.414 4.522,11.948 5.289,11.181 6.057,10.249 6.742,9.317 6.961,8.852 7.317,7.837 7.509,6.851 7.564,6.193 7.509,5.508 7.18,4.467 6.906,3.891 6.331,2.905 5.837,2.356 5.536,2.11 5.344,1.863 4.549,1.178 4.029,0.849 3.453,0.548 2.768,0.301 2.22,0.137 1.781,0.055 0.795,-0.028 Z"
         style="fill:#34346e;fill-opacity:1;fill-rule:nonzero;stroke:none"
         id="path30" />
    </g>
    <g
       id="g32"
       transform="translate(193.3708,58.1865)">
      <path
         d="m 0,0 -0.219,0.083 -0.028,0.082 -0.027,0.438 0.027,0.548 V 1.48 l -0.027,0.274 v 0.192 l 0.055,0.246 -0.055,0.384 v 2.138 l -0.027,0.274 -0.028,0.685 v 0.576 l -0.055,1.15 v 1.617 l 0.055,2.138 v 1.534 l -0.027,0.494 -0.055,0.795 -0.027,0.657 -0.055,0.439 -0.329,0.027 h -0.685 l -0.685,-0.027 -1.343,-0.11 -0.768,-0.027 -0.411,-0.028 -0.219,0.11 0.055,0.137 v 0.302 l 0.082,0.301 -0.082,0.137 -0.027,0.164 0.136,0.219 -0.082,0.165 0.055,0.219 0.027,0.192 -0.027,0.165 v 0.328 l 0.082,0.302 -0.027,0.219 0.055,0.219 0.082,0.658 0.027,0.192 0.302,0.247 0.493,0.054 0.493,-0.082 h 0.932 l 0.302,-0.055 0.41,0.055 h 0.357 l 0.274,0.055 h 0.905 l 0.547,-0.027 0.85,-0.028 h 0.357 l 0.218,-0.028 0.549,0.028 h 0.575 l 0.932,0.11 0.822,0.082 H 5.454 L 6.029,19.32 6.358,19.348 H 7.947 L 8.249,19.32 H 8.605 L 8.934,19.293 8.989,18.964 8.907,18.635 8.961,18.389 8.907,18.115 8.961,17.923 8.879,17.786 8.824,17.594 8.742,17.512 8.797,17.375 8.824,17.155 8.879,17.046 8.907,16.881 8.77,16.772 8.688,16.635 8.879,16.388 8.688,16.169 8.605,15.95 8.632,15.785 8.742,15.676 8.55,15.511 8.386,15.292 8.167,15.265 7.811,15.237 7.536,15.1 7.262,15.045 6.687,15.073 4.631,15.045 4.33,14.936 4.001,14.744 V 14.223 L 4.056,13.346 4.083,12.442 V 10.058 L 4.056,9.537 V 8.441 L 4.028,7.29 4.056,6.139 V 5.426 L 4.001,4.796 3.974,4.275 3.946,3.727 3.919,3.207 V 2.466 L 3.864,1.699 3.892,0.85 3.864,0.466 3.7,0.356 3.343,0.274 3.097,0.027 H 2.987 L 2.905,0.247 2.768,0.165 2.686,0.11 2.576,0.165 2.466,-0.027 2.439,-0.109 2.412,0.083 H 2.302 L 2.247,0 2.11,-0.055 1.946,0 H 1.836 L 1.727,0.083 1.617,0.027 1.48,0.055 1.288,0.027 H 1.096 L 0.959,0.083 0.877,0.027 0.74,0 0.658,-0.109 Z"
         style="fill:#34346e;fill-opacity:1;fill-rule:nonzero;stroke:none"
         id="path34" />
    </g>
    <g
       id="g36"
       transform="translate(211.7341,65.8872)">
      <path
         d="M 0,0 -0.055,0.521 -0.219,1.261 -0.301,1.617 -0.356,1.836 -0.521,2.384 -0.63,2.933 -0.767,3.426 -0.904,3.974 -0.986,4.221 -1.041,4.275 -1.096,4.193 -1.206,3.645 -1.343,3.015 -1.479,2.33 -1.671,1.261 -1.781,0.768 -1.891,0.083 -1.589,0.027 h 0.575 l 0.795,-0.054 z m -4.96,-7.509 h -0.11 l -0.164,0.11 -0.164,-0.055 -0.028,0.082 h -0.082 l -0.137,-0.082 -0.219,-0.027 -0.219,0.027 -0.138,0.055 -0.109,0.109 -0.083,-0.137 -0.136,-0.109 -0.165,0.082 -0.164,0.164 -0.22,-0.027 -0.136,0.082 -0.083,-0.055 -0.082,-0.082 -0.082,0.11 -0.192,0.082 -0.055,0.219 0.137,0.494 0.165,0.821 0.082,0.521 0.219,0.959 0.192,0.877 0.109,0.549 0.11,0.602 0.165,0.823 0.192,0.877 0.218,1.068 0.138,0.631 0.219,1.206 0.137,0.63 0.219,1.206 0.137,0.795 0.164,0.63 0.247,0.986 0.219,0.932 0.247,0.932 0.192,0.822 0.274,0.767 0.164,0.466 0.137,0.493 0.137,0.329 0.028,0.137 0.109,-0.027 0.11,0.082 0.274,-0.082 0.219,-0.055 0.137,0.11 0.247,-0.055 0.164,-0.082 0.137,0.055 0.22,-0.055 0.219,0.027 0.219,-0.055 0.274,0.083 0.11,-0.028 h 0.109 l 0.11,-0.055 0.247,0.083 0.192,-0.028 h 0.219 l 0.438,-0.027 0.247,0.055 0.137,-0.055 0.137,0.109 0.11,0.028 H 0.987 L 1.042,11.647 1.261,11.126 1.453,10.633 1.699,9.948 1.974,9.099 2.192,8.414 2.329,7.947 2.548,7.098 2.686,6.577 2.768,6.276 2.959,5.618 3.124,5.015 3.289,4.495 3.398,3.974 3.59,3.426 3.727,2.905 4.001,1.891 4.11,1.37 4.357,0.274 l 0.192,-0.822 0.027,-0.219 0.11,-0.439 0.301,-1.288 0.165,-0.712 0.055,-0.357 0.054,-0.411 0.11,-0.63 0.137,-0.548 0.028,-0.356 0.082,-0.329 V -6.111 L 5.453,-6.275 5.261,-6.358 5.015,-6.495 4.905,-6.577 H 4.741 L 4.549,-6.659 4.412,-6.796 4.302,-6.769 4.028,-6.933 3.946,-6.906 3.836,-6.988 3.727,-6.961 3.645,-7.152 3.48,-7.262 3.316,-7.18 3.179,-7.208 2.959,-7.481 2.877,-7.427 2.768,-7.344 2.384,-7.509 2.001,-7.591 1.836,-7.399 1.672,-6.714 1.453,-5.919 1.233,-5.015 1.014,-4.166 0.603,-4.11 h -0.52 l -0.466,0.027 -1.535,-0.027 -0.466,0.027 -0.411,-0.055 -0.055,-0.164 -0.082,-0.329 -0.082,-0.247 -0.137,-0.603 -0.11,-0.52 -0.137,-0.521 -0.192,-0.63 -0.192,-0.138 -0.192,-0.027 -0.191,-0.137 h -0.22 l -0.082,-0.055 h -0.137 l -0.164,0.137 -0.11,-0.191 -0.055,-0.028 z"
         style="fill:#34346e;fill-opacity:1;fill-rule:nonzero;stroke:none"
         id="path38" />
    </g>
    <g
       id="g40"
       transform="translate(233.4406,57.8027)">
      <path
         d="m 0,0 -0.11,0.356 -0.164,0.028 -0.274,-0.11 -0.165,0.055 -0.109,-0.082 -0.137,0.055 -0.22,0.192 -0.356,0.575 -0.439,0.877 -0.383,0.849 -0.302,0.521 -0.274,0.576 -0.547,1.014 -0.521,0.931 -0.576,1.151 -0.438,0.795 -0.302,0.493 -0.658,1.042 -0.465,0.932 -0.412,0.74 -0.273,0.438 -0.302,0.466 -0.027,0.055 H -7.509 L -7.537,11.784 V 10.003 L -7.564,9.537 -7.537,8.934 -7.591,8.249 V 6.796 L -7.619,6.276 V 5.207 L -7.646,4.631 -7.756,4.495 -7.701,4.33 -7.674,4.221 -7.701,4.111 -7.756,3.946 -7.701,3.727 -7.729,3.59 -7.783,3.371 -8.002,3.289 -8.03,3.152 l 0.082,-0.11 0.055,-0.082 0.082,0.027 0.055,0.028 h 0.027 V 2.987 L -7.756,2.85 -7.92,2.795 -8.112,2.741 -8.194,2.549 -8.112,2.412 -8.084,2.384 -8.03,2.302 -8.002,2.248 -8.057,2.028 V 1.864 L -7.975,1.918 -7.893,1.864 -7.948,1.727 -8.03,1.59 -7.975,1.315 -7.948,1.042 v -0.11 l 0.11,0.027 0.082,-0.219 V 0.521 L -7.893,0.466 -8.057,0.384 -8.304,0.356 -8.605,0.274 h -0.22 L -8.989,0.219 -9.208,0.192 -9.373,0.137 l -0.109,0.028 -0.22,-0.11 -0.219,-0.164 -0.192,0.137 -0.082,0.027 -0.11,-0.219 h -0.054 l -0.11,0.055 -0.082,-0.055 -0.22,0.027 h -0.246 l -0.165,0.028 -0.136,-0.055 -0.138,0.055 L -11.62,0 v 0.384 l 0.137,0.301 0.192,0.083 0.109,0.082 0.028,0.082 -0.082,0.11 -0.247,-0.028 -0.137,0.301 0.028,0.412 V 2.22 l -0.055,0.329 v 0.466 l 0.055,0.63 -0.055,0.658 0.055,0.603 -0.028,0.712 v 0.439 l -0.027,1.123 0.055,1.179 -0.055,1.096 v 0.521 l -0.028,0.493 v 0.521 l 0.028,1.151 v 1.013 l 0.027,0.932 0.028,0.63 0.027,0.411 0.055,0.741 0.054,0.438 0.028,0.274 0.028,0.685 0.054,0.466 0.082,0.959 v 0.494 l 0.028,0.082 0.137,0.055 0.274,0.055 0.274,-0.055 0.274,0.027 h 0.219 l 0.164,-0.027 0.138,0.055 0.328,-0.11 0.11,0.082 0.219,0.028 0.247,0.027 0.219,-0.055 h 0.219 l 0.11,0.082 0.164,-0.027 0.11,-0.027 0.11,0.054 h 0.164 l 0.192,-0.027 0.192,0.027 0.137,-0.027 0.164,0.082 0.302,-0.219 0.438,-0.603 0.603,-0.905 0.63,-1.013 0.275,-0.494 0.301,-0.466 0.576,-0.986 0.274,-0.466 0.657,-1.069 0.521,-0.959 0.356,-0.74 0.521,-0.85 0.274,-0.465 0.329,-0.521 0.055,0.027 v 0.302 l 0.027,0.219 -0.027,0.137 0.027,0.274 0.027,0.302 v 0.219 l -0.054,0.219 0.027,0.356 -0.082,0.219 0.137,0.549 -0.082,0.274 v 0.301 l 0.054,0.356 -0.027,0.356 0.027,0.275 0.028,0.219 -0.028,0.165 0.028,0.629 0.027,0.549 v 0.548 l 0.028,0.548 0.027,0.85 -0.027,0.794 0.082,0.603 0.027,0.247 0.275,0.082 h 1.15 l 0.165,0.028 0.164,-0.055 0.165,0.055 0.246,-0.028 0.219,0.082 h 0.247 l 0.384,0.055 0.219,-0.027 0.219,0.027 H 3.014 L 3.233,19.512 3.398,19.458 3.535,19.43 V 19.376 L 3.508,18.937 V 17.868 L 3.453,16.881 3.425,16.087 3.371,15.1 3.343,14.552 3.288,13.621 3.261,13.127 3.233,12.524 3.179,11.73 3.151,10.853 V 10.332 L 3.124,9.455 3.097,8.605 3.069,7.564 V 7.016 L 3.124,6.221 V 5.262 L 3.097,4.659 3.069,4.193 V 3.48 L 3.042,3.097 V 2.85 L 3.014,2.248 2.932,1.398 V 0.713 L 2.85,0.329 2.686,0.274 2.494,0.247 2.247,0.274 2.083,0.165 2,0.192 1.863,0.247 1.754,0.302 1.671,0.192 1.617,0.137 1.589,0.165 1.37,0.247 1.151,0.028 1.014,0.055 0.877,0.219 0.74,0.247 0.63,0.083 H 0.493 L 0.438,0.219 0.411,0.247 0.356,0.274 0.274,0.137 0.219,-0.164 0.164,-0.383 H 0.082 Z"
         style="fill:#34346e;fill-opacity:1;fill-rule:nonzero;stroke:none"
         id="path42" />
    </g>
    <g
       id="g44"
       transform="translate(245.3092,57.8305)">
      <path
         d="M 0,0 -0.219,0.027 -0.521,0 -0.959,0.027 -1.233,-0.055 -1.425,0.027 -1.699,0 -2.137,-0.055 -2.302,-0.028 -2.548,0 l -0.138,0.082 -0.109,0.027 -0.055,0.22 0.082,0.328 0.028,0.411 0.054,0.549 0.028,0.739 v 0.439 l 0.027,0.768 -0.027,0.328 0.054,0.165 v 0.548 l 0.028,0.603 v 0.876 l 0.055,0.933 v 1.671 l 0.027,0.712 v 0.933 l 0.028,0.52 v 0.822 l -0.055,0.959 -0.027,1.042 -0.056,0.959 v 0.521 l 0.056,1.013 0.054,0.494 0.028,0.466 v 1.397 l -0.028,0.548 v 0.192 l 0.192,0.055 0.11,0.11 0.137,-0.028 0.246,0.028 0.384,0.027 h 0.301 l 0.138,0.027 h 0.493 l 0.11,0.028 h 0.109 L 0,19.54 l 0.356,0.027 0.165,0.082 0.301,-0.027 0.493,0.054 0.466,0.028 0.219,0.055 0.275,0.027 0.794,-0.055 1.316,-0.055 0.384,-0.027 0.328,-0.027 0.384,-0.082 0.521,0.027 h 1.315 l 0.11,0.027 0.246,-0.027 H 8.112 L 8.605,19.54 8.934,19.512 9.099,19.54 9.208,19.375 9.318,19.183 9.373,18.909 9.537,18.717 9.702,18.005 9.619,17.676 9.564,17.484 V 17.347 L 9.619,17.073 9.729,16.799 9.811,16.662 9.646,16.552 9.427,16.442 9.181,16.086 8.852,15.73 8.66,15.565 8.523,15.483 8.331,15.511 8.194,15.593 8.057,15.565 7.893,15.593 7.454,15.621 7.043,15.593 6.906,15.511 H 6.742 L 6.111,15.483 H 3.864 L 2.877,15.456 H 1.836 L 1.809,15.264 V 13.456 L 1.781,12.688 1.809,12.359 1.918,12.305 2.905,12.332 H 4.577 L 5.399,12.277 H 5.7 l 0.247,-0.082 0.219,0.027 H 6.44 l 0.247,-0.027 0.438,-0.11 0.11,0.028 L 7.481,12.14 7.756,11.866 7.811,11.647 7.838,11.373 8.03,11.153 7.92,10.934 8.03,10.742 8.002,10.551 8.03,10.276 8.139,10.085 8.03,9.92 7.975,9.701 7.948,9.482 7.92,9.317 8.03,9.235 8.112,9.153 8.03,9.043 H 7.92 L 7.701,8.879 7.509,8.55 7.591,8.386 V 8.303 L 7.262,8.221 7.071,8.002 H 6.604 L 4.467,8.057 3.563,8.029 2.357,7.975 1.672,7.893 1.453,7.755 1.425,7.591 1.371,7.016 V 6.495 L 1.343,5.974 1.315,5.262 1.288,4.741 1.315,4.33 1.864,4.302 H 2.466 L 2.741,4.248 H 3.535 L 3.864,4.193 4.549,4.11 5.207,4.138 H 7.125 L 7.481,4.193 7.92,4.165 8.358,4.193 8.688,4.138 8.797,3.974 8.879,3.754 8.907,3.535 9.071,3.398 9.043,3.261 8.934,3.124 9.043,3.014 9.099,2.822 8.989,2.768 8.907,2.74 V 2.658 L 9.043,2.548 9.099,2.356 8.989,2.083 8.934,1.726 8.825,1.534 9.016,1.397 9.126,1.315 9.071,1.26 8.852,1.151 8.605,0.986 8.523,0.767 8.55,0.575 8.523,0.493 7.975,0.219 7.454,0.247 6.879,0.219 5.673,0.191 5.152,0.164 4.823,0.137 4.604,0.082 4.248,0.055 H 2.741 L 1.836,0.027 H 0.685 L 0.192,0 0.083,-0.11 H 0.055 Z"
         style="fill:#34346e;fill-opacity:1;fill-rule:nonzero;stroke:none"
         id="path46" />
    </g>
    <g
       id="g48"
       transform="translate(106.3138,47.3502)">
      <path
         d="m 0,0 h -0.023 l -1.109,-3.304 h 2.229 z m 2.486,-7.004 -0.957,2.545 h -3.105 l -0.957,-2.545 h -1.331 l 3.28,8.638 h 1.132 l 3.281,-8.638 z"
         style="fill:#34346e;fill-opacity:1;fill-rule:nonzero;stroke:none"
         id="path50" />
    </g>
    <g
       id="g52">
      <g
         id="g54"
         clip-path="url(#clipPath58)">
        <g
           id="g60"
           transform="translate(115.4442,40.3463)">
          <path
             d="m 0,0 v 0.7 h -0.023 c -0.316,-0.549 -1.051,-0.864 -1.903,-0.864 -1.389,0 -2.697,0.747 -2.697,3.023 v 3.608 h 1.214 V 2.953 c 0,-1.354 0.502,-2.008 1.611,-2.008 1.121,0 1.693,0.783 1.693,2.032 v 3.49 H 1.109 L 1.109,0 Z"
             style="fill:#34346e;fill-opacity:1;fill-rule:nonzero;stroke:none"
             id="path62" />
        </g>
        <g
           id="g64"
           transform="translate(121.9364,40.3463)">
          <path
             d="M 0,0 -1.599,2.3 -3.164,0 h -1.412 l 2.242,3.314 -2.16,3.153 h 1.471 l 1.424,-2.125 1.412,2.125 H 1.284 L -0.829,3.314 1.424,0 Z"
             style="fill:#34346e;fill-opacity:1;fill-rule:nonzero;stroke:none"
             id="path66" />
        </g>
        <g
           id="g68"
           transform="translate(133.7758,42.482)">
          <path
             d="m 0,0 c -0.514,-1.459 -1.751,-2.3 -3.187,-2.3 -1.855,0 -3.315,1.494 -3.315,3.339 0,1.949 1.413,3.467 3.304,3.467 1.47,0 2.813,-0.922 3.198,-2.323 h -1.342 c -0.362,0.758 -0.946,1.214 -1.821,1.214 -1.273,0 -2.125,-0.969 -2.125,-2.288 0,-1.284 0.876,-2.299 2.101,-2.299 0.829,0 1.495,0.443 1.833,1.19 z"
             style="fill:#34346e;fill-opacity:1;fill-rule:nonzero;stroke:none"
             id="path70" />
        </g>
        <g
           id="g72"
           transform="translate(138.9144,47.7233)">
          <path
             d="M 0,0 -0.806,0.805 -1.646,0 h -1.401 l 1.634,1.576 h 1.168 L 1.389,0 Z m -0.84,-1.844 c -1.215,0 -2.265,-1.027 -2.265,-2.288 0,-1.225 1.016,-2.3 2.241,-2.3 1.272,0 2.311,1.004 2.311,2.312 0,1.261 -1.015,2.276 -2.287,2.276 m -0.035,-5.697 c -1.822,0 -3.444,1.553 -3.444,3.374 0,1.973 1.552,3.432 3.537,3.432 1.786,0 3.467,-1.401 3.443,-3.455 C 2.638,-5.918 1.19,-7.541 -0.875,-7.541"
             style="fill:#34346e;fill-opacity:1;fill-rule:nonzero;stroke:none"
             id="path74" />
        </g>
        <g
           id="g76"
           transform="translate(142.9559,40.3463)">
          <path
             d="m 0,0 v 5.357 h -0.875 v 1.11 H 0 V 8.638 H 1.214 V 6.467 H 2.276 V 5.357 H 1.214 L 1.214,0 Z"
             style="fill:#34346e;fill-opacity:1;fill-rule:nonzero;stroke:none"
             id="path78" />
        </g>
        <g
           id="g80"
           transform="translate(148.1864,47.4781)">
          <path
             d="M 0,0 -0.49,0.875 2.113,2.37 2.626,1.424 Z m 2.93,-3.49 c -0.094,1.097 -1.062,1.891 -2.101,1.891 -0.993,0 -1.985,-0.782 -2.078,-1.891 z m -4.179,-0.934 c 0.28,-1.074 1.132,-1.763 2.124,-1.763 0.759,0 1.471,0.397 1.845,1.086 H 3.934 C 3.432,-6.432 2.218,-7.296 0.829,-7.296 c -1.821,0 -3.292,1.611 -3.292,3.339 0,2.043 1.541,3.467 3.256,3.467 1.903,0 3.351,-1.471 3.351,-3.327 0,-0.199 0,-0.385 -0.035,-0.607 z"
             style="fill:#34346e;fill-opacity:1;fill-rule:nonzero;stroke:none"
             id="path82" />
        </g>
        <g
           id="g84"
           transform="translate(156.0912,45.0973)">
          <path
             d="m 0,0 c -0.058,0.467 -0.327,0.782 -0.829,0.782 -0.466,0 -0.758,-0.315 -0.758,-0.689 0,-0.549 0.56,-0.712 1.202,-0.91 0.91,-0.281 1.751,-0.829 1.751,-2.032 0,-1.249 -0.91,-2.066 -2.171,-2.066 -1.168,0 -2.288,0.794 -2.288,2.288 h 1.214 c 0.058,-0.782 0.455,-1.179 1.097,-1.179 0.56,0 0.934,0.362 0.934,0.887 0,0.444 -0.339,0.735 -1.097,0.981 -1.588,0.501 -1.856,1.191 -1.856,1.926 0,1.144 0.968,1.903 2.03,1.903 1.075,0 1.95,-0.747 1.985,-1.891 z"
             style="fill:#34346e;fill-opacity:1;fill-rule:nonzero;stroke:none"
             id="path86" />
        </g>
        <g
           id="g88"
           transform="translate(165.0238,45.8795)">
          <path
             d="m 0,0 c -1.237,0 -2.206,-1.039 -2.206,-2.312 0,-1.213 0.992,-2.276 2.206,-2.276 1.226,0 2.253,1.004 2.253,2.23 C 2.253,-1.039 1.366,0 0,0 m 2.253,-5.533 v 0.922 H 2.229 c -0.501,-0.701 -1.342,-1.086 -2.288,-1.086 -1.878,0 -3.361,1.425 -3.361,3.327 0,1.973 1.4,3.478 3.327,3.478 0.875,0 1.704,-0.315 2.229,-0.968 H 2.16 v 2.964 h 1.214 v -8.637 z"
             style="fill:#34346e;fill-opacity:1;fill-rule:nonzero;stroke:none"
             id="path90" />
        </g>
        <g
           id="g92"
           transform="translate(175.0302,43.9879)">
          <path
             d="M 0,0 C -0.093,1.098 -1.062,1.892 -2.101,1.892 -3.093,1.892 -4.085,1.109 -4.179,0 Z m -4.179,-0.934 c 0.28,-1.074 1.133,-1.762 2.125,-1.762 0.758,0 1.471,0.396 1.844,1.086 h 1.214 c -0.502,-1.331 -1.716,-2.196 -3.105,-2.196 -1.821,0 -3.292,1.612 -3.292,3.339 0,2.043 1.541,3.467 3.257,3.467 1.903,0 3.35,-1.471 3.35,-3.327 0,-0.198 0,-0.385 -0.035,-0.607 z"
             style="fill:#34346e;fill-opacity:1;fill-rule:nonzero;stroke:none"
             id="path94" />
        </g>
        <g
           id="g96"
           transform="translate(180.0052,45.0973)">
          <path
             d="m 0,0 c -0.058,0.467 -0.327,0.782 -0.829,0.782 -0.466,0 -0.758,-0.315 -0.758,-0.689 0,-0.549 0.56,-0.712 1.202,-0.91 0.91,-0.281 1.751,-0.829 1.751,-2.032 0,-1.249 -0.91,-2.066 -2.171,-2.066 -1.168,0 -2.288,0.794 -2.288,2.288 h 1.214 c 0.058,-0.782 0.455,-1.179 1.097,-1.179 0.56,0 0.934,0.362 0.934,0.887 0,0.444 -0.339,0.735 -1.097,0.981 -1.588,0.501 -1.856,1.191 -1.856,1.926 0,1.144 0.968,1.903 2.03,1.903 1.075,0 1.95,-0.747 1.985,-1.891 z"
             style="fill:#34346e;fill-opacity:1;fill-rule:nonzero;stroke:none"
             id="path98" />
        </g>
        <g
           id="g100"
           transform="translate(185.8915,40.3463)">
          <path
             d="m 0,0 v 5.357 h -0.572 v 1.11 H 0 V 6.759 C 0,7.996 0.875,8.638 2.078,8.638 H 2.347 V 7.529 C 1.553,7.529 1.214,7.249 1.214,6.771 V 6.467 H 2.347 V 5.357 H 1.214 V 0 Z"
             style="fill:#34346e;fill-opacity:1;fill-rule:nonzero;stroke:none"
             id="path102" />
        </g>
        <g
           id="g104"
           transform="translate(193.9237,43.9879)">
          <path
             d="M 0,0 C -0.093,1.098 -1.062,1.892 -2.101,1.892 -3.093,1.892 -4.085,1.109 -4.179,0 Z m -4.179,-0.934 c 0.28,-1.074 1.133,-1.762 2.125,-1.762 0.758,0 1.471,0.396 1.844,1.086 h 1.214 c -0.502,-1.331 -1.716,-2.196 -3.105,-2.196 -1.821,0 -3.292,1.612 -3.292,3.339 0,2.043 1.541,3.467 3.257,3.467 1.903,0 3.35,-1.471 3.35,-3.327 0,-0.198 0,-0.385 -0.035,-0.607 z"
             style="fill:#34346e;fill-opacity:1;fill-rule:nonzero;stroke:none"
             id="path106" />
        </g>
        <g
           id="g108"
           transform="translate(204.9222,40.3463)">
          <path
             d="M 0,0 V 3.618 C 0,4.844 -0.514,5.533 -1.529,5.533 -2.603,5.533 -3.07,4.937 -3.07,3.642 V 0 h -1.214 v 3.759 c 0,1.272 -0.595,1.774 -1.471,1.774 -1.074,0 -1.599,-0.631 -1.599,-1.903 V 0 h -1.214 v 6.467 h 1.121 v -0.7 h 0.023 c 0.525,0.618 1.015,0.875 1.856,0.875 0.84,0 1.681,-0.409 2.007,-1.086 0.468,0.735 1.11,1.086 2.137,1.086 1.681,0 2.638,-1.051 2.638,-2.72 L 1.214,0 Z"
             style="fill:#34346e;fill-opacity:1;fill-rule:nonzero;stroke:none"
             id="path110" />
        </g>
        <g
           id="g112"
           transform="translate(216.2601,40.3463)">
          <path
             d="M 0,0 V 3.618 C 0,4.844 -0.514,5.533 -1.529,5.533 -2.603,5.533 -3.07,4.937 -3.07,3.642 V 0 h -1.214 v 3.759 c 0,1.272 -0.595,1.774 -1.471,1.774 -1.074,0 -1.599,-0.631 -1.599,-1.903 V 0 h -1.213 v 6.467 h 1.12 v -0.7 h 0.023 c 0.525,0.618 1.015,0.875 1.856,0.875 0.84,0 1.681,-0.409 2.008,-1.086 0.467,0.735 1.109,1.086 2.136,1.086 1.681,0 2.638,-1.051 2.638,-2.72 L 1.214,0 Z"
             style="fill:#34346e;fill-opacity:1;fill-rule:nonzero;stroke:none"
             id="path114" />
        </g>
        <g
           id="g116"
           transform="translate(224.0966,43.9879)">
          <path
             d="M 0,0 C -0.093,1.098 -1.062,1.892 -2.101,1.892 -3.093,1.892 -4.085,1.109 -4.179,0 Z m -4.179,-0.934 c 0.28,-1.074 1.132,-1.762 2.125,-1.762 0.758,0 1.471,0.396 1.844,1.086 h 1.214 c -0.502,-1.331 -1.716,-2.196 -3.105,-2.196 -1.821,0 -3.292,1.612 -3.292,3.339 0,2.043 1.541,3.467 3.257,3.467 1.903,0 3.35,-1.471 3.35,-3.327 0,-0.198 0,-0.385 -0.035,-0.607 z"
             style="fill:#34346e;fill-opacity:1;fill-rule:nonzero;stroke:none"
             id="path118" />
        </g>
        <g
           id="g120"
           transform="translate(229.0717,45.0973)">
          <path
             d="m 0,0 c -0.058,0.467 -0.327,0.782 -0.829,0.782 -0.466,0 -0.758,-0.315 -0.758,-0.689 0,-0.549 0.56,-0.712 1.202,-0.91 0.91,-0.281 1.751,-0.829 1.751,-2.032 0,-1.249 -0.91,-2.066 -2.171,-2.066 -1.168,0 -2.288,0.794 -2.288,2.288 h 1.214 c 0.058,-0.782 0.455,-1.179 1.097,-1.179 0.56,0 0.934,0.362 0.934,0.887 0,0.444 -0.339,0.735 -1.097,0.981 -1.588,0.501 -1.856,1.191 -1.856,1.926 0,1.144 0.968,1.903 2.03,1.903 1.075,0 1.95,-0.747 1.985,-1.891 z"
             style="fill:#34346e;fill-opacity:1;fill-rule:nonzero;stroke:none"
             id="path122" />
        </g>
        <g
           id="g124"
           transform="translate(240.2577,43.568)">
          <path
             d="m 0,0 c 0,1.261 -0.911,2.312 -2.253,2.312 -1.214,0 -2.206,-1.04 -2.206,-2.312 0,-1.214 0.992,-2.276 2.206,-2.276 C -0.992,-2.276 0,-1.226 0,0 m -0.023,-3.222 v 1.004 h -0.024 c -0.455,-0.77 -1.272,-1.168 -2.194,-1.168 -1.891,0 -3.432,1.425 -3.432,3.292 0,2.067 1.483,3.514 3.385,3.514 0.946,0 1.739,-0.351 2.241,-1.086 h 0.024 V 3.245 H 1.19 v -6.467 z"
             style="fill:#34346e;fill-opacity:1;fill-rule:nonzero;stroke:none"
             id="path126" />
        </g>
        <g
           id="g128"
           transform="translate(243.0497,40.3463)">
          <path
             d="m 0,0 v 5.357 h -0.572 v 1.11 H 0 V 6.759 C 0,7.996 0.875,8.638 2.078,8.638 H 2.347 V 7.529 C 1.553,7.529 1.214,7.249 1.214,6.771 V 6.467 H 2.347 V 5.357 H 1.214 V 0 Z"
             style="fill:#34346e;fill-opacity:1;fill-rule:nonzero;stroke:none"
             id="path130" />
        </g>
        <g
           id="g132"
           transform="translate(251.3856,43.5797)">
          <path
             d="m 0,0 c 0,1.518 -1.156,2.3 -2.276,2.3 -1.203,0 -2.218,-1.039 -2.218,-2.3 0,-1.237 1.027,-2.288 2.229,-2.288 C -0.853,-2.288 0,-1.051 0,0 m -0.023,-2.382 c -0.502,-0.677 -1.308,-1.015 -2.23,-1.015 -1.856,0 -3.455,1.599 -3.455,3.35 0,1.949 1.517,3.455 3.467,3.455 0.84,0 1.727,-0.35 2.241,-0.922 v 0.747 h 1.214 v -5.615 c 0,-2.1 -1.296,-3.396 -3.49,-3.396 -1.483,0 -2.65,0.782 -3.199,2.043 h 1.354 c 0.455,-0.643 1.062,-0.934 1.856,-0.934 1.483,0 2.265,0.805 2.265,2.287 z"
             style="fill:#34346e;fill-opacity:1;fill-rule:nonzero;stroke:none"
             id="path134" />
        </g>
        <g
           id="g136"
           transform="translate(258.6713,40.3463)">
          <path
             d="m 0,0 v 3.514 c 0,1.388 -0.537,2.019 -1.611,2.019 -1.061,0 -1.703,-0.77 -1.703,-2.031 V 0 h -1.214 v 8.638 h 1.214 v -2.86 h 0.023 c 0.385,0.572 1.004,0.864 1.809,0.864 1.541,0 2.696,-0.981 2.696,-2.755 L 1.214,0 Z"
             style="fill:#34346e;fill-opacity:1;fill-rule:nonzero;stroke:none"
             id="path138" />
        </g>
        <g
           id="g140"
           transform="translate(266.7518,43.568)">
          <path
             d="m 0,0 c 0,1.261 -0.911,2.312 -2.253,2.312 -1.214,0 -2.206,-1.04 -2.206,-2.312 0,-1.214 0.992,-2.276 2.206,-2.276 C -0.992,-2.276 0,-1.226 0,0 m -0.023,-3.222 v 1.004 h -0.024 c -0.455,-0.77 -1.272,-1.168 -2.194,-1.168 -1.891,0 -3.432,1.425 -3.432,3.292 0,2.067 1.483,3.514 3.385,3.514 0.946,0 1.739,-0.351 2.241,-1.086 h 0.024 V 3.245 H 1.19 v -6.467 z"
             style="fill:#34346e;fill-opacity:1;fill-rule:nonzero;stroke:none"
             id="path142" />
        </g>
        <g
           id="g144"
           transform="translate(274.0262,40.3463)">
          <path
             d="m 0,0 v 3.525 c 0,1.366 -0.537,2.008 -1.611,2.008 -1.062,0 -1.704,-0.782 -1.704,-1.996 V 0 h -1.214 v 6.467 h 1.133 V 5.778 h 0.023 c 0.478,0.618 1.144,0.864 1.891,0.864 1.552,0 2.696,-0.981 2.696,-2.767 L 1.214,0 Z"
             style="fill:#34346e;fill-opacity:1;fill-rule:nonzero;stroke:none"
             id="path146" />
        </g>
        <g
           id="g148"
           transform="translate(281.8612,43.9879)">
          <path
             d="M 0,0 C -0.094,1.098 -1.062,1.892 -2.102,1.892 -3.094,1.892 -4.086,1.109 -4.179,0 Z m -4.179,-0.934 c 0.28,-1.074 1.132,-1.762 2.124,-1.762 0.759,0 1.471,0.396 1.845,1.086 h 1.214 c -0.502,-1.331 -1.716,-2.196 -3.106,-2.196 -1.82,0 -3.292,1.612 -3.292,3.339 0,2.043 1.541,3.467 3.257,3.467 1.904,0 3.351,-1.471 3.351,-3.327 0,-0.198 0,-0.385 -0.035,-0.607 z"
             style="fill:#34346e;fill-opacity:1;fill-rule:nonzero;stroke:none"
             id="path150" />
        </g>
        <g
           id="g152"
           transform="translate(286.8358,45.0973)">
          <path
             d="m 0,0 c -0.058,0.467 -0.326,0.782 -0.828,0.782 -0.467,0 -0.759,-0.315 -0.759,-0.689 0,-0.549 0.561,-0.712 1.202,-0.91 0.91,-0.281 1.751,-0.829 1.751,-2.032 0,-1.249 -0.91,-2.066 -2.171,-2.066 -1.168,0 -2.288,0.794 -2.288,2.288 h 1.214 c 0.059,-0.782 0.455,-1.179 1.098,-1.179 0.559,0 0.933,0.362 0.933,0.887 0,0.444 -0.339,0.735 -1.097,0.981 -1.587,0.501 -1.856,1.191 -1.856,1.926 0,1.144 0.969,1.903 2.03,1.903 C 0.304,1.891 1.18,1.144 1.215,0 Z"
             style="fill:#34346e;fill-opacity:1;fill-rule:nonzero;stroke:none"
             id="path154" />
        </g>
        <g
           id="g156"
           transform="translate(55.2553,101.1406)">
          <path
             d="m 0,0 c -3.705,0.18 -7.4,0.615 -11.096,-0.351 -1.831,-0.478 -3.719,-0.79 -5.279,-2.03 -0.751,-0.598 -1.384,-1.395 -2.197,-1.859 -1.871,-1.068 -3.573,-2.39 -5.342,-3.606 -2.041,-1.403 -3.892,-3.053 -5.476,-5.01 -0.84,-1.038 -1.721,-2.047 -2.652,-2.997 -0.617,-0.63 -1.266,-1.198 -1.518,-2.094 -0.106,-0.38 -0.436,-0.549 -0.712,-0.794 -0.845,-0.749 -1.805,-1.457 -2.402,-2.392 -2.459,-3.849 -5.051,-7.65 -6.198,-12.184 -0.359,-1.42 -1.096,-2.765 -0.95,-4.295 0.017,-0.178 0.007,-0.38 -0.057,-0.546 -0.736,-1.898 -0.438,-3.915 -0.767,-5.864 -0.221,-1.313 -0.105,-2.653 0.072,-3.987 0.178,-1.34 0.526,-2.666 0.339,-4.064 -0.09,-0.674 -0.068,-1.366 0.124,-2.054 0.587,-2.103 0.85,-4.329 2.178,-6.138 0.078,-0.107 0.132,-0.244 0.161,-0.376 0.222,-0.999 0.755,-1.856 1.191,-2.748 0.416,-0.85 0.73,-1.809 1.459,-2.435 0.603,-0.518 0.99,-1.15 1.312,-1.861 0.149,-0.329 0.288,-0.701 0.537,-0.935 1.15,-1.082 1.891,-2.504 2.947,-3.675 1.076,-1.192 2.299,-2.098 3.651,-2.876 0.232,-0.134 0.469,-0.24 0.658,-0.448 0.926,-1.02 1.44,-1.119 2.733,-0.471 -0.415,-0.809 -0.86,-1.625 0.515,-1.623 0.029,0 0.059,-0.062 0.085,-0.099 0.733,-1.052 1.735,-1.613 2.987,-1.811 0.364,-0.058 0.637,-0.397 1.114,-0.248 0.473,0.147 0.28,0.729 0.813,1.006 0.262,-1.689 0.545,-3.362 2.783,-2.502 0.293,-0.933 0.807,-1.538 1.824,-1.446 0.18,0.016 0.365,0.075 0.476,-0.114 0.377,-0.642 0.915,-0.396 1.433,-0.252 0.256,0.072 0.636,0.297 0.746,0.052 0.353,-0.787 0.935,-0.46 1.489,-0.426 0.416,0.026 0.971,-0.093 0.796,-0.621 -0.216,-0.652 0.147,-1.024 0.406,-1.455 -0.754,-0.444 -1.437,0.253 -2.297,-0.105 1.356,-1.058 2.804,-1.503 4.293,-1.589 0.896,-0.051 1.765,-0.051 2.615,-0.361 0.923,-0.337 1.875,-0.335 2.863,-0.243 0.822,0.076 1.7,0.026 2.481,-0.207 0.725,-0.216 1.378,-0.332 2.079,-0.01 0.309,0.142 0.577,0.209 0.862,-0.058 0.334,-0.311 0.762,-0.195 1.16,-0.147 0.537,0.064 1.072,0.128 1.6,-0.024 10e-4,0.001 10e-4,0.001 0.002,0.002 10e-4,-0.001 0.003,-0.001 0.004,-0.001 0.676,0.392 1.393,0.338 2.413,0.353 -0.973,-0.52 -1.686,-0.514 -2.413,-0.353 -0.001,-0.001 -0.002,-0.001 -0.003,-0.002 -10e-4,0 -0.002,10e-4 -0.003,10e-4 -0.275,-0.317 -0.641,-0.262 -0.995,-0.305 -0.953,-0.115 -1.895,-0.29 -2.913,-0.853 1.281,-0.627 2.611,-0.197 3.705,-0.798 0.096,-0.052 0.268,0.004 0.394,0.044 0.75,0.241 1.446,0.939 2.303,0.289 0.093,-0.07 0.392,0.178 0.605,0.234 1.028,0.27 1.814,1.041 2.773,1.468 0.437,0.195 0.488,0.224 0.542,-0.241 0.048,-0.411 0.386,-0.482 0.713,-0.408 0.358,0.081 0.308,0.35 0.244,0.649 -0.176,0.825 0.373,0.622 0.8,0.577 0.254,0.095 0.394,0.445 0.729,0.353 0.32,-0.064 0.669,-0.417 0.94,0.078 0.13,0.237 0.288,0.37 0.532,0.283 0.613,-0.218 1.02,0.188 1.457,0.511 0.219,0.162 0.421,0.437 0.655,0.474 1.339,0.214 2.275,1.242 3.325,1.933 1.563,1.028 2.433,2.838 3.403,4.441 0.379,0.626 0.606,1.258 1.278,1.669 0.743,0.455 0.923,1.391 0.98,2.126 0.031,0.411 -0.091,0.648 0.358,0.725 0.772,0.132 1.038,0.579 1.012,1.36 -0.017,0.511 0.23,0.984 0.621,1.347 0.034,0.034 0.065,0.07 0.092,0.11 0.2,0.411 0.26,0.97 0.713,1.148 0.664,0.262 0.666,0.799 0.655,1.332 0.409,0.155 0.636,-0.506 1.018,-0.103 0.602,0.633 -0.297,1.048 -0.21,1.649 0.415,0.287 0.901,-0.593 1.282,0.127 0.257,0.485 0.735,0.873 0.906,1.375 0.294,0.863 -0.661,0.706 -1.069,1.019 0.47,0.362 0.843,0.177 1.223,0.056 0.18,-0.058 0.369,-0.025 0.483,0.152 0.125,0.194 0.024,0.341 -0.126,0.466 -0.574,0.48 -0.217,0.658 0.262,0.787 0.218,0.058 0.442,0.091 0.658,0.156 0.184,0.055 0.33,0.182 0.327,0.394 -0.004,0.214 -0.157,0.309 -0.344,0.352 -0.199,0.046 -0.474,-0.01 -0.444,0.327 0.569,0.801 1.134,1.583 1.679,2.379 0.101,0.148 0.13,0.372 -0.063,0.489 -0.134,0.082 -0.248,-0.031 -0.345,-0.135 -0.149,-0.159 -0.317,-0.217 -0.403,0.03 -0.086,0.247 0,0.466 0.276,0.529 0.125,0.029 0.264,-0.016 0.397,-0.015 0.819,0.008 1.116,0.32 1.037,1.136 -0.017,0.181 -0.396,0.358 -0.039,0.534 0.507,0.249 0.384,0.426 0.005,0.629 -0.217,0.117 -0.572,0.111 -0.438,0.55 1.064,0.008 1.214,0.817 1.396,1.644 0.332,1.51 0.349,1.506 -0.344,2.464 0.719,0.168 1.065,0.578 0.876,1.354 -0.04,0.165 0.191,0.403 0.287,0.612 0.363,0.794 0.799,1.574 0.45,2.491 -0.088,0.229 0.092,0.462 0.081,0.663 -0.055,0.991 -0.18,1.969 0.553,2.826 0.097,0.113 -0.03,0.438 -0.07,0.662 -0.032,0.179 -0.179,0.456 -0.119,0.511 0.535,0.498 -0.048,1.236 0.221,1.549 0.562,0.657 0.079,1.214 0.143,1.801 0.292,2.697 -0.332,5.293 -0.611,7.926 -0.186,1.758 -1.009,3.304 -1.482,4.962 -0.775,2.717 -2.215,5.069 -3.452,7.536 -0.162,0.322 -0.384,0.615 -0.597,0.906 -1.309,1.78 -2.823,3.391 -4.021,5.262 -0.145,0.226 -0.337,0.422 -0.522,0.616 -1.363,1.432 -2.764,2.827 -4.086,4.298 -1.625,1.808 -3.473,3.187 -5.815,3.922 -2.682,0.842 -5.383,1.654 -7.913,2.93 C 9.094,-1.651 8.318,-1.306 7.538,-1.221 5.001,-0.945 2.568,-0.125 0,0"
             style="fill:#7ec4aa;fill-opacity:1;fill-rule:nonzero;stroke:none"
             id="path158" />
        </g>
      </g>
    </g>
    <g
       id="g160">
      <g
         id="g162"
         clip-path="url(#clipPath166)">
        <g
           id="g168"
           transform="translate(33.7345,76.9696)">
          <path
             d="m 0,0 c 0.071,-2.221 0.274,-4.437 0.64,-6.63 0.187,-1.119 0.392,-2.244 0.698,-3.338 0.244,-0.871 0.507,-1.737 0.737,-2.612 0.445,-1.695 0.864,-3.567 0.546,-5.288 -0.149,-0.809 -0.439,-1.585 -0.967,-2.223 -0.525,-0.635 -1.145,-1.088 -1.9,-1.436 -0.497,-0.23 -1.064,-0.408 -1.636,-0.55 l 0.205,2.512 -0.869,5.532 -1.489,4.571 -1.117,6.695 0.373,3.895 0.868,3.895 c 0,0 1.613,2.556 1.613,2.556 0.811,0.902 1.637,1.714 2.488,2.472 C 0.064,6.702 -0.108,3.351 0,0"
             style="fill:#34346e;fill-opacity:1;fill-rule:nonzero;stroke:none"
             id="path170" />
        </g>
        <g
           id="g172"
           transform="translate(44.8244,51.2976)">
          <path
             d="m 0,0 c -0.463,1.384 -0.748,2.832 -0.973,4.269 -0.237,1.52 -0.382,3.053 -0.456,4.588 -0.15,3.127 -0.028,6.261 0.237,9.378 0.21,2.472 0.487,4.939 0.723,7.409 0.223,2.328 0.474,4.656 0.882,6.961 0.411,2.318 0.96,4.632 1.847,6.823 0.513,1.269 1.149,2.502 1.952,3.618 7.538,0.097 16.75,-0.354 19.627,-8.456 0,0 3.847,-10.833 2.233,-18.988 -0.366,-1.851 -0.545,-2.893 -0.604,-3.398 -0.132,-0.629 -0.247,-1.262 -0.349,-1.897 -0.779,-2.501 -1.814,-5.502 -2.883,-7.668 0.021,0.042 0.023,-1.21 0.018,-2.559 -0.289,-0.555 -0.545,-1.126 -0.766,-1.71 -0.393,-1.035 -0.823,-2.731 -1.013,-4.521 -0.323,-3.036 -0.25,-6.246 -0.272,-6.253 -0.106,-0.033 -3.476,3.349 -5.225,4.37 -1.992,1.163 -4.19,2.079 -6.419,2.705 C 6.545,-4.763 4.469,-4.457 2.38,-4.342 1.331,-3.049 0.526,-1.573 0,0"
             style="fill:#34346e;fill-opacity:1;fill-rule:nonzero;stroke:none"
             id="path174" />
        </g>
        <g
           id="g176"
           transform="translate(41.4227,84.7682)">
          <path
             d="M 0,0 C -0.586,2.395 -0.671,4.871 -0.684,7.331 1.114,8.491 3.069,9.493 5.258,9.534 5.688,9.542 6.127,9.551 6.574,9.559 6.156,8.925 5.784,8.261 5.456,7.58 3.605,3.731 2.881,-0.549 2.4,-4.763 1.147,-3.448 0.426,-1.742 0,0"
             style="fill:#34346e;fill-opacity:1;fill-rule:nonzero;stroke:none"
             id="path178" />
        </g>
        <g
           id="g180"
           transform="translate(43.4907,76.8356)">
          <path
             d="m 0,0 c -0.016,0.029 -0.037,0.056 -0.064,0.083 -1.4,1.376 -2.672,2.88 -3.727,4.529 -1.524,2.383 -2.555,5.013 -3.079,7.768 0.93,0.698 1.899,1.379 2.917,2.079 0.17,0.117 0.342,0.234 0.515,0.351 0.016,-1.471 0.067,-2.941 0.24,-4.403 C -2.863,7.584 -2.099,4.602 0.007,2.525 0.082,2.451 0.167,2.422 0.249,2.425 0.224,2.196 0.2,1.968 0.176,1.739 0.115,1.16 0.057,0.58 0,0"
             style="fill:#34346e;fill-opacity:1;fill-rule:nonzero;stroke:none"
             id="path182" />
        </g>
        <g
           id="g184"
           transform="translate(42.628,67.4733)">
          <path
             d="m 0,0 c -1.263,2.036 -2.659,3.99 -3.951,6.008 -1.778,2.778 -3.4,5.72 -4.06,8.964 0.053,1.781 0.134,3.562 0.195,5.342 0.393,0.329 0.793,0.648 1.199,0.963 0.308,-1.524 0.77,-3.014 1.39,-4.448 1.28,-2.961 3.228,-5.592 5.538,-7.862 C 0.486,8.795 0.715,8.866 0.829,9.017 0.674,7.437 0.526,5.856 0.362,4.277 0.215,2.854 0.09,1.428 0,0"
             style="fill:#34346e;fill-opacity:1;fill-rule:nonzero;stroke:none"
             id="path186" />
        </g>
        <g
           id="g188"
           transform="translate(29.0791,49.4933)">
          <path
             d="M 0,0 1.117,2.313 2.475,4.464 C 3.272,4.635 4.056,4.857 4.8,5.2 6.415,5.946 7.627,7.313 8.033,9.033 8.46,10.843 8.149,12.741 7.713,14.52 7.494,15.414 7.234,16.297 6.98,17.182 6.684,18.213 6.452,19.254 6.259,20.308 5.86,22.487 5.628,24.689 5.537,26.9 c -0.05,1.207 -0.061,2.414 -0.049,3.621 0.579,-1.696 1.384,-3.319 2.286,-4.87 1.692,-2.913 3.731,-5.612 5.474,-8.493 0.062,-0.103 0.152,-0.152 0.244,-0.161 -0.069,-1.361 -0.103,-2.724 -0.091,-4.087 0.029,-3.088 0.283,-6.191 0.956,-9.212 0.306,-1.372 0.709,-2.708 1.33,-3.978 0.38,-0.778 0.829,-1.518 1.341,-2.215 -0.401,0.01 -0.803,0.013 -1.204,0.01 -0.717,-0.006 -1.434,-0.027 -2.15,-0.064 -0.726,-0.036 -1.45,-0.112 -2.175,-0.145 -1.36,-0.062 -2.721,-0.04 -4.081,-0.013 -2.453,0.048 -4.929,0.119 -7.365,-0.215 l 0.071,0.488 z"
             style="fill:#34346e;fill-opacity:1;fill-rule:nonzero;stroke:none"
             id="path190" />
        </g>
        <g
           id="g192"
           transform="translate(65.7649,42.224)">
          <path
             d="M 0,0 C 0.072,1.727 0.238,3.456 0.647,5.141 0.898,6.173 1.238,7.178 1.679,8.139 2.459,7.131 8.873,0.02 8.778,-0.611 8.23,-4.238 3.383,-5.354 3.34,-9.039 3.273,-8.905 2.191,-7.19 1.437,-6.049 0.682,-4.905 -0.018,-4.062 -0.195,-3.849 -0.208,-3.36 -0.037,-0.887 0,0"
             style="fill:#34346e;fill-opacity:1;fill-rule:nonzero;stroke:none"
             id="path194" />
        </g>
        <g
           id="g196"
           transform="translate(51.1624,30.738)">
          <path
             d="m 0,0 c -1.087,5.437 -8.508,8.56 -10.077,9.103 -0.802,0.278 -1.618,0.521 -2.451,0.693 -0.86,0.177 -1.73,0.298 -2.602,0.396 -1.386,0.156 -2.751,0.247 -4.102,0.458 0.515,-0.04 1.03,-0.071 1.544,-0.095 2.753,-0.127 5.511,-0.063 8.265,-0.171 1.349,-0.053 2.702,-0.14 4.04,-0.327 C -4.138,9.882 -3.91,9.638 -2.719,9.243 -1.352,8.79 0.098,8.005 1.359,7.34 1.359,7.34 1.087,6.525 0.544,4.622 0,2.719 0,0 0,0"
             style="fill:#34346e;fill-opacity:1;fill-rule:nonzero;stroke:none"
             id="path198" />
        </g>
        <g
           id="g200"
           transform="translate(60.575,85.3681)">
          <path
             d="m 0,0 c 0.156,0.429 0.287,0.866 0.391,1.31 0.155,0.662 3.919,-1.359 4.143,-1.549 2.742,-2.327 2.882,-5.568 2.687,-8.872 -0.282,-4.776 2.223,-8.42 -0.67,-14.207 -1.054,-2.107 -2.306,-5.235 -2.318,-5.268 -0.926,-2.422 -2.392,-3.397 -5.271,-2.897 -2.166,0.376 -4.292,1.028 -6.339,1.813 -1.794,0.688 -3.609,1.714 -4.545,3.432 0,0 0,0 0,0.001 -1.632,2.999 -2.875,3.724 -1.687,11.36 C -12.28,-6.345 -0.337,-0.924 0,0"
             style="fill:#f5f7ec;fill-opacity:1;fill-rule:nonzero;stroke:none"
             id="path202" />
        </g>
        <g
           id="g204"
           transform="translate(52.8564,72.0482)">
          <path
             d="M 0,0 C -0.002,0 -0.025,-0.017 -0.041,-0.029 -0.025,-0.014 -0.009,0 0,0 M 0.246,0.167 C 0.444,0.293 0.651,0.405 0.863,0.504 0.917,0.529 0.971,0.553 1.024,0.577 1.025,0.578 1.027,0.578 1.028,0.579 1.044,0.586 1.061,0.592 1.077,0.599 1.195,0.647 1.315,0.691 1.435,0.733 1.668,0.814 1.905,0.884 2.144,0.946 2.392,1.01 2.643,1.064 2.895,1.11 3.011,1.132 3.126,1.151 3.243,1.168 3.255,1.17 3.297,1.177 3.332,1.182 3.396,1.191 3.46,1.199 3.525,1.206 3.988,1.259 4.454,1.287 4.92,1.285 5.15,1.283 5.38,1.274 5.609,1.255 5.662,1.251 5.714,1.246 5.767,1.241 5.793,1.238 5.818,1.235 5.844,1.232 5.848,1.232 5.857,1.23 5.866,1.229 5.897,1.225 5.949,1.217 5.962,1.215 6.011,1.207 6.061,1.198 6.111,1.188 6.39,1.134 6.712,1.267 6.781,1.569 6.842,1.838 6.7,2.181 6.4,2.239 5.497,2.414 4.558,2.405 3.646,2.309 2.553,2.194 1.483,1.959 0.474,1.518 -0.047,1.291 -0.535,0.992 -0.959,0.611 c -0.213,-0.191 -0.209,-0.579 0,-0.771 0.227,-0.208 0.544,-0.204 0.77,0 0.04,0.036 0.079,0.07 0.12,0.104 0.005,0.004 0.012,0.011 0.021,0.02 0.005,0.003 0.012,0.008 0.023,0.016 0.089,0.065 0.178,0.128 0.271,0.187"
             style="fill:#34346e;fill-opacity:1;fill-rule:nonzero;stroke:none"
             id="path206" />
        </g>
        <g
           id="g208"
           transform="translate(63.8762,65.7415)">
          <path
             d="M 0,0 C -0.001,-0.001 0.016,0.018 0.028,0.032 0.019,0.017 0.009,0.005 0,0 m -0.65,-0.296 c 0.018,-0.001 0.034,-0.002 0.032,-0.004 -0.003,-0.003 -0.016,0 -0.032,0.004 m -0.115,0.036 c 0.008,-0.003 0.013,-0.006 0.02,-0.009 -0.01,0.003 -0.019,0.006 -0.02,0.009 M 0.368,4.867 C 0.22,5.53 0.072,6.194 -0.076,6.857 -0.046,6.903 -0.017,6.95 0.015,6.996 0.017,6.998 0.018,7 0.02,7.002 c 0.003,0.004 0.006,0.007 0.01,0.012 0.036,0.042 0.071,0.084 0.109,0.125 0.134,0.147 0.282,0.28 0.435,0.406 0.005,0.004 0.01,0.009 0.015,0.014 0.012,0.009 0.025,0.017 0.035,0.024 0.04,0.03 0.081,0.059 0.122,0.088 0.094,0.065 0.19,0.128 0.288,0.188 0.193,0.118 0.391,0.225 0.594,0.324 0.098,0.047 0.198,0.092 0.297,0.136 0.004,0.002 0.006,0.003 0.009,0.004 0.024,0.01 0.047,0.02 0.071,0.029 C 2.063,8.375 2.121,8.398 2.179,8.42 2.407,8.506 2.639,8.583 2.873,8.65 3.106,8.717 3.342,8.775 3.58,8.823 3.686,8.844 3.794,8.864 3.901,8.881 3.953,8.889 4.008,8.903 4.061,8.905 3.907,8.898 4.112,8.911 4.153,8.915 4.395,8.942 4.638,8.957 4.88,8.956 5.001,8.956 5.121,8.952 5.242,8.944 5.3,8.94 5.358,8.935 5.415,8.929 5.42,8.928 5.426,8.927 5.431,8.926 c 0.009,0 0.021,-10e-4 0.04,-0.004 0.004,0 0.009,-0.002 0.012,-0.001 0,0 -10e-4,0 -10e-4,0 C 5.76,8.882 6.072,8.996 6.142,9.302 6.201,9.562 6.063,9.927 5.761,9.973 4.761,10.126 3.739,10.01 2.765,9.752 1.794,9.494 0.819,9.09 0.015,8.48 -0.412,8.157 -0.799,7.787 -1.073,7.321 -1.088,7.296 -1.099,7.269 -1.109,7.242 -1.187,7.119 -1.216,6.967 -1.181,6.807 -0.919,5.634 -0.447,3.828 -0.185,2.655 -0.12,2.361 -0.054,2.068 0.011,1.774 0.04,1.646 0.069,1.518 0.096,1.39 0.111,1.32 0.125,1.249 0.138,1.179 0.142,1.153 0.147,1.126 0.151,1.1 0.155,1.081 0.16,1.047 0.162,1.033 0.177,0.919 0.186,0.803 0.187,0.688 0.187,0.618 0.184,0.549 0.179,0.479 0.179,0.477 0.178,0.467 0.176,0.456 0.172,0.432 0.161,0.375 0.159,0.367 0.146,0.307 0.122,0.25 0.109,0.191 0.108,0.186 0.107,0.184 0.107,0.18 0.099,0.163 0.09,0.146 0.081,0.13 0.072,0.112 0.054,0.074 0.035,0.043 0.033,0.041 0.03,0.038 0.025,0.034 0.001,0.012 -0.018,-0.016 -0.041,-0.039 -0.078,-0.077 -0.119,-0.11 -0.159,-0.146 c 0.101,0.09 -0.038,-0.021 -0.071,-0.04 -0.017,-0.01 -0.034,-0.02 -0.052,-0.03 -0.002,-0.001 -0.025,-0.012 -0.044,-0.022 -0.01,-0.004 -0.021,-0.008 -0.027,-0.01 -0.032,-0.01 -0.063,-0.021 -0.095,-0.029 -0.019,-0.005 -0.038,-0.008 -0.057,-0.013 -0.017,-0.004 -0.028,-0.008 -0.036,-0.01 -0.039,0 -0.091,0.006 -0.108,0.006 -0.005,0 -0.006,0 -0.01,0 -0.023,0.007 -0.046,0.015 -0.052,0.016 -0.002,0.001 -0.01,0.003 -0.019,0.005 -0.016,0.008 -0.031,0.016 -0.046,0.025 -0.249,0.139 -0.606,0.068 -0.746,-0.196 -0.136,-0.257 -0.07,-0.597 0.196,-0.745 0.518,-0.29 1.143,-0.234 1.646,0.062 0.56,0.328 0.859,0.871 0.938,1.503 C 1.337,1.01 1.153,1.655 1.016,2.27 0.87,2.925 0.514,4.212 0.368,4.867"
             style="fill:#34346e;fill-opacity:1;fill-rule:nonzero;stroke:none"
             id="path210" />
        </g>
        <g
           id="g212"
           transform="translate(64.6209,60.6175)">
          <path
             d="m 0,0 c 0.056,-0.313 -0.754,-1.203 -1.078,-1.307 -1.414,-0.453 -2.644,0.86 -2.642,0.87 l 0.062,0.01 c 0.327,-0.109 1.669,-0.011 1.669,-0.011 0.079,0.001 0.563,0.021 1.084,0.153 C -0.521,-0.188 -0.065,0.042 0,0 M -1.025,0.736 C -0.855,0.737 -0.024,0.528 -0.018,0.521 -0.105,0.436 -1.247,0.296 -1.43,0.313 -1.434,0.317 -1.667,0.244 -1.67,0.249 c 0.052,0.037 0.24,0.42 0.645,0.487 M 0.713,0.298 C 0.748,0.4 1.612,1.307 1.618,1.381 1.65,1.742 0.846,1.161 0.698,1.072 0.394,0.89 -0.999,1.254 -1.213,1.257 -1.802,1.266 -1.607,0.82 -2.014,0.687 -2.199,0.627 -2.221,1.52 -3.367,1.034 -3.481,1.028 -5.052,0.392 -5.244,0.408 -5.34,0.404 -5.437,0.4 -5.533,0.396 -5.705,0.43 -6.368,0.326 -6.512,0.376 c -0.24,0.084 -1.156,0.37 -0.927,0.13 0.211,-0.218 0.543,-0.39 0.832,-0.505 0.114,-0.045 0.546,-0.381 0.643,-0.509 0.209,-0.22 0.416,-0.462 0.646,-0.673 0.166,-0.151 2.114,-1.628 3.819,-1.043 1.686,0.578 1.768,1.227 2.212,2.522"
             style="fill:#34346e;fill-opacity:1;fill-rule:nonzero;stroke:none"
             id="path214" />
        </g>
        <g
           id="g216"
           transform="translate(69.357,71.8895)">
          <path
             d="M 0,0 C 0.017,0.001 0.34,0.504 0.358,0.506 0.401,0.508 0.438,0.517 0.469,0.535 0.506,0.548 0.534,0.567 0.554,0.594 0.577,0.62 0.589,0.65 0.589,0.683 0.596,0.714 0.592,0.747 0.576,0.781 0.564,0.802 0.552,0.823 0.539,0.844 0.507,0.885 0.464,0.921 0.412,0.949 0.383,0.962 0.355,0.974 0.326,0.986 0.266,1.005 0.207,1.012 0.149,1.008 0.035,0.999 -0.079,0.991 -0.193,0.982 -0.216,0.981 -0.237,0.978 -0.256,0.973 -0.27,0.978 -0.284,0.984 -0.298,0.99 c 0.001,0.006 0.001,0.013 0.001,0.021 0.008,0.031 0.004,0.063 -0.012,0.097 C -0.321,1.129 -0.334,1.15 -0.346,1.171 -0.378,1.213 -0.421,1.248 -0.474,1.277 -0.502,1.289 -0.531,1.301 -0.559,1.313 -0.619,1.332 -0.678,1.339 -0.737,1.335 -0.794,1.331 -0.851,1.327 -0.908,1.322 -0.951,1.32 -0.988,1.31 -1.02,1.293 -1.043,1.285 -1.062,1.273 -1.078,1.259 -1.093,1.263 -1.109,1.268 -1.124,1.272 -1.125,1.277 -1.126,1.281 -1.128,1.286 -1.132,1.318 -1.147,1.35 -1.173,1.381 -1.191,1.4 -1.21,1.419 -1.229,1.438 -1.274,1.476 -1.326,1.504 -1.386,1.523 -1.416,1.53 -1.447,1.536 -1.477,1.543 -1.537,1.55 -1.592,1.546 -1.642,1.531 -1.887,1.423 -2.386,0.668 -2.388,0.668"
             style="fill:#34346e;fill-opacity:1;fill-rule:nonzero;stroke:none"
             id="path218" />
        </g>
        <g
           id="g220"
           transform="translate(58.29,70.9868)">
          <path
             d="m 0,0 c 0.021,-0.055 0.04,-0.112 0.054,-0.17 0.267,-1.102 -0.721,-2.465 -1.902,-1.782 -0.88,0.508 -1.048,0.834 -0.58,1.612 0,0 0.222,0.869 1.231,0.822 C -0.188,0.435 0,0 0,0"
             style="fill:#34346e;fill-opacity:1;fill-rule:nonzero;stroke:none"
             id="path222" />
        </g>
        <g
           id="g224"
           transform="translate(52.7259,69.7819)">
          <path
             d="m 0,0 c -0.014,-0.003 -0.41,0.335 -0.424,0.331 -0.037,-0.009 -0.07,-0.01 -0.101,-0.003 -0.033,0.001 -0.061,0.011 -0.084,0.028 -0.026,0.016 -0.044,0.038 -0.052,0.066 -0.014,0.024 -0.019,0.052 -0.014,0.084 0.005,0.021 0.01,0.041 0.015,0.062 0.017,0.042 0.043,0.082 0.08,0.12 0.021,0.017 0.041,0.034 0.062,0.051 0.045,0.031 0.093,0.052 0.142,0.063 0.097,0.021 0.194,0.043 0.291,0.064 0.019,0.005 0.037,0.007 0.055,0.008 0.01,0.008 0.021,0.016 0.031,0.024 C -0.002,0.904 -0.004,0.91 -0.006,0.916 -0.02,0.94 -0.025,0.968 -0.02,1 c 0.005,0.021 0.01,0.041 0.015,0.062 0.017,0.042 0.043,0.082 0.08,0.119 0.021,0.018 0.041,0.035 0.062,0.052 0.045,0.031 0.093,0.052 0.142,0.063 0.049,0.01 0.097,0.021 0.146,0.032 0.037,0.009 0.07,0.01 0.1,0.003 C 0.547,1.33 0.566,1.325 0.583,1.318 0.595,1.325 0.606,1.333 0.618,1.34 c 0,0.004 -0.001,0.008 -0.001,0.012 -0.004,0.029 0,0.059 0.014,0.091 0.011,0.021 0.022,0.041 0.032,0.062 0.029,0.042 0.065,0.079 0.11,0.11 C 0.797,1.628 0.82,1.641 0.844,1.654 0.892,1.675 0.939,1.685 0.984,1.685 1.215,1.656 1.82,1.153 1.821,1.153"
             style="fill:#34346e;fill-opacity:1;fill-rule:nonzero;stroke:none"
             id="path226" />
        </g>
        <g
           id="g228"
           transform="translate(55.3077,70.8403)">
          <path
             d="m 0,0 c -0.972,-0.298 -1.489,-0.827 -2.084,-1.374 -0.42,-0.386 -1.071,0.223 -0.648,0.611 0.95,0.873 2.052,1.66 3.367,1.813 C 2.068,1.218 3.288,0.472 4.423,-0.304 4.892,-0.625 4.47,-1.411 3.996,-1.087 3.321,-0.625 2.614,-0.139 1.826,0.074 1.826,0.074 0.972,0.298 0,0"
             style="fill:#34346e;fill-opacity:1;fill-rule:nonzero;stroke:none"
             id="path230" />
        </g>
        <g
           id="g232"
           transform="translate(57.5991,68.8816)">
          <path
             d="m 0,0 c 0.686,0.362 1.24,0.961 1.769,1.531 0.371,0.4 0.927,-0.24 0.56,-0.636 -0.89,-0.958 -1.865,-1.905 -3.228,-2.05 -1.252,-0.133 -2.438,0.365 -3.502,0.975 -0.474,0.272 0.002,0.973 0.473,0.703 0.666,-0.382 1.256,-0.764 2.22,-0.837 C -0.744,-0.387 0,0 0,0"
             style="fill:#34346e;fill-opacity:1;fill-rule:nonzero;stroke:none"
             id="path234" />
        </g>
        <g
           id="g236"
           transform="translate(66.5883,70.6777)">
          <path
             d="M 0,0 C -0.754,0.392 -0.549,1.118 -0.549,1.118 -0.56,1.882 -0.301,2.048 0.555,2.046 1.702,2.044 1.846,0.635 1.186,-0.054 1.151,-0.09 1.113,-0.124 1.075,-0.155 1.075,-0.155 0.754,-0.392 0,0"
             style="fill:#34346e;fill-opacity:1;fill-rule:nonzero;stroke:none"
             id="path238" />
        </g>
        <g
           id="g240"
           transform="translate(65.8208,72.1797)">
          <path
             d="m 0,0 c -0.566,-0.435 -0.975,-1.064 -1.367,-1.663 -0.275,-0.42 -0.878,0.074 -0.606,0.49 0.658,1.007 1.395,2.017 2.609,2.36 C 1.751,1.502 2.904,1.234 3.964,0.846 4.436,0.673 4.113,-0.037 3.644,0.135 2.98,0.378 2.386,0.634 1.501,0.55 0.615,0.467 0,0 0,0"
             style="fill:#34346e;fill-opacity:1;fill-rule:nonzero;stroke:none"
             id="path242" />
        </g>
        <g
           id="g244"
           transform="translate(68.0887,70.9602)">
          <path
             d="M 0,0 C 0.754,0.383 1.101,0.89 1.511,1.422 1.8,1.799 2.42,1.393 2.129,1.014 1.475,0.164 -0.174,-0.983 -1.263,-1.146 -3.341,-1.457 -3.715,-0.541 -3.902,-1.1 -4.051,-1.548 -4.464,-0.153 -4.03,-0.351 -3.411,-0.633 -3.713,-0.614 -2.309,-0.6 -0.906,-0.586 -0.754,-0.383 0,0"
             style="fill:#34346e;fill-opacity:1;fill-rule:nonzero;stroke:none"
             id="path246" />
        </g>
        <g
           id="g248"
           transform="translate(69.5826,72.6836)">
          <path
             d="M 0,0 C 0.017,0.002 0.337,0.518 0.354,0.519 0.398,0.522 0.436,0.533 0.467,0.551 0.504,0.564 0.532,0.585 0.552,0.612 0.575,0.639 0.587,0.669 0.586,0.703 0.593,0.735 0.589,0.768 0.572,0.802 0.559,0.824 0.546,0.845 0.533,0.866 0.5,0.907 0.456,0.942 0.402,0.971 0.373,0.982 0.343,0.994 0.314,1.006 0.253,1.024 0.193,1.031 0.134,1.025 0.018,1.015 -0.097,1.004 -0.213,0.994 -0.236,0.992 -0.257,0.989 -0.276,0.983 -0.291,0.988 -0.305,0.994 -0.32,0.999 -0.319,1.006 -0.318,1.013 -0.318,1.021 -0.311,1.052 -0.315,1.085 -0.332,1.12 -0.345,1.141 -0.358,1.162 -0.371,1.183 -0.404,1.225 -0.448,1.26 -0.502,1.288 -0.531,1.3 -0.561,1.311 -0.59,1.323 -0.651,1.341 -0.711,1.348 -0.77,1.343 -0.828,1.337 -0.886,1.332 -0.944,1.327 -0.987,1.324 -1.025,1.313 -1.057,1.295 -1.08,1.286 -1.099,1.274 -1.116,1.259 -1.131,1.264 -1.147,1.268 -1.162,1.272 -1.164,1.277 -1.165,1.281 -1.166,1.286 -1.171,1.319 -1.187,1.351 -1.214,1.382 -1.233,1.401 -1.252,1.42 -1.271,1.439 -1.318,1.476 -1.372,1.504 -1.433,1.522 -1.463,1.529 -1.494,1.535 -1.525,1.541 -1.586,1.547 -1.642,1.542 -1.693,1.526 -1.939,1.412 -2.433,0.638 -2.435,0.638"
             style="fill:#34346e;fill-opacity:1;fill-rule:nonzero;stroke:none"
             id="path250" />
        </g>
        <g
           id="g252"
           transform="translate(68.9619,84.9817)">
          <path
             d="m 0,0 c -1.654,1.776 -4.333,2.664 -6.91,2.587 -2.762,-0.083 -5.578,-1.014 -6.984,-1.78 -0.99,-0.54 -2.373,-1.735 -3.094,-2.554 -0.661,-0.751 -1.739,-1.967 -2.25,-2.809 -1.748,-2.882 -3.084,-6.015 -2.874,-9.299 l 0.207,-0.282 c 0.746,4.665 3.933,7.146 8.335,9.644 2.25,1.277 4.028,1.423 5.301,1.469 1.713,0.063 3.74,-0.474 5.344,-1.021 0.837,-0.286 1.443,-0.672 2.25,-1.022 0.606,-0.262 1.407,-0.766 2.251,-0.766 0,0 -0.437,1.978 -0.756,3.521 C 0.501,-0.768 0,0 0,0"
             style="fill:#f49e78;fill-opacity:1;fill-rule:nonzero;stroke:none"
             id="path254" />
        </g>
      </g>
    </g>
    <g
       id="g256">
      <g
         id="g258"
         clip-path="url(#clipPath262)">
        <g
           id="g264"
           transform="translate(29.5441,41.2718)">
          <path
             d="m 0,0 c 0.413,-1.624 2.012,-3.654 5.579,-4.614 7.068,-1.903 7.34,-6.525 7.34,-6.525 0,0 2.633,1.53 3.806,3.535 1.172,2.005 -5.736,5.614 -9.393,6.341"
             style="fill:#34346e;fill-opacity:1;fill-rule:nonzero;stroke:none"
             id="path266" />
        </g>
      </g>
    </g>
    <g
       id="g268">
      <g
         id="g270"
         clip-path="url(#clipPath274)">
        <g
           id="g276"
           transform="translate(39.0015,32.1947)">
          <path
             d="m 0,0 c -0.859,1.107 -2.311,1.756 -3.656,2.402 l -0.66,0.312 C -5.883,3.448 -7.331,4.365 -8.531,5.471 -9.332,6.342 -9.681,7.46 -9.613,8.541 -9.726,8.533 -9.925,8.49 -9.878,8.482 c -0.257,-1.767 -0.587,-3.545 -0.405,-5.328 0.232,-1.566 1.2,-3.092 2.79,-4.012 0.938,-0.568 2.039,-0.912 3.173,-1.111 l 0.662,-0.155 c 1.37,-0.365 2.752,-0.912 3.648,-1.867 0.422,-0.407 0.59,-0.939 0.615,-1.463 0.002,-0.047 0.003,-33.186 0.003,-33.233 l 0.009,0.003 v -0.26 l 0.641,0.257 v 0.246 l 0.027,0.01 c 0,0.052 0,32.937 0,32.989 0.001,0.322 0.001,0.645 0.001,0.967 C 1.296,-2.933 1.035,-1.322 0,0"
             style="fill:#34346e;fill-opacity:1;fill-rule:nonzero;stroke:none"
             id="path278" />
        </g>
        <g
           id="g280"
           transform="translate(48.5151,35.0267)">
          <path
             d="m 0,0 h -0.216 c 0.052,-0.833 -0.01,-1.751 -0.6,-2.4 -1.007,-1.124 -2.364,-1.858 -3.409,-2.941 -0.559,-0.582 -0.96,-1.305 -1.194,-2.075 -0.304,-1.04 -0.427,-2.24 -0.237,-3.204 0.028,-0.141 0.061,-0.261 0.096,-0.367 v -29.506 l 0.641,0.257 v 29.355 c 0.406,1.081 1.579,1.801 2.584,2.292 1.22,0.625 2.935,0.975 3.37,2.469 C 1.581,-4.032 0.706,-1.938 0,0"
             style="fill:#34346e;fill-opacity:1;fill-rule:nonzero;stroke:none"
             id="path282" />
        </g>
        <g
           id="g284"
           transform="translate(49.7285,27.5691)">
          <path
             d="M 0,0 H -0.159 C -0.121,-0.615 -0.167,-1.292 -0.602,-1.772 -1.346,-2.601 -2.347,-3.143 -3.119,-3.942 -3.531,-4.372 -3.827,-4.905 -4,-5.473 -4.202,-6.166 -4.294,-6.954 -4.207,-7.624 v -24.128 l 0.641,0.257 v 23.613 c 0.346,0.715 1.148,1.203 1.842,1.543 0.901,0.461 2.167,0.719 2.488,1.822 C 1.167,-2.976 0.521,-1.43 0,0"
             style="fill:#34346e;fill-opacity:1;fill-rule:nonzero;stroke:none"
             id="path286" />
        </g>
        <g
           id="g288"
           transform="translate(57.3952,19.8721)">
          <path
             d="M 0,0 C -0.377,0.447 -0.812,0.709 -1.402,0.97 L -1.691,1.096 C -2.378,1.392 -3.013,1.763 -3.539,2.21 -3.89,2.561 -4.043,3.013 -4.013,3.449 -4.063,3.446 -4.162,3.441 -4.211,3.438 -4.191,3.434 -4.15,3.429 -4.129,3.425 -4.242,2.712 -4.386,1.994 -4.307,1.274 c 0.102,-0.633 0.526,-1.249 1.223,-1.62 0.411,-0.23 0.894,-0.369 1.391,-0.449 l 0.29,-0.063 c 0.601,-0.147 0.814,-0.173 1.207,-0.559 0.052,-0.046 0.094,-0.139 0.128,-0.255 v -17.25 l 0.642,0.257 V -1.93 L 0.569,-1.927 C 0.572,-1.832 0.574,-1.74 0.574,-1.674 0.584,-0.77 0.454,-0.534 0,0"
             style="fill:#34346e;fill-opacity:1;fill-rule:nonzero;stroke:none"
             id="path290" />
        </g>
        <g
           id="g292"
           transform="translate(61.562,20.4624)">
          <path
             d="m 0,0 v 0.236 0 c 0,0.118 0,0.23 0,0.323 0.008,1.185 -0.309,2.348 -1.204,3.364 -0.743,0.85 -1.999,1.349 -3.162,1.845 l -0.571,0.24 c -1.355,0.564 -2.607,1.269 -3.646,2.119 -0.692,0.669 -0.994,1.529 -0.935,2.359 -0.098,-0.006 -0.229,-0.045 -0.229,-0.045 0,0 -0.507,-2.724 -0.351,-4.094 0.201,-1.204 1.039,-2.377 2.414,-3.084 0.81,-0.436 1.763,-0.701 2.744,-0.854 L -4.367,2.29 c 1.184,-0.281 2.379,-0.701 3.155,-1.435 0.241,-0.207 0.446,-0.557 0.57,-1.029 V -17.715 L 0,-17.426 V -0.467 C 0,-0.336 0,-0.169 0,0"
             style="fill:#34346e;fill-opacity:1;fill-rule:nonzero;stroke:none"
             id="path294" />
        </g>
        <g
           id="g296"
           transform="translate(63.6785,28.9324)">
          <path
             d="m 0,0 c -0.901,1.107 -2.423,1.756 -3.833,2.402 l -0.693,0.312 c -1.643,0.734 -3.161,1.651 -4.42,2.757 -0.839,0.871 -1.205,1.989 -1.134,3.07 -0.118,-0.008 -0.344,0.008 -0.295,0 -0.27,-1.767 -0.598,-3.604 -0.408,-5.387 0.244,-1.566 1.259,-3.092 2.926,-4.012 0.983,-0.568 2.138,-0.912 3.327,-1.111 l 0.695,-0.155 c 1.436,-0.365 2.885,-0.912 3.825,-1.867 0.277,-0.256 0.472,-0.751 0.588,-1.418 v -19.493 l 0.642,0.29 v 16.958 c 0,0.374 0.128,2.806 0.129,3.179 C 1.359,-2.933 1.085,-1.322 0,0"
             style="fill:#34346e;fill-opacity:1;fill-rule:nonzero;stroke:none"
             id="path298" />
        </g>
        <g
           id="g300"
           transform="translate(69.5182,29.7478)">
          <path
             d="m 0,0 c -0.293,2.048 -0.957,2.621 -0.957,2.621 -0.181,0.363 -2.089,3.405 -2.621,4.199 -0.571,0.852 -1.262,1.607 -1.988,2.355 -1.496,1.539 -3.2,2.853 -5.089,3.899 -2.064,1.143 -4.333,2.015 -6.632,2.575 -4.021,0.981 -8.275,0.642 -12.367,0.533 -1.262,-0.034 -2.525,-0.005 -3.786,0.021 -2.353,0.046 -4.739,0.108 -7.072,-0.246 l -0.175,-1.202 -1.241,-1.582 -0.016,-0.039 c 4.772,-1.121 9.788,-0.713 14.658,-0.937 1.371,-0.063 2.74,-0.181 4.097,-0.383 1.227,-0.182 2.414,-0.481 3.586,-0.881 0.453,-0.154 0.9,-0.325 1.343,-0.504 1.282,-0.802 2.842,-2.065 4.526,-4.063 1.762,-2.09 5.707,-3.261 7.34,-4.078 2.901,-1.45 3.901,-5.297 4.212,-7.045 v -19.421 l 0.642,0.29 V -5.903 C -1.027,-2.31 0.257,-1.797 0,0"
             style="fill:#34346e;fill-opacity:1;fill-rule:nonzero;stroke:none"
             id="path302" />
        </g>
        <g
           id="g304"
           transform="translate(75.5914,40.5272)">
          <path
             d="M 0,0 H -0.202 C -0.154,-0.777 -0.211,-1.635 -0.761,-2.241 -1.702,-3.29 -2.969,-3.975 -3.945,-4.986 -4.466,-5.53 -4.84,-6.205 -5.06,-6.923 c -0.283,-0.971 -0.398,-2.091 -0.22,-2.991 0.03,-0.154 0.066,-0.281 0.105,-0.39 v -23.37 l 0.642,0.29 v 23.363 c 0.423,0.932 1.458,1.565 2.353,2.002 1.139,0.584 2.74,0.91 3.146,2.305 C 1.476,-3.764 0.659,-1.809 0,0"
             style="fill:#34346e;fill-opacity:1;fill-rule:nonzero;stroke:none"
             id="path306" />
        </g>
        <g
           id="g308"
           transform="translate(77.8774,34.4829)">
          <path
             d="m 0,0 h -0.176 c 0.042,-0.545 -0.009,-1.145 -0.49,-1.57 -0.822,-0.735 -1.93,-1.215 -2.783,-1.923 -0.456,-0.381 -0.783,-0.854 -0.975,-1.357 -0.233,-0.642 -0.333,-1.376 -0.214,-1.986 v -19.51 l 0.642,0.29 v 18.977 c 0.347,0.686 1.285,1.146 2.09,1.461 0.996,0.409 2.396,0.638 2.751,1.615 C 1.291,-2.637 0.576,-1.267 0,0"
             style="fill:#34346e;fill-opacity:1;fill-rule:nonzero;stroke:none"
             id="path310" />
        </g>
        <g
           id="g312"
           transform="translate(51.3825,21.2783)">
          <path
             d="m 0,0 h -0.109 c 0.026,-0.422 -0.006,-0.887 -0.304,-1.215 -0.51,-0.57 -1.197,-0.941 -1.726,-1.489 -0.283,-0.295 -0.486,-0.661 -0.605,-1.051 -0.154,-0.526 -0.216,-1.134 -0.12,-1.622 0.019,-0.095 0.048,-0.211 0.083,-0.337 v -18.464 l 0.641,0.257 v 17.248 c 0,1.027 0,1.797 0.958,2.324 0.617,0.317 1.486,0.494 1.706,1.25 C 0.801,-2.041 0.357,-0.981 0,0"
             style="fill:#34346e;fill-opacity:1;fill-rule:nonzero;stroke:none"
             id="path314" />
        </g>
        <g
           id="g316"
           transform="translate(54.9756,18.7118)">
          <path
             d="m 0,0 h -0.109 c 0.026,-0.422 -0.006,-0.887 -0.304,-1.215 -0.51,-0.57 -1.197,-0.941 -1.726,-1.489 -0.283,-0.295 -0.486,-0.661 -0.605,-1.051 -0.154,-0.526 -0.216,-1.134 -0.12,-1.622 0.019,-0.095 0.048,-0.211 0.083,-0.337 v -14.357 l 0.641,0.256 v 13.142 c 0,1.027 0,1.797 0.958,2.324 0.617,0.317 1.486,0.494 1.706,1.25 C 0.801,-2.041 0.357,-0.981 0,0"
             style="fill:#34346e;fill-opacity:1;fill-rule:nonzero;stroke:none"
             id="path318" />
        </g>
      </g>
    </g>
  </g>
</svg>
