<?xml version="1.0" encoding="UTF-8" standalone="no"?>
<svg
   id="Layer_1"
   data-name="Layer 1"
   viewBox="0 0 1000 250"
   version="1.1"
   sodipodi:docname="top-start.svg"
   inkscape:version="1.2.2 (b0a8486541, 2022-12-01)"
   xmlns:inkscape="http://www.inkscape.org/namespaces/inkscape"
   xmlns:sodipodi="http://sodipodi.sourceforge.net/DTD/sodipodi-0.dtd"
   xmlns="http://www.w3.org/2000/svg"
   xmlns:svg="http://www.w3.org/2000/svg">
  <sodipodi:namedview
     id="namedview3240"
     pagecolor="#ffffff"
     bordercolor="#666666"
     borderopacity="1.0"
     inkscape:showpageshadow="2"
     inkscape:pageopacity="0.0"
     inkscape:pagecheckerboard="0"
     inkscape:deskcolor="#d1d1d1"
     showgrid="false"
     showguides="false"
     inkscape:zoom="0.92630988"
     inkscape:cx="450.17332"
     inkscape:cy="113.353"
     inkscape:window-width="1854"
     inkscape:window-height="1011"
     inkscape:window-x="0"
     inkscape:window-y="0"
     inkscape:window-maximized="1"
     inkscape:current-layer="Layer_1" />
  <defs
     id="defs3201">
    <style
       id="style3199">.cls-1{fill:#6d6e6e;}.cls-2{fill:#55a99a;}</style>
  </defs>
  <title
     id="title3203">ustad-logo</title>
  <g
     id="Layer_1-2"
     data-name="Layer 1"
     transform="matrix(0.2712902,0,0,0.2712902,28.573502,34.93276)">
    <path
       class="cls-5"
       d="m 52.93,189.58 c 37.17,34.76 95.56,32.57 127.64,-3.05 33.78,-37.51 34.92,-98.97 1.56,-129.03 -3.68,10.31 1.05,19.05 3.36,27.99 3.86,14.92 8.23,29.78 4.52,45.43 -1.85,7.78 -4.64,11.86 -12.67,4.68 C 151.71,112.69 138.2,36.23 154.53,6.69 c 6.71,-12.13 14.23,-4.76 20.87,-1.17 50.08,27.02 76.3,92.97 58.18,151.59 -15.96,51.64 -51.17,84.91 -105.71,91.08 -51.7,5.85 -92.47,-15.62 -120.18,-60.17 -13.06,-21 -10.29,-26.81 14.36,-31.61 38.76,-7.56 73.83,0.31 104.54,25.61 3.36,2.77 8.36,5.64 7.19,10.54 -1.44,6.07 -7.91,5.56 -12.72,6.35 -12.39,2.03 -24.13,-1.94 -36.02,-4.51 -9.84,-2.12 -19.21,-7.27 -32.12,-4.82 z"
       id="path6"
       style="fill:#da291c;stroke-width:0px" />
    <path
       class="cls-1"
       d="m 467.21,188.74 c -16.78,-1.36 -30.55,6.85 -45.37,8.62 -11.86,1.41 -28.76,7.63 -33.37,-4.08 -4.04,-10.27 12.74,-17.21 22.37,-22.63 29.08,-16.37 60.09,-21.33 92.75,-12.35 19.19,5.28 20.52,8.58 10.79,26.78 -23.2,43.4 -78.76,71.17 -126.43,63.2 -53.52,-8.95 -96.18,-52.42 -104.81,-106.79 -8.59,-54.12 17.68,-111.45 61.06,-135.4 13.67,-7.55 20.6,-5.86 24.46,10 9.83,40.43 3.26,77.59 -20.31,111.75 -3.15,4.57 -6.16,12.02 -12.5,10.2 -7.28,-2.09 -5.9,-10.38 -6.24,-16.58 -0.72,-13 2.85,-25.36 5.83,-37.86 2.18,-9.15 6.82,-18.09 4.16,-28.23 -35.53,32.37 -33.95,97.55 2.99,134.57 34.39,34.46 92.83,34.54 124.62,-1.2 z"
       id="path8"
       style="fill:#009ca6;stroke-width:0px" />
    <path
       class="cls-3"
       d="m 340.04,488.37 c 2.15,-20.14 -7.23,-35.21 -8.74,-51.65 -1.05,-11.43 -5.9,-27.77 4.47,-31.75 10.07,-3.87 14.96,12.95 20.27,21.68 19.81,32.58 21.33,67.68 12.2,103.92 -3.24,12.85 -9.54,14.43 -20.9,8.37 -44.28,-23.6 -71.88,-82.24 -63.57,-136.47 8.4,-54.86 49.07,-97.47 101.99,-106.88 51.36,-9.13 102.76,15.99 129.58,63.32 9.37,16.53 8.01,21.53 -9.89,25.9 -41.26,10.06 -78.79,1.7 -111.89,-25.24 -2.94,-2.39 -6.87,-4.86 -6.09,-9.11 1.05,-5.69 6.46,-5.38 10.8,-5.78 14.93,-1.37 29.3,1.13 43.49,5.88 8.06,2.7 16.22,7.31 25.88,3.73 -27.37,-35.29 -85.53,-34.86 -119.37,-5.72 -40.82,35.15 -45.85,99.09 -8.22,139.79 z"
       id="path10"
       style="fill:#34b67a;stroke-width:0px" />
    <path
       class="cls-2"
       d="m 182.47,488.13 c 35.2,-41.91 31.8,-104.79 -5.62,-137.51 -37.32,-32.63 -92.32,-31.84 -124.12,3.13 10.54,3.78 19.25,-1.01 27.64,-3.71 14.94,-4.8 30.04,-6.8 45.51,-5.03 9.26,1.06 10.65,5.38 4.24,12.66 -23.5,26.69 -86.76,39.21 -120.52,24.56 -12.07,-5.24 -8.44,-11.77 -4.69,-19.8 34.58,-74.17 136.72,-92.05 194.91,-34.07 60.73,60.51 48.79,166 -23.09,208.08 -13.78,8.07 -20.3,6.32 -24.07,-9.61 -9.9,-41.86 -2.84,-80.13 22.28,-115.03 2.54,-3.53 4.76,-9.01 9.82,-7.98 6.23,1.26 5.63,7.81 6.27,12.63 1.81,13.67 -2.09,26.67 -4.96,39.83 -2.12,9.71 -7.5,19.1 -3.6,31.84 z"
       id="path12"
       style="fill:#f6a500;stroke-width:0px" />
    <path
       class="cls-4"
       d="m 381.18,672.74 c -46.25,3.16 -86.81,-9.27 -115.55,-49.45 -4.84,-6.76 -9.14,-5.18 -13.43,0.89 -37.8,53.4 -93.85,50.56 -149.63,48.35 -11.61,-0.46 -12.37,-8.79 -12.4,-17.76 -0.04,-9.33 1.84,-16.86 13.25,-16.99 16.04,-0.19 32.08,-0.13 48.12,-0.36 53.94,-0.77 86.23,-30.91 89.86,-84.54 0.79,-11.63 2.66,-19.52 17.15,-19.62 15.38,-0.11 17.39,8.12 18.14,20.67 3.02,50.7 36.41,82.3 87.36,83.42 16.68,0.37 33.37,0.39 50.05,0.23 12,-0.11 15.38,6.86 15.48,17.25 0.1,10.22 -2.69,17.87 -14.79,17.9 -10.91,0.02 -21.82,0 -33.59,0 z"
       id="path14"
       style="fill:#9a3324;stroke-width:0px" />
    <path
       class="cls-5"
       d="m 92.55,68.01 c 16.26,-0.35 31.83,14.63 32.67,31.45 0.9,17.96 -13.65,34.1 -31.21,34.62 C 76.8,134.59 61.33,118.8 61.39,100.81 61.45,83.69 76,68.37 92.55,68.01 Z"
       id="path16"
       style="fill:#da291c;stroke-width:0px" />
    <path
       class="cls-3"
       d="m 428.24,407.37 c 16.96,0.06 32.29,16.56 31.76,34.18 -0.5,16.63 -16.12,31.62 -32.5,31.2 -16.39,-0.42 -30.74,-15.86 -30.67,-32.99 0.07,-16.84 15.21,-32.44 31.4,-32.39 z"
       id="path18"
       style="fill:#34b67a;stroke-width:0px" />
    <path
       class="cls-1"
       d="m 428.58,61.1 c 16.18,-0.32 31.91,15.6 31.98,32.36 0.07,17.76 -13.75,32.3 -31.2,32.84 -17.58,0.54 -31,-13.29 -31.02,-31.98 -0.02,-18.88 12.72,-32.87 30.24,-33.21 z"
       id="path20"
       style="fill:#009ca6;stroke-width:0px" />
    <path
       class="cls-2"
       d="m 126.48,440.8 c 0.29,17.6 -12.08,31.44 -28.8,32.21 -18.48,0.85 -32.95,-13.29 -33.06,-32.3 -0.09,-16.28 13.9,-30.98 30.14,-31.64 16.73,-0.69 31.43,14.02 31.72,31.74 z"
       id="path22"
       style="fill:#f6a500;stroke-width:0px" />
  </g>
  <text
     xml:space="preserve"
     style="font-style:normal;font-weight:normal;font-size:127.951px;line-height:1.25;font-family:sans-serif;letter-spacing:0px;word-spacing:0px;fill:#000000;fill-opacity:1;stroke:none;stroke-width:3.19878"
     x="186.32535"
     y="163.84412"
     id="text3494"><tspan
       sodipodi:role="line"
       id="tspan3492"
       x="186.32535"
       y="163.84412"
       style="font-style:normal;font-variant:normal;font-weight:normal;font-stretch:normal;font-family:Roboto;-inkscape-font-specification:Roboto;stroke-width:3.19878">Learning Tree</tspan></text>
</svg>
