<?xml version="1.0" encoding="UTF-8" standalone="no"?>
<!-- Created with Inkscape (http://www.inkscape.org/) -->

<svg
   version="1.1"
   id="svg834"
   xml:space="preserve"
   width="512"
   height="87"
   viewBox="0 0 512 87"
   sodipodi:docname="top-start.svg"
   inkscape:version="1.2.2 (b0a8486541, 2022-12-01)"
   xmlns:inkscape="http://www.inkscape.org/namespaces/inkscape"
   xmlns:sodipodi="http://sodipodi.sourceforge.net/DTD/sodipodi-0.dtd"
   xmlns="http://www.w3.org/2000/svg"
   xmlns:svg="http://www.w3.org/2000/svg"
   xmlns:rdf="http://www.w3.org/1999/02/22-rdf-syntax-ns#"
   xmlns:cc="http://creativecommons.org/ns#"
   xmlns:dc="http://purl.org/dc/elements/1.1/"><metadata
     id="metadata840"><rdf:RDF><cc:Work
         rdf:about=""><dc:format>image/svg+xml</dc:format><dc:type
           rdf:resource="http://purl.org/dc/dcmitype/StillImage" /></cc:Work></rdf:RDF></metadata><defs
     id="defs838" /><sodipodi:namedview
     pagecolor="#ffffff"
     bordercolor="#666666"
     borderopacity="1"
     objecttolerance="10"
     gridtolerance="10"
     guidetolerance="10"
     inkscape:pageopacity="0"
     inkscape:pageshadow="2"
     inkscape:window-width="1850"
     inkscape:window-height="1011"
     id="namedview836"
     showgrid="false"
     inkscape:zoom="1.3556776"
     inkscape:cx="271.45097"
     inkscape:cy="94.417729"
     inkscape:window-x="70"
     inkscape:window-y="32"
     inkscape:window-maximized="1"
     inkscape:current-layer="g842"
     inkscape:showpageshadow="2"
     inkscape:pagecheckerboard="0"
     inkscape:deskcolor="#d1d1d1" /><g
     id="g842"
     inkscape:groupmode="layer"
     inkscape:label="ink_ext_XXXXXX"
     transform="matrix(1.3333333,0,0,-1.3333333,0,306.12)"><g
       id="g244"
       transform="matrix(0.27630061,0,0,0.27635421,12.621935,165.18914)"><path
         inkscape:connector-curvature="0"
         id="path846"
         style="fill:#050606;fill-opacity:1;fill-rule:nonzero;stroke:none;stroke-width:0.1"
         d="M 143.121,211.39 C 89.8242,206.794 66.5703,156.253 48.8203,99.5582 L 26.4063,167.034 H 0 L 37.8066,66.2449 H 61.1641 C 78.8008,130.232 101.758,194.443 143.121,211.39" /><path
         inkscape:connector-curvature="0"
         id="path848"
         style="fill:#050606;fill-opacity:1;fill-rule:nonzero;stroke:none;stroke-width:0.1"
         d="m 134.143,85.2219 c -13.463,0 -25.141,6.2363 -32.571,10.6761 L 95.1484,75.1262 c 9.2536,-6.0903 24.6196,-11.2793 39.4476,-11.2793 26.252,0 39.853,13.3672 39.853,31.9531 0,20.873 -17.263,26.101 -33.263,30.719 -12.747,3.681 -18.836,5.908 -18.836,12.125 0,6.045 5.48,9.67 15.734,9.67 10.723,0 21.203,-4.473 26.18,-6.817 2.334,6.639 5.539,12.969 9.476,18.785 -5.617,3.096 -18.611,9.17 -35.176,9.17 -24.781,0 -40.8472,-12.441 -40.8472,-31.095 0,-18.569 14.2992,-25.243 31.2092,-29.956 13.619,-3.794 20.892,-6.209 20.892,-12.783 0,-6.5918 -5.826,-10.3961 -15.675,-10.3961" /><path
         inkscape:connector-curvature="0"
         id="path850"
         style="fill:#050606;fill-opacity:1;fill-rule:nonzero;stroke:none;stroke-width:0.1"
         d="m 233.529,86.4621 c -16.412,0 -28.519,13.434 -28.519,29.9389 0,16.405 12.443,30.26 28.519,30.26 16.078,0 28.522,-13.855 28.522,-30.26 0,-16.5049 -12.11,-29.9389 -28.522,-29.9389 m -0.304,82.9689 c -29.067,0 -52.715,-23.719 -52.715,-52.869 0,-29.0671 23.785,-52.7132 53.019,-52.7132 29.237,0 53.022,23.6461 53.022,52.7132 0,29.15 -24.258,52.869 -53.326,52.869" /><path
         inkscape:connector-curvature="0"
         id="path852"
         style="fill:#a9118e;fill-opacity:1;fill-rule:nonzero;stroke:none;stroke-width:0.1"
         d="m 241.088,178.404 c 12.418,-1.557 24.037,-6.778 33.572,-15.149 -3.748,7.867 -8.252,15.178 -13.103,21.535 -18.743,24.557 -51.102,44.979 -91.133,44.796 -23.086,-0.11 -45.649,-6.981 -64.641,-19.827 15.276,7.812 32.258,11.908 49.557,11.908 5.824,0 52.9,-1.533 85.748,-43.263" /><path
         inkscape:connector-curvature="0"
         id="path854"
         style="fill:#a9118e;fill-opacity:1;fill-rule:nonzero;stroke:none;stroke-width:0.1"
         d="m 155.34,7.91719 c -17.299,0 -34.281,4.09761 -49.557,11.90781 C 124.775,6.98203 147.338,0.110156 170.426,0.00117188 210.455,-0.182813 242.814,20.2391 261.557,44.7941 267.59,52.7 273.082,62.077 277.26,72.1711 268.385,63.5129 256.936,57.4621 244.174,55.273 211.27,9.54414 161.35,7.91719 155.34,7.91719" /></g><g
       aria-label="VSOSCHOOL"
       transform="matrix(1,0,0,-1,7.5,0)"
       id="text348"
       style="font-size:42px;line-height:1.25;letter-spacing:0px;word-spacing:0px;stroke-width:0.75"><path
         d="m 116.14768,-183.2205 h 4.158 l 10.92,-29.652 h -4.41 l -7.434,20.958 c -0.546,1.596 -1.134,4.074 -1.134,4.074 h -0.084 c 0,0 -0.588,-2.478 -1.134,-4.074 l -7.35,-20.958 h -4.494 z"
         style="font-family:'Museo Sans';-inkscape-font-specification:'Museo Sans'"
         id="path303" /><path
         d="m 133.24168,-186.6225 c 0,0 3.528,3.906 9.828,3.906 5.88,0 9.408,-3.78 9.408,-8.358 0,-9.618 -14.364,-7.98 -14.364,-14.112 0,-2.352 2.226,-4.326 5.376,-4.326 3.78,0 6.51,2.562 6.51,2.562 l 1.89,-3.444 c 0,0 -2.898,-2.982 -8.4,-2.982 -5.586,0 -9.576,3.654 -9.576,8.274 0,9.114 14.364,7.728 14.364,14.154 0,2.814 -2.352,4.368 -5.124,4.368 -4.41,0 -7.56,-3.192 -7.56,-3.192 z"
         style="font-family:'Museo Sans';-inkscape-font-specification:'Museo Sans'"
         id="path305" /><path
         d="m 156.42566,-198.2565 c 0,8.736 6.678,15.54 15.246,15.54 8.568,0 15.204,-6.804 15.204,-15.54 0,-8.526 -6.636,-15.12 -15.204,-15.12 -8.568,0 -15.246,6.594 -15.246,15.12 z m 4.284,0 c 0,-6.468 4.914,-11.34 10.962,-11.34 6.048,0 10.92,4.872 10.92,11.34 0,6.678 -4.872,11.718 -10.92,11.718 -6.048,0 -10.962,-5.04 -10.962,-11.718 z"
         style="font-family:'Museo Sans';-inkscape-font-specification:'Museo Sans'"
         id="path307" /><path
         d="m 190.65562,-186.6225 c 0,0 3.528,3.906 9.828,3.906 5.88,0 9.408,-3.78 9.408,-8.358 0,-9.618 -14.364,-7.98 -14.364,-14.112 0,-2.352 2.226,-4.326 5.376,-4.326 3.78,0 6.51,2.562 6.51,2.562 l 1.89,-3.444 c 0,0 -2.898,-2.982 -8.4,-2.982 -5.586,0 -9.576,3.654 -9.576,8.274 0,9.114 14.364,7.728 14.364,14.154 0,2.814 -2.352,4.368 -5.124,4.368 -4.41,0 -7.56,-3.192 -7.56,-3.192 z"
         style="font-family:'Museo Sans';-inkscape-font-specification:'Museo Sans'"
         id="path309" /><path
         d="m 213.8396,-198.2145 c 0,8.694 6.258,15.498 15.162,15.498 7.434,0 11.508,-4.704 11.508,-4.704 l -2.226,-2.982 c 0,0 -3.57,3.864 -9.156,3.864 -6.594,0 -11.004,-5.376 -11.004,-11.718 0,-6.3 4.326,-11.34 10.962,-11.34 5.124,0 8.568,3.234 8.568,3.234 l 2.058,-3.108 c 0,0 -3.654,-3.906 -10.794,-3.906 -8.61,0 -15.078,6.552 -15.078,15.162 z"
         style="font-family:'Museo Sans';-inkscape-font-specification:'Museo Sans'"
         id="path311" /><path
         d="m 246.17961,-183.2205 h 4.158 v -13.02 h 15.372 v 13.02 h 4.158 v -29.652 h -4.158 v 13.02 h -15.372 v -13.02 h -4.158 z"
         style="font-family:'Museo Sans';-inkscape-font-specification:'Museo Sans'"
         id="path313" /><path
         d="m 275.91562,-198.2565 c 0,8.736 6.678,15.54 15.246,15.54 8.568,0 15.204,-6.804 15.204,-15.54 0,-8.526 -6.636,-15.12 -15.204,-15.12 -8.568,0 -15.246,6.594 -15.246,15.12 z m 4.284,0 c 0,-6.468 4.914,-11.34 10.962,-11.34 6.048,0 10.92,4.872 10.92,11.34 0,6.678 -4.872,11.718 -10.92,11.718 -6.048,0 -10.962,-5.04 -10.962,-11.718 z"
         style="font-family:'Museo Sans';-inkscape-font-specification:'Museo Sans'"
         id="path315" /><path
         d="m 310.39758,-198.2565 c 0,8.736 6.678,15.54 15.246,15.54 8.568,0 15.204,-6.804 15.204,-15.54 0,-8.526 -6.636,-15.12 -15.204,-15.12 -8.568,0 -15.246,6.594 -15.246,15.12 z m 4.284,0 c 0,-6.468 4.914,-11.34 10.962,-11.34 6.048,0 10.92,4.872 10.92,11.34 0,6.678 -4.872,11.718 -10.92,11.718 -6.048,0 -10.962,-5.04 -10.962,-11.718 z"
         style="font-family:'Museo Sans';-inkscape-font-specification:'Museo Sans'"
         id="path317" /><path
         d="m 346.89555,-183.2205 h 17.43 v -3.612 h -13.272 v -26.04 h -4.158 z"
         style="font-family:'Museo Sans';-inkscape-font-specification:'Museo Sans'"
         id="path319" /></g></g></svg>
