<?xml version="1.0" encoding="UTF-8" standalone="no"?>
<svg
   xmlns:dc="http://purl.org/dc/elements/1.1/"
   xmlns:cc="http://creativecommons.org/ns#"
   xmlns:rdf="http://www.w3.org/1999/02/22-rdf-syntax-ns#"
   xmlns:svg="http://www.w3.org/2000/svg"
   xmlns="http://www.w3.org/2000/svg"
   xmlns:sodipodi="http://sodipodi.sourceforge.net/DTD/sodipodi-0.dtd"
   xmlns:inkscape="http://www.inkscape.org/namespaces/inkscape"
   version="1.1"
   x="0px"
   y="0px"
   viewBox="0 0 24 24"
   xml:space="preserve"
   id="svg905"
   sodipodi:docname="noun_delay_1593433.svg"
   width="24"
   height="24"
   inkscape:version="0.92.5 (2060ec1f9f, 2020-04-08)"><metadata
     id="metadata911"><rdf:RDF><cc:Work
         rdf:about=""><dc:format>image/svg+xml</dc:format><dc:type
           rdf:resource="http://purl.org/dc/dcmitype/StillImage" /><dc:title></dc:title></cc:Work></rdf:RDF></metadata><defs
     id="defs909" /><sodipodi:namedview
     pagecolor="#ffffff"
     bordercolor="#666666"
     borderopacity="1"
     objecttolerance="10"
     gridtolerance="10"
     guidetolerance="10"
     inkscape:pageopacity="0"
     inkscape:pageshadow="2"
     inkscape:window-width="1848"
     inkscape:window-height="1016"
     id="namedview907"
     showgrid="false"
     inkscape:zoom="6.92"
     inkscape:cx="28.720945"
     inkscape:cy="25.182179"
     inkscape:window-x="72"
     inkscape:window-y="27"
     inkscape:window-maximized="1"
     inkscape:current-layer="svg905" /><g
     id="g899"
     transform="matrix(0.2511462,0,0,0.2511462,-0.7982429,-0.51963807)"><polygon
       points="60.9,57.5 63.2,54.3 57.4,50 57.4,33.8 53.4,33.8 53.4,52 "
       id="polygon893" /><path
       d="M 46.7,38.2 C 46.7,29.3 39.4,22 30.5,22 c -8.9,0 -16.2,7.3 -16.2,16.2 0,8.9 7.3,16.2 16.2,16.2 8.9,-0.1 16.2,-7.3 16.2,-16.2 z M 28.5,28.8 h 4 v 12.1 h -4 z m 1.6,19.3 C 30,48.1 29.9,48 29.7,48 29.6,48 29.5,47.9 29.3,47.8 29.2,47.7 29.1,47.6 29,47.6 28.9,47.5 28.8,47.4 28.8,47.3 28.7,47.2 28.7,47.1 28.6,47 c -0.1,-0.1 -0.1,-0.2 -0.1,-0.4 0,-0.1 0,-0.3 0,-0.4 0,-0.1 0,-0.3 0,-0.4 0,-0.1 0.1,-0.2 0.1,-0.4 0,-0.1 0.1,-0.2 0.2,-0.4 0.1,-0.1 0.1,-0.2 0.2,-0.3 0.1,-0.1 0.2,-0.2 0.3,-0.2 0.1,-0.1 0.2,-0.1 0.4,-0.2 0.1,0 0.2,-0.1 0.4,-0.1 0.3,0 0.5,0 0.8,0 0.1,0 0.3,0.1 0.4,0.1 0.1,0.1 0.2,0.1 0.3,0.2 0.1,0.1 0.2,0.2 0.3,0.2 0.1,0.1 0.2,0.2 0.2,0.3 0.1,0.1 0.1,0.2 0.2,0.4 0.1,0.1 0.1,0.2 0.1,0.4 0,0.1 0,0.3 0,0.4 0,0.1 0,0.3 0,0.4 0,0.1 -0.1,0.2 -0.1,0.4 0,0.1 -0.1,0.2 -0.2,0.3 -0.1,0.1 -0.1,0.2 -0.2,0.3 -0.1,0.1 -0.2,0.2 -0.3,0.2 -0.1,0.1 -0.2,0.1 -0.3,0.2 -0.1,0.1 -0.2,0.1 -0.4,0.1 -0.1,0 -0.3,0 -0.4,0 -0.1,0.1 -0.3,0.1 -0.4,0 z"
       id="path895"
       inkscape:connector-curvature="0" /><path
       d="m 55.4,21 c -3.9,0 -7.6,0.8 -10.9,2.2 1.1,0.9 2.1,2 3,3.1 2.5,-0.8 5.2,-1.3 7.9,-1.3 13.7,0 24.9,11.2 24.9,24.9 0,13.7 -11.2,24.8 -24.9,24.8 -9.8,0 -18.2,-5.7 -22.3,-13.9 -0.8,0.1 -1.7,0.2 -2.6,0.2 -0.6,0 -1.2,0 -1.8,-0.1 4.4,10.4 14.7,17.8 26.7,17.8 15.9,0 28.9,-13 28.9,-28.9 C 84.3,33.9 71.3,21 55.4,21 Z"
       id="path897"
       inkscape:connector-curvature="0" /></g></svg>