<?xml version="1.0" encoding="UTF-8" standalone="no"?>
<svg
   xmlns:ns="http://ns.adobe.com/SaveForWeb/1.0/"
   xmlns:dc="http://purl.org/dc/elements/1.1/"
   xmlns:cc="http://creativecommons.org/ns#"
   xmlns:rdf="http://www.w3.org/1999/02/22-rdf-syntax-ns#"
   xmlns:svg="http://www.w3.org/2000/svg"
   xmlns="http://www.w3.org/2000/svg"
   xmlns:sodipodi="http://sodipodi.sourceforge.net/DTD/sodipodi-0.dtd"
   xmlns:inkscape="http://www.inkscape.org/namespaces/inkscape"
   version="1.1"
   x="0px"
   y="0px"
   viewBox="0 0 100 100"
   enable-background="new 0 0 100 100"
   xml:space="preserve"
   id="svg14"
   sodipodi:docname="ic_launcher_maktab-with-name.svg"
   inkscape:version="0.92.5 (2060ec1f9f, 2020-04-08)"
   width="100"
   height="100"><defs
     id="defs18" /><sodipodi:namedview
     pagecolor="#ffffff"
     bordercolor="#666666"
     borderopacity="1"
     objecttolerance="10"
     gridtolerance="10"
     guidetolerance="10"
     inkscape:pageopacity="0"
     inkscape:pageshadow="2"
     inkscape:window-width="1920"
     inkscape:window-height="1043"
     id="namedview16"
     showgrid="false"
     inkscape:zoom="3.776"
     inkscape:cx="116.88626"
     inkscape:cy="29.81253"
     inkscape:window-x="1920"
     inkscape:window-y="0"
     inkscape:window-maximized="1"
     inkscape:current-layer="svg14" /><metadata
     id="metadata2"><ns:sfw><ns:slices /><ns:sliceSourceBounds
         y="17.25"
         x="9.731"
         width="80.537"
         height="64.705"
         bottomLeftOrigin="true" /><ns:optimizationSettings><ns:targetSettings
           targetSettingsID="0"
           fileFormat="GIFFormat"><ns:GIFFormat
             transparency="true"
             lossy="0"
             matteColor="#FFFFFF"
             interlaced="false"
             noMatteColor="false"
             webShiftPercent="0"
             includeCaption="false"
             reductionAlgorithm="selective"
             ditherAlgorithm="diffusion"
             ditherPercent="100"
             numColors="256"
             rolloverMasterPalette="false"
             autoReduce="false"><ns:colorTable
               isExact="false" /><ns:lockedColors /><ns:colorShiftEntries /></ns:GIFFormat></ns:targetSettings></ns:optimizationSettings></ns:sfw><rdf:RDF><cc:Work
         rdf:about=""><dc:format>image/svg+xml</dc:format><dc:type
           rdf:resource="http://purl.org/dc/dcmitype/StillImage" /><dc:title></dc:title></cc:Work></rdf:RDF></metadata><g
     id="g8"
     style="fill:#02a9f4;fill-opacity:1;stroke:none;stroke-opacity:1"
     transform="translate(0,-10.991526)"><path
       d="M 88.722,42.13 52.913,18.854 c -1.66,-1.079 -4.166,-1.08 -5.827,0 L 11.279,42.13 c -0.983,0.639 -1.547,1.594 -1.547,2.62 0,1.026 0.564,1.981 1.547,2.62 L 26,56.939 V 68.75 c 0,5.908 12.074,9 24,9 11.927,0 24,-3.092 24,-9 V 56.939 l 7,-4.551 v 19.217 c -0.376,0.295 -0.705,0.699 -0.96,1.21 l -2.764,5.527 c -0.53,1.062 -0.527,2.17 0.011,3.039 0.537,0.869 1.526,1.368 2.713,1.368 h 5 c 1.187,0 2.176,-0.499 2.713,-1.368 0.538,-0.869 0.541,-1.978 0.011,-3.039 L 84.96,72.815 C 84.705,72.304 84.376,71.9 84,71.605 V 50.439 l 4.722,-3.069 c 0.983,-0.639 1.547,-1.594 1.547,-2.62 0,-1.026 -0.564,-1.981 -1.547,-2.62 z M 85.04,79.685 c 0.012,0.022 0.021,0.044 0.029,0.063 -0.02,10e-4 -0.044,0.002 -0.069,0.002 h -5 c -0.025,0 -0.049,-0.001 -0.069,-0.002 0.008,-0.02 0.018,-0.041 0.029,-0.063 l 2.54,-5.08 z M 71,68.75 c 0,2.446 -8.181,6 -21,6 -12.819,0 -21,-3.554 -21,-6 v -20 c 0,-2.446 8.181,-6 21,-6 12.819,0 21,3.554 21,6 z M 87.087,44.854 81.094,48.75 H 81 v 0.061 l -7,4.55 V 48.75 c 0,-5.909 -12.073,-9 -24,-9 -11.926,0 -24,3.091 -24,9 v 4.611 L 12.914,44.854 c -0.06,-0.039 -0.104,-0.075 -0.135,-0.104 0.031,-0.029 0.075,-0.065 0.135,-0.104 L 48.721,21.37 c 0.658,-0.426 1.9,-0.428 2.557,0 l 35.809,23.275 c 0.061,0.039 0.104,0.075 0.135,0.104 -0.031,0.03 -0.075,0.066 -0.135,0.105 z"
       id="path4"
       style="fill:#02a9f4;fill-opacity:1;stroke:none;stroke-opacity:1"
       inkscape:connector-curvature="0" /><path
       d="M 67.881,63.11 C 63.469,61.293 56.951,60.25 50,60.25 c -6.949,0 -13.466,1.043 -17.881,2.861 -0.511,0.211 -0.754,0.795 -0.544,1.306 0.159,0.386 0.532,0.619 0.925,0.619 0.127,0 0.256,-0.024 0.38,-0.075 4.183,-1.723 10.423,-2.711 17.12,-2.711 6.7,0 12.939,0.987 17.119,2.71 0.513,0.208 1.095,-0.033 1.306,-0.544 0.21,-0.511 -0.033,-1.095 -0.544,-1.306 z"
       id="path6"
       style="fill:#02a9f4;fill-opacity:1;stroke:none;stroke-opacity:1"
       inkscape:connector-curvature="0" /></g><text
     xml:space="preserve"
     style="font-style:normal;font-weight:normal;font-size:40px;line-height:1.25;font-family:sans-serif;letter-spacing:0px;word-spacing:0px;fill:#02a9f4;fill-opacity:1;stroke:none"
     x="7.1504235"
     y="87.552963"
     id="text887"><tspan
       sodipodi:role="line"
       id="tspan885"
       x="7.1504235"
       y="87.552963"
       style="font-size:10.66666698px;fill:#02a9f4;fill-opacity:1">Мактаб Мобайл</tspan></text>
</svg>