<?xml version="1.0" encoding="UTF-8" standalone="no"?>
<svg
   xmlns:dc="http://purl.org/dc/elements/1.1/"
   xmlns:cc="http://creativecommons.org/ns#"
   xmlns:rdf="http://www.w3.org/1999/02/22-rdf-syntax-ns#"
   xmlns:svg="http://www.w3.org/2000/svg"
   xmlns="http://www.w3.org/2000/svg"
   xmlns:sodipodi="http://sodipodi.sourceforge.net/DTD/sodipodi-0.dtd"
   xmlns:inkscape="http://www.inkscape.org/namespaces/inkscape"
   fill="#000000"
   height="24"
   viewBox="0 0 24 24"
   width="24"
   version="1.1"
   id="svg1915"
   sodipodi:docname="ic_queue_download_black_24px.svg"
   inkscape:version="0.92.2 (5c3e80d, 2017-08-06)">
  <metadata
     id="metadata1921">
    <rdf:RDF>
      <cc:Work
         rdf:about="">
        <dc:format>image/svg+xml</dc:format>
        <dc:type
           rdf:resource="http://purl.org/dc/dcmitype/StillImage" />
        <dc:title></dc:title>
      </cc:Work>
    </rdf:RDF>
  </metadata>
  <defs
     id="defs1919" />
  <sodipodi:namedview
     pagecolor="#ffffff"
     bordercolor="#666666"
     borderopacity="1"
     objecttolerance="10"
     gridtolerance="10"
     guidetolerance="10"
     inkscape:pageopacity="0"
     inkscape:pageshadow="2"
     inkscape:window-width="1853"
     inkscape:window-height="1025"
     id="namedview1917"
     showgrid="false"
     showguides="true"
     inkscape:guide-bbox="true"
     inkscape:zoom="19.666667"
     inkscape:cx="12.146167"
     inkscape:cy="3.3104181"
     inkscape:window-x="67"
     inkscape:window-y="27"
     inkscape:window-maximized="1"
     inkscape:current-layer="svg1915"
     inkscape:lockguides="true" />
  <path
     d="M0 0h24v24H0z"
     fill="none"
     id="path1911" />
  <path
     d="m 8.3955004,1.7123633 c -1.1,0 -2,0.9 -2,2 V 15.712364 c 0,1.1 0.9,2 2,2 H 20.3955 c 1.1,0 2,-0.9 2,-2 V 3.7123633 c 0,-1.1 -0.9,-2 -2,-2 z m 3.8183586,1.4394531 h 4.240235 v 4.4707032 h 2.826172 L 14.333,12.837364 9.3876879,7.6225196 H 12.213859 Z M 2.3955004,5.7123633 V 19.712364 c 0,1.1 0.9,2 2,2 H 18.3955 v -2 H 4.3955004 V 5.7123633 Z m 6.453125,8.5546887 H 20.192375 v 1.966796 H 8.8486254 Z"
     id="path1913"
     inkscape:connector-curvature="0" />
</svg>
