<?xml version="1.0" encoding="UTF-8" standalone="no"?>
<svg
   xmlns:dc="http://purl.org/dc/elements/1.1/"
   xmlns:cc="http://creativecommons.org/ns#"
   xmlns:rdf="http://www.w3.org/1999/02/22-rdf-syntax-ns#"
   xmlns:svg="http://www.w3.org/2000/svg"
   xmlns="http://www.w3.org/2000/svg"
   xmlns:sodipodi="http://sodipodi.sourceforge.net/DTD/sodipodi-0.dtd"
   xmlns:inkscape="http://www.inkscape.org/namespaces/inkscape"
   version="1.1"
   x="0px"
   y="0px"
   viewBox="0 0 10 10"
   enable-background="new 0 0 8 8"
   xml:space="preserve"
   id="svg8"
   sodipodi:docname="noun_Empty_666243.svg"
   width="10"
   height="10"
   inkscape:version="0.92.5 (2060ec1f9f, 2020-04-08)"><metadata
     id="metadata14"><rdf:RDF><cc:Work
         rdf:about=""><dc:format>image/svg+xml</dc:format><dc:type
           rdf:resource="http://purl.org/dc/dcmitype/StillImage" /><dc:title></dc:title></cc:Work></rdf:RDF></metadata><defs
     id="defs12" /><sodipodi:namedview
     pagecolor="#ffffff"
     bordercolor="#666666"
     borderopacity="1"
     objecttolerance="10"
     gridtolerance="10"
     guidetolerance="10"
     inkscape:pageopacity="0"
     inkscape:pageshadow="2"
     inkscape:window-width="1848"
     inkscape:window-height="1016"
     id="namedview10"
     showgrid="false"
     inkscape:zoom="33.37544"
     inkscape:cx="13.698938"
     inkscape:cy="4.1061691"
     inkscape:window-x="72"
     inkscape:window-y="27"
     inkscape:window-maximized="1"
     inkscape:current-layer="svg8" /><path
     d="m 8.001,9 h -1 V 8 h 0.75 C 7.889,8 8.001,7.887 8.001,7.75 V 6.998 H 9 V 8 C 9,8.551 8.552,9 8.001,9 Z m 0,-5 H 9 V 5.999 H 8.001 Z m 0,-1.75 C 8.001,2.111 7.889,2 7.751,2 H 7.001 V 0.99999999 h 1 C 8.552,0.99999999 9,1.447 9,2 V 3 H 8.001 Z M 3.999,2 V 0.99999999 h 2 V 2 Z M 2.25,2 C 2.111,2 2,2.111 2,2.25 V 3 H 1 V 2 C 1,1.447 1.448,0.99999999 2,0.99999999 H 3 V 2 Z M 2,5.999 H 1 V 4 H 2 Z M 2,7.75 C 2,7.887 2.111,8 2.25,8 H 3 V 9 H 2 C 1.448,9 1,8.551 1,8 V 6.998 H 2 Z M 5.999,8 v 1 h -2 V 8 Z"
     id="path2"
     inkscape:connector-curvature="0"
     style="clip-rule:evenodd;fill-rule:evenodd" /></svg>