<svg xmlns:x="http://ns.adobe.com/Extensibility/1.0/" xmlns:i="http://ns.adobe.com/AdobeIllustrator/10.0/" xmlns:graph="http://ns.adobe.com/Graphs/1.0/" xmlns="http://www.w3.org/2000/svg" xmlns:xlink="http://www.w3.org/1999/xlink" version="1.1" x="0px" y="0px" viewBox="0 0 100 125" enable-background="new 0 0 100 100" xml:space="preserve"><metadata><sfw xmlns="http://ns.adobe.com/SaveForWeb/1.0/"><slices/><sliceSourceBounds y="17.25" x="9.731" width="80.537" height="64.705" bottomLeftOrigin="true"/><optimizationSettings><targetSettings targetSettingsID="0" fileFormat="GIFFormat"><GIFFormat transparency="true" lossy="0" matteColor="#FFFFFF" interlaced="false" noMatteColor="false" webShiftPercent="0" includeCaption="false" reductionAlgorithm="selective" ditherAlgorithm="diffusion" ditherPercent="100" numColors="256" rolloverMasterPalette="false" autoReduce="false"><colorTable isExact="false"/><lockedColors/><colorShiftEntries/></GIFFormat></targetSettings></optimizationSettings></sfw></metadata><g><path d="M88.722,42.13L52.913,18.854c-1.66-1.079-4.166-1.08-5.827,0L11.279,42.13c-0.983,0.639-1.547,1.594-1.547,2.62   s0.564,1.981,1.547,2.62L26,56.939V68.75c0,5.908,12.074,9,24,9c11.927,0,24-3.092,24-9V56.939l7-4.551v19.217   c-0.376,0.295-0.705,0.699-0.96,1.21l-2.764,5.527c-0.53,1.062-0.527,2.17,0.011,3.039c0.537,0.869,1.526,1.368,2.713,1.368h5   c1.187,0,2.176-0.499,2.713-1.368c0.538-0.869,0.541-1.978,0.011-3.039l-2.764-5.527c-0.255-0.511-0.584-0.915-0.96-1.21V50.439   l4.722-3.069c0.983-0.639,1.547-1.594,1.547-2.62S89.705,42.769,88.722,42.13z M85.04,79.685c0.012,0.022,0.021,0.044,0.029,0.063   C85.049,79.749,85.025,79.75,85,79.75h-5c-0.025,0-0.049-0.001-0.069-0.002c0.008-0.02,0.018-0.041,0.029-0.063l2.54-5.08   L85.04,79.685z M71,68.75c0,2.446-8.181,6-21,6s-21-3.554-21-6v-20c0-2.446,8.181-6,21-6s21,3.554,21,6V68.75z M87.087,44.854   l-5.993,3.896H81v0.061l-7,4.55V48.75c0-5.909-12.073-9-24-9c-11.926,0-24,3.091-24,9v4.611l-13.086-8.507   c-0.06-0.039-0.104-0.075-0.135-0.104c0.031-0.029,0.075-0.065,0.135-0.104L48.721,21.37c0.658-0.426,1.9-0.428,2.557,0   l35.809,23.275c0.061,0.039,0.104,0.075,0.135,0.104C87.191,44.779,87.147,44.815,87.087,44.854z"/><path d="M67.881,63.11c-4.412-1.817-10.93-2.86-17.881-2.86c-6.949,0-13.466,1.043-17.881,2.861   c-0.511,0.211-0.754,0.795-0.544,1.306c0.159,0.386,0.532,0.619,0.925,0.619c0.127,0,0.256-0.024,0.38-0.075   C37.063,63.238,43.303,62.25,50,62.25c6.7,0,12.939,0.987,17.119,2.71c0.513,0.208,1.095-0.033,1.306-0.544   C68.635,63.905,68.392,63.321,67.881,63.11z"/></g><text x="0" y="115" fill="#000000" font-size="5px" font-weight="bold" font-family="'Helvetica Neue', Helvetica, Arial-Unicode, Arial, Sans-serif">Created by Ralf Schmitzer</text><text x="0" y="120" fill="#000000" font-size="5px" font-weight="bold" font-family="'Helvetica Neue', Helvetica, Arial-Unicode, Arial, Sans-serif">from the Noun Project</text></svg>