<?xml version="1.0" encoding="UTF-8" standalone="no"?>
<svg
   xmlns:dc="http://purl.org/dc/elements/1.1/"
   xmlns:cc="http://creativecommons.org/ns#"
   xmlns:rdf="http://www.w3.org/1999/02/22-rdf-syntax-ns#"
   xmlns:svg="http://www.w3.org/2000/svg"
   xmlns="http://www.w3.org/2000/svg"
   xmlns:sodipodi="http://sodipodi.sourceforge.net/DTD/sodipodi-0.dtd"
   xmlns:inkscape="http://www.inkscape.org/namespaces/inkscape"
   height="24"
   viewBox="0 0 24 24"
   width="24"
   version="1.1"
   id="svg3839"
   sodipodi:docname="person_with_key.svg"
   inkscape:version="0.92.5 (2060ec1f9f, 2020-04-08)">
  <metadata
     id="metadata3845">
    <rdf:RDF>
      <cc:Work
         rdf:about="">
        <dc:format>image/svg+xml</dc:format>
        <dc:type
           rdf:resource="http://purl.org/dc/dcmitype/StillImage" />
        <dc:title></dc:title>
      </cc:Work>
    </rdf:RDF>
  </metadata>
  <defs
     id="defs3843" />
  <sodipodi:namedview
     pagecolor="#ffffff"
     bordercolor="#666666"
     borderopacity="1"
     objecttolerance="10"
     gridtolerance="10"
     guidetolerance="10"
     inkscape:pageopacity="0"
     inkscape:pageshadow="2"
     inkscape:window-width="1848"
     inkscape:window-height="1016"
     id="namedview3841"
     showgrid="false"
     inkscape:zoom="12.344906"
     inkscape:cx="8.6968355"
     inkscape:cy="8.625658"
     inkscape:window-x="72"
     inkscape:window-y="27"
     inkscape:window-maximized="1"
     inkscape:current-layer="svg3839" />
  <path
     d="M0 0h24v24H0z"
     fill="none"
     id="path3835" />
  <path
     d="m 14.999999,12.429594 c 2.21,0 4,-1.79 4,-3.9999997 0,-2.21 -1.79,-4 -4,-4 -2.21,0 -4,1.79 -4,4 0,2.2099997 1.79,3.9999997 4,3.9999997 z m 0,2 c -2.67,0 -7.999999,1.34 -7.999999,4 v 2 h 15.999999 v -2 c 0,-2.66 -5.33,-4 -8,-4 z"
     id="path3837"
     inkscape:connector-curvature="0" />
  <path
     inkscape:connector-curvature="0"
     d="M 4.3925454,11.670355 C 4.1537568,10.991846 3.5072803,10.505532 2.7472337,10.505532 1.7833431,10.505532 1,11.288876 1,12.252766 1,13.216657 1.7833431,14 2.7472337,14 3.5072803,14 4.1537568,13.513687 4.3925454,12.835177 H 5.6592898 V 14 h 1.1648224 v -1.164823 h 0.5824113 v -1.164822 z m -1.6453117,1.164822 c -0.3203262,0 -0.5824112,-0.262085 -0.5824112,-0.582411 0,-0.320326 0.262085,-0.582411 0.5824112,-0.582411 0.3203262,0 0.5824112,0.262085 0.5824112,0.582411 0,0.320326 -0.262085,0.582411 -0.5824112,0.582411 z"
     id="path3959"
     style="stroke-width:0.29120561" />
</svg>
